<svg xmlns="http://www.w3.org/2000/svg" width="297.516" height="300" viewBox="0 0 297.516 300">
  <g id="Grupo_1204623" data-name="Grupo 1204623" transform="translate(-651 -3146.965)">
    <path id="Trazado_841627" data-name="Trazado 841627" d="M659.046,239.288H544.71V124.952H659.046Zm-113.606-.729H658.318V125.681H545.44Z" transform="translate(195.49 3116.454)" fill="#e2208a"/>
    <path id="Trazado_1261909" data-name="Trazado 1261909" d="M0,0H76.294V75.66H0Z" transform="translate(761.143 3260.987)" fill="#fff1c4"/>
    <path id="Trazado_1261910" data-name="Trazado 1261910" d="M0,0H38.378V38.058H0Z" transform="translate(779.756 3279.602)" fill="#51bacf"/>
    <path id="Trazado_841628" data-name="Trazado 841628" d="M622.871,0l-2.277,3.608V6.925h-1.442V3.642L616.861,0h1.591l1.414,2.357L621.284,0Z" transform="translate(177.872 3146.965)" fill="#00223d"/>
    <path id="Trazado_841629" data-name="Trazado 841629" d="M810.929,203.371l2.7-3.614-2.621-3.311h1.749l1.725,2.272,1.726-2.272h1.749l-2.621,3.311,2.7,3.614H816.2l-1.72-2.449-1.72,2.449Z" transform="translate(130.485 3098.997)" fill="#00223d"/>
    <path id="Trazado_1261911" data-name="Trazado 1261911" d="M0,0H288.378V2.453H0Z" transform="translate(651 3297.399)" fill="#f7c99c"/>
    <path id="Trazado_1261912" data-name="Trazado 1261912" d="M0,0H.46V9.422H0Z" transform="translate(760.683 3294.195)" fill="#604053"/>
    <path id="Trazado_1261913" data-name="Trazado 1261913" d="M0,0H.46V9.422H0Z" transform="translate(741.609 3294.195)" fill="#604053"/>
    <path id="Trazado_1261914" data-name="Trazado 1261914" d="M0,0H.46V9.422H0Z" transform="translate(779.756 3294.195)" fill="#604053"/>
    <path id="Trazado_1261915" data-name="Trazado 1261915" d="M0,0H.46V9.422H0Z" transform="translate(836.978 3294.195)" fill="#604053"/>
    <path id="Trazado_1261916" data-name="Trazado 1261916" d="M0,0H.46V9.422H0Z" transform="translate(817.904 3294.195)" fill="#604053"/>
    <path id="Trazado_1261917" data-name="Trazado 1261917" d="M0,0H.46V9.422H0Z" transform="translate(856.051 3294.195)" fill="#604053"/>
    <path id="Trazado_1261918" data-name="Trazado 1261918" d="M0,0H.46V9.422H0Z" transform="translate(894.198 3294.195)" fill="#604053"/>
    <path id="Trazado_1261919" data-name="Trazado 1261919" d="M0,0H.46V9.422H0Z" transform="translate(875.125 3294.195)" fill="#604053"/>
    <path id="Trazado_1261920" data-name="Trazado 1261920" d="M0,0H.46V9.422H0Z" transform="translate(913.272 3294.195)" fill="#604053"/>
    <path id="Trazado_1261921" data-name="Trazado 1261921" d="M0,0H.46V9.422H0Z" transform="translate(932.792 3294.195)" fill="#604053"/>
    <path id="Trazado_1261922" data-name="Trazado 1261922" d="M0,0H.46V9.422H0Z" transform="translate(681.567 3294.195)" fill="#604053"/>
    <path id="Trazado_1261923" data-name="Trazado 1261923" d="M0,0H.46V9.422H0Z" transform="translate(662.493 3294.195)" fill="#604053"/>
    <path id="Trazado_1261924" data-name="Trazado 1261924" d="M0,0H.46V9.422H0Z" transform="translate(700.641 3294.195)" fill="#604053"/>
    <path id="Trazado_1261925" data-name="Trazado 1261925" d="M0,0H.46V9.422H0Z" transform="translate(720.161 3294.195)" fill="#604053"/>
    <path id="Trazado_1261926" data-name="Trazado 1261926" d="M0,0H2.453V288.378H0Z" transform="translate(797.45 3158.587)" fill="#f7c99c"/>
    <path id="Trazado_841630" data-name="Trazado 841630" d="M619.748,202.73a3.361,3.361,0,1,1,4.562-1.333,3.361,3.361,0,0,1-4.562,1.333" transform="translate(177.594 3099.004)" fill="#5ec6a3"/>
    <path id="Trazado_1261927" data-name="Trazado 1261927" d="M0,0H9.422V.46H0Z" transform="translate(793.303 3336.821)" fill="#604053"/>
    <path id="Trazado_1261928" data-name="Trazado 1261928" d="M0,0H9.422V.46H0Z" transform="translate(793.303 3355.896)" fill="#604053"/>
    <path id="Trazado_1261929" data-name="Trazado 1261929" d="M0,0H9.422V.46H0Z" transform="translate(793.303 3317.748)" fill="#604053"/>
    <path id="Trazado_1261930" data-name="Trazado 1261930" d="M0,0H9.422V.46H0Z" transform="translate(793.303 3260.527)" fill="#604053"/>
    <path id="Trazado_1261931" data-name="Trazado 1261931" d="M0,0H9.422V.46H0Z" transform="translate(793.303 3279.602)" fill="#604053"/>
    <path id="Trazado_1261932" data-name="Trazado 1261932" d="M0,0H9.422V.46H0Z" transform="translate(793.303 3241.455)" fill="#604053"/>
    <path id="Trazado_1261933" data-name="Trazado 1261933" d="M0,0H9.422V.46H0Z" transform="translate(793.303 3203.307)" fill="#604053"/>
    <path id="Trazado_1261934" data-name="Trazado 1261934" d="M0,0H9.422V.46H0Z" transform="translate(793.303 3222.38)" fill="#604053"/>
    <path id="Trazado_1261935" data-name="Trazado 1261935" d="M0,0H9.422V.46H0Z" transform="translate(793.303 3184.233)" fill="#604053"/>
    <path id="Trazado_1261936" data-name="Trazado 1261936" d="M0,0H9.422V.46H0Z" transform="translate(793.303 3164.712)" fill="#604053"/>
    <path id="Trazado_1261937" data-name="Trazado 1261937" d="M0,0H9.422V.46H0Z" transform="translate(793.303 3415.938)" fill="#604053"/>
    <path id="Trazado_1261938" data-name="Trazado 1261938" d="M0,0H9.422V.46H0Z" transform="translate(793.303 3435.012)" fill="#604053"/>
    <path id="Trazado_1261939" data-name="Trazado 1261939" d="M0,0H9.422V.46H0Z" transform="translate(793.303 3396.863)" fill="#604053"/>
    <path id="Trazado_1261940" data-name="Trazado 1261940" d="M0,0H9.422V.46H0Z" transform="translate(793.303 3377.343)" fill="#604053"/>
    <path id="Trazado_841631" data-name="Trazado 841631" d="M607.769,224.337h.388v3.374h-.41V224.79l-.809.7v-.443Z" transform="translate(180.295 3092.187)" fill="#604053"/>
    <path id="Trazado_841632" data-name="Trazado 841632" d="M606.835,252.275h1.679v.381h-2.276v-.314l1.351-1.4a1.6,1.6,0,0,0,.3-.4.8.8,0,0,0,.084-.347.584.584,0,0,0-.17-.447.694.694,0,0,0-.9.014.745.745,0,0,0-.172.543v.249l-.415-.039v-.208a1.066,1.066,0,0,1,.286-.8,1.18,1.18,0,0,1,1.494-.02.891.891,0,0,1,.286.7,1.054,1.054,0,0,1-.114.488,2.1,2.1,0,0,1-.365.485Z" transform="translate(180.466 3086.107)" fill="#604053"/>
    <path id="Trazado_841633" data-name="Trazado 841633" d="M607.367,277.6q-1.124,0-1.124-1.2l.422-.022a1.056,1.056,0,0,0,.158.635.637.637,0,0,0,.544.211.748.748,0,0,0,.524-.182.615.615,0,0,0,.2-.476.606.606,0,0,0-.193-.475.689.689,0,0,0-.483-.175h-.168v-.352h.163a.5.5,0,0,0,.369-.156.522.522,0,0,0,.153-.383.474.474,0,0,0-.163-.371.6.6,0,0,0-.41-.144.655.655,0,0,0-.269.05.386.386,0,0,0-.172.147.687.687,0,0,0-.086.215,1.269,1.269,0,0,0-.026.273l-.422-.014a1.092,1.092,0,0,1,.253-.774.937.937,0,0,1,.72-.271,1,1,0,0,1,.692.247.789.789,0,0,1,.277.613.739.739,0,0,1-.134.438.773.773,0,0,1-.338.274.922.922,0,0,1,.474.309.865.865,0,0,1,.184.568.927.927,0,0,1-.322.735,1.212,1.212,0,0,1-.823.28" transform="translate(180.465 3080.027)" fill="#604053"/>
    <path id="Trazado_841634" data-name="Trazado 841634" d="M607.769,173.254h.388v3.374h-.41v-2.921l-.809.7v-.443Z" transform="translate(180.295 3104.659)" fill="#604053"/>
    <path id="Trazado_841635" data-name="Trazado 841635" d="M606.835,150.794h1.679v.381h-2.276v-.314l1.351-1.4a1.6,1.6,0,0,0,.3-.4.8.8,0,0,0,.084-.347.584.584,0,0,0-.17-.447.694.694,0,0,0-.9.014.745.745,0,0,0-.172.543v.249l-.415-.039v-.208a1.066,1.066,0,0,1,.286-.8,1.18,1.18,0,0,1,1.494-.02.891.891,0,0,1,.286.7,1.054,1.054,0,0,1-.114.488,2.1,2.1,0,0,1-.365.485Z" transform="translate(180.466 3110.887)" fill="#604053"/>
    <path id="Trazado_841636" data-name="Trazado 841636" d="M607.367,126.8q-1.124,0-1.124-1.2l.422-.022a1.056,1.056,0,0,0,.158.635.637.637,0,0,0,.544.211.748.748,0,0,0,.524-.182.615.615,0,0,0,.2-.476.607.607,0,0,0-.193-.475.69.69,0,0,0-.483-.175h-.168v-.352h.163a.5.5,0,0,0,.369-.156.522.522,0,0,0,.153-.383.474.474,0,0,0-.163-.371.6.6,0,0,0-.41-.144.655.655,0,0,0-.269.05.386.386,0,0,0-.172.147.687.687,0,0,0-.086.215,1.269,1.269,0,0,0-.026.273l-.422-.014a1.091,1.091,0,0,1,.253-.774.937.937,0,0,1,.72-.271,1,1,0,0,1,.692.247.789.789,0,0,1,.277.613.736.736,0,0,1-.134.438.762.762,0,0,1-.338.274.923.923,0,0,1,.474.31.864.864,0,0,1,.184.568.927.927,0,0,1-.322.735,1.211,1.211,0,0,1-.823.28" transform="translate(180.465 3116.85)" fill="#604053"/>
    <path id="Trazado_841637" data-name="Trazado 841637" d="M608.573,304.958v.366h-.5v.651h-.4v-.651h-1.549v-.368l1.347-2.219h.6v2.221Zm-2.035,0h1.138v-1.929Z" transform="translate(180.493 3073.043)" fill="#604053"/>
    <path id="Trazado_841638" data-name="Trazado 841638" d="M607.3,329.36a1.252,1.252,0,0,1,.883.273.986.986,0,0,1,.292.76,1.074,1.074,0,0,1-.3.788,1.053,1.053,0,0,1-.785.3,1.242,1.242,0,0,1-.406-.066,1.09,1.09,0,0,1-.343-.188.871.871,0,0,1-.239-.319,1.049,1.049,0,0,1-.088-.437,1.512,1.512,0,0,1,.011-.166l.407-.034a1.694,1.694,0,0,0-.019.181.73.73,0,0,0,.059.3.52.52,0,0,0,.157.206.709.709,0,0,0,.213.111.761.761,0,0,0,.24.037.662.662,0,0,0,.5-.2.7.7,0,0,0,.19-.508.67.67,0,0,0-.2-.51.882.882,0,0,0-.622-.187h-.819l.2-1.5h1.7v.37h-1.361l-.106.779Z" transform="translate(180.447 3066.823)" fill="#604053"/>
    <path id="Trazado_841639" data-name="Trazado 841639" d="M608.5,355.6a1.092,1.092,0,0,1-.147.582,1.034,1.034,0,0,1-.407.4,1.157,1.157,0,0,1-.561.138,1.133,1.133,0,0,1-.8-.3,1.028,1.028,0,0,1-.323-.785,1.271,1.271,0,0,1,.28-.777l1.082-1.407h.469l-.9,1.134a1.017,1.017,0,0,1,.28-.039,1.034,1.034,0,0,1,.5.124.993.993,0,0,1,.379.372,1.108,1.108,0,0,1,.153.568m-1.124.745a.7.7,0,0,0,.735-.752.711.711,0,0,0-.742-.747.7.7,0,0,0-.529.222.744.744,0,0,0-.2.541.716.716,0,0,0,.209.54.738.738,0,0,0,.532.2" transform="translate(180.461 3060.662)" fill="#604053"/>
    <path id="Trazado_841640" data-name="Trazado 841640" d="M606.28,378.783h2.214v.333l-1.581,2.9h-.456l1.6-2.869H606.28Z" transform="translate(180.456 3054.475)" fill="#604053"/>
    <path id="Trazado_841641" data-name="Trazado 841641" d="M608.573,99.858v.366h-.5v.651h-.4v-.651h-1.549v-.368l1.347-2.219h.6v2.221Zm-2.035,0h1.138V97.929Z" transform="translate(180.493 3123.124)" fill="#604053"/>
    <path id="Trazado_841642" data-name="Trazado 841642" d="M607.3,73.832a1.253,1.253,0,0,1,.883.273.986.986,0,0,1,.292.76,1.074,1.074,0,0,1-.3.788,1.053,1.053,0,0,1-.785.3,1.241,1.241,0,0,1-.406-.066,1.089,1.089,0,0,1-.343-.188.87.87,0,0,1-.239-.319,1.049,1.049,0,0,1-.088-.437,1.512,1.512,0,0,1,.011-.166l.407-.034a1.694,1.694,0,0,0-.019.181.73.73,0,0,0,.059.3.52.52,0,0,0,.157.206.709.709,0,0,0,.213.111.762.762,0,0,0,.24.037.662.662,0,0,0,.5-.2.7.7,0,0,0,.19-.508.67.67,0,0,0-.2-.51.882.882,0,0,0-.622-.187h-.819l.2-1.5h1.7v.37h-1.361l-.106.779Z" transform="translate(180.447 3129.218)" fill="#604053"/>
    <path id="Trazado_841643" data-name="Trazado 841643" d="M608.5,49.886a1.092,1.092,0,0,1-.147.582,1.034,1.034,0,0,1-.407.4,1.157,1.157,0,0,1-.561.138,1.133,1.133,0,0,1-.8-.3,1.029,1.029,0,0,1-.323-.785,1.27,1.27,0,0,1,.28-.777l1.082-1.407h.469l-.9,1.134a1.017,1.017,0,0,1,.28-.039,1.034,1.034,0,0,1,.5.124.993.993,0,0,1,.379.372,1.107,1.107,0,0,1,.153.568m-1.124.745a.725.725,0,0,0,.532-.206.718.718,0,0,0,.2-.546.711.711,0,0,0-.742-.747.7.7,0,0,0-.529.222.744.744,0,0,0-.2.541.716.716,0,0,0,.209.54.739.739,0,0,0,.532.2" transform="translate(180.461 3135.312)" fill="#604053"/>
    <path id="Trazado_841644" data-name="Trazado 841644" d="M606.28,21.644h2.214v.333l-1.581,2.9h-.456l1.6-2.869H606.28Z" transform="translate(180.456 3141.68)" fill="#604053"/>
    <path id="Trazado_841645" data-name="Trazado 841645" d="M647.186,212.188h.388v3.374h-.41v-2.921l-.809.7V212.9Z" transform="translate(170.67 3095.153)" fill="#604053"/>
    <path id="Trazado_841646" data-name="Trazado 841646" d="M672.426,215.2h1.679v.381H671.83v-.314l1.351-1.4a1.582,1.582,0,0,0,.3-.4.8.8,0,0,0,.084-.347.584.584,0,0,0-.17-.447.693.693,0,0,0-.9.014.745.745,0,0,0-.172.543v.249l-.415-.039v-.208a1.066,1.066,0,0,1,.286-.8,1.18,1.18,0,0,1,1.494-.02.891.891,0,0,1,.286.7,1.064,1.064,0,0,1-.113.488,2.133,2.133,0,0,1-.366.485Z" transform="translate(164.45 3095.161)" fill="#604053"/>
    <path id="Trazado_841647" data-name="Trazado 841647" d="M695.653,215.593q-1.124,0-1.124-1.2l.422-.022a1.056,1.056,0,0,0,.158.635.637.637,0,0,0,.544.211.748.748,0,0,0,.524-.182.615.615,0,0,0,.2-.476.607.607,0,0,0-.193-.475.689.689,0,0,0-.483-.175h-.168v-.352h.163a.5.5,0,0,0,.369-.156.522.522,0,0,0,.153-.383.474.474,0,0,0-.162-.371.6.6,0,0,0-.41-.144.655.655,0,0,0-.269.05.387.387,0,0,0-.172.147.688.688,0,0,0-.086.215,1.273,1.273,0,0,0-.026.273l-.422-.014a1.092,1.092,0,0,1,.253-.774.937.937,0,0,1,.72-.271,1,1,0,0,1,.692.247.787.787,0,0,1,.277.613.74.74,0,0,1-.134.438.773.773,0,0,1-.338.274.922.922,0,0,1,.474.309.864.864,0,0,1,.185.568.927.927,0,0,1-.322.735,1.212,1.212,0,0,1-.823.28" transform="translate(158.907 3095.168)" fill="#604053"/>
    <path id="Trazado_841648" data-name="Trazado 841648" d="M597.972,212.188h.388v3.374h-.41v-2.921l-.809.7V212.9Z" transform="translate(182.687 3095.153)" fill="#604053"/>
    <path id="Trazado_841649" data-name="Trazado 841649" d="M571.568,215.2h1.679v.381h-2.276v-.314l1.351-1.4a1.586,1.586,0,0,0,.3-.4.8.8,0,0,0,.084-.347.584.584,0,0,0-.17-.447.693.693,0,0,0-.9.014.745.745,0,0,0-.172.543v.249l-.415-.039v-.208a1.066,1.066,0,0,1,.286-.8,1.18,1.18,0,0,1,1.494-.02.891.891,0,0,1,.286.7,1.062,1.062,0,0,1-.113.488,2.127,2.127,0,0,1-.366.485Z" transform="translate(189.077 3095.161)" fill="#604053"/>
    <path id="Trazado_841650" data-name="Trazado 841650" d="M543.347,215.593q-1.124,0-1.124-1.2l.422-.022a1.057,1.057,0,0,0,.158.635.637.637,0,0,0,.544.211.748.748,0,0,0,.524-.182.615.615,0,0,0,.2-.476.606.606,0,0,0-.193-.475.689.689,0,0,0-.483-.175h-.168v-.352h.163a.5.5,0,0,0,.369-.156.522.522,0,0,0,.153-.383.474.474,0,0,0-.163-.371.6.6,0,0,0-.41-.144.656.656,0,0,0-.269.05.386.386,0,0,0-.172.147.688.688,0,0,0-.086.215,1.269,1.269,0,0,0-.026.273l-.422-.014a1.092,1.092,0,0,1,.253-.774.937.937,0,0,1,.72-.271,1,1,0,0,1,.692.247.787.787,0,0,1,.277.613.74.74,0,0,1-.134.438.773.773,0,0,1-.338.274.922.922,0,0,1,.474.309.864.864,0,0,1,.184.568.927.927,0,0,1-.322.735,1.212,1.212,0,0,1-.823.28" transform="translate(196.097 3095.168)" fill="#604053"/>
    <path id="Trazado_841651" data-name="Trazado 841651" d="M724.43,214.5v.366h-.5v.651h-.4v-.651h-1.549V214.5l1.347-2.219h.6V214.5Zm-2.034,0h1.137V212.57Z" transform="translate(152.203 3095.131)" fill="#604053"/>
    <path id="Trazado_841652" data-name="Trazado 841652" d="M748.033,213.4a1.253,1.253,0,0,1,.883.273.986.986,0,0,1,.292.76,1.074,1.074,0,0,1-.3.788,1.052,1.052,0,0,1-.784.3,1.242,1.242,0,0,1-.406-.066,1.089,1.089,0,0,1-.343-.188.868.868,0,0,1-.239-.319,1.048,1.048,0,0,1-.088-.437,1.512,1.512,0,0,1,.011-.166l.407-.034a1.707,1.707,0,0,0-.019.181.73.73,0,0,0,.059.3.522.522,0,0,0,.157.206.711.711,0,0,0,.213.111.762.762,0,0,0,.24.037.662.662,0,0,0,.5-.2.7.7,0,0,0,.19-.508.67.67,0,0,0-.2-.51.882.882,0,0,0-.622-.187h-.819l.2-1.5h1.7v.37h-1.361l-.106.779Z" transform="translate(146.083 3095.137)" fill="#604053"/>
    <path id="Trazado_841653" data-name="Trazado 841653" d="M774.466,214.413a1.093,1.093,0,0,1-.147.582,1.028,1.028,0,0,1-.407.4,1.157,1.157,0,0,1-.561.138,1.13,1.13,0,0,1-.8-.3,1.029,1.029,0,0,1-.324-.785,1.27,1.27,0,0,1,.28-.777l1.082-1.407h.469l-.9,1.134a1.018,1.018,0,0,1,.28-.039,1.034,1.034,0,0,1,.5.124.993.993,0,0,1,.379.372,1.115,1.115,0,0,1,.154.568m-1.125.745a.7.7,0,0,0,.735-.752.71.71,0,0,0-.742-.747.7.7,0,0,0-.529.222.744.744,0,0,0-.2.541.713.713,0,0,0,.208.54.738.738,0,0,0,.532.2" transform="translate(139.936 3095.137)" fill="#604053"/>
    <path id="Trazado_841654" data-name="Trazado 841654" d="M797.561,212.279h2.214v.333l-1.581,2.9h-.456l1.6-2.869h-1.772Z" transform="translate(133.749 3095.131)" fill="#604053"/>
    <path id="Trazado_841655" data-name="Trazado 841655" d="M518.708,214.5v.366h-.5v.651h-.4v-.651h-1.549V214.5l1.347-2.219h.6V214.5Zm-2.035,0h1.138V212.57Z" transform="translate(202.436 3095.131)" fill="#604053"/>
    <path id="Trazado_841656" data-name="Trazado 841656" d="M492.505,213.4a1.252,1.252,0,0,1,.883.273.986.986,0,0,1,.292.76,1.074,1.074,0,0,1-.3.788,1.053,1.053,0,0,1-.785.3,1.241,1.241,0,0,1-.406-.066,1.09,1.09,0,0,1-.343-.188.87.87,0,0,1-.239-.319,1.047,1.047,0,0,1-.088-.437,1.52,1.52,0,0,1,.011-.166l.407-.034a1.718,1.718,0,0,0-.019.181.731.731,0,0,0,.059.3.521.521,0,0,0,.157.206.709.709,0,0,0,.213.111.76.76,0,0,0,.24.037.662.662,0,0,0,.5-.2.7.7,0,0,0,.19-.508.669.669,0,0,0-.2-.51.882.882,0,0,0-.622-.187h-.819l.2-1.5h1.7v.37h-1.361l-.106.779Z" transform="translate(208.478 3095.137)" fill="#604053"/>
    <path id="Trazado_841657" data-name="Trazado 841657" d="M467.507,214.413a1.1,1.1,0,0,1-.147.582,1.029,1.029,0,0,1-.407.4,1.157,1.157,0,0,1-.561.138,1.13,1.13,0,0,1-.8-.3,1.029,1.029,0,0,1-.324-.785,1.27,1.27,0,0,1,.28-.777l1.082-1.407h.469l-.9,1.134a1.017,1.017,0,0,1,.28-.039,1.034,1.034,0,0,1,.5.124.994.994,0,0,1,.379.372,1.115,1.115,0,0,1,.154.568m-1.125.745a.7.7,0,0,0,.735-.752.71.71,0,0,0-.742-.747.7.7,0,0,0-.529.222.744.744,0,0,0-.2.541.713.713,0,0,0,.208.54.739.739,0,0,0,.532.2" transform="translate(214.889 3095.137)" fill="#604053"/>
    <path id="Trazado_841658" data-name="Trazado 841658" d="M440.421,212.279h2.214v.333l-1.581,2.9H440.6l1.6-2.869h-1.772Z" transform="translate(220.955 3095.131)" fill="#604053"/>
    <path id="Trazado_1261941" data-name="Trazado 1261941" d="M4.806-4.026H2.468V0H1.148V-9.953H4.443a3.9,3.9,0,0,1,2.587.766,2.755,2.755,0,0,1,.906,2.229,2.68,2.68,0,0,1-.5,1.62,3,3,0,0,1-1.4,1.032L8.374-.082V0H6.966ZM2.468-5.1H4.484A2.275,2.275,0,0,0,6.04-5.606a1.714,1.714,0,0,0,.578-1.356,1.8,1.8,0,0,0-.55-1.418,2.33,2.33,0,0,0-1.589-.5H2.468ZM12.646.137A3.232,3.232,0,0,1,10.2-.851a3.666,3.666,0,0,1-.943-2.642v-.232a4.438,4.438,0,0,1,.42-1.965,3.28,3.28,0,0,1,1.176-1.354,2.956,2.956,0,0,1,1.637-.489,2.77,2.77,0,0,1,2.242.95,4.114,4.114,0,0,1,.8,2.721v.526H10.521a2.629,2.629,0,0,0,.639,1.767A2.009,2.009,0,0,0,12.715-.9a2.2,2.2,0,0,0,1.135-.273,2.851,2.851,0,0,0,.813-.725l.772.6A3.106,3.106,0,0,1,12.646.137Zm-.157-6.631a1.687,1.687,0,0,0-1.285.557,2.708,2.708,0,0,0-.643,1.562h3.705v-.1a2.409,2.409,0,0,0-.52-1.494A1.588,1.588,0,0,0,12.489-6.494ZM21.3-1.962a.931.931,0,0,0-.386-.8,3.718,3.718,0,0,0-1.347-.489,6.367,6.367,0,0,1-1.524-.492,2.169,2.169,0,0,1-.834-.684,1.635,1.635,0,0,1-.27-.943A1.919,1.919,0,0,1,17.708-6.9a3,3,0,0,1,1.965-.629,3.091,3.091,0,0,1,2.041.649A2.063,2.063,0,0,1,22.5-5.223H21.226a1.142,1.142,0,0,0-.441-.9,1.652,1.652,0,0,0-1.111-.376,1.729,1.729,0,0,0-1.08.3.947.947,0,0,0-.39.786.767.767,0,0,0,.362.69,4.458,4.458,0,0,0,1.309.444,6.821,6.821,0,0,1,1.535.506,2.239,2.239,0,0,1,.872.708,1.74,1.74,0,0,1,.284,1.008,1.893,1.893,0,0,1-.793,1.589,3.326,3.326,0,0,1-2.058.6,3.725,3.725,0,0,1-1.572-.314,2.557,2.557,0,0,1-1.07-.878,2.117,2.117,0,0,1-.386-1.22h1.265a1.309,1.309,0,0,0,.509,1.008A1.976,1.976,0,0,0,19.715-.9a2.039,2.039,0,0,0,1.152-.291A.893.893,0,0,0,21.3-1.962Zm7.479,1.23a2.686,2.686,0,0,1-2.167.868,2.3,2.3,0,0,1-1.8-.687,2.974,2.974,0,0,1-.625-2.034V-7.4H25.45v4.778q0,1.682,1.367,1.682a1.893,1.893,0,0,0,1.928-1.08V-7.4H30.01V0h-1.2ZM33.3,0H32.04V-10.5H33.3Zm3.739-9.187V-7.4h1.381v.978H37.044v4.593a1.027,1.027,0,0,0,.185.667.777.777,0,0,0,.629.222,3.062,3.062,0,0,0,.6-.082V0a3.688,3.688,0,0,1-.971.136A1.575,1.575,0,0,1,36.21-.376a2.2,2.2,0,0,1-.431-1.456V-6.419H34.433V-7.4h1.347V-9.187ZM44.468,0a2.657,2.657,0,0,1-.178-.779,2.822,2.822,0,0,1-2.105.916A2.611,2.611,0,0,1,40.39-.482a2,2,0,0,1-.7-1.569,2.091,2.091,0,0,1,.878-1.794,4.142,4.142,0,0,1,2.471-.639h1.23v-.581a1.42,1.42,0,0,0-.4-1.056A1.593,1.593,0,0,0,42.7-6.515a1.844,1.844,0,0,0-1.135.342,1.007,1.007,0,0,0-.458.827H39.84a1.745,1.745,0,0,1,.393-1.07A2.683,2.683,0,0,1,41.3-7.232a3.588,3.588,0,0,1,1.48-.3,2.924,2.924,0,0,1,2,.639,2.306,2.306,0,0,1,.752,1.76v3.4a4.162,4.162,0,0,0,.26,1.62V0Zm-2.1-.964A2.223,2.223,0,0,0,43.5-1.271a1.861,1.861,0,0,0,.772-.8V-3.589h-.991q-2.324,0-2.324,1.36a1.151,1.151,0,0,0,.4.93A1.524,1.524,0,0,0,42.369-.964Zm4.84-2.8A4.333,4.333,0,0,1,48.016-6.5a2.551,2.551,0,0,1,2.112-1.036,2.565,2.565,0,0,1,2.058.889V-10.5H53.45V0H52.288l-.062-.793a2.575,2.575,0,0,1-2.112.93,2.526,2.526,0,0,1-2.1-1.053,4.382,4.382,0,0,1-.81-2.748Zm1.265.144a3.281,3.281,0,0,0,.52,1.969,1.68,1.68,0,0,0,1.436.711,1.845,1.845,0,0,0,1.757-1.08v-3.4A1.859,1.859,0,0,0,50.442-6.46a1.687,1.687,0,0,0-1.449.718A3.612,3.612,0,0,0,48.474-3.616Zm6.6-.15A4.369,4.369,0,0,1,55.5-5.722a3.187,3.187,0,0,1,1.189-1.34,3.238,3.238,0,0,1,1.74-.472,3.119,3.119,0,0,1,2.444,1.046,4.024,4.024,0,0,1,.933,2.782v.089A4.407,4.407,0,0,1,61.4-1.678,3.14,3.14,0,0,1,60.214-.342a3.275,3.275,0,0,1-1.767.479A3.111,3.111,0,0,1,56.01-.909a4,4,0,0,1-.933-2.769Zm1.271.15a3.164,3.164,0,0,0,.571,1.976A1.827,1.827,0,0,0,58.447-.9a1.816,1.816,0,0,0,1.531-.755,3.46,3.46,0,0,0,.567-2.116,3.159,3.159,0,0,0-.578-1.972,1.836,1.836,0,0,0-1.535-.755,1.816,1.816,0,0,0-1.511.745A3.434,3.434,0,0,0,56.349-3.616Z" transform="translate(694.149 3201.335)" fill="#12263f"/>
    <path id="Trazado_1261942" data-name="Trazado 1261942" d="M0,0H10.035V9.952H0Z" transform="translate(825.651 3373.089)" fill="#51bacf"/>
    <path id="Trazado_1261943" data-name="Trazado 1261943" d="M0,0H10.035V9.952H0Z" transform="translate(825.651 3392.138)" fill="#f6e094"/>
    <path id="Trazado_1261944" data-name="Trazado 1261944" d="M0,0H10.035V9.952H0Z" transform="translate(825.651 3411.188)" fill="#e2208a"/>
    <path id="Trazado_1261945" data-name="Trazado 1261945" d="M2.468-3.9V0H1.155V-9.953H4.826a3.688,3.688,0,0,1,2.56.834,2.827,2.827,0,0,1,.926,2.208,2.79,2.79,0,0,1-.906,2.232A3.853,3.853,0,0,1,4.813-3.9Zm0-1.073H4.826a2.358,2.358,0,0,0,1.613-.5A1.815,1.815,0,0,0,7-6.9a1.876,1.876,0,0,0-.561-1.424A2.209,2.209,0,0,0,4.9-8.88H2.468ZM12.858.137a3.232,3.232,0,0,1-2.447-.988,3.666,3.666,0,0,1-.943-2.642v-.232a4.438,4.438,0,0,1,.42-1.965,3.28,3.28,0,0,1,1.176-1.354A2.956,2.956,0,0,1,12.7-7.533a2.77,2.77,0,0,1,2.242.95,4.114,4.114,0,0,1,.8,2.721v.526H10.732a2.629,2.629,0,0,0,.639,1.767A2.009,2.009,0,0,0,12.927-.9a2.2,2.2,0,0,0,1.135-.273,2.851,2.851,0,0,0,.813-.725l.772.6A3.106,3.106,0,0,1,12.858.137ZM12.7-6.494a1.687,1.687,0,0,0-1.285.557,2.708,2.708,0,0,0-.643,1.562h3.705v-.1a2.409,2.409,0,0,0-.52-1.494A1.588,1.588,0,0,0,12.7-6.494ZM16.9-3.76a4.341,4.341,0,0,1,.8-2.758,2.592,2.592,0,0,1,2.146-1.015,2.59,2.59,0,0,1,2.071.882l.055-.745h1.162V2.844H21.868V-.684a2.654,2.654,0,0,1-2.037.82A2.551,2.551,0,0,1,17.695-.906a4.438,4.438,0,0,1-.8-2.765Zm1.265.144a3.291,3.291,0,0,0,.537,2A1.707,1.707,0,0,0,20.146-.9a1.894,1.894,0,0,0,1.723-1V-5.517a1.9,1.9,0,0,0-1.709-.978,1.72,1.72,0,0,0-1.456.728A3.583,3.583,0,0,0,18.163-3.616ZM29.729-.731a2.686,2.686,0,0,1-2.167.868,2.3,2.3,0,0,1-1.8-.687,2.974,2.974,0,0,1-.625-2.034V-7.4H26.4v4.778q0,1.682,1.367,1.682A1.893,1.893,0,0,0,29.7-2.017V-7.4H30.96V0h-1.2ZM35.95.137A3.232,3.232,0,0,1,33.5-.851a3.666,3.666,0,0,1-.943-2.642v-.232a4.438,4.438,0,0,1,.42-1.965,3.28,3.28,0,0,1,1.176-1.354,2.956,2.956,0,0,1,1.637-.489,2.77,2.77,0,0,1,2.242.95,4.114,4.114,0,0,1,.8,2.721v.526H33.824a2.629,2.629,0,0,0,.639,1.767A2.009,2.009,0,0,0,36.019-.9a2.2,2.2,0,0,0,1.135-.273,2.851,2.851,0,0,0,.813-.725l.772.6A3.106,3.106,0,0,1,35.95.137Zm-.157-6.631a1.687,1.687,0,0,0-1.285.557,2.708,2.708,0,0,0-.643,1.562H37.57v-.1a2.409,2.409,0,0,0-.52-1.494A1.588,1.588,0,0,0,35.793-6.494Zm5.7-.9.041.93A2.7,2.7,0,0,1,43.75-7.533q2.345,0,2.365,2.646V0H44.851V-4.895a1.7,1.7,0,0,0-.366-1.183,1.466,1.466,0,0,0-1.118-.383,1.825,1.825,0,0,0-1.08.328,2.228,2.228,0,0,0-.725.861V0H40.3V-7.4Zm4.184-2.885a1.7,1.7,0,0,1-.42,1.2,1.365,1.365,0,0,1-1.049.458,1.54,1.54,0,0,1-.485-.068,2.619,2.619,0,0,1-.537-.28,2.324,2.324,0,0,0-.479-.256,1.171,1.171,0,0,0-.338-.044.627.627,0,0,0-.479.215.781.781,0,0,0-.2.55l-.848-.048a1.784,1.784,0,0,1,.414-1.21,1.326,1.326,0,0,1,1.049-.479,1.275,1.275,0,0,1,.431.068,3.139,3.139,0,0,1,.52.267,3.057,3.057,0,0,0,.5.26,1.154,1.154,0,0,0,.386.062.612.612,0,0,0,.489-.232.815.815,0,0,0,.195-.54Zm2.01,6.515a4.369,4.369,0,0,1,.427-1.955A3.187,3.187,0,0,1,49.3-7.062a3.238,3.238,0,0,1,1.74-.472,3.119,3.119,0,0,1,2.444,1.046,4.024,4.024,0,0,1,.933,2.782v.089a4.407,4.407,0,0,1-.414,1.938A3.14,3.14,0,0,1,52.825-.342a3.275,3.275,0,0,1-1.767.479A3.111,3.111,0,0,1,48.621-.909a4,4,0,0,1-.933-2.769Zm1.271.15a3.164,3.164,0,0,0,.571,1.976A1.827,1.827,0,0,0,51.058-.9a1.816,1.816,0,0,0,1.531-.755,3.46,3.46,0,0,0,.567-2.116,3.159,3.159,0,0,0-.578-1.972,1.836,1.836,0,0,0-1.535-.755,1.816,1.816,0,0,0-1.511.745A3.434,3.434,0,0,0,48.959-3.616Z" transform="translate(841.454 3382.493)" fill="#12263f"/>
    <path id="Trazado_1261946" data-name="Trazado 1261946" d="M2.851-9.953,6.1-1.832,9.358-9.953h1.7V0H9.748V-3.876L9.871-8.06,6.6,0h-1L2.338-8.039l.13,4.163V0H1.155V-9.953ZM16.249.137A3.232,3.232,0,0,1,13.8-.851a3.666,3.666,0,0,1-.943-2.642v-.232a4.438,4.438,0,0,1,.42-1.965,3.28,3.28,0,0,1,1.176-1.354,2.956,2.956,0,0,1,1.637-.489,2.77,2.77,0,0,1,2.242.95,4.114,4.114,0,0,1,.8,2.721v.526H14.123a2.629,2.629,0,0,0,.639,1.767A2.009,2.009,0,0,0,16.317-.9a2.2,2.2,0,0,0,1.135-.273,2.851,2.851,0,0,0,.813-.725l.772.6A3.106,3.106,0,0,1,16.249.137Zm-.157-6.631a1.687,1.687,0,0,0-1.285.557,2.708,2.708,0,0,0-.643,1.562h3.705v-.1a2.409,2.409,0,0,0-.52-1.494A1.588,1.588,0,0,0,16.092-6.494Zm4.2,2.734A4.333,4.333,0,0,1,21.1-6.5a2.551,2.551,0,0,1,2.112-1.036,2.565,2.565,0,0,1,2.058.889V-10.5H26.53V0H25.368l-.062-.793a2.575,2.575,0,0,1-2.112.93A2.526,2.526,0,0,1,21.1-.916a4.382,4.382,0,0,1-.81-2.748Zm1.265.144a3.281,3.281,0,0,0,.52,1.969,1.68,1.68,0,0,0,1.436.711,1.845,1.845,0,0,0,1.757-1.08v-3.4A1.859,1.859,0,0,0,23.522-6.46a1.687,1.687,0,0,0-1.449.718A3.612,3.612,0,0,0,21.554-3.616ZM29.866,0H28.6V-7.4h1.265ZM28.5-9.358a.755.755,0,0,1,.188-.52.706.706,0,0,1,.557-.212.717.717,0,0,1,.561.212.747.747,0,0,1,.191.52.722.722,0,0,1-.191.513.73.73,0,0,1-.561.205.718.718,0,0,1-.557-.205A.73.73,0,0,1,28.5-9.358ZM36.456,0a2.657,2.657,0,0,1-.178-.779,2.822,2.822,0,0,1-2.105.916,2.611,2.611,0,0,1-1.794-.619,2,2,0,0,1-.7-1.569,2.091,2.091,0,0,1,.878-1.794,4.142,4.142,0,0,1,2.471-.639h1.23v-.581a1.42,1.42,0,0,0-.4-1.056,1.593,1.593,0,0,0-1.169-.393,1.844,1.844,0,0,0-1.135.342,1.007,1.007,0,0,0-.458.827H31.828a1.745,1.745,0,0,1,.393-1.07,2.683,2.683,0,0,1,1.066-.817,3.588,3.588,0,0,1,1.48-.3,2.924,2.924,0,0,1,2,.639,2.306,2.306,0,0,1,.752,1.76v3.4a4.162,4.162,0,0,0,.26,1.62V0Zm-2.1-.964a2.223,2.223,0,0,0,1.128-.308,1.861,1.861,0,0,0,.772-.8V-3.589h-.991q-2.324,0-2.324,1.36a1.151,1.151,0,0,0,.4.93A1.524,1.524,0,0,0,34.357-.964ZM40.7-7.4l.041.93a2.7,2.7,0,0,1,2.215-1.066q2.345,0,2.365,2.646V0H44.058V-4.895a1.7,1.7,0,0,0-.366-1.183,1.466,1.466,0,0,0-1.118-.383,1.825,1.825,0,0,0-1.08.328,2.228,2.228,0,0,0-.725.861V0H39.5V-7.4Zm6.193,3.63a4.369,4.369,0,0,1,.427-1.955,3.187,3.187,0,0,1,1.189-1.34,3.238,3.238,0,0,1,1.74-.472,3.119,3.119,0,0,1,2.444,1.046,4.024,4.024,0,0,1,.933,2.782v.089a4.407,4.407,0,0,1-.414,1.938A3.14,3.14,0,0,1,52.032-.342a3.275,3.275,0,0,1-1.767.479A3.111,3.111,0,0,1,47.828-.909a4,4,0,0,1-.933-2.769Zm1.271.15a3.164,3.164,0,0,0,.571,1.976A1.827,1.827,0,0,0,50.265-.9,1.816,1.816,0,0,0,51.8-1.651a3.46,3.46,0,0,0,.567-2.116,3.159,3.159,0,0,0-.578-1.972,1.836,1.836,0,0,0-1.535-.755,1.816,1.816,0,0,0-1.511.745A3.434,3.434,0,0,0,48.166-3.616Z" transform="translate(841.454 3401.138)" fill="#12263f"/>
    <path id="Trazado_1261947" data-name="Trazado 1261947" d="M8.5-1.306A3.032,3.032,0,0,1,7.092-.222,5.7,5.7,0,0,1,4.983.137a4.09,4.09,0,0,1-2.16-.571A3.8,3.8,0,0,1,1.364-2.058,5.607,5.607,0,0,1,.834-4.5v-.868A5.234,5.234,0,0,1,1.883-8.853a3.656,3.656,0,0,1,2.95-1.237,3.777,3.777,0,0,1,2.509.8A3.469,3.469,0,0,1,8.5-7.034H7.191A2.17,2.17,0,0,0,4.84-9.017a2.323,2.323,0,0,0-2,.927A4.526,4.526,0,0,0,2.153-5.4v.814a4.242,4.242,0,0,0,.766,2.665A2.482,2.482,0,0,0,4.99-.937,4.575,4.575,0,0,0,6.282-1.1,2,2,0,0,0,7.2-1.653v-2.23h-2.3V-4.956H8.5Zm5.564-4.956a3.79,3.79,0,0,0-.622-.048,1.667,1.667,0,0,0-1.688,1.06V0H10.493V-7.4h1.23l.021.854a1.969,1.969,0,0,1,1.764-.991,1.292,1.292,0,0,1,.561.1ZM19.523,0a2.657,2.657,0,0,1-.178-.779A2.822,2.822,0,0,1,17.24.137a2.611,2.611,0,0,1-1.794-.619,2,2,0,0,1-.7-1.569,2.091,2.091,0,0,1,.878-1.794,4.142,4.142,0,0,1,2.471-.639h1.23v-.581a1.42,1.42,0,0,0-.4-1.056,1.593,1.593,0,0,0-1.169-.393,1.844,1.844,0,0,0-1.135.342,1.007,1.007,0,0,0-.458.827H14.9a1.745,1.745,0,0,1,.393-1.07,2.683,2.683,0,0,1,1.066-.817,3.588,3.588,0,0,1,1.48-.3,2.924,2.924,0,0,1,2,.639,2.306,2.306,0,0,1,.752,1.76v3.4a4.162,4.162,0,0,0,.26,1.62V0Zm-2.1-.964a2.223,2.223,0,0,0,1.128-.308,1.861,1.861,0,0,0,.772-.8V-3.589h-.991q-2.324,0-2.324,1.36a1.151,1.151,0,0,0,.4.93A1.524,1.524,0,0,0,17.425-.964ZM23.769-7.4l.041.93a2.7,2.7,0,0,1,2.215-1.066q2.345,0,2.365,2.646V0H27.125V-4.895a1.7,1.7,0,0,0-.366-1.183,1.466,1.466,0,0,0-1.118-.383,1.825,1.825,0,0,0-1.08.328,2.228,2.228,0,0,0-.725.861V0H22.572V-7.4ZM29.989-3.76A4.333,4.333,0,0,1,30.8-6.5a2.551,2.551,0,0,1,2.112-1.036,2.565,2.565,0,0,1,2.058.889V-10.5H36.23V0H35.068l-.062-.793a2.575,2.575,0,0,1-2.112.93A2.526,2.526,0,0,1,30.8-.916a4.382,4.382,0,0,1-.81-2.748Zm1.265.144a3.281,3.281,0,0,0,.52,1.969,1.68,1.68,0,0,0,1.436.711,1.845,1.845,0,0,0,1.757-1.08v-3.4A1.859,1.859,0,0,0,33.223-6.46a1.687,1.687,0,0,0-1.449.718A3.612,3.612,0,0,0,31.254-3.616ZM41.262.137a3.232,3.232,0,0,1-2.447-.988,3.666,3.666,0,0,1-.943-2.642v-.232a4.438,4.438,0,0,1,.42-1.965,3.28,3.28,0,0,1,1.176-1.354A2.956,2.956,0,0,1,41.1-7.533a2.77,2.77,0,0,1,2.242.95,4.114,4.114,0,0,1,.8,2.721v.526H39.136a2.629,2.629,0,0,0,.639,1.767A2.009,2.009,0,0,0,41.33-.9a2.2,2.2,0,0,0,1.135-.273,2.851,2.851,0,0,0,.813-.725l.772.6A3.106,3.106,0,0,1,41.262.137ZM41.1-6.494a1.687,1.687,0,0,0-1.285.557,2.708,2.708,0,0,0-.643,1.562h3.705v-.1a2.409,2.409,0,0,0-.52-1.494A1.588,1.588,0,0,0,41.1-6.494Z" transform="translate(841.454 3419.781)" fill="#12263f"/>
  </g>
</svg>
