<svg xmlns="http://www.w3.org/2000/svg" width="400" height="313" viewBox="0 0 400 313">
  <g id="Grupo_1079033" data-name="Grupo 1079033" transform="translate(-600 -2683)">
    <g id="Grupo_1078981" data-name="Grupo 1078981" transform="translate(651 2692)">
      <rect id="Rectángulo_4040" data-name="Rectángulo 4040" width="74.418" height="73.798" transform="translate(107.434 112.597)" fill="#fff1c4"/>
      <g id="Grupo_16415" data-name="Grupo 16415" transform="translate(138.961 -5)">
        <path id="Trazado_25443" data-name="Trazado 25443" d="M177.269,255.831l-4.056,6.43v5.91h-2.572v-5.849l-4.082-6.49h2.835l2.52,4.2,2.528-4.2Z" transform="translate(-166.559 -255.831)" fill="#00223d"/>
      </g>
      <g id="Grupo_16416" data-name="Grupo 16416" transform="translate(287.098 143.56)">
        <path id="Trazado_25444" data-name="Trazado 25444" d="M295.718,397.191l4.138-5.54-4.019-5.078h2.682l2.645,3.483,2.645-3.483h2.682l-4.019,5.078,4.138,5.54H303.8l-2.638-3.755-2.638,3.755Z" transform="translate(-295.718 -386.573)" fill="#00223d"/>
      </g>
      <g id="Grupo_16419" data-name="Grupo 16419" transform="translate(0 148.114)">
        <g id="Grupo_16418" data-name="Grupo 16418">
          <g id="Grupo_16417" data-name="Grupo 16417">
            <rect id="Rectángulo_4041" data-name="Rectángulo 4041" width="281.284" height="2.393" fill="#d50f73" stroke="#673ab7" stroke-width="2"/>
          </g>
        </g>
      </g>
      <g id="Grupo_16434" data-name="Grupo 16434" transform="translate(11.211 144.988)">
        <g id="Grupo_16420" data-name="Grupo 16420" transform="translate(95.774)">
          <rect id="Rectángulo_4042" data-name="Rectángulo 4042" width="0.449" height="9.19" fill="#673ab7"/>
        </g>
        <g id="Grupo_16421" data-name="Grupo 16421" transform="translate(77.17)">
          <rect id="Rectángulo_4043" data-name="Rectángulo 4043" width="0.449" height="9.19" fill="#673ab7"/>
        </g>
        <g id="Grupo_16422" data-name="Grupo 16422" transform="translate(114.378)">
          <rect id="Rectángulo_4044" data-name="Rectángulo 4044" width="0.449" height="9.19" fill="#673ab7"/>
        </g>
        <g id="Grupo_16423" data-name="Grupo 16423" transform="translate(170.192)">
          <rect id="Rectángulo_4045" data-name="Rectángulo 4045" width="0.449" height="9.19" fill="#673ab7"/>
        </g>
        <g id="Grupo_16424" data-name="Grupo 16424" transform="translate(151.587)">
          <rect id="Rectángulo_4046" data-name="Rectángulo 4046" width="0.449" height="9.19" fill="#673ab7"/>
        </g>
        <g id="Grupo_16425" data-name="Grupo 16425" transform="translate(188.796)">
          <rect id="Rectángulo_4047" data-name="Rectángulo 4047" width="0.449" height="9.19" fill="#673ab7"/>
        </g>
        <g id="Grupo_16426" data-name="Grupo 16426" transform="translate(226.005)">
          <rect id="Rectángulo_4048" data-name="Rectángulo 4048" width="0.449" height="9.19" fill="#673ab7"/>
        </g>
        <g id="Grupo_16427" data-name="Grupo 16427" transform="translate(207.4)">
          <rect id="Rectángulo_4049" data-name="Rectángulo 4049" width="0.449" height="9.19" fill="#673ab7"/>
        </g>
        <g id="Grupo_16428" data-name="Grupo 16428" transform="translate(244.609)">
          <rect id="Rectángulo_4050" data-name="Rectángulo 4050" width="0.449" height="9.19" fill="#673ab7"/>
        </g>
        <g id="Grupo_16429" data-name="Grupo 16429" transform="translate(263.65)">
          <rect id="Rectángulo_4051" data-name="Rectángulo 4051" width="0.449" height="9.19" fill="#673ab7"/>
        </g>
        <g id="Grupo_16430" data-name="Grupo 16430" transform="translate(18.604)">
          <rect id="Rectángulo_4052" data-name="Rectángulo 4052" width="0.449" height="9.19" fill="#673ab7"/>
        </g>
        <g id="Grupo_16431" data-name="Grupo 16431">
          <rect id="Rectángulo_4053" data-name="Rectángulo 4053" width="0.449" height="9.19" fill="#673ab7"/>
        </g>
        <g id="Grupo_16432" data-name="Grupo 16432" transform="translate(37.209)">
          <rect id="Rectángulo_4054" data-name="Rectángulo 4054" width="0.449" height="9.19" fill="#673ab7"/>
        </g>
        <g id="Grupo_16433" data-name="Grupo 16433" transform="translate(56.249)">
          <rect id="Rectángulo_4055" data-name="Rectángulo 4055" width="0.449" height="9.19" fill="#673ab7"/>
        </g>
      </g>
      <g id="Grupo_16437" data-name="Grupo 16437" transform="translate(142.848 12.716)">
        <g id="Grupo_16436" data-name="Grupo 16436">
          <g id="Grupo_16435" data-name="Grupo 16435">
            <rect id="Rectángulo_4056" data-name="Rectángulo 4056" width="2.393" height="281.284" fill="#d50f73" stroke="#673ab7" stroke-width="2"/>
          </g>
        </g>
      </g>
      <path id="Trazado_25445" data-name="Trazado 25445" d="M170.183,396.9a5.513,5.513,0,1,1,7.482-2.187A5.513,5.513,0,0,1,170.183,396.9Z" transform="translate(-28.515 -242.604)" fill="#d1bcff"/>
      <g id="Grupo_16452" data-name="Grupo 16452" transform="translate(138.803 18.691)">
        <g id="Grupo_16438" data-name="Grupo 16438" transform="translate(0 167.876)">
          <rect id="Rectángulo_4057" data-name="Rectángulo 4057" width="9.19" height="0.449" fill="#604053"/>
        </g>
        <g id="Grupo_16439" data-name="Grupo 16439" transform="translate(0 186.48)">
          <rect id="Rectángulo_4058" data-name="Rectángulo 4058" width="9.19" height="0.449" fill="#604053"/>
        </g>
        <g id="Grupo_16440" data-name="Grupo 16440" transform="translate(0 149.271)">
          <rect id="Rectángulo_4059" data-name="Rectángulo 4059" width="9.19" height="0.449" fill="#604053"/>
        </g>
        <g id="Grupo_16441" data-name="Grupo 16441" transform="translate(0 93.458)">
          <rect id="Rectángulo_4060" data-name="Rectángulo 4060" width="9.19" height="0.449" fill="#604053"/>
        </g>
        <g id="Grupo_16442" data-name="Grupo 16442" transform="translate(0 112.063)">
          <rect id="Rectángulo_4061" data-name="Rectángulo 4061" width="9.19" height="0.449" fill="#604053"/>
        </g>
        <g id="Grupo_16443" data-name="Grupo 16443" transform="translate(0 74.854)">
          <rect id="Rectángulo_4062" data-name="Rectángulo 4062" width="9.19" height="0.449" fill="#604053"/>
        </g>
        <g id="Grupo_16444" data-name="Grupo 16444" transform="translate(0 37.645)">
          <rect id="Rectángulo_4063" data-name="Rectángulo 4063" width="9.19" height="0.449" fill="#604053"/>
        </g>
        <g id="Grupo_16445" data-name="Grupo 16445" transform="translate(0 56.249)">
          <rect id="Rectángulo_4064" data-name="Rectángulo 4064" width="9.19" height="0.449" fill="#604053"/>
        </g>
        <g id="Grupo_16446" data-name="Grupo 16446" transform="translate(0 19.041)">
          <rect id="Rectángulo_4065" data-name="Rectángulo 4065" width="9.19" height="0.449" fill="#604053"/>
        </g>
        <g id="Grupo_16447" data-name="Grupo 16447">
          <rect id="Rectángulo_4066" data-name="Rectángulo 4066" width="9.19" height="0.449" fill="#604053"/>
        </g>
        <g id="Grupo_16448" data-name="Grupo 16448" transform="translate(0 245.045)">
          <rect id="Rectángulo_4067" data-name="Rectángulo 4067" width="9.19" height="0.449" fill="#604053"/>
        </g>
        <g id="Grupo_16449" data-name="Grupo 16449" transform="translate(0 263.65)">
          <rect id="Rectángulo_4068" data-name="Rectángulo 4068" width="9.19" height="0.449" fill="#604053"/>
        </g>
        <g id="Grupo_16450" data-name="Grupo 16450" transform="translate(0 226.441)">
          <rect id="Rectángulo_4069" data-name="Rectángulo 4069" width="9.19" height="0.449" fill="#604053"/>
        </g>
        <g id="Grupo_16451" data-name="Grupo 16451" transform="translate(0 207.4)">
          <rect id="Rectángulo_4070" data-name="Rectángulo 4070" width="9.19" height="0.449" fill="#604053"/>
        </g>
      </g>
      <g id="Grupo_16468" data-name="Grupo 16468" transform="translate(132.284 17.337)">
        <g id="Grupo_16456" data-name="Grupo 16456" transform="translate(0.083 149.431)">
          <g id="Grupo_16453" data-name="Grupo 16453" transform="translate(0.515)">
            <path id="Trazado_25446" data-name="Trazado 25446" d="M160.766,405.135h.379v3.29h-.4v-2.848l-.79.685v-.433Z" transform="translate(-159.955 -405.135)" fill="#604053"/>
          </g>
          <g id="Grupo_16454" data-name="Grupo 16454" transform="translate(0 18.353)">
            <path id="Trazado_25447" data-name="Trazado 25447" d="M160.072,424.672h1.638v.371h-2.22v-.306l1.318-1.362a1.574,1.574,0,0,0,.3-.391.779.779,0,0,0,.081-.339.57.57,0,0,0-.165-.435.679.679,0,0,0-.881.014.728.728,0,0,0-.167.528V423l-.4-.038v-.2a1.042,1.042,0,0,1,.278-.782,1.02,1.02,0,0,1,.743-.27,1.033,1.033,0,0,1,.714.25.869.869,0,0,1,.279.682,1.028,1.028,0,0,1-.111.475,2.05,2.05,0,0,1-.357.474Z" transform="translate(-159.49 -421.703)" fill="#604053"/>
          </g>
          <g id="Grupo_16455" data-name="Grupo 16455" transform="translate(0.003 36.713)">
            <path id="Trazado_25448" data-name="Trazado 25448" d="M160.589,441.658q-1.095,0-1.1-1.171l.411-.021a1.034,1.034,0,0,0,.154.619.622.622,0,0,0,.531.2.727.727,0,0,0,.511-.177.657.657,0,0,0,.008-.928.68.68,0,0,0-.471-.171h-.164v-.343h.158a.488.488,0,0,0,.36-.152.512.512,0,0,0,.15-.373.461.461,0,0,0-.158-.362.58.58,0,0,0-.4-.141.645.645,0,0,0-.263.049.369.369,0,0,0-.167.144.644.644,0,0,0-.084.209,1.262,1.262,0,0,0-.025.266l-.412-.013a1.068,1.068,0,0,1,.247-.755.913.913,0,0,1,.7-.264.977.977,0,0,1,.675.24.77.77,0,0,1,.269.6.719.719,0,0,1-.131.428.737.737,0,0,1-.329.267.907.907,0,0,1,.462.3.842.842,0,0,1,.181.554.908.908,0,0,1-.315.718A1.183,1.183,0,0,1,160.589,441.658Z" transform="translate(-159.493 -438.278)" fill="#604053"/>
          </g>
        </g>
        <g id="Grupo_16457" data-name="Grupo 16457" transform="translate(0.598 111.771)">
          <path id="Trazado_25449" data-name="Trazado 25449" d="M160.766,371.137h.379v3.291h-.4v-2.849l-.79.685v-.432Z" transform="translate(-159.955 -371.137)" fill="#604053"/>
        </g>
        <g id="Grupo_16458" data-name="Grupo 16458" transform="translate(0.083 92.969)">
          <path id="Trazado_25450" data-name="Trazado 25450" d="M160.072,357.132h1.638v.372h-2.22V357.2l1.318-1.363a1.575,1.575,0,0,0,.3-.391.779.779,0,0,0,.081-.339.57.57,0,0,0-.165-.435.681.681,0,0,0-.881.013.733.733,0,0,0-.167.529v.244l-.4-.038v-.2a1.039,1.039,0,0,1,.278-.781,1.151,1.151,0,0,1,1.458-.02.869.869,0,0,1,.279.682,1.031,1.031,0,0,1-.111.475,2.023,2.023,0,0,1-.357.473Z" transform="translate(-159.49 -354.164)" fill="#604053"/>
        </g>
        <g id="Grupo_16459" data-name="Grupo 16459" transform="translate(0.086 74.966)">
          <path id="Trazado_25451" data-name="Trazado 25451" d="M160.589,341.292q-1.095,0-1.1-1.171l.411-.021a1.034,1.034,0,0,0,.154.619.622.622,0,0,0,.531.206.728.728,0,0,0,.511-.178.655.655,0,0,0,.008-.927.675.675,0,0,0-.471-.171h-.164v-.343h.158a.488.488,0,0,0,.36-.152.516.516,0,0,0,.15-.375.461.461,0,0,0-.158-.362.585.585,0,0,0-.4-.141.624.624,0,0,0-.263.05.359.359,0,0,0-.167.143.643.643,0,0,0-.084.209,1.263,1.263,0,0,0-.025.267l-.412-.014a1.065,1.065,0,0,1,.247-.754.914.914,0,0,1,.7-.265.973.973,0,0,1,.675.242.769.769,0,0,1,.269.6.721.721,0,0,1-.131.428.743.743,0,0,1-.329.266.907.907,0,0,1,.462.3.844.844,0,0,1,.181.554.9.9,0,0,1-.315.718A1.177,1.177,0,0,1,160.589,341.292Z" transform="translate(-159.493 -337.912)" fill="#604053"/>
        </g>
        <g id="Grupo_16460" data-name="Grupo 16460" transform="translate(0 207.229)">
          <path id="Trazado_25452" data-name="Trazado 25452" d="M161.8,459.479v.357h-.486v.635h-.389v-.635h-1.511v-.359l1.314-2.164h.586v2.167Zm-1.985,0h1.11V457.6Z" transform="translate(-159.415 -457.312)" fill="#604053"/>
        </g>
        <g id="Grupo_16461" data-name="Grupo 16461" transform="translate(0.138 226.008)">
          <path id="Trazado_25453" data-name="Trazado 25453" d="M160.5,475.387a1.221,1.221,0,0,1,.861.266.961.961,0,0,1,.285.741,1.049,1.049,0,0,1-.292.768,1.025,1.025,0,0,1-.765.3,1.234,1.234,0,0,1-.4-.063,1.086,1.086,0,0,1-.333-.184.843.843,0,0,1-.234-.311,1.018,1.018,0,0,1-.086-.425c0-.043,0-.1.011-.162l.4-.034a1.528,1.528,0,0,0-.018.177.725.725,0,0,0,.056.295.517.517,0,0,0,.154.2.7.7,0,0,0,.207.109.748.748,0,0,0,.235.035.647.647,0,0,0,.49-.193.687.687,0,0,0,.185-.5.656.656,0,0,0-.192-.5.861.861,0,0,0-.607-.182h-.8l.195-1.462h1.655v.361h-1.328l-.1.761Z" transform="translate(-159.54 -474.265)" fill="#604053"/>
        </g>
        <g id="Grupo_16462" data-name="Grupo 16462" transform="translate(0.099 244.609)">
          <path id="Trazado_25454" data-name="Trazado 25454" d="M161.693,493.163a1.074,1.074,0,0,1-.144.567,1.012,1.012,0,0,1-.4.386,1.135,1.135,0,0,1-.547.135,1.108,1.108,0,0,1-.785-.3,1.006,1.006,0,0,1-.316-.766,1.24,1.24,0,0,1,.274-.758l1.056-1.372h.457l-.876,1.105a.981.981,0,0,1,.274-.039,1,1,0,0,1,.484.122.974.974,0,0,1,.37.362A1.082,1.082,0,0,1,161.693,493.163Zm-1.1.727a.709.709,0,0,0,.518-.2.7.7,0,0,0,.2-.533.694.694,0,0,0-.724-.729.68.68,0,0,0-.516.216.722.722,0,0,0-.2.528.7.7,0,0,0,.2.527A.722.722,0,0,0,160.6,493.89Z" transform="translate(-159.504 -491.057)" fill="#604053"/>
        </g>
        <g id="Grupo_16463" data-name="Grupo 16463" transform="translate(0.113 263.293)">
          <path id="Trazado_25455" data-name="Trazado 25455" d="M159.517,507.924h2.16v.324l-1.543,2.832h-.444l1.556-2.8h-1.729Z" transform="translate(-159.517 -507.924)" fill="#604053"/>
        </g>
        <g id="Grupo_16464" data-name="Grupo 16464" transform="translate(0 56.024)">
          <path id="Trazado_25456" data-name="Trazado 25456" d="M161.8,322.979v.357h-.486v.635h-.389v-.635h-1.511v-.359l1.314-2.164h.586v2.167Zm-1.985,0h1.11V321.1Z" transform="translate(-159.415 -320.812)" fill="#604053"/>
        </g>
        <g id="Grupo_16465" data-name="Grupo 16465" transform="translate(0.138 37.626)">
          <path id="Trazado_25457" data-name="Trazado 25457" d="M160.5,305.325a1.221,1.221,0,0,1,.861.266.961.961,0,0,1,.285.741,1.048,1.048,0,0,1-.292.768,1.024,1.024,0,0,1-.765.3,1.233,1.233,0,0,1-.4-.063,1.087,1.087,0,0,1-.333-.184.845.845,0,0,1-.234-.311,1.018,1.018,0,0,1-.086-.425c0-.043,0-.1.011-.162l.4-.034a1.526,1.526,0,0,0-.018.177.724.724,0,0,0,.056.295.517.517,0,0,0,.154.2.7.7,0,0,0,.207.109.745.745,0,0,0,.235.035.647.647,0,0,0,.49-.193.687.687,0,0,0,.185-.5.656.656,0,0,0-.192-.5.861.861,0,0,0-.607-.182h-.8l.195-1.462h1.655v.361h-1.328l-.1.761Z" transform="translate(-159.54 -304.203)" fill="#604053"/>
        </g>
        <g id="Grupo_16466" data-name="Grupo 16466" transform="translate(0.099 19.229)">
          <path id="Trazado_25458" data-name="Trazado 25458" d="M161.693,289.7a1.073,1.073,0,0,1-.144.567,1.012,1.012,0,0,1-.4.385,1.135,1.135,0,0,1-.547.135,1.1,1.1,0,0,1-.785-.3,1,1,0,0,1-.316-.765,1.24,1.24,0,0,1,.274-.758l1.056-1.373h.457l-.876,1.106a.978.978,0,0,1,.274-.039,1,1,0,0,1,.484.122.958.958,0,0,1,.37.362A1.082,1.082,0,0,1,161.693,289.7Zm-1.1.727a.687.687,0,0,0,.718-.733.695.695,0,0,0-.724-.729.68.68,0,0,0-.516.216.722.722,0,0,0-.2.528.694.694,0,0,0,.2.526A.723.723,0,0,0,160.6,290.427Z" transform="translate(-159.504 -287.595)" fill="#604053"/>
        </g>
        <g id="Grupo_16467" data-name="Grupo 16467" transform="translate(0.113)">
          <path id="Trazado_25459" data-name="Trazado 25459" d="M159.517,270.236h2.16v.325l-1.543,2.833h-.444l1.556-2.8h-1.729Z" transform="translate(-159.517 -270.236)" fill="#604053"/>
        </g>
      </g>
      <g id="Grupo_16469" data-name="Grupo 16469" transform="translate(161.941 157.811)">
        <path id="Trazado_25460" data-name="Trazado 25460" d="M187,397.049h.379v3.291h-.4v-2.849l-.79.685v-.432Z" transform="translate(-186.188 -397.049)" fill="#604053"/>
      </g>
      <g id="Grupo_16470" data-name="Grupo 16470" transform="translate(180.722 157.786)">
        <path id="Trazado_25461" data-name="Trazado 25461" d="M203.725,400h1.638v.371h-2.22v-.306l1.318-1.362a1.576,1.576,0,0,0,.3-.391.778.778,0,0,0,.082-.339.57.57,0,0,0-.166-.435.679.679,0,0,0-.881.014.729.729,0,0,0-.166.529v.243l-.4-.038v-.2a1.038,1.038,0,0,1,.278-.782,1.019,1.019,0,0,1,.743-.27,1.032,1.032,0,0,1,.713.25.869.869,0,0,1,.279.682,1.028,1.028,0,0,1-.111.475,2.051,2.051,0,0,1-.357.474Z" transform="translate(-203.143 -397.027)" fill="#604053"/>
      </g>
      <g id="Grupo_16471" data-name="Grupo 16471" transform="translate(197.457 157.767)">
        <path id="Trazado_25462" data-name="Trazado 25462" d="M219.346,400.389q-1.095,0-1.1-1.171l.411-.021a1.034,1.034,0,0,0,.154.619.622.622,0,0,0,.531.206.723.723,0,0,0,.511-.178.655.655,0,0,0,.008-.927.675.675,0,0,0-.471-.171h-.164V398.4h.158a.488.488,0,0,0,.36-.152.516.516,0,0,0,.15-.375.463.463,0,0,0-.158-.362.586.586,0,0,0-.4-.141.625.625,0,0,0-.263.05.36.36,0,0,0-.167.143.67.67,0,0,0-.084.209,1.27,1.27,0,0,0-.025.267l-.412-.014a1.065,1.065,0,0,1,.247-.754.913.913,0,0,1,.7-.265.979.979,0,0,1,.675.241.769.769,0,0,1,.269.6.722.722,0,0,1-.131.428.744.744,0,0,1-.329.266.907.907,0,0,1,.462.3.845.845,0,0,1,.181.554.9.9,0,0,1-.315.718A1.177,1.177,0,0,1,219.346,400.389Z" transform="translate(-218.25 -397.009)" fill="#604053"/>
      </g>
      <g id="Grupo_16472" data-name="Grupo 16472" transform="translate(125.66 157.811)">
        <path id="Trazado_25463" data-name="Trazado 25463" d="M154.246,397.049h.379v3.291h-.4v-2.849l-.79.685v-.432Z" transform="translate(-153.435 -397.049)" fill="#604053"/>
      </g>
      <g id="Grupo_16473" data-name="Grupo 16473" transform="translate(106.366 157.786)">
        <path id="Trazado_25464" data-name="Trazado 25464" d="M136.6,400h1.638v.371h-2.221v-.306l1.318-1.362a1.549,1.549,0,0,0,.3-.391.778.778,0,0,0,.082-.339.566.566,0,0,0-.166-.435.677.677,0,0,0-.88.014.725.725,0,0,0-.167.529v.243l-.4-.038v-.2a1.042,1.042,0,0,1,.278-.782,1.019,1.019,0,0,1,.743-.27,1.035,1.035,0,0,1,.715.25.869.869,0,0,1,.279.682,1.028,1.028,0,0,1-.111.475,2.086,2.086,0,0,1-.357.474Z" transform="translate(-136.018 -397.027)" fill="#604053"/>
      </g>
      <g id="Grupo_16474" data-name="Grupo 16474" transform="translate(85.172 157.767)">
        <path id="Trazado_25465" data-name="Trazado 25465" d="M117.982,400.389q-1.1,0-1.1-1.171l.412-.021a1.026,1.026,0,0,0,.154.619.622.622,0,0,0,.531.206.725.725,0,0,0,.511-.178.6.6,0,0,0,.195-.464.592.592,0,0,0-.188-.463.673.673,0,0,0-.471-.171h-.164V398.4h.16a.492.492,0,0,0,.36-.152.516.516,0,0,0,.15-.375.46.46,0,0,0-.16-.362.581.581,0,0,0-.4-.141.632.632,0,0,0-.263.05.372.372,0,0,0-.167.143.7.7,0,0,0-.084.209,1.271,1.271,0,0,0-.025.267l-.411-.014a1.065,1.065,0,0,1,.246-.754.915.915,0,0,1,.7-.265.975.975,0,0,1,.675.241.77.77,0,0,1,.27.6.73.73,0,0,1-.131.428.747.747,0,0,1-.33.266.909.909,0,0,1,.463.3.851.851,0,0,1,.179.554.9.9,0,0,1-.314.718A1.179,1.179,0,0,1,117.982,400.389Z" transform="translate(-116.885 -397.009)" fill="#604053"/>
      </g>
      <g id="Grupo_16475" data-name="Grupo 16475" transform="translate(217.697 157.877)">
        <path id="Trazado_25466" data-name="Trazado 25466" d="M238.908,399.276v.357h-.486v.635h-.389v-.635h-1.511v-.359l1.314-2.164h.586v2.167Zm-1.985,0h1.11v-1.881Z" transform="translate(-236.522 -397.109)" fill="#604053"/>
      </g>
      <g id="Grupo_16476" data-name="Grupo 16476" transform="translate(236.174 157.86)">
        <path id="Trazado_25467" data-name="Trazado 25467" d="M254.165,398.214a1.225,1.225,0,0,1,.861.267.965.965,0,0,1,.285.74,1.049,1.049,0,0,1-.292.769,1.027,1.027,0,0,1-.766.3,1.233,1.233,0,0,1-.4-.063,1.093,1.093,0,0,1-.335-.184.852.852,0,0,1-.233-.311,1.021,1.021,0,0,1-.086-.426,1.366,1.366,0,0,1,.011-.161l.4-.034c-.011.088-.018.146-.018.177a.7.7,0,0,0,.058.294.494.494,0,0,0,.154.2.728.728,0,0,0,.207.109.742.742,0,0,0,.234.035.65.65,0,0,0,.491-.193.688.688,0,0,0,.185-.5.654.654,0,0,0-.192-.5.863.863,0,0,0-.607-.182h-.8l.195-1.462h1.656v.361h-1.328l-.1.76Z" transform="translate(-253.202 -397.093)" fill="#604053"/>
      </g>
      <g id="Grupo_16477" data-name="Grupo 16477" transform="translate(254.734 157.86)">
        <path id="Trazado_25468" data-name="Trazado 25468" d="M272.146,399.2a1.07,1.07,0,0,1-.144.567,1.007,1.007,0,0,1-.4.387,1.134,1.134,0,0,1-.547.134,1.1,1.1,0,0,1-.785-.3,1,1,0,0,1-.316-.767,1.242,1.242,0,0,1,.274-.758l1.056-1.373h.457l-.876,1.106a1.02,1.02,0,0,1,.274-.038,1,1,0,0,1,.484.121.973.973,0,0,1,.37.362A1.085,1.085,0,0,1,272.146,399.2Zm-1.1.727a.687.687,0,0,0,.718-.733.7.7,0,0,0-.724-.729.677.677,0,0,0-.516.217.721.721,0,0,0-.2.527.7.7,0,0,0,.2.527A.722.722,0,0,0,271.049,399.926Z" transform="translate(-269.957 -397.093)" fill="#604053"/>
      </g>
      <g id="Grupo_16478" data-name="Grupo 16478" transform="translate(273.415 157.877)">
        <path id="Trazado_25469" data-name="Trazado 25469" d="M286.821,397.109h2.16v.326l-1.543,2.832h-.444l1.556-2.8h-1.729Z" transform="translate(-286.821 -397.109)" fill="#604053"/>
      </g>
      <g id="Grupo_16479" data-name="Grupo 16479" transform="translate(66.033 157.877)">
        <path id="Trazado_25470" data-name="Trazado 25470" d="M101.993,399.276v.357h-.486v.635h-.388v-.635H99.607v-.359l1.314-2.164h.586v2.167Zm-1.985,0h1.111v-1.881Z" transform="translate(-99.607 -397.109)" fill="#604053"/>
      </g>
      <g id="Grupo_16480" data-name="Grupo 16480" transform="translate(47.792 157.86)">
        <path id="Trazado_25471" data-name="Trazado 25471" d="M84.1,398.214a1.225,1.225,0,0,1,.861.267.965.965,0,0,1,.285.74,1.049,1.049,0,0,1-.292.769,1.027,1.027,0,0,1-.767.3,1.233,1.233,0,0,1-.4-.063,1.094,1.094,0,0,1-.335-.184.852.852,0,0,1-.233-.311,1.022,1.022,0,0,1-.086-.426,1.357,1.357,0,0,1,.011-.161l.4-.034c-.011.088-.018.146-.018.177a.7.7,0,0,0,.058.294.493.493,0,0,0,.154.2.728.728,0,0,0,.207.109.743.743,0,0,0,.234.035.65.65,0,0,0,.491-.193.687.687,0,0,0,.185-.5.654.654,0,0,0-.192-.5.862.862,0,0,0-.607-.182h-.8l.195-1.462h1.656v.361H83.784l-.1.76Z" transform="translate(-83.14 -397.093)" fill="#604053"/>
      </g>
      <g id="Grupo_16481" data-name="Grupo 16481" transform="translate(28.434 157.86)">
        <path id="Trazado_25472" data-name="Trazado 25472" d="M67.854,399.2a1.06,1.06,0,0,1-.143.567,1.014,1.014,0,0,1-.4.387,1.134,1.134,0,0,1-.547.134,1.1,1.1,0,0,1-.785-.3,1.006,1.006,0,0,1-.317-.767,1.249,1.249,0,0,1,.274-.758L67,397.093h.457l-.877,1.106a1.025,1.025,0,0,1,.274-.038,1,1,0,0,1,.485.121.973.973,0,0,1,.37.362A1.084,1.084,0,0,1,67.854,399.2Zm-1.1.727a.731.731,0,1,0-.007-1.462.676.676,0,0,0-.515.217.721.721,0,0,0-.2.527.7.7,0,0,0,.2.527A.721.721,0,0,0,66.757,399.926Z" transform="translate(-65.665 -397.093)" fill="#604053"/>
      </g>
      <g id="Grupo_16482" data-name="Grupo 16482" transform="translate(10.121 157.877)">
        <path id="Trazado_25473" data-name="Trazado 25473" d="M49.133,397.109h2.159v.326l-1.543,2.832h-.443l1.556-2.8H49.133Z" transform="translate(-49.133 -397.109)" fill="#604053"/>
      </g>
    </g>
    <rect id="Rectángulo_381692" data-name="Rectángulo 381692" width="400" height="313" transform="translate(600 2683)" fill="none"/>
  </g>
</svg>
