<svg xmlns="http://www.w3.org/2000/svg" width="297.516" height="300" viewBox="0 0 297.516 300">
  <g id="Grupo_1079034" data-name="Grupo 1079034" transform="translate(-651 -3146.965)">
    <path id="Trazado_841627" data-name="Trazado 841627" d="M659.046,239.288H544.71V124.952H659.046Zm-113.606-.729H658.318V125.681H545.44Z" transform="translate(195.49 3116.454)" fill="#e2208a"/>
    <rect id="Rectángulo_381410" data-name="Rectángulo 381410" width="76.294" height="75.66" transform="translate(761.143 3260.987)" fill="#fff1c4"/>
    <rect id="Rectángulo_381411" data-name="Rectángulo 381411" width="38.378" height="38.058" transform="translate(779.756 3279.602)" fill="#51bacf"/>
    <path id="Trazado_841628" data-name="Trazado 841628" d="M622.871,0l-2.277,3.608V6.925h-1.442V3.642L616.861,0h1.591l1.414,2.357L621.284,0Z" transform="translate(177.872 3146.965)" fill="#00223d"/>
    <path id="Trazado_841629" data-name="Trazado 841629" d="M810.929,203.371l2.7-3.614-2.621-3.311h1.749l1.725,2.272,1.726-2.272h1.749l-2.621,3.311,2.7,3.614H816.2l-1.72-2.449-1.72,2.449Z" transform="translate(130.485 3098.997)" fill="#00223d"/>
    <rect id="Rectángulo_381412" data-name="Rectángulo 381412" width="288.378" height="2.453" transform="translate(651 3297.399)" fill="#673ab7"/>
    <rect id="Rectángulo_381413" data-name="Rectángulo 381413" width="0.46" height="9.422" transform="translate(760.683 3294.195)" fill="#604053"/>
    <rect id="Rectángulo_381414" data-name="Rectángulo 381414" width="0.46" height="9.422" transform="translate(741.609 3294.195)" fill="#604053"/>
    <rect id="Rectángulo_381415" data-name="Rectángulo 381415" width="0.46" height="9.422" transform="translate(779.756 3294.195)" fill="#604053"/>
    <rect id="Rectángulo_381416" data-name="Rectángulo 381416" width="0.46" height="9.422" transform="translate(836.978 3294.195)" fill="#604053"/>
    <rect id="Rectángulo_381417" data-name="Rectángulo 381417" width="0.46" height="9.422" transform="translate(817.904 3294.195)" fill="#604053"/>
    <rect id="Rectángulo_381418" data-name="Rectángulo 381418" width="0.46" height="9.422" transform="translate(856.051 3294.195)" fill="#604053"/>
    <rect id="Rectángulo_381419" data-name="Rectángulo 381419" width="0.46" height="9.422" transform="translate(894.198 3294.195)" fill="#604053"/>
    <rect id="Rectángulo_381420" data-name="Rectángulo 381420" width="0.46" height="9.422" transform="translate(875.125 3294.195)" fill="#604053"/>
    <rect id="Rectángulo_381421" data-name="Rectángulo 381421" width="0.46" height="9.422" transform="translate(913.272 3294.195)" fill="#604053"/>
    <rect id="Rectángulo_381422" data-name="Rectángulo 381422" width="0.46" height="9.422" transform="translate(932.792 3294.195)" fill="#604053"/>
    <rect id="Rectángulo_381423" data-name="Rectángulo 381423" width="0.46" height="9.422" transform="translate(681.567 3294.195)" fill="#604053"/>
    <rect id="Rectángulo_381424" data-name="Rectángulo 381424" width="0.46" height="9.422" transform="translate(662.493 3294.195)" fill="#604053"/>
    <rect id="Rectángulo_381425" data-name="Rectángulo 381425" width="0.46" height="9.422" transform="translate(700.641 3294.195)" fill="#604053"/>
    <rect id="Rectángulo_381426" data-name="Rectángulo 381426" width="0.46" height="9.422" transform="translate(720.161 3294.195)" fill="#604053"/>
    <rect id="Rectángulo_381427" data-name="Rectángulo 381427" width="2.453" height="288.378" transform="translate(797.45 3158.587)" fill="#673ab7"/>
    <path id="Trazado_841630" data-name="Trazado 841630" d="M619.748,202.73a3.361,3.361,0,1,1,4.562-1.333,3.361,3.361,0,0,1-4.562,1.333" transform="translate(177.594 3099.004)" fill="#d1bcff"/>
    <rect id="Rectángulo_381428" data-name="Rectángulo 381428" width="9.422" height="0.46" transform="translate(793.303 3336.821)" fill="#604053"/>
    <rect id="Rectángulo_381429" data-name="Rectángulo 381429" width="9.422" height="0.46" transform="translate(793.303 3355.896)" fill="#604053"/>
    <rect id="Rectángulo_381430" data-name="Rectángulo 381430" width="9.422" height="0.46" transform="translate(793.303 3317.748)" fill="#604053"/>
    <rect id="Rectángulo_381431" data-name="Rectángulo 381431" width="9.422" height="0.46" transform="translate(793.303 3260.527)" fill="#604053"/>
    <rect id="Rectángulo_381432" data-name="Rectángulo 381432" width="9.422" height="0.46" transform="translate(793.303 3279.602)" fill="#604053"/>
    <rect id="Rectángulo_381433" data-name="Rectángulo 381433" width="9.422" height="0.46" transform="translate(793.303 3241.455)" fill="#604053"/>
    <rect id="Rectángulo_381434" data-name="Rectángulo 381434" width="9.422" height="0.46" transform="translate(793.303 3203.307)" fill="#604053"/>
    <rect id="Rectángulo_381435" data-name="Rectángulo 381435" width="9.422" height="0.46" transform="translate(793.303 3222.38)" fill="#604053"/>
    <rect id="Rectángulo_381436" data-name="Rectángulo 381436" width="9.422" height="0.46" transform="translate(793.303 3184.233)" fill="#604053"/>
    <rect id="Rectángulo_381437" data-name="Rectángulo 381437" width="9.422" height="0.46" transform="translate(793.303 3164.712)" fill="#604053"/>
    <rect id="Rectángulo_381438" data-name="Rectángulo 381438" width="9.422" height="0.46" transform="translate(793.303 3415.938)" fill="#604053"/>
    <rect id="Rectángulo_381439" data-name="Rectángulo 381439" width="9.422" height="0.46" transform="translate(793.303 3435.012)" fill="#604053"/>
    <rect id="Rectángulo_381440" data-name="Rectángulo 381440" width="9.422" height="0.46" transform="translate(793.303 3396.863)" fill="#604053"/>
    <rect id="Rectángulo_381441" data-name="Rectángulo 381441" width="9.422" height="0.46" transform="translate(793.303 3377.343)" fill="#604053"/>
    <path id="Trazado_841631" data-name="Trazado 841631" d="M607.769,224.337h.388v3.374h-.41V224.79l-.809.7v-.443Z" transform="translate(180.295 3092.187)" fill="#604053"/>
    <path id="Trazado_841632" data-name="Trazado 841632" d="M606.835,252.275h1.679v.381h-2.276v-.314l1.351-1.4a1.6,1.6,0,0,0,.3-.4.8.8,0,0,0,.084-.347.584.584,0,0,0-.17-.447.694.694,0,0,0-.9.014.745.745,0,0,0-.172.543v.249l-.415-.039v-.208a1.066,1.066,0,0,1,.286-.8,1.18,1.18,0,0,1,1.494-.02.891.891,0,0,1,.286.7,1.054,1.054,0,0,1-.114.488,2.1,2.1,0,0,1-.365.485Z" transform="translate(180.466 3086.107)" fill="#604053"/>
    <path id="Trazado_841633" data-name="Trazado 841633" d="M607.367,277.6q-1.124,0-1.124-1.2l.422-.022a1.056,1.056,0,0,0,.158.635.637.637,0,0,0,.544.211.748.748,0,0,0,.524-.182.615.615,0,0,0,.2-.476.606.606,0,0,0-.193-.475.689.689,0,0,0-.483-.175h-.168v-.352h.163a.5.5,0,0,0,.369-.156.522.522,0,0,0,.153-.383.474.474,0,0,0-.163-.371.6.6,0,0,0-.41-.144.655.655,0,0,0-.269.05.386.386,0,0,0-.172.147.687.687,0,0,0-.086.215,1.269,1.269,0,0,0-.026.273l-.422-.014a1.092,1.092,0,0,1,.253-.774.937.937,0,0,1,.72-.271,1,1,0,0,1,.692.247.789.789,0,0,1,.277.613.739.739,0,0,1-.134.438.773.773,0,0,1-.338.274.922.922,0,0,1,.474.309.865.865,0,0,1,.184.568.927.927,0,0,1-.322.735,1.212,1.212,0,0,1-.823.28" transform="translate(180.465 3080.027)" fill="#604053"/>
    <path id="Trazado_841634" data-name="Trazado 841634" d="M607.769,173.254h.388v3.374h-.41v-2.921l-.809.7v-.443Z" transform="translate(180.295 3104.659)" fill="#604053"/>
    <path id="Trazado_841635" data-name="Trazado 841635" d="M606.835,150.794h1.679v.381h-2.276v-.314l1.351-1.4a1.6,1.6,0,0,0,.3-.4.8.8,0,0,0,.084-.347.584.584,0,0,0-.17-.447.694.694,0,0,0-.9.014.745.745,0,0,0-.172.543v.249l-.415-.039v-.208a1.066,1.066,0,0,1,.286-.8,1.18,1.18,0,0,1,1.494-.02.891.891,0,0,1,.286.7,1.054,1.054,0,0,1-.114.488,2.1,2.1,0,0,1-.365.485Z" transform="translate(180.466 3110.887)" fill="#604053"/>
    <path id="Trazado_841636" data-name="Trazado 841636" d="M607.367,126.8q-1.124,0-1.124-1.2l.422-.022a1.056,1.056,0,0,0,.158.635.637.637,0,0,0,.544.211.748.748,0,0,0,.524-.182.615.615,0,0,0,.2-.476.607.607,0,0,0-.193-.475.69.69,0,0,0-.483-.175h-.168v-.352h.163a.5.5,0,0,0,.369-.156.522.522,0,0,0,.153-.383.474.474,0,0,0-.163-.371.6.6,0,0,0-.41-.144.655.655,0,0,0-.269.05.386.386,0,0,0-.172.147.687.687,0,0,0-.086.215,1.269,1.269,0,0,0-.026.273l-.422-.014a1.091,1.091,0,0,1,.253-.774.937.937,0,0,1,.72-.271,1,1,0,0,1,.692.247.789.789,0,0,1,.277.613.736.736,0,0,1-.134.438.762.762,0,0,1-.338.274.923.923,0,0,1,.474.31.864.864,0,0,1,.184.568.927.927,0,0,1-.322.735,1.211,1.211,0,0,1-.823.28" transform="translate(180.465 3116.85)" fill="#604053"/>
    <path id="Trazado_841637" data-name="Trazado 841637" d="M608.573,304.958v.366h-.5v.651h-.4v-.651h-1.549v-.368l1.347-2.219h.6v2.221Zm-2.035,0h1.138v-1.929Z" transform="translate(180.493 3073.043)" fill="#604053"/>
    <path id="Trazado_841638" data-name="Trazado 841638" d="M607.3,329.36a1.252,1.252,0,0,1,.883.273.986.986,0,0,1,.292.76,1.074,1.074,0,0,1-.3.788,1.053,1.053,0,0,1-.785.3,1.242,1.242,0,0,1-.406-.066,1.09,1.09,0,0,1-.343-.188.871.871,0,0,1-.239-.319,1.049,1.049,0,0,1-.088-.437,1.512,1.512,0,0,1,.011-.166l.407-.034a1.694,1.694,0,0,0-.019.181.73.73,0,0,0,.059.3.52.52,0,0,0,.157.206.709.709,0,0,0,.213.111.761.761,0,0,0,.24.037.662.662,0,0,0,.5-.2.7.7,0,0,0,.19-.508.67.67,0,0,0-.2-.51.882.882,0,0,0-.622-.187h-.819l.2-1.5h1.7v.37h-1.361l-.106.779Z" transform="translate(180.447 3066.823)" fill="#604053"/>
    <path id="Trazado_841639" data-name="Trazado 841639" d="M608.5,355.6a1.092,1.092,0,0,1-.147.582,1.034,1.034,0,0,1-.407.4,1.157,1.157,0,0,1-.561.138,1.133,1.133,0,0,1-.8-.3,1.028,1.028,0,0,1-.323-.785,1.271,1.271,0,0,1,.28-.777l1.082-1.407h.469l-.9,1.134a1.017,1.017,0,0,1,.28-.039,1.034,1.034,0,0,1,.5.124.993.993,0,0,1,.379.372,1.108,1.108,0,0,1,.153.568m-1.124.745a.7.7,0,0,0,.735-.752.711.711,0,0,0-.742-.747.7.7,0,0,0-.529.222.744.744,0,0,0-.2.541.716.716,0,0,0,.209.54.738.738,0,0,0,.532.2" transform="translate(180.461 3060.662)" fill="#604053"/>
    <path id="Trazado_841640" data-name="Trazado 841640" d="M606.28,378.783h2.214v.333l-1.581,2.9h-.456l1.6-2.869H606.28Z" transform="translate(180.456 3054.475)" fill="#604053"/>
    <path id="Trazado_841641" data-name="Trazado 841641" d="M608.573,99.858v.366h-.5v.651h-.4v-.651h-1.549v-.368l1.347-2.219h.6v2.221Zm-2.035,0h1.138V97.929Z" transform="translate(180.493 3123.124)" fill="#604053"/>
    <path id="Trazado_841642" data-name="Trazado 841642" d="M607.3,73.832a1.253,1.253,0,0,1,.883.273.986.986,0,0,1,.292.76,1.074,1.074,0,0,1-.3.788,1.053,1.053,0,0,1-.785.3,1.241,1.241,0,0,1-.406-.066,1.089,1.089,0,0,1-.343-.188.87.87,0,0,1-.239-.319,1.049,1.049,0,0,1-.088-.437,1.512,1.512,0,0,1,.011-.166l.407-.034a1.694,1.694,0,0,0-.019.181.73.73,0,0,0,.059.3.52.52,0,0,0,.157.206.709.709,0,0,0,.213.111.762.762,0,0,0,.24.037.662.662,0,0,0,.5-.2.7.7,0,0,0,.19-.508.67.67,0,0,0-.2-.51.882.882,0,0,0-.622-.187h-.819l.2-1.5h1.7v.37h-1.361l-.106.779Z" transform="translate(180.447 3129.218)" fill="#604053"/>
    <path id="Trazado_841643" data-name="Trazado 841643" d="M608.5,49.886a1.092,1.092,0,0,1-.147.582,1.034,1.034,0,0,1-.407.4,1.157,1.157,0,0,1-.561.138,1.133,1.133,0,0,1-.8-.3,1.029,1.029,0,0,1-.323-.785,1.27,1.27,0,0,1,.28-.777l1.082-1.407h.469l-.9,1.134a1.017,1.017,0,0,1,.28-.039,1.034,1.034,0,0,1,.5.124.993.993,0,0,1,.379.372,1.107,1.107,0,0,1,.153.568m-1.124.745a.725.725,0,0,0,.532-.206.718.718,0,0,0,.2-.546.711.711,0,0,0-.742-.747.7.7,0,0,0-.529.222.744.744,0,0,0-.2.541.716.716,0,0,0,.209.54.739.739,0,0,0,.532.2" transform="translate(180.461 3135.312)" fill="#604053"/>
    <path id="Trazado_841644" data-name="Trazado 841644" d="M606.28,21.644h2.214v.333l-1.581,2.9h-.456l1.6-2.869H606.28Z" transform="translate(180.456 3141.68)" fill="#604053"/>
    <path id="Trazado_841645" data-name="Trazado 841645" d="M647.186,212.188h.388v3.374h-.41v-2.921l-.809.7V212.9Z" transform="translate(170.67 3095.153)" fill="#604053"/>
    <path id="Trazado_841646" data-name="Trazado 841646" d="M672.426,215.2h1.679v.381H671.83v-.314l1.351-1.4a1.582,1.582,0,0,0,.3-.4.8.8,0,0,0,.084-.347.584.584,0,0,0-.17-.447.693.693,0,0,0-.9.014.745.745,0,0,0-.172.543v.249l-.415-.039v-.208a1.066,1.066,0,0,1,.286-.8,1.18,1.18,0,0,1,1.494-.02.891.891,0,0,1,.286.7,1.064,1.064,0,0,1-.113.488,2.133,2.133,0,0,1-.366.485Z" transform="translate(164.45 3095.161)" fill="#604053"/>
    <path id="Trazado_841647" data-name="Trazado 841647" d="M695.653,215.593q-1.124,0-1.124-1.2l.422-.022a1.056,1.056,0,0,0,.158.635.637.637,0,0,0,.544.211.748.748,0,0,0,.524-.182.615.615,0,0,0,.2-.476.607.607,0,0,0-.193-.475.689.689,0,0,0-.483-.175h-.168v-.352h.163a.5.5,0,0,0,.369-.156.522.522,0,0,0,.153-.383.474.474,0,0,0-.162-.371.6.6,0,0,0-.41-.144.655.655,0,0,0-.269.05.387.387,0,0,0-.172.147.688.688,0,0,0-.086.215,1.273,1.273,0,0,0-.026.273l-.422-.014a1.092,1.092,0,0,1,.253-.774.937.937,0,0,1,.72-.271,1,1,0,0,1,.692.247.787.787,0,0,1,.277.613.74.74,0,0,1-.134.438.773.773,0,0,1-.338.274.922.922,0,0,1,.474.309.864.864,0,0,1,.185.568.927.927,0,0,1-.322.735,1.212,1.212,0,0,1-.823.28" transform="translate(158.907 3095.168)" fill="#604053"/>
    <path id="Trazado_841648" data-name="Trazado 841648" d="M597.972,212.188h.388v3.374h-.41v-2.921l-.809.7V212.9Z" transform="translate(182.687 3095.153)" fill="#604053"/>
    <path id="Trazado_841649" data-name="Trazado 841649" d="M571.568,215.2h1.679v.381h-2.276v-.314l1.351-1.4a1.586,1.586,0,0,0,.3-.4.8.8,0,0,0,.084-.347.584.584,0,0,0-.17-.447.693.693,0,0,0-.9.014.745.745,0,0,0-.172.543v.249l-.415-.039v-.208a1.066,1.066,0,0,1,.286-.8,1.18,1.18,0,0,1,1.494-.02.891.891,0,0,1,.286.7,1.062,1.062,0,0,1-.113.488,2.127,2.127,0,0,1-.366.485Z" transform="translate(189.077 3095.161)" fill="#604053"/>
    <path id="Trazado_841650" data-name="Trazado 841650" d="M543.347,215.593q-1.124,0-1.124-1.2l.422-.022a1.057,1.057,0,0,0,.158.635.637.637,0,0,0,.544.211.748.748,0,0,0,.524-.182.615.615,0,0,0,.2-.476.606.606,0,0,0-.193-.475.689.689,0,0,0-.483-.175h-.168v-.352h.163a.5.5,0,0,0,.369-.156.522.522,0,0,0,.153-.383.474.474,0,0,0-.163-.371.6.6,0,0,0-.41-.144.656.656,0,0,0-.269.05.386.386,0,0,0-.172.147.688.688,0,0,0-.086.215,1.269,1.269,0,0,0-.026.273l-.422-.014a1.092,1.092,0,0,1,.253-.774.937.937,0,0,1,.72-.271,1,1,0,0,1,.692.247.787.787,0,0,1,.277.613.74.74,0,0,1-.134.438.773.773,0,0,1-.338.274.922.922,0,0,1,.474.309.864.864,0,0,1,.184.568.927.927,0,0,1-.322.735,1.212,1.212,0,0,1-.823.28" transform="translate(196.097 3095.168)" fill="#604053"/>
    <path id="Trazado_841651" data-name="Trazado 841651" d="M724.43,214.5v.366h-.5v.651h-.4v-.651h-1.549V214.5l1.347-2.219h.6V214.5Zm-2.034,0h1.137V212.57Z" transform="translate(152.203 3095.131)" fill="#604053"/>
    <path id="Trazado_841652" data-name="Trazado 841652" d="M748.033,213.4a1.253,1.253,0,0,1,.883.273.986.986,0,0,1,.292.76,1.074,1.074,0,0,1-.3.788,1.052,1.052,0,0,1-.784.3,1.242,1.242,0,0,1-.406-.066,1.089,1.089,0,0,1-.343-.188.868.868,0,0,1-.239-.319,1.048,1.048,0,0,1-.088-.437,1.512,1.512,0,0,1,.011-.166l.407-.034a1.707,1.707,0,0,0-.019.181.73.73,0,0,0,.059.3.522.522,0,0,0,.157.206.711.711,0,0,0,.213.111.762.762,0,0,0,.24.037.662.662,0,0,0,.5-.2.7.7,0,0,0,.19-.508.67.67,0,0,0-.2-.51.882.882,0,0,0-.622-.187h-.819l.2-1.5h1.7v.37h-1.361l-.106.779Z" transform="translate(146.083 3095.137)" fill="#604053"/>
    <path id="Trazado_841653" data-name="Trazado 841653" d="M774.466,214.413a1.093,1.093,0,0,1-.147.582,1.028,1.028,0,0,1-.407.4,1.157,1.157,0,0,1-.561.138,1.13,1.13,0,0,1-.8-.3,1.029,1.029,0,0,1-.324-.785,1.27,1.27,0,0,1,.28-.777l1.082-1.407h.469l-.9,1.134a1.018,1.018,0,0,1,.28-.039,1.034,1.034,0,0,1,.5.124.993.993,0,0,1,.379.372,1.115,1.115,0,0,1,.154.568m-1.125.745a.7.7,0,0,0,.735-.752.71.71,0,0,0-.742-.747.7.7,0,0,0-.529.222.744.744,0,0,0-.2.541.713.713,0,0,0,.208.54.738.738,0,0,0,.532.2" transform="translate(139.936 3095.137)" fill="#604053"/>
    <path id="Trazado_841654" data-name="Trazado 841654" d="M797.561,212.279h2.214v.333l-1.581,2.9h-.456l1.6-2.869h-1.772Z" transform="translate(133.749 3095.131)" fill="#604053"/>
    <path id="Trazado_841655" data-name="Trazado 841655" d="M518.708,214.5v.366h-.5v.651h-.4v-.651h-1.549V214.5l1.347-2.219h.6V214.5Zm-2.035,0h1.138V212.57Z" transform="translate(202.436 3095.131)" fill="#604053"/>
    <path id="Trazado_841656" data-name="Trazado 841656" d="M492.505,213.4a1.252,1.252,0,0,1,.883.273.986.986,0,0,1,.292.76,1.074,1.074,0,0,1-.3.788,1.053,1.053,0,0,1-.785.3,1.241,1.241,0,0,1-.406-.066,1.09,1.09,0,0,1-.343-.188.87.87,0,0,1-.239-.319,1.047,1.047,0,0,1-.088-.437,1.52,1.52,0,0,1,.011-.166l.407-.034a1.718,1.718,0,0,0-.019.181.731.731,0,0,0,.059.3.521.521,0,0,0,.157.206.709.709,0,0,0,.213.111.76.76,0,0,0,.24.037.662.662,0,0,0,.5-.2.7.7,0,0,0,.19-.508.669.669,0,0,0-.2-.51.882.882,0,0,0-.622-.187h-.819l.2-1.5h1.7v.37h-1.361l-.106.779Z" transform="translate(208.478 3095.137)" fill="#604053"/>
    <path id="Trazado_841657" data-name="Trazado 841657" d="M467.507,214.413a1.1,1.1,0,0,1-.147.582,1.029,1.029,0,0,1-.407.4,1.157,1.157,0,0,1-.561.138,1.13,1.13,0,0,1-.8-.3,1.029,1.029,0,0,1-.324-.785,1.27,1.27,0,0,1,.28-.777l1.082-1.407h.469l-.9,1.134a1.017,1.017,0,0,1,.28-.039,1.034,1.034,0,0,1,.5.124.994.994,0,0,1,.379.372,1.115,1.115,0,0,1,.154.568m-1.125.745a.7.7,0,0,0,.735-.752.71.71,0,0,0-.742-.747.7.7,0,0,0-.529.222.744.744,0,0,0-.2.541.713.713,0,0,0,.208.54.739.739,0,0,0,.532.2" transform="translate(214.889 3095.137)" fill="#604053"/>
    <path id="Trazado_841658" data-name="Trazado 841658" d="M440.421,212.279h2.214v.333l-1.581,2.9H440.6l1.6-2.869h-1.772Z" transform="translate(220.955 3095.131)" fill="#604053"/>
    <text id="Resultado" transform="translate(694.149 3201.335)" fill="#12263f" font-size="14" font-family="SegoeUI, Segoe UI"><tspan x="0" y="0">Resultado</tspan></text>
    <rect id="Rectángulo_381443" data-name="Rectángulo 381443" width="10.035" height="9.952" transform="translate(825.651 3373.089)" fill="#51bacf"/>
    <rect id="Rectángulo_381444" data-name="Rectángulo 381444" width="10.035" height="9.952" transform="translate(825.651 3392.138)" fill="#f6e094"/>
    <rect id="Rectángulo_381445" data-name="Rectángulo 381445" width="10.035" height="9.952" transform="translate(825.651 3411.188)" fill="#e2208a"/>
    <text id="Pequeño" transform="translate(841.454 3382.493)" fill="#12263f" font-size="14" font-family="SegoeUI, Segoe UI"><tspan x="0" y="0">Pequeño</tspan></text>
    <text id="Mediano" transform="translate(841.454 3401.138)" fill="#12263f" font-size="14" font-family="SegoeUI, Segoe UI"><tspan x="0" y="0">Mediano</tspan></text>
    <text id="Grande" transform="translate(841.454 3419.781)" fill="#12263f" font-size="14" font-family="SegoeUI, Segoe UI"><tspan x="0" y="0">Grande</tspan></text>
  </g>
</svg>
