<svg id="signo-de-interrogacion" xmlns="http://www.w3.org/2000/svg" width="202.078" height="200.846" viewBox="0 0 202.078 200.846">
  <path id="Trazado_59723" data-name="Trazado 59723" d="M12.63,0H164.188a12.63,12.63,0,0,1,12.63,12.63V126.3a12.63,12.63,0,0,1-12.63,12.63H12.63A12.63,12.63,0,0,1,0,126.3V12.63A12.63,12.63,0,0,1,12.63,0Zm0,0" fill="#673ab7"/>
  <path id="Trazado_59724" data-name="Trazado 59724" d="M202.929,239.587l-58.648-36.658H76.63A12.631,12.631,0,0,1,64,190.3V76.63A12.63,12.63,0,0,1,76.63,64H228.188a12.63,12.63,0,0,1,12.63,12.63V190.3a12.631,12.631,0,0,1-12.63,12.63h-25.26Zm0,0" transform="translate(-38.74 -38.74)" fill="#fff"/>
  <g id="Grupo_31684" data-name="Grupo 31684" transform="translate(37.89 37.89)">
    <path id="Trazado_59725" data-name="Trazado 59725" d="M255.575,191.148h-12.63v-25.26h6.315a12.63,12.63,0,1,0-12.63-12.63H224a25.26,25.26,0,1,1,31.575,24.458Zm0,0" transform="translate(-173.48 -115.368)" fill="#673ab7"/>
    <path id="Trazado_59726" data-name="Trazado 59726" d="M272,320h12.63v12.63H272Zm0,0" transform="translate(-202.536 -231.591)" fill="#673ab7"/>
    <path id="Trazado_59727" data-name="Trazado 59727" d="M108.63,121.26H96V96h25.26v12.63H108.63Zm0,0" transform="translate(-96 -96)" fill="#673ab7"/>
    <path id="Trazado_59728" data-name="Trazado 59728" d="M441.26,345.26H416V332.63h12.63V320h12.63Zm0,0" transform="translate(-289.701 -231.591)" fill="#673ab7"/>
  </g>
</svg>
