<svg xmlns="http://www.w3.org/2000/svg" xmlns:xlink="http://www.w3.org/1999/xlink" width="359.092" height="301.334" viewBox="0 0 359.092 301.334">
  <defs>
    <clipPath id="clip-path">
      <rect id="Rectángulo_381647" data-name="Rectángulo 381647" width="351.866" height="256.486" fill="none"/>
    </clipPath>
    <clipPath id="clip-path-3">
      <rect id="Rectángulo_381621" data-name="Rectángulo 381621" width="60.722" height="53.876" fill="none"/>
    </clipPath>
    <clipPath id="clip-path-4">
      <rect id="Rectángulo_381622" data-name="Rectángulo 381622" width="97.03" height="9.033" fill="none"/>
    </clipPath>
    <clipPath id="clip-path-5">
      <rect id="Rectángulo_381627" data-name="Rectángulo 381627" width="0.509" height="85.557" fill="none"/>
    </clipPath>
    <clipPath id="clip-path-6">
      <rect id="Rectángulo_381628" data-name="Rectángulo 381628" width="87.556" height="0.412" fill="none"/>
    </clipPath>
    <clipPath id="clip-path-7">
      <rect id="Rectángulo_381629" data-name="Rectángulo 381629" width="5.352" height="6.536" fill="none"/>
    </clipPath>
    <clipPath id="clip-path-8">
      <rect id="Rectángulo_381630" data-name="Rectángulo 381630" width="4.333" height="6.344" fill="none"/>
    </clipPath>
    <clipPath id="clip-path-9">
      <rect id="Rectángulo_381631" data-name="Rectángulo 381631" width="2.308" height="2.416" fill="none"/>
    </clipPath>
    <clipPath id="clip-path-10">
      <rect id="Rectángulo_381632" data-name="Rectángulo 381632" width="3.924" height="4.162" fill="none"/>
    </clipPath>
    <clipPath id="clip-path-11">
      <rect id="Rectángulo_381633" data-name="Rectángulo 381633" width="3.732" height="4.236" fill="none"/>
    </clipPath>
    <clipPath id="clip-path-12">
      <rect id="Rectángulo_381634" data-name="Rectángulo 381634" width="3.891" height="5.011" fill="none"/>
    </clipPath>
    <clipPath id="clip-path-13">
      <rect id="Rectángulo_381635" data-name="Rectángulo 381635" width="2.056" height="2.435" fill="none"/>
    </clipPath>
    <clipPath id="clip-path-14">
      <rect id="Rectángulo_381636" data-name="Rectángulo 381636" width="30.747" height="22.583" fill="none"/>
    </clipPath>
    <clipPath id="clip-path-15">
      <rect id="Rectángulo_381638" data-name="Rectángulo 381638" width="5.065" height="16.672" fill="none"/>
    </clipPath>
    <clipPath id="clip-path-16">
      <rect id="Rectángulo_381639" data-name="Rectángulo 381639" width="5.065" height="9.192" fill="none"/>
    </clipPath>
    <clipPath id="clip-path-17">
      <rect id="Rectángulo_381643" data-name="Rectángulo 381643" width="47.484" height="70.684" fill="none"/>
    </clipPath>
    <clipPath id="clip-path-18">
      <rect id="Rectángulo_381640" data-name="Rectángulo 381640" width="7.219" height="18.998" fill="none"/>
    </clipPath>
    <clipPath id="clip-path-19">
      <rect id="Rectángulo_381641" data-name="Rectángulo 381641" width="10.035" height="14.882" fill="none"/>
    </clipPath>
    <clipPath id="clip-path-20">
      <rect id="Rectángulo_381642" data-name="Rectángulo 381642" width="23.189" height="43.302" fill="none"/>
    </clipPath>
    <clipPath id="clip-path-21">
      <path id="Trazado_842084" data-name="Trazado 842084" d="M73.934,135.115S58.359,136.705,57.38,149.6s5.5,66.383,5.5,66.383l42.456-2.71-4-60.625a18.782,18.782,0,0,0-2.935-9.225c-1.628-2.542-3.534-5.425-4.618-5.56l-17.464-4.49Z" transform="translate(-57.278 -133.376)" fill="none"/>
    </clipPath>
    <clipPath id="clip-path-23">
      <path id="Trazado_842099" data-name="Trazado 842099" d="M62.292,142.3c-7.564,4.637-.734,38.629,3.468,43.267l21.228-15.808-13.21-21.082s-2.677-7.516-7.872-7.516a6.891,6.891,0,0,0-3.614,1.14" transform="translate(-58.894 -141.159)" fill="none"/>
    </clipPath>
  </defs>
  <g id="Grupo_1078978" data-name="Grupo 1078978" transform="translate(-935.454 -6029.44)">
    <path id="Trazado_842109" data-name="Trazado 842109" d="M375.717,591.183s-65.348-92.044,19.911-164.355a51.5,51.5,0,0,1,8.789-5.945c6.285-3.413,19.923-14.593,21.245-47.7a100.9,100.9,0,0,1,7.55-35.171c8.22-19.451,24.844-42.969,57.4-44.685,19.177-1.011,38.052,5.86,53.842,18.915a111.355,111.355,0,0,1,16.285,16.6,83.162,83.162,0,0,0,21.425,19.421c11.113,6.814,26.79,13.579,43.165,11.492a46.232,46.232,0,0,1,24.37,3.267c18.588,8.04,45.174,28.838,39.227,81.472,0,0-3.776,29.154,10,50.815a74.522,74.522,0,0,1,11.253,32.6c2.032,20.6.649,49.153-19.01,63Z" transform="translate(583.672 5736.205)" fill="#eee6ff"/>
    <g id="Grupo_1078883" data-name="Grupo 1078883" transform="translate(942.68 6074.288)" clip-path="url(#clip-path)">
      <g id="Grupo_1078874" data-name="Grupo 1078874">
        <g id="Grupo_1078873" data-name="Grupo 1078873" clip-path="url(#clip-path)">
          <path id="Trazado_841951" data-name="Trazado 841951" d="M97.767,129.048s-.394-3.2,2.564-3.665,11.743-3.162,33.2-1.129c0,0,3.526-18.068,3.56-19.656.089-4.134,1.4-9.5,4.6-12.332.262-.232.452,10.251.567,15.844,0,0,2.7,28.163-.592,30.995s-47.167-.406-43.893-10.055" transform="translate(-37.634 -35.578)" fill="#d1744f"/>
          <path id="Trazado_841952" data-name="Trazado 841952" d="M121.887,143.154a84.718,84.718,0,0,0-21.557,1.841c-2.958.465-2.564,3.665-2.564,3.665-2.195,6.469,16.8,10.055,30.55,10.864a160.2,160.2,0,0,1-6.43-16.37" transform="translate(-37.634 -55.19)" fill="#944438"/>
          <path id="Trazado_841953" data-name="Trazado 841953" d="M103.907,137.742s-11.444-1.9-11.111,7.025,22.632,14.98,28.693,13.531l.024-19.281Z" transform="translate(-35.781 -53.051)" fill="#ffe18f"/>
          <path id="Trazado_841954" data-name="Trazado 841954" d="M114.443,137.771c-1.594.543-3.719,1.158-4.339,2.93a3.579,3.579,0,0,0,2.223,4.623c2.421.917,4.959-.308,7.393-.517a15.219,15.219,0,0,1,7.8,1.4c.492.232.923-.5.429-.733a16.273,16.273,0,0,0-5.971-1.549,15.658,15.658,0,0,0-3.163.134c-1.14.163-2.249.495-3.389.659-1.949.283-4.724-.255-4.685-2.751.034-2.166,2.215-2.8,3.927-3.382.514-.175.294-1-.225-.818" transform="translate(-42.374 -53.118)" fill="#fbf3e8"/>
          <path id="Trazado_841955" data-name="Trazado 841955" d="M126.078,161.19c-1.779,2.135-19.191-2.346-21.1-5.254,0,0-.3-9.746.444-9.947,7.559-2.049,20.657,15.2,20.657,15.2" transform="translate(-40.459 -56.232)" fill="#ffc557"/>
          <path id="Trazado_841956" data-name="Trazado 841956" d="M506.042,329.9a87.363,87.363,0,0,1-2.566-33.829c.068-.563-.816-.558-.883,0a88.006,88.006,0,0,0,2.6,34.063.442.442,0,0,0,.852-.235" transform="translate(-193.571 -114.012)" fill="#34755a"/>
          <path id="Trazado_841957" data-name="Trazado 841957" d="M469.526,310.219a13.27,13.27,0,0,1-14.66-7.412,19.382,19.382,0,0,0,8.281.748c-8.515-2.524-13.782-11.066-16.666-19.466a72.345,72.345,0,0,1-3.9-24.448l6.909,6.34c-2.213-2.295-4.468-4.651-5.776-7.559s-1.5-6.524.326-9.135a118,118,0,0,1,19.576,14.48,4.5,4.5,0,0,1,1.405,1.837,4.6,4.6,0,0,1-.211,2.6q-1.387,4.932-2.773,9.864a44.267,44.267,0,0,1,5.277-8.2,60.167,60.167,0,0,1,9.608,41.761" transform="translate(-170.666 -96.131)" fill="#34755a"/>
          <path id="Trazado_841958" data-name="Trazado 841958" d="M508.578,331.711a38.434,38.434,0,0,1,3.515-17.094c1.892-4.095,5.472-8.323,9.95-7.776,2.6.318,4.7,2.195,6.549,4.051a101.715,101.715,0,0,1,15.27,19.7c2.016,3.392,3.875,7.038,4.118,10.977-6.749-5.643-8.084-16.446-15.7-20.848-.722-.417-1.713-.736-2.324-.168-1.674,1.555,3.28,4.223,1.7,5.87l-5.982-6.2a3.512,3.512,0,0,0-1.568-1.113c-1.06-.264-2.084.484-2.9,1.211a49.364,49.364,0,0,0-10.152,12.642" transform="translate(-196.115 -118.307)" fill="#34755a"/>
          <path id="Trazado_841959" data-name="Trazado 841959" d="M502.243,280.066a53.471,53.471,0,0,1,6.452-24.237,29.009,29.009,0,0,0,.855,13.057c-.177-5.621-.213-11.719,3.136-16.237a23.218,23.218,0,0,1,5.278-4.777,142.284,142.284,0,0,1,20.395-12.243q-2.2,8.407-4.408,16.814a1.612,1.612,0,0,1-2,1.481l-7.3-.059a14.255,14.255,0,0,0,5.6,2.856c.562.142,1.224.327,1.416.874a1.654,1.654,0,0,1-.219,1.214,41.688,41.688,0,0,1-28.448,22.549" transform="translate(-193.677 -90.865)" fill="#34755a"/>
          <g id="Grupo_1078821" data-name="Grupo 1078821" transform="translate(281.216 158.516)" opacity="0.3">
            <g id="Grupo_1078820" data-name="Grupo 1078820">
              <g id="Grupo_1078819" data-name="Grupo 1078819" clip-path="url(#clip-path-3)">
                <path id="Trazado_841960" data-name="Trazado 841960" d="M464.213,267.3a50.961,50.961,0,0,1,.381,10.916c-.024.328.485.326.509,0a51.543,51.543,0,0,0-.4-11.051c-.046-.323-.537-.186-.491.135" transform="translate(-460.226 -261.469)" fill="#fbf3e8"/>
                <path id="Trazado_841961" data-name="Trazado 841961" d="M469.481,271.529q-.563,4.96-1.126,9.919c-.037.325.473.323.509,0q.563-4.96,1.126-9.919c.037-.325-.473-.323-.509,0" transform="translate(-461.824 -263.131)" fill="#fbf3e8"/>
                <path id="Trazado_841962" data-name="Trazado 841962" d="M480.294,317.368a156.5,156.5,0,0,0-16.546-31.35q-2.812-4.111-5.881-8.037c-.2-.258-.56.1-.361.36a155.967,155.967,0,0,1,18.321,29.875q2.14,4.577,3.977,9.287c.118.3.611.171.491-.135" transform="translate(-457.618 -265.678)" fill="#fbf3e8"/>
                <path id="Trazado_841963" data-name="Trazado 841963" d="M522.492,273.134q.523-5.487,1.047-10.973c.031-.326-.479-.324-.51,0l-1.047,10.973c-.031.326.479.324.509,0" transform="translate(-482.505 -259.518)" fill="#fbf3e8"/>
                <path id="Trazado_841964" data-name="Trazado 841964" d="M527.893,257.845a43.1,43.1,0,0,0-2.693,11.029c-.036.326.474.323.509,0a42.64,42.64,0,0,1,2.674-10.893c.119-.305-.373-.437-.491-.135" transform="translate(-483.745 -257.882)" fill="#fbf3e8"/>
                <path id="Trazado_841965" data-name="Trazado 841965" d="M505.613,292.4a43.382,43.382,0,0,1,18.553-19.857c.287-.157.031-.6-.257-.44a43.832,43.832,0,0,0-18.735,20.04c-.136.3.3.555.44.257" transform="translate(-476.013 -263.432)" fill="#fbf3e8"/>
                <path id="Trazado_841966" data-name="Trazado 841966" d="M528.767,315.908l5.748,5.748a.255.255,0,0,0,.36-.36l-5.748-5.748a.255.255,0,0,0-.36.36" transform="translate(-485.092 -280.17)" fill="#fbf3e8"/>
                <path id="Trazado_841967" data-name="Trazado 841967" d="M533.795,315.294a71.93,71.93,0,0,1,13.7,11.78c.221.243.579-.117.36-.361a72.455,72.455,0,0,0-13.8-11.859c-.274-.181-.53.26-.257.44" transform="translate(-487.015 -279.915)" fill="#fbf3e8"/>
                <path id="Trazado_841968" data-name="Trazado 841968" d="M527.344,315.909a5.166,5.166,0,0,0-5.08-.124,9.735,9.735,0,0,0-4.063,4.483,54.081,54.081,0,0,0-4.78,13.579c-.07.319.421.456.491.135a57.419,57.419,0,0,1,4.171-12.333,12.771,12.771,0,0,1,3.3-4.709,4.955,4.955,0,0,1,5.707-.592c.275.179.531-.261.257-.44" transform="translate(-479.201 -280.057)" fill="#fbf3e8"/>
              </g>
            </g>
          </g>
          <path id="Trazado_841969" data-name="Trazado 841969" d="M500.531,384.881H478.788a11.913,11.913,0,0,1-11.913-11.913V341h45.569v31.968a11.914,11.914,0,0,1-11.913,11.913" transform="translate(-180.039 -131.498)" fill="#944438"/>
          <path id="Trazado_841970" data-name="Trazado 841970" d="M500.531,384.881H478.788a11.913,11.913,0,0,1-11.913-11.913V341" transform="translate(-180.039 -131.498)" fill="#d1744f"/>
          <path id="Trazado_841971" data-name="Trazado 841971" d="M324.342,43a16.977,16.977,0,0,0-16.978-16.977l-154.046.1A21.686,21.686,0,0,0,131.646,47.81V240.819a23.769,23.769,0,0,0,23.768,23.768H284.275l40.765-.567Z" transform="translate(-50.766 -10.035)" fill="#fff"/>
          <path id="Trazado_841972" data-name="Trazado 841972" d="M165.27,405.118c6.361,0,15.582-8.544,15.582-14.9H356.32s-.678,14.9-17.615,14.9Z" transform="translate(-63.732 -150.476)" fill="#ffd54f"/>
          <g id="Grupo_1078824" data-name="Grupo 1078824" transform="translate(123.55 22.282)" style="mix-blend-mode: multiply;isolation: isolate">
            <g id="Grupo_1078823" data-name="Grupo 1078823">
              <g id="Grupo_1078822" data-name="Grupo 1078822" clip-path="url(#clip-path-4)">
                <path id="Trazado_841973" data-name="Trazado 841973" d="M210.132,40.785a4.517,4.517,0,1,0-4.516,4.517,4.516,4.516,0,0,0,4.516-4.517" transform="translate(-201.099 -36.268)" fill="#f7ead7"/>
                <path id="Trazado_841974" data-name="Trazado 841974" d="M282.544,40.785a4.517,4.517,0,1,0-4.516,4.517,4.516,4.516,0,0,0,4.516-4.517" transform="translate(-229.023 -36.268)" fill="#f7ead7"/>
                <path id="Trazado_841975" data-name="Trazado 841975" d="M353.362,40.785a4.517,4.517,0,1,0-4.516,4.517,4.516,4.516,0,0,0,4.516-4.517" transform="translate(-256.332 -36.268)" fill="#f7ead7"/>
              </g>
            </g>
          </g>
          <path id="Trazado_841976" data-name="Trazado 841976" d="M214.422,32.979A16.482,16.482,0,0,1,200.75,25.71l3.663-2.475a12.07,12.07,0,1,0-2.06-6.745h-4.421a16.5,16.5,0,1,1,16.489,16.489Z" transform="translate(-77.18 -0.853)" fill="#12263f"/>
          <path id="Trazado_841977" data-name="Trazado 841977" d="M286.1,32.979a16.482,16.482,0,0,1-13.672-7.269l3.663-2.475a12.07,12.07,0,1,0-2.06-6.745h-4.421A16.5,16.5,0,1,1,286.1,32.979Z" transform="translate(-104.821 -0.853)" fill="#12263f"/>
          <path id="Trazado_841978" data-name="Trazado 841978" d="M357.775,32.979A16.482,16.482,0,0,1,344.1,25.71l3.663-2.475a12.07,12.07,0,1,0-2.06-6.745h-4.421a16.5,16.5,0,1,1,16.489,16.489Z" transform="translate(-132.461 -0.853)" fill="#12263f"/>
          <rect id="Rectángulo_381623" data-name="Rectángulo 381623" width="32.556" height="12.164" transform="translate(216.245 189.178)" fill="#ffd54f"/>
          <rect id="Rectángulo_381624" data-name="Rectángulo 381624" width="32.556" height="12.164" transform="translate(216.433 173.079)" fill="#064260"/>
          <path id="Trazado_841979" data-name="Trazado 841979" d="M223.213,163.485H195.8v-35.9h35.9v27.409l-8.491,8.491" transform="translate(-75.507 -49.2)" fill="#895cd8"/>
          <path id="Trazado_841980" data-name="Trazado 841980" d="M240.122,180.487c2.219-3.227.4-8.269.4-8.269l8.269-.02s-5.944,9.535-8.673,8.289" transform="translate(-92.597 -66.404)" fill="#673ab7"/>
          <rect id="Rectángulo_381625" data-name="Rectángulo 381625" width="16.941" height="6.646" transform="translate(128.927 74.507)" fill="#ffe18f"/>
          <path id="Trazado_841981" data-name="Trazado 841981" d="M192.884,116.741H165.475v-35.9h35.9V108.25l-8.491,8.491" transform="translate(-63.811 -31.174)" fill="#d1bcff"/>
          <path id="Trazado_841982" data-name="Trazado 841982" d="M209.792,133.743c2.219-3.227.4-8.269.4-8.269l8.27-.02s-5.944,9.535-8.673,8.289" transform="translate(-80.901 -48.378)" fill="#895cd8"/>
          <rect id="Rectángulo_381626" data-name="Rectángulo 381626" width="16.941" height="6.646" transform="translate(110.293 45.789)" fill="#ffe18f"/>
          <path id="Trazado_841983" data-name="Trazado 841983" d="M303.608,164.824h-33.9V130.6l.325.058a5.182,5.182,0,0,0,4.985-1.48c1.755-1.829,2.851-5.246,3.258-10.156a83.523,83.523,0,0,0-.357-14.645,182.694,182.694,0,0,0-2.936-18.818l-.055-.249,7.644-2.352.043.324a32.009,32.009,0,0,0,3.587,10.273c3.836,6.771,9.507,10.2,16.856,10.2v.553a18.808,18.808,0,0,1-10.985-3.287,21.6,21.6,0,0,1-6.361-7.212,32.941,32.941,0,0,1-3.6-10.136l-6.54,2.013a184.236,184.236,0,0,1,2.892,18.634,84.061,84.061,0,0,1,.358,14.745c-.418,5.04-1.566,8.57-3.411,10.494a5.7,5.7,0,0,1-5.156,1.693v33.019h33.342Z" transform="translate(-104.114 -32.129)" fill="#064260"/>
          <g id="Grupo_1078827" data-name="Grupo 1078827" transform="translate(199.238 56.93)" opacity="0.49">
            <g id="Grupo_1078826" data-name="Grupo 1078826">
              <g id="Grupo_1078825" data-name="Grupo 1078825" clip-path="url(#clip-path-5)">
                <path id="Línea_904" data-name="Línea 904" d="M0,2.452a.415.415,0,0,1-.414-.414V0A.415.415,0,0,1,0-.415.415.415,0,0,1,.414,0V2.037A.415.415,0,0,1,0,2.452Z" transform="translate(0.255 0.255)" fill="#064260"/>
                <path id="Línea_905" data-name="Línea 905" d="M0,74.995a.415.415,0,0,1-.414-.414V69.37A.415.415,0,0,1,0,68.956a.415.415,0,0,1,.414.414v5.21A.415.415,0,0,1,0,74.995ZM0,62.848a.415.415,0,0,1-.414-.415V55.5A.415.415,0,0,1,0,55.082a.415.415,0,0,1,.414.414v6.937A.415.415,0,0,1,0,62.848ZM0,48.974a.415.415,0,0,1-.414-.415V41.622A.415.415,0,0,1,0,41.208a.415.415,0,0,1,.414.414v6.937A.415.415,0,0,1,0,48.974ZM0,35.1a.415.415,0,0,1-.414-.415V27.748A.415.415,0,0,1,0,27.334a.415.415,0,0,1,.414.414v6.937A.415.415,0,0,1,0,35.1ZM0,21.226a.415.415,0,0,1-.414-.415V13.874A.415.415,0,0,1,0,13.46a.415.415,0,0,1,.414.415v6.937A.415.415,0,0,1,0,21.226ZM0,7.352a.415.415,0,0,1-.414-.414V0A.415.415,0,0,1,0-.414.415.415,0,0,1,.414,0V6.937A.415.415,0,0,1,0,7.352Z" transform="translate(0.255 6.554)" fill="#064260"/>
                <path id="Línea_906" data-name="Línea 906" d="M0,2.452a.415.415,0,0,1-.414-.414V0A.415.415,0,0,1,0-.415.415.415,0,0,1,.414,0V2.037A.415.415,0,0,1,0,2.452Z" transform="translate(0.255 83.265)" fill="#064260"/>
              </g>
            </g>
          </g>
          <path id="Línea_907" data-name="Línea 907" d="M.667,21.228H-.667V0H.667Z" transform="translate(183.763 110.957)" fill="#064260"/>
          <path id="Trazado_841984" data-name="Trazado 841984" d="M205.171,315.739l.039-.425a7.717,7.717,0,0,0-.337-2.405,17.2,17.2,0,0,0-3.291-6.1c-.71-.888-1.381-1.651-2.03-2.389a19.949,19.949,0,0,1-3.684-5.22,16.927,16.927,0,0,1-1.246-5.05h-.179q0-.968.04-1.85-.041-.884-.04-1.85h.179a16.927,16.927,0,0,1,1.246-5.049,19.948,19.948,0,0,1,3.684-5.22c.649-.738,1.319-1.5,2.03-2.389a17.2,17.2,0,0,0,3.291-6.1,7.715,7.715,0,0,0,.337-2.406l-.036-.423.42.061,59.167,8.791v29.178ZM195.152,292.3c.293,6.43,2.173,8.57,4.9,11.677.654.744,1.329,1.513,2.049,2.413a17.82,17.82,0,0,1,3.427,6.389,9.605,9.605,0,0,1,.352,2.179l58.206-8.648V278.286l-58.206-8.648a9.6,9.6,0,0,1-.352,2.179,17.82,17.82,0,0,1-3.427,6.389c-.72.9-1.4,1.669-2.05,2.413C197.325,283.726,195.445,285.866,195.152,292.3Z" transform="translate(-75.111 -103.829)" fill="#064260"/>
          <g id="Grupo_1078830" data-name="Grupo 1078830" transform="translate(112.058 186.747)" opacity="0.49">
            <g id="Grupo_1078829" data-name="Grupo 1078829">
              <g id="Grupo_1078828" data-name="Grupo 1078828" clip-path="url(#clip-path-6)">
                <path id="Línea_908" data-name="Línea 908" d="M87.144.336H85.888A.335.335,0,0,1,85.553,0a.335.335,0,0,1,.336-.336h1.256A.336.336,0,0,1,87.48,0,.336.336,0,0,1,87.144.336Zm-6.624,0H75.152A.335.335,0,0,1,74.817,0a.335.335,0,0,1,.336-.336H80.52A.336.336,0,0,1,80.856,0,.336.336,0,0,1,80.52.336Zm-10.736,0H64.416A.335.335,0,0,1,64.081,0a.335.335,0,0,1,.336-.336h5.368A.336.336,0,0,1,70.12,0,.336.336,0,0,1,69.784.336Zm-10.736,0H53.68A.335.335,0,0,1,53.345,0a.335.335,0,0,1,.335-.336h5.368A.336.336,0,0,1,59.384,0,.336.336,0,0,1,59.048.336Zm-10.736,0H42.944A.335.335,0,0,1,42.609,0a.335.335,0,0,1,.335-.336h5.368A.336.336,0,0,1,48.648,0,.336.336,0,0,1,48.312.336Zm-10.736,0H32.208A.335.335,0,0,1,31.873,0a.335.335,0,0,1,.335-.336h5.368A.336.336,0,0,1,37.912,0,.336.336,0,0,1,37.576.336ZM26.84.336H21.472A.335.335,0,0,1,21.137,0a.335.335,0,0,1,.336-.336H26.84A.336.336,0,0,1,27.176,0,.336.336,0,0,1,26.84.336ZM16.1.336H10.736A.335.335,0,0,1,10.4,0a.335.335,0,0,1,.336-.336H16.1A.336.336,0,0,1,16.44,0,.336.336,0,0,1,16.1.336ZM5.368.336H0A.335.335,0,0,1-.335,0,.335.335,0,0,1,0-.336H5.368A.336.336,0,0,1,5.7,0,.336.336,0,0,1,5.368.336Z" transform="translate(0.206 0.206)" fill="#064260"/>
              </g>
            </g>
          </g>
          <path id="Trazado_841985" data-name="Trazado 841985" d="M237.459,219.953a16.75,16.75,0,0,1,7.771,22.509c-.238.49.494.92.733.429a17.6,17.6,0,0,0-8.075-23.671c-.488-.24-.919.491-.428.733" transform="translate(-91.487 -84.518)" fill="#064260"/>
          <path id="Trazado_841986" data-name="Trazado 841986" d="M245.3,246.465a22.474,22.474,0,0,1,1.809,7.937.43.43,0,0,0,.724.3l7.961-6.49c.424-.345-.18-.943-.6-.6l-7.961,6.49.724.3a23.6,23.6,0,0,0-1.925-8.365c-.216-.5-.947-.069-.733.428" transform="translate(-94.578 -94.792)" fill="#064260"/>
          <path id="Trazado_841987" data-name="Trazado 841987" d="M261.846,133.465H282.17a.425.425,0,0,0,0-.849H261.846a.425.425,0,0,0,0,.849" transform="translate(-100.816 -51.14)" fill="#064260"/>
          <path id="Trazado_841988" data-name="Trazado 841988" d="M290.166,124.418a14.287,14.287,0,0,0,4.411,5.562q-.043-.333-.086-.667a25.839,25.839,0,0,1-4.2,4c-.431.325-.008,1.063.428.733a26.782,26.782,0,0,0,4.369-4.132.434.434,0,0,0-.086-.667,13.473,13.473,0,0,1-4.106-5.257c-.221-.5-.952-.068-.733.428" transform="translate(-111.875 -47.728)" fill="#064260"/>
          <path id="Trazado_841989" data-name="Trazado 841989" d="M325.745,87.85a5.076,5.076,0,1,0-5.076,5.076,5.076,5.076,0,0,0,5.076-5.076" transform="translate(-121.701 -31.92)" fill="#ffd54f"/>
          <path id="Trazado_841990" data-name="Trazado 841990" d="M176.944,300.247a5.076,5.076,0,1,0-5.076,5.076,5.076,5.076,0,0,0,5.076-5.076" transform="translate(-64.319 -113.825)" fill="#ffd54f"/>
          <path id="Trazado_841991" data-name="Trazado 841991" d="M446.742,120.456a.553.553,0,0,1-.51-.34,8.739,8.739,0,0,1-.33-5.5,11.476,11.476,0,0,1,2.643-4.778.553.553,0,0,1,.82.74,10.37,10.37,0,0,0-2.393,4.312,7.629,7.629,0,0,0,.279,4.8.553.553,0,0,1-.51.766Z" transform="translate(-172.051 -42.5)" fill="#0d294d"/>
          <path id="Trazado_841992" data-name="Trazado 841992" d="M477.173,111.928c-.2-2.365-5.284-4.656-3.847-7.579s1.8-3.654-1.761-5.576-2.057-1.779-2.394-6.062-6-4.454-6-4.454a16.708,16.708,0,0,0-11.318,2.958c-1.155.88-3.283,4.633-2.918,6.034,0,0,2.944-.093-.66,5.394s-1.049,8.452.189,9.2l23.064-.424.108-2.634.914,2.613Z" transform="translate(-172.151 -34.013)" fill="#0d294d"/>
          <path id="Trazado_841993" data-name="Trazado 841993" d="M451.39,120.607a4.166,4.166,0,0,1-.542-8.3l.145,1.1a3.058,3.058,0,1,0,1.481.17l.391-1.033a4.167,4.167,0,0,1-1.475,8.064Z" transform="translate(-172.675 -43.521)" fill="#34755a"/>
          <path id="Trazado_841994" data-name="Trazado 841994" d="M452.306,111.616a.929.929,0,1,1-.121.008A.932.932,0,0,1,452.306,111.616Z" transform="translate(-174.275 -43.255)" fill="#34755a"/>
          <path id="Trazado_841995" data-name="Trazado 841995" d="M464.577,101.893a.337.337,0,0,0,.38.3c.793-.108,2.6-.519,3.135,1.523a3.176,3.176,0,0,1-2.5,3.734c-.345.064-1.137.241-1.339.529-.62.882-.733,2.648-1.007,4.866a6.144,6.144,0,0,0,3.4,6.571s-11.6,7.737-12.294,1.607c0,0-.5-11.379-.569-11.429-1.1-.84-4.913-.761-3.606-9.091,1.211-7.717,6.73-7.908,8.148-7.845,1.2.053,5.288-.228,6.25,9.232" transform="translate(-173.496 -35.73)" fill="#f79354"/>
          <path id="Trazado_841996" data-name="Trazado 841996" d="M476.464,111.334s-1.594-2.467-2.713,1.268" transform="translate(-182.69 -42.625)" fill="#d96c21"/>
          <path id="Trazado_841997" data-name="Trazado 841997" d="M461.507,109.182a1.88,1.88,0,1,0,2.074,1.666,1.88,1.88,0,0,0-2.074-1.666" transform="translate(-177.322 -42.099)" fill="#f78737"/>
          <path id="Trazado_841998" data-name="Trazado 841998" d="M449.989,109.782a1.881,1.881,0,0,0,.17-3.517,9.169,9.169,0,0,0-.17,3.517" transform="translate(-173.48 -40.978)" fill="#f78737"/>
          <path id="Trazado_841999" data-name="Trazado 841999" d="M452.413,110.089l3.029,1.041s-1.257,1.195-2.081.74-.948-1.781-.948-1.781" transform="translate(-174.462 -42.453)" fill="#fff"/>
          <path id="Trazado_842000" data-name="Trazado 842000" d="M455.124,106.32l-.182,2.088L453.9,108.1a.264.264,0,0,1-.112-.441Z" transform="translate(-174.96 -41)" fill="#f67216"/>
          <path id="Trazado_842001" data-name="Trazado 842001" d="M460.279,103.485c.292.312-.009-.871-.451-1.094a.841.841,0,0,0-1.148.287,2.627,2.627,0,0,1,1.6.807" transform="translate(-176.878 -39.442)"/>
          <path id="Trazado_842002" data-name="Trazado 842002" d="M452.055,101.575c-.393.168.359-.794.853-.821a.841.841,0,0,1,.936.724,2.632,2.632,0,0,0-1.789.1" transform="translate(-174.281 -38.853)"/>
          <path id="Trazado_842003" data-name="Trazado 842003" d="M458.516,106.561c-.092.358-.308.611-.481.567s-.24-.371-.147-.729.307-.611.481-.566.239.371.147.729" transform="translate(-176.557 -40.81)"/>
          <path id="Trazado_842004" data-name="Trazado 842004" d="M453.98,105.107c-.088.342-.294.584-.46.541s-.229-.354-.141-.7.294-.584.46-.541.228.354.141.7" transform="translate(-174.819 -40.262)"/>
          <path id="Trazado_842005" data-name="Trazado 842005" d="M456.217,120.134a30.076,30.076,0,0,0,5.4-.142c1.773-.351-4.356,5.948-5.4.142" transform="translate(-175.929 -46.266)" fill="#d96c21"/>
          <path id="Trazado_842006" data-name="Trazado 842006" d="M492.071,112.4a.551.551,0,0,1-.418-.191l-3.106-3.592a4.242,4.242,0,0,1-1.326-2.727,4.091,4.091,0,0,1,.433-1.549,5.99,5.99,0,0,0,.275-.714,2.952,2.952,0,0,0-.525-2.5,4.759,4.759,0,0,0-2.3-1.74c-.228-.079-.461-.145-.708-.215a8.122,8.122,0,0,1-1.342-.469,2.679,2.679,0,0,1-1.611-1.958,3.45,3.45,0,0,1,.179-1.422,4.789,4.789,0,0,0,.147-.636c.183-1.4-1.147-2.681-2.164-3.526a.553.553,0,0,1,.707-.85c1.217,1.013,2.806,2.583,2.552,4.52a5.685,5.685,0,0,1-.178.788,2.551,2.551,0,0,0-.149.972,1.634,1.634,0,0,0,1,1.117,7.182,7.182,0,0,0,1.163.4c.251.071.511.145.769.235a5.888,5.888,0,0,1,2.842,2.153,4.032,4.032,0,0,1,.681,3.435,6.91,6.91,0,0,1-.323.849,3.227,3.227,0,0,0-.343,1.136,3.271,3.271,0,0,0,1.057,1.979l3.106,3.592a.553.553,0,0,1-.418.914Z" transform="translate(-185.085 -34.99)" fill="#0d294d"/>
          <path id="Trazado_842007" data-name="Trazado 842007" d="M456.426,90.926s-1.08,3.9,1.757,2.957,3.42-1.7,4.914,1.857.6,5.388,5.239,4.32c0,0,2.563-18.561-11.911-9.134" transform="translate(-175.931 -34.034)" fill="#0d294d"/>
          <path id="Trazado_842008" data-name="Trazado 842008" d="M448.451,104.183l.4.082a.4.4,0,0,0,.475-.314l.017-.084a.4.4,0,0,0-.314-.474l-.4-.082Z" transform="translate(-172.934 -39.839)"/>
          <path id="Trazado_842009" data-name="Trazado 842009" d="M448.934,104.435h0a.567.567,0,0,1-.113-.011l-.561-.115.243-1.189.561.115a.564.564,0,0,1,.44.665l-.017.084A.567.567,0,0,1,448.934,104.435Zm-.292-.378.244.05a.242.242,0,0,0,.048,0h0a.242.242,0,0,0,.236-.193l.017-.084a.241.241,0,0,0-.188-.284l-.244-.05Z" transform="translate(-172.934 -39.839)"/>
          <g id="Grupo_1078833" data-name="Grupo 1078833" transform="translate(280.399 62.5)" opacity="0.27">
            <g id="Grupo_1078832" data-name="Grupo 1078832">
              <g id="Grupo_1078831" data-name="Grupo 1078831" clip-path="url(#clip-path-7)">
                <path id="Trazado_842010" data-name="Trazado 842010" d="M456.48,104.469c-.364,1.78.5,3.461,1.935,3.754s2.888-.914,3.251-2.7-.5-3.461-1.935-3.754-2.888.915-3.251,2.7" transform="translate(-456.397 -101.73)" fill="#fff"/>
              </g>
            </g>
          </g>
          <path id="Trazado_842011" data-name="Trazado 842011" d="M459.3,101.547h0a2.349,2.349,0,0,1,.468.047,2.581,2.581,0,0,1,1.768,1.415,3.893,3.893,0,0,1,.311,2.556,3.333,3.333,0,0,1-3,2.886,2.348,2.348,0,0,1-.469-.047,2.581,2.581,0,0,1-1.767-1.415,3.893,3.893,0,0,1-.311-2.556A3.333,3.333,0,0,1,459.3,101.547Zm-.452,6.536a2.97,2.97,0,0,0,2.639-2.592,3.526,3.526,0,0,0-.277-2.314,2.222,2.222,0,0,0-1.515-1.223,1.982,1.982,0,0,0-.395-.04,2.97,2.97,0,0,0-2.64,2.592,3.525,3.525,0,0,0,.278,2.314,2.222,2.222,0,0,0,1.515,1.223A1.98,1.98,0,0,0,458.847,108.083Z" transform="translate(-175.998 -39.23)" fill="#34755a"/>
          <path id="Trazado_842012" data-name="Trazado 842012" d="M450.67,99.752h0a1.584,1.584,0,0,1,.316.032c1.228.251,1.925,1.936,1.553,3.756-.334,1.641-1.446,2.879-2.585,2.879a1.585,1.585,0,0,1-.316-.032c-1.228-.251-1.925-1.936-1.553-3.756C448.42,100.99,449.532,99.752,450.67,99.752Zm-.716,6.344c.989,0,1.964-1.126,2.269-2.62.336-1.646-.248-3.16-1.3-3.375a1.261,1.261,0,0,0-.252-.025c-.988,0-1.963,1.127-2.268,2.621-.336,1.646.248,3.16,1.3,3.375A1.261,1.261,0,0,0,449.954,106.1Z" transform="translate(-172.816 -38.529)"/>
          <path id="Trazado_842013" data-name="Trazado 842013" d="M450.67,99.752h0a1.584,1.584,0,0,1,.316.032c1.228.251,1.925,1.936,1.553,3.756-.334,1.641-1.446,2.879-2.585,2.879a1.585,1.585,0,0,1-.316-.032c-1.228-.251-1.925-1.936-1.553-3.756C448.42,100.99,449.532,99.752,450.67,99.752Zm-.716,6.344c.989,0,1.964-1.126,2.269-2.62.336-1.646-.248-3.16-1.3-3.375a1.261,1.261,0,0,0-.252-.025c-.988,0-1.963,1.127-2.268,2.621-.336,1.646.248,3.16,1.3,3.375A1.261,1.261,0,0,0,449.954,106.1Z" transform="translate(-172.816 -38.529)"/>
          <g id="Grupo_1078836" data-name="Grupo 1078836" transform="translate(275.33 61.384)" opacity="0.27">
            <g id="Grupo_1078835" data-name="Grupo 1078835">
              <g id="Grupo_1078834" data-name="Grupo 1078834" clip-path="url(#clip-path-8)">
                <path id="Trazado_842014" data-name="Trazado 842014" d="M448.244,102.663c-.354,1.736.285,3.332,1.427,3.566s2.357-.985,2.711-2.721-.284-3.332-1.427-3.566-2.356.985-2.711,2.721" transform="translate(-448.146 -99.913)" fill="#fff"/>
              </g>
            </g>
          </g>
          <g id="Grupo_1078839" data-name="Grupo 1078839" transform="translate(283.401 62.504)" opacity="0.27">
            <g id="Grupo_1078838" data-name="Grupo 1078838">
              <g id="Grupo_1078837" data-name="Grupo 1078837" clip-path="url(#clip-path-9)">
                <path id="Trazado_842015" data-name="Trazado 842015" d="M461.284,101.736a2.109,2.109,0,0,1,.332.041,2.687,2.687,0,0,1,1.976,2.375c-.8-.774-1.564-1.586-2.308-2.416" transform="translate(-461.284 -101.736)" fill="#fff"/>
              </g>
            </g>
          </g>
          <g id="Grupo_1078842" data-name="Grupo 1078842" transform="translate(281.679 62.878)" opacity="0.27">
            <g id="Grupo_1078841" data-name="Grupo 1078841">
              <g id="Grupo_1078840" data-name="Grupo 1078840" clip-path="url(#clip-path-10)">
                <path id="Trazado_842016" data-name="Trazado 842016" d="M458.481,102.608a2.909,2.909,0,0,1,.357-.264,45.535,45.535,0,0,0,3.567,3.689,3.865,3.865,0,0,1-.166.472q-1.9-1.927-3.758-3.9" transform="translate(-458.481 -102.344)" fill="#fff"/>
              </g>
            </g>
          </g>
          <g id="Grupo_1078845" data-name="Grupo 1078845" transform="translate(280.399 64.801)" opacity="0.27">
            <g id="Grupo_1078844" data-name="Grupo 1078844">
              <g id="Grupo_1078843" data-name="Grupo 1078843" clip-path="url(#clip-path-11)">
                <path id="Trazado_842017" data-name="Trazado 842017" d="M460.129,109.322a2.324,2.324,0,0,1-1.714.344c-1.432-.292-2.3-1.973-1.935-3.754a4.182,4.182,0,0,1,.116-.439c1.149,1.309,2.321,2.6,3.533,3.848" transform="translate(-456.397 -105.474)" fill="#fff"/>
              </g>
            </g>
          </g>
          <g id="Grupo_1078848" data-name="Grupo 1078848" transform="translate(275.33 62.548)" opacity="0.27">
            <g id="Grupo_1078847" data-name="Grupo 1078847">
              <g id="Grupo_1078846" data-name="Grupo 1078846" clip-path="url(#clip-path-12)">
                <path id="Trazado_842018" data-name="Trazado 842018" d="M450.658,106.818c-.807-.818-1.651-1.6-2.51-2.358a4.7,4.7,0,0,1,.1-1.068,4.475,4.475,0,0,1,.647-1.586,23.634,23.634,0,0,0,3.147,3.479,3.126,3.126,0,0,1-1.38,1.533" transform="translate(-448.146 -101.807)" fill="#fff"/>
              </g>
            </g>
          </g>
          <g id="Grupo_1078851" data-name="Grupo 1078851" transform="translate(277.601 61.384)" opacity="0.27">
            <g id="Grupo_1078850" data-name="Grupo 1078850">
              <g id="Grupo_1078849" data-name="Grupo 1078849" clip-path="url(#clip-path-13)">
                <path id="Trazado_842019" data-name="Trazado 842019" d="M451.843,99.935a1.445,1.445,0,0,1,.536.007c.88.179,1.461,1.169,1.52,2.407q-1.02-1.214-2.056-2.413" transform="translate(-451.843 -99.913)" fill="#fff"/>
              </g>
            </g>
          </g>
          <path id="Trazado_842020" data-name="Trazado 842020" d="M450.67,99.752h0a1.584,1.584,0,0,1,.316.032c1.228.251,1.925,1.936,1.553,3.756-.334,1.641-1.446,2.879-2.585,2.879a1.585,1.585,0,0,1-.316-.032c-1.228-.251-1.925-1.936-1.553-3.756C448.42,100.99,449.532,99.752,450.67,99.752Zm-.716,6.344c.989,0,1.964-1.126,2.269-2.62.336-1.646-.248-3.16-1.3-3.375a1.261,1.261,0,0,0-.252-.025c-.988,0-1.963,1.127-2.268,2.621-.336,1.646.248,3.16,1.3,3.375A1.261,1.261,0,0,0,449.954,106.1Z" transform="translate(-172.816 -38.529)" fill="#34755a"/>
          <path id="Trazado_842021" data-name="Trazado 842021" d="M455.687,106.32c-.04-.287-.161-.558-.228-.571,0,0-.128,0-.379.443l-.319-.181c.169-.3.432-.687.768-.622.382.073.5.693.522.881l-.364.05.182-.025Z" transform="translate(-175.428 -40.709)" fill="#34755a"/>
          <path id="Trazado_842022" data-name="Trazado 842022" d="M465,107.561l.4.082a.4.4,0,0,0,.475-.314l.017-.084a.4.4,0,0,0-.314-.474l-.4-.082Z" transform="translate(-179.315 -41.142)" fill="#34755a"/>
          <path id="Trazado_842023" data-name="Trazado 842023" d="M465.481,107.813h0a.567.567,0,0,1-.113-.011l-.561-.115.243-1.189.561.115a.564.564,0,0,1,.44.665l-.017.084A.567.567,0,0,1,465.481,107.813Zm-.292-.378.244.05a.241.241,0,0,0,.284-.188l.017-.084a.241.241,0,0,0-.188-.284l-.244-.05Z" transform="translate(-179.315 -41.142)" fill="#34755a"/>
          <path id="Línea_909" data-name="Línea 909" d="M5.6.565-.012.161.012-.161l5.609.4Z" transform="translate(285.782 65.985)" fill="#34755a"/>
          <path id="Trazado_842024" data-name="Trazado 842024" d="M474.953,121.267a4.166,4.166,0,0,1-.536-8.3l.145,1.1a3.06,3.06,0,1,0,1.481.171l.391-1.034a4.166,4.166,0,0,1-.927,8.028A4.23,4.23,0,0,1,474.953,121.267Z" transform="translate(-181.764 -43.775)" fill="#34755a"/>
          <path id="Trazado_842025" data-name="Trazado 842025" d="M475.875,112.276a.93.93,0,1,1-.121.008A.931.931,0,0,1,475.875,112.276Z" transform="translate(-183.364 -43.51)" fill="#34755a"/>
          <path id="Trazado_842026" data-name="Trazado 842026" d="M514.077,410.35c0-1.185-16.7-2.146-37.3-2.146s-37.3.961-37.3,2.146,16.7,2.146,37.3,2.146,37.3-.961,37.3-2.146" transform="translate(-169.47 -157.414)" fill="#064260"/>
          <path id="Trazado_842027" data-name="Trazado 842027" d="M454.466,377.063l-2.2,16.56a19.255,19.255,0,0,1,1.016,4.742c-2.19,1.5-9.692,1.2-10.67,0A16.319,16.319,0,0,0,446,393.172l-2.371-16.41Z" transform="translate(-170.681 -145.289)" fill="#d96c21"/>
          <path id="Trazado_842028" data-name="Trazado 842028" d="M453.27,381.5l2.879,19.647s.635.5,1.242-.791c.364-.773-.113-1.355-.96-4.46l1.75-14.566Z" transform="translate(-174.792 -147.049)" fill="#f78737"/>
          <path id="Trazado_842029" data-name="Trazado 842029" d="M508.467,376.762l5.043,15.13s-.678,5.5-.828,5.872c-.534,1.335,5.5-6.1,5.5-6.1l.527-14.6Z" transform="translate(-196.077 -145.289)" fill="#d96c21"/>
          <path id="Trazado_842030" data-name="Trazado 842030" d="M516.8,376.762l2.916,17.88s5.186,3.57,5.59,2.444c.168-.468-3.08-4.252-3.75-5.456l.363-14.567Z" transform="translate(-199.29 -145.289)" fill="#f78737"/>
          <path id="Trazado_842031" data-name="Trazado 842031" d="M432.672,409.64c-.4.294-.113.788.452.793l11.41.092c.275,0,5.472-.286,5.676-.422.021-.014-.565-2.174-.565-2.174l-5.18,1.3a54.729,54.729,0,0,0-2.371-5.024c-.24-.212-9.422,5.436-9.422,5.436" transform="translate(-166.778 -155.869)" fill="#ffe18f"/>
          <path id="Trazado_842032" data-name="Trazado 842032" d="M525.042,407.1a1.432,1.432,0,0,1-.639,2.072c-1.373.817-3.616,2.045-3.616,2.045s-3.726-1.174-5.141-1.79c-.949-.413-1.691-1.02-1.574-1.813l.165-1.064c.014-.091,2.485-4.215,2.485-4.215l3.613-.452Z" transform="translate(-198.234 -154.975)" fill="#ffe18f"/>
          <path id="Trazado_842033" data-name="Trazado 842033" d="M465.6,188.615a67.63,67.63,0,0,1,7.452,18.817c2.362,9.237,24.767,80.18,29.584,97.644-2.91.7-25.989-.167-27.828-.269-5.851-16.767-17.457-63.937-19.966-74.5-.386-1.624-2.083-1.261-1.888.4,1.424,12.063,8.13,58.414,8.13,76.179-1.527.777-25.637.823-27.4.6-1.917-20.689-6.163-93.991,9.2-119.38,7.024-.969,15.6.3,22.718.509" transform="translate(-166.459 -72.399)" fill="#25045e"/>
          <path id="Trazado_842034" data-name="Trazado 842034" d="M439.477,309.445c-.018-.57-1.807-57.29-1.807-78.9a90.331,90.331,0,0,1,1.3-15.154,94.138,94.138,0,0,1,2.863-11.977A70.9,70.9,0,0,1,446,192.706l.4.207a70.492,70.492,0,0,0-4.142,10.65,92.682,92.682,0,0,0-4.14,26.987c0,21.6,1.789,78.311,1.807,78.882Z" transform="translate(-168.862 -74.352)" fill="#fff"/>
          <path id="Línea_910" data-name="Línea 910" d="M33.133,115.911-.214.062.214-.062,33.561,115.787Z" transform="translate(295.603 116.527)" fill="#fff"/>
          <path id="Trazado_842035" data-name="Trazado 842035" d="M482.209,210.049a4.877,4.877,0,0,1-3.151-1.168,11.706,11.706,0,0,1-3.168-4.959,35.829,35.829,0,0,1-1.708-6.553,63.707,63.707,0,0,1-.857-8.185l.446-.012a63.228,63.228,0,0,0,.852,8.125c.98,5.629,2.611,9.514,4.718,11.238a4.445,4.445,0,0,0,3.725.991l.077.439A5.391,5.391,0,0,1,482.209,210.049Z" transform="translate(-182.611 -72.952)" fill="#fff"/>
          <g id="Grupo_1078854" data-name="Grupo 1078854" transform="translate(275.47 114.194)" opacity="0.21" style="mix-blend-mode: multiply;isolation: isolate">
            <g id="Grupo_1078853" data-name="Grupo 1078853">
              <g id="Grupo_1078852" data-name="Grupo 1078852" clip-path="url(#clip-path-14)">
                <path id="Trazado_842036" data-name="Trazado 842036" d="M448.374,187.982l30.747,20.471a69.831,69.831,0,0,0-8.13-22.583Z" transform="translate(-448.374 -185.87)"/>
              </g>
            </g>
          </g>
          <path id="Trazado_842037" data-name="Trazado 842037" d="M441.326,213.069a5.9,5.9,0,0,1-1.022-.092l.077-.439a4.8,4.8,0,0,0,4.008-1.038c2.011-1.632,3.581-5.117,4.538-10.077a51.712,51.712,0,0,0,.848-7.129l.446.015a52.189,52.189,0,0,1-.854,7.192,30.85,30.85,0,0,1-1.657,5.823,11.217,11.217,0,0,1-3.039,4.522A5.2,5.2,0,0,1,441.326,213.069Z" transform="translate(-169.807 -74.928)" fill="#fff"/>
          <path id="Trazado_842038" data-name="Trazado 842038" d="M377.282,166.1c6.47-.2,10.79-.192,11.394-.144l20.857-.456-.063-.053s1.053-.006,1.794-.061a.822.822,0,0,0,.742-.629c2-8.442,6.049-30.694,13.308-28.879.1.026,2.553.385,2.292.713C425.23,139.586,420.9,154.3,420.9,154.3c-.05.223-.043,1.209-.038,2.631,2.555,14.645-.5,15.78-.5,15.78a6.987,6.987,0,0,1-1.54.678l-.033.046-.03-.025c-9.314,2.894-36.261-3.4-36.261-3.4-2.2-.59-7.087-3.85-5.211-3.908" transform="translate(-145.328 -52.358)" fill="#f79354"/>
          <path id="Trazado_842039" data-name="Trazado 842039" d="M450.343,135.879c-3.6-.9-6.415,4.127-8.578,10.452,1.441,2.736,2.861,5.48,4.13,8.294a2.124,2.124,0,0,1,.029-.326s4.334-14.712,6.711-17.706c.261-.329-2.187-.687-2.292-.713" transform="translate(-170.355 -52.358)" fill="#d96c21"/>
          <path id="Trazado_842040" data-name="Trazado 842040" d="M440.7,190.829a11.992,11.992,0,0,0-.041,2.07,15.543,15.543,0,0,0,2.687-.542l.029.026c.012-.015.022-.031.033-.046a6.975,6.975,0,0,0,1.54-.678s1.646-.619,1.509-6.745c-2.919.256-5.438,3.184-5.758,5.915" transform="translate(-169.919 -71.307)" fill="#d96c21"/>
          <path id="Trazado_842041" data-name="Trazado 842041" d="M446.674,145.193,439,141.58s3.839-6.775,11.066-6.1" transform="translate(-169.288 -52.227)" fill="#d1bcff"/>
          <path id="Trazado_842042" data-name="Trazado 842042" d="M389.489,183.293s-4.894-3.1-5.1-2.348c-.4,1.476,3.663,3.029,3.152,3.488,0,0,1.18-.732,1.946-1.14" transform="translate(-148.22 -69.731)" fill="#fcb6a3"/>
          <path id="Trazado_842043" data-name="Trazado 842043" d="M451.014,133.775c.2.5-7.442,15.372-7.2,20.236.246,4.9,1.814,7.256,1.553,7.992,0,0,3.417,3.3,24.389,0,.3-5.118,6.775-16.259-1.505-25.142-.909-1.418-5-4.436-7.076-5.269,0,0-1.89,4.638-10.162,2.183" transform="translate(-171.144 -50.745)" fill="#d1bcff"/>
          <path id="Trazado_842044" data-name="Trazado 842044" d="M470.223,184.175l1.581-6.313s.151.3-3.011,1.054-4.065-3.011-6.624-1.656,0,3.463-3.613,3.162-4.817-5.419-7.226-3.914-7.678.9-7.678.9l3.853,6.256Z" transform="translate(-171.083 -67.959)" fill="#064260"/>
          <path id="Línea_911" data-name="Línea 911" d="M22.713.732,0,.223,0-.223,22.723.286Z" transform="translate(276.422 115.707)" fill="#fff"/>
          <path id="Trazado_842045" data-name="Trazado 842045" d="M418.491,163.252c-2.7,0-6.5-1.256-10.636-6.466l3.19-2.536c2.721,3.424,5.548,5.171,7.936,4.9a5.905,5.905,0,0,0,4.445-3.621c.492-1.012,1.006-2.088,1.537-3.2,3.981-8.345,6.613-23.614,12.936-23.012l.151,3.538c-4.742,1.656-5.848,13.764-9.409,21.228-.536,1.124-1.054,2.209-1.551,3.231a9.867,9.867,0,0,1-7.664,5.889,8.657,8.657,0,0,1-.934.05" transform="translate(-157.279 -49.861)" fill="#ffe18f"/>
          <path id="Trazado_842046" data-name="Trazado 842046" d="M462.673,125.774c-.915,2.293-.495,3.8-1.11,6.2a3.3,3.3,0,0,1-.8,1.495,31.806,31.806,0,0,1-3.5,6.161c-.237.356-.474.71-.707,1.064-5.448,8.272-8.324,15.844-8.794,23.149-.6,9.388,3.152,18.181,9.8,22.944l2.373-3.313c-5.517-3.952-8.624-11.374-8.109-19.369.423-6.581,3.083-13.506,8.13-21.17.229-.348.46-.694.693-1.043,2.032-3.044,4.132-6.19,4.748-10.025.434-2.708-1.311-4.188-2.726-6.1" transform="translate(-172.643 -48.502)" fill="#ffe18f"/>
          <path id="Trazado_842047" data-name="Trazado 842047" d="M423.207,154.35s18.509,23.865,22.86,20.795c0,0,22.583-27.7,12.646-35.078-5.9-4.382-10.087,13.1-15.958,23.034-.179.3-15.284-13.135-15.284-13.135s-7.13-9.427-7.628-8.888c-.721.781,2.042,4.984,2.042,4.984a1.419,1.419,0,0,1-.721.721,1.707,1.707,0,0,0-1.021,1.322c-.18.721-.9,1.141-1.021,1.561s2.563,3.584,4.084,4.685" transform="translate(-161.623 -53.746)" fill="#f79354"/>
          <path id="Trazado_842048" data-name="Trazado 842048" d="M479.6,153.911c2.351-5.764,3.052-11.155-.57-13.844-2.655-1.971-4.962.487-7.231,4.686q4.008,4.489,7.8,9.158" transform="translate(-181.936 -53.747)" fill="#d96c21"/>
          <path id="Trazado_842049" data-name="Trazado 842049" d="M456.939,192.479a10.718,10.718,0,0,0-.859,1.411c1.828,1.226,3.339,1.749,4.241,1.112,0,0,.884-1.086,2.223-2.88-1.943-1.459-3.864-2-5.6.357" transform="translate(-175.875 -73.604)" fill="#d96c21"/>
          <path id="Trazado_842050" data-name="Trazado 842050" d="M469.627,145.744l15.808,4.667s-2.913-9.632-7.377-12.5c-3.99-2.559-4.366-1.355-4.366-1.355Z" transform="translate(-181.1 -52.552)" fill="#d1bcff"/>
          <rect id="Rectángulo_381637" data-name="Rectángulo 381637" width="5.065" height="99.364" transform="translate(222.209 154.165)" fill="#165c80"/>
          <g id="Grupo_1078857" data-name="Grupo 1078857" transform="translate(222.209 154.165)" style="mix-blend-mode: multiply;isolation: isolate">
            <g id="Grupo_1078856" data-name="Grupo 1078856">
              <g id="Grupo_1078855" data-name="Grupo 1078855" clip-path="url(#clip-path-15)">
                <path id="Trazado_842051" data-name="Trazado 842051" d="M366.748,254.5v-3.57h-5.065V267.6q2.449-6.582,5.065-13.1" transform="translate(-361.683 -250.93)" fill="#064260"/>
              </g>
            </g>
          </g>
          <g id="Grupo_1078860" data-name="Grupo 1078860" transform="translate(222.209 244.337)" style="mix-blend-mode: multiply;isolation: isolate">
            <g id="Grupo_1078859" data-name="Grupo 1078859">
              <g id="Grupo_1078858" data-name="Grupo 1078858" clip-path="url(#clip-path-16)">
                <path id="Trazado_842052" data-name="Trazado 842052" d="M361.683,397.7v9.192h5.065v-7.574q-2.524-.836-5.065-1.618" transform="translate(-361.683 -397.7)" fill="#064260"/>
              </g>
            </g>
          </g>
          <path id="Trazado_842053" data-name="Trazado 842053" d="M370.425,410.071H344.53a6.72,6.72,0,0,1,6.721-6.721H363.7a6.721,6.721,0,0,1,6.721,6.721" transform="translate(-132.859 -155.542)" fill="#12263f"/>
          <path id="Trazado_842054" data-name="Trazado 842054" d="M365.3,171.644a11.275,11.275,0,0,1-1.1-7.953,153.316,153.316,0,0,1,5.883-18,9.343,9.343,0,0,0-5.611-11.279l-5.265-2.037c-1.255-.486-3.808-1.693-3.808-3.039v-6.322H340.643v6.322c0,1.346-2.608,2.553-3.863,3.039l-5.265,2.037a9.343,9.343,0,0,0-5.61,11.279,153.3,153.3,0,0,1,5.883,18,11.513,11.513,0,0,1-1.135,8.02c-8.442,15.579-11.04,32.9-11.04,32.9h56.758s-.667-14.224-11.07-32.97" transform="translate(-123.251 -47.437)" fill="#064260"/>
          <g id="Grupo_1078872" data-name="Grupo 1078872" transform="translate(196.362 86.492)" opacity="0.45">
            <g id="Grupo_1078871" data-name="Grupo 1078871">
              <g id="Grupo_1078870" data-name="Grupo 1078870" clip-path="url(#clip-path-17)">
                <g id="Grupo_1078863" data-name="Grupo 1078863" transform="translate(5.931)" style="mix-blend-mode: multiply;isolation: isolate">
                  <g id="Grupo_1078862" data-name="Grupo 1078862">
                    <g id="Grupo_1078861" data-name="Grupo 1078861" clip-path="url(#clip-path-18)">
                      <path id="Trazado_842055" data-name="Trazado 842055" d="M332.295,159.779a27.414,27.414,0,0,1-.331-5.4,28.542,28.542,0,0,1,3.848-12.364q.333-.621.673-1.234l-1.248.483a9.343,9.343,0,0,0-5.61,11.279s1.256,3.164,2.668,7.235" transform="translate(-329.266 -140.781)" fill="#064260"/>
                    </g>
                  </g>
                </g>
                <g id="Grupo_1078866" data-name="Grupo 1078866" transform="translate(37.45 26.21)" style="mix-blend-mode: multiply;isolation: isolate">
                  <g id="Grupo_1078865" data-name="Grupo 1078865">
                    <g id="Grupo_1078864" data-name="Grupo 1078864" clip-path="url(#clip-path-19)">
                      <path id="Trazado_842056" data-name="Trazado 842056" d="M388.62,183.442c-4.613,2.7-10.318,6.929-7.121,11.361,1.749,2.424,5.515,3.189,9.1,3.521q-.846-1.662-1.8-3.377a11.27,11.27,0,0,1-1.1-7.952c.253-1.125.568-2.327.917-3.552" transform="translate(-380.569 -183.442)" fill="#064260"/>
                    </g>
                  </g>
                </g>
                <g id="Grupo_1078869" data-name="Grupo 1078869" transform="translate(0 27.382)" style="mix-blend-mode: multiply;isolation: isolate">
                  <g id="Grupo_1078868" data-name="Grupo 1078868">
                    <g id="Grupo_1078867" data-name="Grupo 1078867" clip-path="url(#clip-path-20)">
                      <path id="Trazado_842057" data-name="Trazado 842057" d="M335.153,221.9A21.053,21.053,0,0,1,331,206.961c.515-5.3,2.828-9.331,5.735-13.306a34.05,34.05,0,0,1-5.544-8.3c.219.818.42,1.618.593,2.382a11.509,11.509,0,0,1-1.135,8.02c-8.441,15.579-11.04,32.9-11.04,32.9H342.8a28.039,28.039,0,0,1-7.649-6.749" transform="translate(-319.613 -185.35)" fill="#064260"/>
                    </g>
                  </g>
                </g>
              </g>
            </g>
          </g>
          <path id="Trazado_842058" data-name="Trazado 842058" d="M375.821,134.532s-1.531,3.786-4.828,5.112l-4.271,6.393.366,26.885,16.259.151,2.258-14.9s-8.13-2.107-4.968-21.227Z" transform="translate(-141.417 -51.879)" fill="#895cd8"/>
          <path id="Trazado_842059" data-name="Trazado 842059" d="M372.208,149.183l-1.215-6.329-4.27,6.393Z" transform="translate(-141.417 -55.088)" fill="#673ab7"/>
          <path id="Línea_912" data-name="Línea 912" d="M0,6.732a.277.277,0,0,1-.078-.011.276.276,0,0,1-.188-.343L1.628-.078a.277.277,0,0,1,.343-.188.276.276,0,0,1,.188.343L.265,6.534A.277.277,0,0,1,0,6.732Z" transform="translate(234.844 77.271)" fill="#064260"/>
          <path id="Trazado_842060" data-name="Trazado 842060" d="M385.667,125.205a.9.9,0,1,0-.9.9.9.9,0,0,0,.9-.9" transform="translate(-148.026 -47.934)" fill="#f67d68"/>
          <path id="Línea_913" data-name="Línea 913" d="M6.715.7H6.7L-.018.276A.276.276,0,0,1-.276-.018.276.276,0,0,1,.017-.276L6.732.15A.277.277,0,0,1,6.715.7Z" transform="translate(242.782 108.009)" fill="#064260"/>
          <path id="Trazado_842061" data-name="Trazado 842061" d="M405.73,176.811a.9.9,0,1,0-1.08-.683.9.9,0,0,0,1.08.683" transform="translate(-156.034 -67.495)" fill="#f67d68"/>
          <path id="Línea_914" data-name="Línea 914" d="M0,6.114a.275.275,0,0,1-.137-.037A.277.277,0,0,1-.24,5.7L3.1-.137a.277.277,0,0,1,.377-.1.277.277,0,0,1,.1.377L.24,5.975A.276.276,0,0,1,0,6.114Z" transform="translate(238.249 79.755)" fill="#064260"/>
          <path id="Trazado_842062" data-name="Trazado 842062" d="M393.544,129.459a.9.9,0,1,0-1.089.668.9.9,0,0,0,1.089-.668" transform="translate(-151.073 -49.493)" fill="#ffe18f"/>
          <path id="Trazado_842063" data-name="Trazado 842063" d="M85.381,411.935c0-1.357-19.113-2.456-42.69-2.456S0,410.579,0,411.935s19.113,2.456,42.69,2.456,42.69-1.1,42.69-2.456" transform="translate(0 -157.905)" fill="#064260"/>
          <path id="Trazado_842064" data-name="Trazado 842064" d="M123.139,396.776l-.151-8.13-7.829.6.2,7.812,3.66,6.351,6.589-5.08Z" transform="translate(-44.408 -149.872)" fill="#d1744f"/>
          <path id="Trazado_842065" data-name="Trazado 842065" d="M122.386,388.892l-6.022,12.8s1.162-2.006-1.2-4.127v-8.67Z" transform="translate(-44.409 -149.966)" fill="#944438"/>
          <path id="Trazado_842066" data-name="Trazado 842066" d="M123.448,400.8a36.875,36.875,0,0,1-4.723,4.347c-1.586,1.2-3.945-3.923-4.678-4.564-.149-.13-.352-.013-.378.218l-.921,8.387h23.184a.537.537,0,0,0,.488-.635c-1.229-6.229-12.972-7.753-12.972-7.753" transform="translate(-43.478 -154.454)" fill="#ffc557"/>
          <path id="Trazado_842067" data-name="Trazado 842067" d="M136.687,409.474H113.164v-.553h13.021a10.316,10.316,0,0,1,.833-2.208,5.4,5.4,0,0,1,3.3-2.977l.079-.02.077.025a13.009,13.009,0,0,1,2.6,1.271,7.843,7.843,0,0,1,3.5,4.1Zm-9.93-.553h9.163c-1.175-2.949-4.96-4.416-5.546-4.628C127.971,404.977,126.986,408.065,126.757,408.921Z" transform="translate(-43.639 -155.794)" fill="#fff"/>
          <path id="Línea_915" data-name="Línea 915" d="M4.595,5.437-.2.187.2-.187,5,5.064Z" transform="translate(70.033 248.097)" fill="#fff"/>
          <path id="Trazado_842068" data-name="Trazado 842068" d="M62.706,398.492l2.409-7.829-8.431-.3-1.807,8.281L58,404.074l6.589-5.081Z" transform="translate(-21.162 -150.533)" fill="#d1744f"/>
          <path id="Trazado_842069" data-name="Trazado 842069" d="M62.836,390.663,55.91,400.3s.108.314-2.258-1.806l2.71-8.13Z" transform="translate(-20.69 -150.533)" fill="#944438"/>
          <path id="Trazado_842070" data-name="Trazado 842070" d="M62.711,402.475a36.827,36.827,0,0,1-4.723,4.347c-1.586,1.2-3.945-3.923-4.678-4.564-.149-.13-.352-.014-.378.218l-.921,8.387H75.194a.537.537,0,0,0,.488-.635c-1.229-6.229-12.972-7.753-12.972-7.753" transform="translate(-20.056 -155.1)" fill="#ffc557"/>
          <path id="Trazado_842071" data-name="Trazado 842071" d="M75.95,411.148H52.427V410.6H65.448a10.316,10.316,0,0,1,.833-2.208,5.4,5.4,0,0,1,3.3-2.977l.079-.02.077.025a13.012,13.012,0,0,1,2.6,1.271,7.843,7.843,0,0,1,3.5,4.1ZM66.02,410.6h9.163c-1.177-2.953-4.961-4.417-5.547-4.628C67.23,406.652,66.248,409.739,66.02,410.6Z" transform="translate(-20.217 -156.439)" fill="#fff"/>
          <path id="Línea_916" data-name="Línea 916" d="M4.595,5.437-.2.187.2-.187,5,5.064Z" transform="translate(32.718 249.125)" fill="#fff"/>
          <path id="Trazado_842072" data-name="Trazado 842072" d="M108.416,237.11s2.982,35.665,3.261,45.52-2.251,48.334-2.251,48.334l-9.964-.032s-10.55-68-22.6-91.763Z" transform="translate(-29.641 -91.435)" fill="#25045e"/>
          <path id="Trazado_842073" data-name="Trazado 842073" d="M115.921,335.022l-1.58-45.14-6.994-26.4.431-.114,7.007,26.446v.025l1.581,45.165Z" transform="translate(-41.479 -101.584)" fill="#fff"/>
          <path id="Trazado_842074" data-name="Trazado 842074" d="M110.9,385.987l11.517-.226.678-6.549H109.768Z" transform="translate(-42.329 -146.234)" fill="#895cd8"/>
          <path id="Trazado_842075" data-name="Trazado 842075" d="M100.287,237.11s-6.895,29.73-13.9,50.763c-5.658,17-20.649,43.842-20.649,43.842l-10.02-.439,10.649-42.9a42.325,42.325,0,0,0,1.213-7.746c.621-9.877-1.409-29.835-2.258-42.623Z" transform="translate(-21.487 -91.435)" fill="#673ab7"/>
          <path id="Trazado_842076" data-name="Trazado 842076" d="M64.344,336.728c-.038-.115-.075-.224.978-3.576.645-2.055,1.557-4.878,2.614-8.146,4.051-12.534,10.172-31.475,10.172-34.869,0-5.133-.224-22.853-.226-23.031l.446-.006c0,.178.226,17.9.226,23.037,0,3.464-6.135,22.445-10.194,35.006-1.918,5.936-3.575,11.062-3.584,11.491a.153.153,0,0,0-.009-.047Z" transform="translate(-24.893 -103.002)" fill="#fff"/>
          <path id="Trazado_842077" data-name="Trazado 842077" d="M53.9,386.271l11.141.527,3.764-6.173-14-.678Z" transform="translate(-20.784 -146.517)" fill="#895cd8"/>
          <path id="Trazado_842078" data-name="Trazado 842078" d="M73.934,135.115S58.359,136.705,57.379,149.6s5.5,66.383,5.5,66.383l42.455-2.71-4-60.625a18.782,18.782,0,0,0-2.935-9.225c-1.628-2.542-3.535-5.425-4.618-5.56l-17.464-4.49Z" transform="translate(-22.088 -51.433)" fill="#ffe18f"/>
          <path id="Trazado_842079" data-name="Trazado 842079" d="M70.331,138.453c-10.388,1.581-12.463,6.659-12.953,13.108-.981,12.9,5.5,65.932,5.5,65.932l42-2.258" transform="translate(-22.088 -53.391)" fill="#ffc557"/>
        </g>
      </g>
      <g id="Grupo_1078876" data-name="Grupo 1078876" transform="translate(35.19 81.943)">
        <g id="Grupo_1078875" data-name="Grupo 1078875" clip-path="url(#clip-path-21)">
          <path id="Trazado_842080" data-name="Trazado 842080" d="M90.28,140.079a50.7,50.7,0,0,0,6.151,13.6,17.883,17.883,0,0,0,4.267,4.527,14.463,14.463,0,0,0,6.507,2.305c2.53.39,5.786.958,6.877,3.652.2.5,1.024.281.819-.226-1.922-4.747-7.965-3.592-11.806-5.322-4.151-1.87-6.656-6.084-8.561-10.016a62.315,62.315,0,0,1-3.434-8.748c-.161-.52-.981-.3-.818.225" transform="translate(-69.996 -135.76)" fill="#fbf3e8"/>
          <path id="Trazado_842081" data-name="Trazado 842081" d="M58.6,226.46c3.02-.366,6.693-.718,9.358,1.073,3.166,2.129,2.469,6.268,3.655,9.431,1.137,3.03,3.917,4.6,6.725,5.849a47.2,47.2,0,0,1,4.474,2.1,17,17,0,0,1,4.009,3.235,17.6,17.6,0,0,1,4.6,10.667c.036.542.885.546.849,0a18.38,18.38,0,0,0-3.611-9.767,19.789,19.789,0,0,0-8.175-6.221c-3.014-1.33-6.644-2.621-7.986-5.927-1.312-3.234-.582-7.247-3.554-9.691-2.816-2.316-6.962-2.013-10.345-1.6-.536.065-.542.915,0,.849" transform="translate(-57.63 -168.835)" fill="#fbf3e8"/>
          <path id="Trazado_842082" data-name="Trazado 842082" d="M121.142,246.925c-5.12-1.954-10.312-4.857-13.487-9.466a15.209,15.209,0,0,1-1.914-3.709,1.366,1.366,0,0,1,.069-1.409,3.4,3.4,0,0,1,.82-.62,13.927,13.927,0,0,1,2.22-1.064,23.415,23.415,0,0,0,3.8-1.682c1.3-.806,2.232-2.064,3.519-2.882a7.622,7.622,0,0,1,8.687.5c.421.342,1.025-.256.6-.6a8.511,8.511,0,0,0-8.044-1.421,11.077,11.077,0,0,0-3.864,2.649,13.848,13.848,0,0,1-4.58,2.488c-1.291.5-3.092,1.062-3.928,2.246s.165,2.9.73,4.009a20.339,20.339,0,0,0,5.861,6.792,36.5,36.5,0,0,0,9.283,4.995c.511.2.732-.625.226-.818" transform="translate(-75.574 -168.369)" fill="#fbf3e8"/>
          <path id="Trazado_842083" data-name="Trazado 842083" d="M103.918,184.056a11.337,11.337,0,0,0-9.3,7.564c-1.525,4.518-.4,9.464-1.909,13.979a9.237,9.237,0,0,1-9.135,6.187,8.737,8.737,0,0,1-5.224-1.772c-1.739-1.368-2.81-3.4-4.584-4.74-1.822-1.371-4.1-1.537-6.3-1.626-2.25-.091-4.789-.065-6.453-1.826-.376-.4-.975.2-.6.6,2.951,3.123,7.744,1.347,11.383,2.717,2.243.844,3.469,3.02,5.066,4.659A9.223,9.223,0,0,0,81.6,212.41a10.672,10.672,0,0,0,9.946-3.065c3.119-3.474,2.749-8.5,3.063-12.83.2-2.781.745-5.593,2.547-7.812a10.508,10.508,0,0,1,6.762-3.8c.535-.068.541-.918,0-.849" transform="translate(-58.441 -152.918)" fill="#fbf3e8"/>
        </g>
      </g>
      <g id="Grupo_1078878" data-name="Grupo 1078878">
        <g id="Grupo_1078877" data-name="Grupo 1078877" clip-path="url(#clip-path)">
          <path id="Trazado_842085" data-name="Trazado 842085" d="M89.511,116.309l-4.553,12.143,3.387,1.694c5.195,1.919,9.889.707,10.621-1.446l-.7-7.245-7.284-6.594a7.128,7.128,0,0,0-1.261,1.087,1.626,1.626,0,0,1-.21.362" transform="translate(-32.762 -44.293)" fill="#d1744f"/>
          <path id="Trazado_842086" data-name="Trazado 842086" d="M94.242,114.86l7.284,6.593.241,2.595s-6.1,1.468-8.355-8.242" transform="translate(-36.022 -44.293)" fill="#944438"/>
          <path id="Trazado_842087" data-name="Trazado 842087" d="M124.945,184.617l8.682-27.243a5.412,5.412,0,0,1,2.991-3.342l17.776-7.678a.673.673,0,0,1,.882.853L146.5,173.9a5.418,5.418,0,0,1-2.835,3.231l-17.822,8.328a.672.672,0,0,1-.9-.839" transform="translate(-48.169 -56.417)" fill="#895cd8"/>
          <path id="Trazado_842088" data-name="Trazado 842088" d="M127.374,187.213l7.912-26.762a7.632,7.632,0,0,1,3.761-3.823l17.776-7.678a.672.672,0,0,1,.882.853l-8.772,26.69a5.418,5.418,0,0,1-2.835,3.231l-17.822,8.328a.672.672,0,0,1-.9-.839" transform="translate(-49.105 -57.418)" fill="#673ab7"/>
          <path id="Trazado_842089" data-name="Trazado 842089" d="M133.205,180.341l6.894,1-8.268,3.35Z" transform="translate(-50.837 -69.544)" fill="#020f2b"/>
          <path id="Trazado_842090" data-name="Trazado 842090" d="M133.205,180.341l6.894,1-8.268,3.35Zm0,0-1.374,4.346,8.268-3.35Z" transform="translate(-50.837 -69.544)" fill="#1d254a"/>
          <path id="Trazado_842091" data-name="Trazado 842091" d="M135.078,195.992l15.583-7.517-1.072,3.447-15.889,7.83Z" transform="translate(-51.558 -72.681)" fill="#fbf3e8"/>
          <path id="Trazado_842092" data-name="Trazado 842092" d="M109.737,186.689c-.961.863-11.407,14.158-20.55,21.115-2.521,1.918-6.789-.568-8.356-3.275L66.645,181.694l13.768-10.682c.1.152,5.778,14.984,9,19.855,1.153,1.743.621,1.567,2.258.565l12.421-9.711a10.557,10.557,0,0,0,1.217-2.1c.531-1.579,3.05-3.7,3.05-3.7l-1.091,3.35c-.2.565.173.609,1.114-.031l6.285-4.215s1.479-.633.791.151-3.074,3.015-3.162,3.086c-1.559,1.269,4.1-2.888,4.2-2.3s-3.106,3.333-3.029,3.392,3.574-2.468,3.689-1.919-2.974,2.9-3.087,2.935c-.217.073,2.445-2.063,2.522-1.769s-6.3,7.6-6.85,8.092" transform="translate(-25.7 -65.946)" fill="#d1744f"/>
          <path id="Trazado_842093" data-name="Trazado 842093" d="M84.6,181.166c-2.222-5.115-4.127-10.065-4.185-10.153L66.645,181.695l9.006,14.5c2.881-5.069,5.818-10.106,8.945-15.026" transform="translate(-25.7 -65.947)" fill="#944438"/>
          <path id="Trazado_842094" data-name="Trazado 842094" d="M96.441,224.717c-1.567-.636-5.174-1.073-6.076.9,1.795,2.459,5.631,4.469,7.969,2.69.354-.269.71-.55,1.067-.838a5.479,5.479,0,0,0-2.961-2.752" transform="translate(-34.847 -86.45)" fill="#944438"/>
          <path id="Trazado_842095" data-name="Trazado 842095" d="M73.778,148.675s-3.922-11.013-11.487-6.376-.734,38.629,3.469,43.266l21.228-15.808Z" transform="translate(-22.711 -54.434)" fill="#ffe18f"/>
        </g>
      </g>
      <g id="Grupo_1078880" data-name="Grupo 1078880" transform="translate(36.183 86.725)">
        <g id="Grupo_1078879" data-name="Grupo 1078879" clip-path="url(#clip-path-23)">
          <path id="Trazado_842096" data-name="Trazado 842096" d="M66.8,140.953c1.627,5.238,2.3,10.916.972,16.3A19.257,19.257,0,0,1,60.122,168.6a15,15,0,0,1-7.094,2.615c-.54.049-.545.9,0,.848a17.161,17.161,0,0,0,11.829-6.8,22.959,22.959,0,0,0,4.456-14.809,36.1,36.1,0,0,0-1.694-9.727c-.162-.52-.981-.3-.818.225" transform="translate(-56.475 -140.879)" fill="#fbf3e8"/>
          <path id="Trazado_842097" data-name="Trazado 842097" d="M85.247,164.633a14.7,14.7,0,0,0-2.421,2.433,6.812,6.812,0,0,0-1.555,2.818c-.289,1.72,1.274,2.771,2.284,3.882,1.972,2.171-.063,4.372-1.454,6.182A7.058,7.058,0,0,0,83.566,190.2c.452.309.877-.426.428-.733A6.3,6.3,0,0,1,81.4,183.6c.315-2.746,2.915-4.187,3.682-6.719a3.518,3.518,0,0,0-.39-3.041,22.768,22.768,0,0,0-1.938-2.093,2.38,2.38,0,0,1-.666-1.315,3.414,3.414,0,0,1,.826-2.046,14.066,14.066,0,0,1,2.933-3.147c.427-.341-.178-.938-.6-.6" transform="translate(-67.233 -150.173)" fill="#fbf3e8"/>
          <path id="Trazado_842098" data-name="Trazado 842098" d="M64.471,200.072a2.706,2.706,0,0,1,2.307-.869,2.889,2.889,0,0,1,1.9,1.165c1,1.28,1.357,2.94,2.2,4.31.287.464,1.021.038.733-.428-.954-1.546-1.323-3.478-2.62-4.807a3.533,3.533,0,0,0-5.122.029c-.367.4.232,1.006.6.6" transform="translate(-60.769 -163.216)" fill="#fbf3e8"/>
        </g>
      </g>
      <g id="Grupo_1078882" data-name="Grupo 1078882">
        <g id="Grupo_1078881" data-name="Grupo 1078881" clip-path="url(#clip-path)">
          <path id="Trazado_842100" data-name="Trazado 842100" d="M104.857,89.749c1.841-2.593-.08-3.106.378-4.236a5.29,5.29,0,0,0,.476-2.308,2.491,2.491,0,0,0-1.111-2,2.538,2.538,0,0,0-2.443.076,5.916,5.916,0,0,0-1.837,1.747c-.342-1.2-.431-2.467-2.118-2.861-3.13-.585-3.347,1.92-3.958,2.727-.452-2.183-2.333-2.408-3.7-2.026a3.544,3.544,0,0,0-2.487,2.136c-.383,1.095-2.285-1.051-2.736,3.24-.112,1.059,2.258,3.613,2.258,3.613s.452,5.307.565,9.823c.015.592,2.371,1.016,2.371,1.016a121.468,121.468,0,0,1,11.517-8.92,13.955,13.955,0,0,0,2.823-2.032" transform="translate(-32.901 -30.882)" fill="#0d294d"/>
          <path id="Trazado_842101" data-name="Trazado 842101" d="M91.846,104.823a.334.334,0,0,1-.548.128c-.593-.582-1.774-1.381-2.2.938-.576,3.148,2.709,2.606,2.972,3.03.531.86,2.233,3.747,4.772,4.868a5.019,5.019,0,0,0,5.528-.831c1.69-1.623,2.622.291,1.913-17.053a1.658,1.658,0,0,1-2.063,1.076c-1.154-.232-2.061-1.2-3.329-1.556-1.029-.288-3.86-1-5.08,2.582-.56,1.645-1.452,5.452-1.968,6.816" transform="translate(-34.333 -36.7)" fill="#d1744f"/>
          <path id="Trazado_842102" data-name="Trazado 842102" d="M111.275,115.372a7.147,7.147,0,0,1-3.509.273s1.339,1.815,2.32,1.463,1.189-1.737,1.189-1.737" transform="translate(-41.557 -44.49)" fill="#fff"/>
          <path id="Trazado_842103" data-name="Trazado 842103" d="M89.944,111.871l1.735,1.308s-.647-3.163-1.735-1.308" transform="translate(-34.685 -42.915)" fill="#944438"/>
          <path id="Trazado_842104" data-name="Trazado 842104" d="M109.746,108.956c0,.379-.15.686-.335.686s-.335-.307-.335-.686.15-.686.335-.686.335.307.335.686" transform="translate(-42.062 -41.752)" fill="#020f2b"/>
          <path id="Trazado_842105" data-name="Trazado 842105" d="M113.3,108.41c0,.379-.15.686-.335.686s-.335-.307-.335-.686.15-.686.335-.686.335.307.335.686" transform="translate(-43.431 -41.541)" fill="#020f2b"/>
          <path id="Trazado_842106" data-name="Trazado 842106" d="M105.48,103.669c-.5.347.28-1.222.955-1.4a1.179,1.179,0,0,1,1.489.764,3.63,3.63,0,0,0-2.445.632" transform="translate(-40.615 -39.421)" fill="#020f2b"/>
          <path id="Trazado_842107" data-name="Trazado 842107" d="M113.117,103.711a3.646,3.646,0,0,0-1.223.033,1.234,1.234,0,0,1,1.236-.976" transform="translate(-43.149 -39.63)" fill="#020f2b"/>
          <path id="Trazado_842108" data-name="Trazado 842108" d="M111.847,108.778l1.021,2.906a.075.075,0,0,1-.06.1l-1.206.092a.072.072,0,0,1-.074-.08l.184-3a.069.069,0,0,1,.134-.022" transform="translate(-43.008 -41.929)" fill="#944438"/>
        </g>
      </g>
    </g>
  </g>
</svg>
