<svg xmlns="http://www.w3.org/2000/svg" width="85" height="85" viewBox="0 0 85 85">
  <g id="Grupo_1078980" data-name="Grupo 1078980" transform="translate(-1230 -8412.927)">
    <path id="Trazado_842349" data-name="Trazado 842349" d="M42.5,0A42.5,42.5,0,1,1,0,42.5,42.5,42.5,0,0,1,42.5,0Z" transform="translate(1230 8412.927)" fill="#673ab7"/>
    <g id="Grupo_1078707" data-name="Grupo 1078707" transform="translate(1252.545 8429.199)">
      <g id="Grupo_1078706" data-name="Grupo 1078706" transform="translate(0 0)">
        <g id="Grupo_1078705" data-name="Grupo 1078705" transform="translate(0 0)">
          <path id="Trazado_841457" data-name="Trazado 841457" d="M174.94,47.59,141.825.427A1,1,0,0,0,140,1V14.048h5.017v2.007H140v5.017h5.017V23.08H140V28.1h5.017V30.1H140v5.017h5.017v2.007H140v5.017h5.017v2.007H140v4.014a1,1,0,0,0,1,1h33.115a1,1,0,0,0,.821-1.58Zm-14.274-8.006a1,1,0,0,1-.9.555H149.232a1,1,0,0,1-1-1V25.087a1,1,0,0,1,1.806-.6l10.537,14.049A1,1,0,0,1,160.666,39.584Z" transform="translate(-125.951 0)" fill="#d1bcff"/>
          <path id="Trazado_841458" data-name="Trazado 841458" d="M11.038,0H1A1,1,0,0,0,0,1V6.523H5.3V8.53H0v6.021H5.3v2.007H0v7.024H5.3v2.007H0v7.024H5.3V34.62H0v6.021H5.3v2.007H0v5.519a1,1,0,0,0,1,1H11.038a1,1,0,0,0,1-1V1A1,1,0,0,0,11.038,0Z" transform="translate(0 0)" fill="#d1bcff"/>
        </g>
      </g>
    </g>
  </g>
</svg>
