<svg xmlns="http://www.w3.org/2000/svg" width="395.983" height="500" viewBox="0 0 395.983 500">
  <g id="Grupo_1079033" data-name="Grupo 1079033" transform="translate(-297.279 -9285.134)">
    <path id="Trazado_842343" data-name="Trazado 842343" d="M2140-4239.333h260.375l84.38,157.31-40.985,246.512H2140Z" transform="translate(-1832.816 13573.357)" fill="#f9e2bf"/>
    <path id="Trazado_842345" data-name="Trazado 842345" d="M2140-4239.333h201.3l85.622,143.347-39.461,231.857H2140Z" transform="translate(-1832.315 13601.976)" fill="#e8deff"/>
    <path id="Trazado_842345_-_Contorno" data-name="Trazado 842345 - Contorno" d="M2139.5-4239.833h202.087l.146.244,85.717,143.505-.031.182-39.531,232.274H2139.5Zm201.52,1H2140.5v374.2h246.542l39.359-231.26Z" transform="translate(-1832.315 13601.976)" fill="#a5a5a5"/>
    <text id="A.a" transform="translate(361.733 9355.786)" fill="#00223d" font-size="14" font-family="SegoeUI, Segoe UI"><tspan x="-9.594" y="0">A.a</tspan></text>
    <text id="A.b" transform="translate(347.984 9494.422)" fill="#00223d" font-size="14" font-family="SegoeUI, Segoe UI"><tspan x="-10.148" y="0">A.b</tspan></text>
    <text id="A.c" transform="translate(347.946 9722.81)" fill="#00223d" font-size="14" font-family="SegoeUI, Segoe UI"><tspan x="-9.266" y="0">A.c</tspan></text>
    <text id="L" transform="translate(591.528 9710.273)" fill="#18639b" font-size="18" font-family="SegoeUI, Segoe UI"><tspan x="-4.236" y="0">L</tspan></text>
    <path id="Línea_34" data-name="Línea 34" d="M286.567,1H0V-1H286.567Z" transform="translate(306.25 9507.309)" fill="#d50f73"/>
    <path id="Trazado_25474" data-name="Trazado 25474" d="M850.735,390.279a7.691,7.691,0,1,1,10.44-3.051A7.692,7.692,0,0,1,850.735,390.279Z" transform="translate(-547.698 9353.125)" fill="#f3d35a"/>
    <path id="Línea_927" data-name="Línea 927" d="M.5,500h-1V0h1Z" transform="translate(307.922 9285.134)" fill="#18639b"/>
    <path id="Línea_929" data-name="Línea 929" d="M.5,26h-1V0h1Z" transform="translate(565.138 9338.656)" fill="#18639b"/>
    <path id="Línea_938" data-name="Línea 938" d="M.5,26h-1V0h1Z" transform="translate(565.138 9338.656)" fill="#18639b"/>
    <path id="Línea_939" data-name="Línea 939" d="M.5,26h-1V0h1Z" transform="translate(509.138 9338.656)" fill="#18639b"/>
    <path id="Línea_930" data-name="Línea 930" d="M.5,17h-1V0h1Z" transform="translate(652.445 9475.346)" fill="#18639b"/>
    <path id="Línea_932" data-name="Línea 932" d="M.5,17h-1V0h1Z" transform="translate(611.4 9741.634)" fill="#18639b"/>
    <path id="Línea_933" data-name="Línea 933" d="M.5,17h-1V0h1Z" transform="translate(553.877 9741.634)" fill="#18639b"/>
    <path id="Línea_931" data-name="Línea 931" d="M.5,17h-1V0h1Z" transform="translate(594.445 9475.346)" fill="#18639b"/>
    <path id="Trazado_842348" data-name="Trazado 842348" d="M287,.5H0v-1H287Z" transform="translate(307.472 9507.134)" fill="#f12261"/>
    <path id="Línea_922" data-name="Línea 922" d="M.5,110h-1V100h1Zm0-20h-1V80h1Zm0-20h-1V60h1Zm0-20h-1V40h1Zm0-20h-1V20h1Zm0-20h-1V0h1Z" transform="translate(508.968 9299.301)" fill="#f69bad"/>
    <path id="Línea_924" data-name="Línea 924" d="M.5,110h-1V100h1Zm0-20h-1V80h1Zm0-20h-1V60h1Zm0-20h-1V40h1Zm0-20h-1V20h1Zm0-20h-1V0h1Z" transform="translate(554.138 9662.521)" fill="#f69bad"/>
    <path id="Línea_923" data-name="Línea 923" d="M.5,150h-1V140h1Zm0-20h-1V120h1Zm0-20h-1V100h1Zm0-20h-1V80h1Zm0-20h-1V60h1Zm0-20h-1V40h1Zm0-20h-1V20h1Zm0-20h-1V0h1Z" transform="translate(592.4 9432.134)" fill="#f69bad"/>
    <path id="Línea_925" data-name="Línea 925" d="M310,.5H300v-1h10Zm-20,0H280v-1h10Zm-20,0H260v-1h10Zm-20,0H240v-1h10Zm-20,0H220v-1h10Zm-20,0H200v-1h10Zm-20,0H180v-1h10Zm-20,0H160v-1h10Zm-20,0H140v-1h10Zm-20,0H120v-1h10Zm-20,0H100v-1h10ZM90,.5H80v-1H90ZM70,.5H60v-1H70ZM50,.5H40v-1H50ZM30,.5H20v-1H30ZM10,.5H0v-1H10Z" transform="translate(299.28 9362.642)" fill="#f69bad"/>
    <path id="Trazado_842346" data-name="Trazado 842346" d="M352.5.5h-10v-1h10Zm-20,0h-10v-1h10Zm-20,0h-10v-1h10Zm-20,0h-10v-1h10Z" transform="translate(312.472 9507.133)" fill="#f69bad"/>
    <circle id="Elipse_5926" data-name="Elipse 5926" cx="7.5" cy="7.5" r="7.5" transform="translate(299.422 9728.924)" fill="#ffd54f"/>
    <text id="_1.00_cm" data-name="1.00 cm" transform="translate(540.472 9357.822)" fill="#18639b" font-size="10" font-family="SegoeUI, Segoe UI"><tspan x="-17.156" y="0">1.00 cm</tspan></text>
    <text id="_1.00_cm-2" data-name="1.00 cm" transform="translate(582.184 9757.846)" fill="#18639b" font-size="10" font-family="SegoeUI, Segoe UI"><tspan x="-17.156" y="0">1.00 cm</tspan></text>
    <text id="M" transform="translate(534.472 9718.273)" fill="#673ab7" font-size="14" font-family="SegoeUI-Bold, Segoe UI" font-weight="700"><tspan x="-6.699" y="0">M</tspan></text>
    <g id="Grupo_1078964" data-name="Grupo 1078964" transform="translate(-1997.073 13746.564)">
      <path id="Trazado_841844" data-name="Trazado 841844" d="M148.218,233.7l.715-.768-2.846-2.645h14.565v-1.748H146.086l2.847-2.646-.715-.768-4.612,4.287Z" transform="translate(2418.604 -4620.031)" fill="#18639b"/>
    </g>
    <g id="Grupo_1078970" data-name="Grupo 1078970" transform="translate(-1909.766 13882.967)">
      <path id="Trazado_841844-2" data-name="Trazado 841844" d="M148.218,233.7l.715-.768-2.846-2.645h14.565v-1.748H146.086l2.847-2.646-.715-.768-4.612,4.287Z" transform="translate(2418.604 -4620.031)" fill="#18639b"/>
    </g>
    <g id="Grupo_1078972" data-name="Grupo 1078972" transform="translate(-1951.55 14149.254)">
      <path id="Trazado_841844-3" data-name="Trazado 841844" d="M148.218,233.7l.715-.768-2.846-2.645h14.565v-1.748H146.086l2.847-2.646-.715-.768-4.612,4.287Z" transform="translate(2418.604 -4620.031)" fill="#18639b"/>
    </g>
    <path id="Línea_936" data-name="Línea 936" d="M20,.5H0v-1H20Z" transform="translate(297.279 9334.472)" fill="#18639b"/>
    <path id="Línea_937" data-name="Línea 937" d="M20,.5H0v-1H20Z" transform="translate(297.279 9363.134)" fill="#18639b"/>
    <text id="_0.50_cm" data-name="0.50 cm" transform="translate(327.066 9353.786)" fill="#18639b" font-size="10" font-family="SegoeUI, Segoe UI"><tspan x="-17.156" y="0">0.50 cm</tspan></text>
    <g id="Grupo_1078966" data-name="Grupo 1078966" transform="translate(4697.899 11897.556) rotate(-90)">
      <path id="Trazado_841844-4" data-name="Trazado 841844" d="M148.218,233.7l.715-.768-2.846-2.645h14.565v-1.748H146.086l2.847-2.646-.715-.768-4.612,4.287Z" transform="translate(2418.604 -4620.031)" fill="#18639b"/>
    </g>
    <g id="Grupo_1078967" data-name="Grupo 1078967" transform="translate(311.567 9363.134) rotate(90)">
      <path id="Trazado_841844-5" data-name="Trazado 841844" d="M4.611,0l.715.768L2.481,3.414H17.045V5.161H2.479L5.326,7.807l-.715.768L0,4.288Z" transform="translate(0 0)" fill="#18639b"/>
    </g>
    <g id="Grupo_1078965" data-name="Grupo 1078965" transform="translate(492.472 9351.656)">
      <path id="Trazado_841844-6" data-name="Trazado 841844" d="M156.041,233.7l-.715-.768,2.846-2.645H143.607v-1.748h14.566l-2.847-2.646.715-.768,4.612,4.287Z" transform="translate(-143.607 -225.123)" fill="#18639b"/>
    </g>
    <g id="Grupo_1078971" data-name="Grupo 1078971" transform="translate(577.922 9488.059)">
      <path id="Trazado_841844-7" data-name="Trazado 841844" d="M156.041,233.7l-.715-.768,2.846-2.645H143.607v-1.748h14.566l-2.847-2.646.715-.768,4.612,4.287Z" transform="translate(-143.607 -225.123)" fill="#18639b"/>
    </g>
    <g id="Grupo_1078973" data-name="Grupo 1078973" transform="translate(538.093 9754.346)">
      <path id="Trazado_841844-8" data-name="Trazado 841844" d="M156.041,233.7l-.715-.768,2.846-2.645H143.607v-1.748h14.566l-2.847-2.646.715-.768,4.612,4.287Z" transform="translate(-143.607 -225.123)" fill="#18639b"/>
    </g>
    <path id="Elipse_886" data-name="Elipse 886" d="M43.274,0h1.481l.053,0h.1l.052,0h.1l.07,0h.07l.068,0h.087l.068,0H45.5l.084,0h.054l.119.007h.018l.137.008h0l.155.01h0q1.1.07,2.193.2l-.342,2.98A40.9,40.9,0,0,0,43.274,3V0Zm9.913,1.141q1.934.453,3.8,1.077h0L57,2.224h0l.073.024h0l.016.005h0l.015.005h0l.016.005h0l.036.012h0l.016.005h0l.013,0,.005,0,.012,0,.005,0,.012,0,.005,0,.017.006h0l.016.006.006,0,.011,0,.007,0,.01,0,.008,0,.009,0,.008,0,.01,0,.008,0,.009,0,.017.006.007,0,.01,0,.017.006.017.006.007,0,.01,0,0,0,.04.014h0l.012,0,.005,0,.011,0,.005,0,.012,0h0l.013,0h0l.046.016h0l.014,0h0l.013,0h0l.013,0h0l.322.115L56.958,5.384A40.1,40.1,0,0,0,52.5,4.062ZM62.571,4.53q.307.153.611.311h0l.016.008h0l.015.008h0l.016.008h0l.033.017.005,0,.011.006.006,0,.01.005.007,0,.01.005.006,0,.011.006.013.007.007,0,.01.005.006,0,.01.005.006,0,.01.005,0,0,.054.028h0l.013.007h0q1.769.935,3.437,2.025l-1.64,2.512a40.374,40.374,0,0,0-4.034-2.314Zm8.355,5.455q.24.2.478.4h0l.059.05h0l.014.012h0l.058.05h0l.014.012h0l.058.05h0l.013.011h0l.014.012h0l.029.025h0l.013.011,0,0,.012.01,0,0,.043.037,0,0,.012.01,0,0,.012.01,0,0,.042.037,0,0,.011.01,0,0,.011.01,0,0,.012.011h0l.014.012,0,0,.012.011,0,0,.011.009,0,0,.01.009,0,0,.012.011h0l.014.013h0l.013.011,0,0,.011.01,0,0,.011.01,0,0,.028.025h0l.012.011,0,0,.01.009,0,0,.011.009,0,0,.028.025,0,0,.011.01,0,0,.01.009,0,0,.011.009,0,0,.028.025,0,0,.012.01,0,0,.01.009,0,0,.011.01,0,0,.028.025,0,0,.011.01,0,0,.01.009,0,0,.011.01,0,0,.027.025,0,0,.01.009,0,0,.01.009,0,0,.011.01,0,0,.028.025,0,0,.011.01,0,0,.01.009,0,0,.011.01,0,0,.027.025,0,0,.01.009,0,0,.01.009,0,0,.012.011,0,0,.027.025,0,0,.011.01,0,0,.01.009,0,0,.011.01,0,0,.014.012h0l.012.011,0,0,.01.009,0,0,.01.009,0,0,.011.011,0,0,.014.013h0l.012.012,0,0,.01.009,0,0,.009.009,0,0,.012.011,0,0,.014.013h0l.012.011,0,0,.01.009,0,0,.01.009,0,0,.012.011h0l.013.013,0,0,.01.01,0,0,.009.009,0,0,.01.009,0,0,.012.011h0l.013.013,0,0,.011.01,0,0,.01.009,0,0,.01.009,0,0,.027.025h0l.012.011,0,0,.01.009,0,0,.01.01,0,0,.027.026,0,0,.01.01,0,0,.009.009,0,0,.01.009,0,0,.027.025,0,0,.01.009,0,0,.01.009,0,0,.011.011,0,0,.027.026,0,0,.01.01,0,0,.01.009,0,0,.01.01,0,0,.026.025,0,0,.009.009,0,0,.008.008.005,0,.009.009,0,0,.013.013h0l.012.011,0,0,.01.009,0,0,.009.009,0,0,.01.01,0,0,.013.013,0,0,.011.01,0,0,.009.008,0,0,.009.009,0,0,.011.011,0,0,.013.013,0,0,.009.009.005.005.008.008.005.005.008.008,0,0,.009.008,0,0,.013.012,0,0,.01.01,0,0,.009.009,0,0,.008.008.005.005.009.009,0,0,.012.012,0,0,.008.008.006.006.007.007.006.006.007.007.006.006.007.007.009.009.009.009.006.006.006.006.007.007.006.006.006.006.006.006.006.006.007.007.012.011.006.006.008.008.005.005.007.007.005.005.007.007.005.005.008.008,0,0,.017.017,0,0,.008.008,0,0,.008.008,0,0,.008.008,0,0,.009.009h0l.019.019,0,0,.008.008,0,0,.008.008,0,0,.008.008,0,0,.008.008,0,0,.031.031,0,0,.01.01,0,0,.01.01,0,0,.043.044,0,0,.01.01,0,0,.01.01h0l.045.045h0l.011.011h0c.172.174.341.349.51.526l-2.17,2.072a40.691,40.691,0,0,0-3.4-3.176Zm6.89,7.217.017.023h0l.009.012h0l.039.052h0l.009.012v0l.009.012h0l.039.051h0l.009.012,0,0,.009.012h0l.048.065h0l.009.013h0l.047.064v0l.009.012h0l.048.065h0l.057.077h0l.057.078h0l.009.013h0l.047.065h0l.056.078h0L78.4,18h0l.009.012v0l.009.012h0l.047.065h0l.009.012h0l.037.052h0l.009.012v0l.008.012h0l.036.051v0l.008.011,0,0,.008.011v0l.036.051h0l.008.011,0,0,.008.012h0l.036.051h0l.008.011,0,0,.008.011,0,0,.008.011h0l.027.038v0l.008.011,0,0,.007.011,0,0,.008.011h0l.025.036,0,0,.007.01,0,0,.007.01,0,0,.007.01v0l.017.025h0l.007.01,0,0,.006.009,0,.006.006.009,0,0,.007.01,0,0,.024.035,0,0,.007.011,0,0,.007.01,0,0,.007.01,0,0,.023.034,0,0,.006.009,0,.005.006.009,0,.005.006.009,0,0,.014.02,0,0,.006.009,0,.005.006.009,0,.005.006.009,0,.005.006.009,0,0,.022.032,0,.005.006.009,0,.006.006.009,0,.005L79.1,19l0,0,.013.019,0,0,.006.008,0,.006.006.009,0,.006.005.008,0,.007.005.008,0,.007.011.017,0,0,.006.009,0,.006.005.008,0,.007.006.008,0,.006.006.009,0,.006.013.02,0,0,.006.009,0,.005.006.009,0,.006.006.009,0,.005.007.01,0,0,.022.033,0,.005.006.009,0,.006.006.009,0,.006.006.009,0,.005.013.02,0,0,.006.009,0,.005.006.009,0,.006.006.009,0,.006.006.009,0,.006.02.031,0,.006.005.008,0,.007.006.009,0,.006.006.009,0,.006.011.016,0,.006.005.008,0,.007.005.008,0,.007.005.008,0,.006.006.009,0,.006.021.032,0,.006.006.009,0,.006.006.009,0,.005.006.01,0,0,.015.023h0l.006.01,0,.005.006.01,0,.005.006.009,0,.005.006.01,0,0,.023.036,0,0,.007.011,0,0,.007.01,0,0,.007.011,0,0,.023.036,0,0,.007.011,0,0,.007.011,0,0,.007.011,0,0,.024.037,0,0,.007.01,0,0,.007.01,0,0,.007.011v0l.034.053v0l.008.012v0l.043.067v0l.008.013h0l.043.069h0q.362.574.707,1.159l-2.585,1.522a40.51,40.51,0,0,0-2.587-3.866Zm5.06,8.6q.67,1.516,1.225,3.089v0l0,.014v0l.027.076v0l0,.013v0l0,.013v0l0,.013h0l.015.044v0l0,.012,0,.005,0,.011,0,.006,0,.011,0,.006,0,.011,0,.007.006.017,0,.009,0,.009,0,.008,0,.008,0,.009,0,.009,0,.009,0,.008,0,.011,0,.006.006.017,0,.005,0,.012,0,.007,0,.011,0,.006,0,.012,0,.006,0,.015v0l.012.036h0l.006.017v0l.005.016v0l.006.016v0l.025.073h0q.162.483.313.971l-2.866.886a40.115,40.115,0,0,0-1.628-4.354L82.875,25.8Zm2.945,9.533q.391,2.108.574,4.282v.055l.005.061v.207l.006.078h0v.019h0v.019h0q.009.118.017.236l-2.993.2a40.484,40.484,0,0,0-.582-4.615l2.95-.547ZM83.5,45.154l3,.138q-.07,1.519-.243,3.01h0l0,.018h0l0,.019h0l-.007.058v0l0,.016v0l0,.014v0l0,.014v.005l0,.014v0l0,.016v0l0,.037v.006l0,.012v.09l0,.019v.06l0,.012v0l0,.013v0l-.01.081h0l0,.015v0l0,.016h0q-.09.7-.2,1.392l-2.961-.481A40.6,40.6,0,0,0,83.5,45.154Zm-1.49,9.165,2.885.821q-.258.907-.554,1.8v0l-.005.016v0l-.006.017h0l-.018.055h0l-.006.017v0l-.005.016v0l-.006.017h0l-.012.036h0l-.006.016v0l0,.014v0l0,.014v0l-.005.015v0l-.006.018h0l-.005.016,0,.006,0,.011,0,.007,0,.011,0,.006,0,.012,0,.006,0,.013,0,0-.006.017,0,.007,0,.011,0,.008,0,.009,0,.009,0,.008,0,.009,0,.008,0,.008,0,.01-.005.016,0,.008,0,.01,0,.006,0,.011,0,.006,0,.011,0,.005,0,.012v0l-.015.042v0l0,.012,0,0,0,.012,0,0,0,.012v0l-.02.058v0l0,.014v0l0,.014v0l-.033.092h0q-.375,1.053-.8,2.079l-2.771-1.151A40.1,40.1,0,0,0,82.014,54.319Zm-3.559,8.572,2.619,1.464,0,0h0l-.021.038,0,0-.006.01,0,.006-.006.01,0,.006-.005.01,0,.006-.009.016,0,.008,0,.008,0,.007,0,.008,0,.007,0,.008,0,.008,0,.007-.006.011,0,0-.009.016,0,0-.006.011,0,.006-.006.011,0,.006-.006.011,0,.005-.007.013,0,0-.009.016v0l-.008.014,0,0-.007.012,0,0-.008.013,0,0-.028.05h0l-.009.015v0l-.009.016h0l-.039.067h0q-.444.771-.919,1.522h0l-.042.066h0l-.01.015h0l-.01.015h0l-.031.049h0l-.009.015v0l-.01.015h0l-.031.049h0l-.01.015v0l-.009.015v0l-.031.048v0l-.009.014,0,0-.009.014h0l-.031.048,0,0-.008.013,0,0L79.6,66.8l0,0-.02.031h0l-.01.015,0,0-.008.012,0,0-.008.012,0,0-.008.013,0,0-.01.016v0l-.009.014,0,0-.008.012,0,0-.008.011,0,0-.009.014h0l-.01.016h0l-.01.014,0,0-.008.012,0,0-.008.012,0,0-.009.013v0l-.01.016h0l-.009.014,0,0-.008.011,0,0-.007.011,0,0-.009.013v0l-.01.016,0,0-.008.013,0,0-.007.011,0,0-.007.011,0,0-.007.011,0,0-.01.015h0l-.009.014,0,0-.007.01,0,.006-.006.009,0,.006-.007.01,0,0-.01.015v0l-.009.014,0,0-.007.01,0,.005-.007.01,0,.005-.007.011,0,0-.01.015v0l-.009.013,0,0-.007.01,0,.005-.007.01,0,.005-.008.011,0,0-.01.015v0l-.009.013,0,.005-.007.01,0,.006-.006.009,0,.006-.006.008,0,.007-.008.012,0,.006-.008.011,0,.006-.006.009,0,.006-.006.009,0,.006-.007.01,0,0-.009.013,0,0-.008.012,0,.006-.006.009,0,.006-.007.01,0,.005L79,67.7l0,0-.01.015h0l-.01.015,0,.005-.007.01,0,.005-.007.01,0,.005-.007.011,0,0-.01.014v0l-.01.014,0,0-.007.011,0,.005-.007.01,0,0-.008.011,0,0-.021.031,0,0-.009.012,0,0-.008.011,0,0-.008.011,0,0-.021.03,0,0-.009.012,0,0-.008.011,0,0-.008.011,0,0-.021.03,0,0-.009.012,0,0-.008.012,0,0-.009.013h0l-.022.031h0l-.01.014,0,0-.009.013,0,0-.01.014v0l-.033.047h0l-.01.015h0q-.112.159-.226.316l-2.433-1.756A40.46,40.46,0,0,0,78.455,62.891ZM73.02,70.423l2.215,2.023q-.616.674-1.26,1.322h0l-.011.011h0l-.044.044,0,0-.009.009,0,0-.009.009,0,0-.009.009,0,0-.016.016,0,0-.007.007-.005.005-.007.007,0,0-.008.008-.005.005-.007.007-.006.006-.011.011-.007.007-.006.006-.007.007-.006.006-.007.007-.006.005-.008.008,0,0-.013.012,0,0-.011.011,0,0-.009.008,0,0-.009.009,0,0-.011.011,0,0-.027.026,0,0-.01.01,0,0-.01.01,0,0-.012.012h0l-.027.027h0l-.012.012,0,0-.012.012h0l-.055.054h0q-.894.873-1.838,1.694l-1.969-2.264A40.7,40.7,0,0,0,73.02,70.423Zm-7.01,6.1,1.7,2.475-.022.015h0l-.066.045h0l-.013.009h0l-.067.046h0l-.013.009h0l-.066.045h0l-.013.009h0l-.067.045h0l-.013.008h0l-.08.054h0l-.162.108h0l-.081.053h0q-.789.519-1.6,1h0l-.069.041h0l-.013.008h0l-.069.041h0l-.012.007,0,0-.012.007h0l-.054.032h0l-.012.007,0,0-.012.007h0l-.053.031h0l-.012.007,0,0-.012.007h0l-.039.023h0l-.011.006,0,0-.01.006,0,0-.01.006,0,0-.01.006,0,0-.021.012,0,0-.01.006-.006,0-.009.005-.007,0-.009,0-.007,0-.009.005-.006,0-.015.009-.008,0-.008,0-.008,0-.008,0-.008,0-.007,0-.009.005-.007,0-.011.006-.008,0-.012.007-.006,0-.01.006-.006,0-.01.006-.006,0-.01.006-.006,0-.014.008h0l-.016.009,0,0-.012.007-.005,0-.011.006-.006,0-.011.006,0,0-.016.009h0l-.017.009h0l-.014.008,0,0-.013.007,0,0-.013.008,0,0-.033.019h0l-.016.009h0L64.495,81h0l-.016.009h0q-.52.293-1.048.571l-1.4-2.654A40.419,40.419,0,0,0,66.011,76.52ZM57.8,80.849l1.082,2.8q-.847.328-1.711.621h0l-.015,0h0l-.092.031h0l-.014,0h0l-.014,0h0l-.061.02h0l-.014,0h0l-.013,0h0l-.013,0h0l-.044.015h0l-.013,0h0l-.012,0h0l-.012,0h0l-.013,0h0l-.03.01h0l-.012,0,0,0-.011,0-.017.005-.007,0-.01,0-.006,0-.011,0h0l-.024.008-.006,0-.009,0-.017.006-.017.006-.008,0-.009,0-.017.006-.005,0-.02.007-.008,0-.009,0-.017.005-.017.006-.017.006-.01,0-.007,0-.017.005-.007,0-.011,0-.007,0-.011,0-.007,0-.01,0-.007,0-.012,0-.006,0-.035.011,0,0-.013,0-.006,0-.012,0-.006,0-.012,0,0,0-.016,0h0l-.036.011h0l-.014,0h0l-.014,0h0l-.015,0h0l-.055.017h0l-.015,0h0l-.015,0h0l-.016.005h0l-.037.011h0l-.017.005h0l-.016,0h0l-.016,0h0l-.055.017h0l-.017.005h0l-.017.005h0l-.017.005h0l-.056.017h0l-.018.005h0l-.112.033h0q-.769.23-1.55.431l-.75-2.9A40.1,40.1,0,0,0,57.8,80.849Zm-8.987,2.32.408,2.972-.433.057-.017,0-.017,0-.017,0-.018,0h0l-.045.006-.015,0-.018,0-.018,0-.018,0-.018,0-.018,0-.036,0-.019,0-.018,0-.019,0-.019,0-.021,0h0l-.077.009h0l-.018,0h0q-1.425.166-2.876.239H45.4l-.062,0h-.219c-.293.012-.585.022-.88.028l-.066-3A40.748,40.748,0,0,0,48.811,83.17ZM34.92,82.68a40.372,40.372,0,0,0,4.6.694l-.276,2.987q-.294-.027-.588-.058h0l-.02,0-.017,0h0l-.058-.006h0l-.021,0-.019,0-.019,0-.016,0h0l-.038,0h0l-.023,0-.019,0-.019,0-.018,0-.019,0-.019,0-.026,0-.019,0-.019,0-.019,0-.019,0-.018,0h0l-.029,0-.018,0-.018,0-.018,0-.018,0h0l-.081-.01-.017,0-.018,0h0Q36.116,86,34.3,85.616Zm-8.8-2.956a40.143,40.143,0,0,0,4.313,1.735L29.48,84.3h0q-1.005-.338-1.988-.723h0l-.091-.036h0l-.017-.007h0l-.016-.006h0l-.053-.021h0l-.014-.005,0,0-.013-.005-.005,0-.013-.005h0l-.017-.007h0l-.016-.006,0,0-.011,0-.007,0-.01,0-.007,0-.01,0-.007,0-.01,0-.013-.005-.009,0-.01,0-.007,0-.009,0-.008,0-.009,0-.007,0-.01,0-.006,0-.039-.016h0l-.012,0,0,0-.012,0,0,0-.012-.005h0l-.058-.024h0l-.014-.006h0l-.014-.006h0q-1.035-.424-2.042-.9Zm-7.886-4.9a40.544,40.544,0,0,0,3.8,2.68l-1.584,2.548q-1.446-.9-2.814-1.907h0l-.014-.011h0l-.013-.01,0,0-.03-.022h0l-.015-.011,0,0-.011-.008,0,0-.01-.007,0,0-.01-.008,0,0-.014-.01-.005,0-.009-.007-.007,0-.008-.006-.007-.005-.007-.005L17.449,78l-.006,0-.008-.006,0,0-.021-.015,0,0-.01-.007,0,0-.01-.007,0,0-.011-.008h0q-.506-.379-1-.77Zm-6.562-6.576a40.677,40.677,0,0,0,3.092,3.477l-2.124,2.119A43.509,43.509,0,0,1,9.4,70.207h0l-.05-.063h0l-.01-.012h0l-.019-.024Zm-4.887-7.9A40.328,40.328,0,0,0,9,64.437L6.451,66.016l-.006-.01v0l-.007-.011,0,0-.007-.011v0l-.033-.053h0l-.008-.012,0,0-.008-.012h0l-.041-.067v0l-.008-.012v0l-.041-.068h0l-.008-.012v0l-.007-.012v0l-.032-.053,0,0-.007-.012v0l-.007-.012h0l-.033-.054v0l-.008-.013v0l-.008-.013h0l-.033-.055h0l-.008-.013h0l-.008-.013h0l-.033-.055h0l-.008-.013h0l-.008-.013v0l-.033-.055h0l-.008-.013v0l-.007-.012v0l-.032-.054h0l-.007-.013v0l-.007-.012,0,0-.007-.012h0l-.024-.04h0l-.007-.012,0,0-.007-.011,0,0-.007-.012v0l-.031-.053,0,0-.006-.011,0,0-.006-.011,0,0-.023-.04h0l-.007-.012,0,0-.007-.011,0,0-.007-.012,0,0L5.8,64.927v0l-.021-.037,0,0-.006-.01,0-.006-.006-.01,0-.005-.006-.01,0,0-.011-.018,0-.006L5.728,64.8l0-.007-.005-.009,0-.007-.005-.009,0-.007,0-.008,0-.007-.008-.014-.005-.009,0-.008,0-.007,0-.008,0-.007,0-.008,0-.007-.005-.009,0-.007,0-.009-.008-.014,0-.007,0-.008,0-.007,0-.008,0-.008,0-.009,0-.007-.006-.01,0-.006-.009-.015,0-.005-.006-.01,0-.007-.005-.009,0-.007-.005-.009,0-.006-.006-.011,0,0-.009-.016h0l-.008-.014,0,0-.006-.011,0-.006-.006-.011,0-.005L5.5,64.408l0,0-.018-.032v0l-.008-.014,0,0-.007-.012,0,0-.008-.014v0l-.018-.033v0l-.008-.014,0,0-.007-.013v0l-.008-.015v0L5.387,64.2h0l-.009-.016v0l-.008-.014v0l-.008-.015v0L5.33,64.1h0l-.009-.016h0l-.009-.017h0l-.037-.068h0q-.627-1.147-1.186-2.336v0l-.007-.015v0l-.008-.016h0Zm-2.938-8.8a40.111,40.111,0,0,0,1.212,4.487l-2.846.95q-.3-.9-.565-1.829h0l-.027-.1h0l0-.016h0l-.027-.1h0l0-.015v0l-.026-.094v0l0-.015v0l0-.015h0l-.017-.062v0l0-.014v0l0-.014v0l0-.014h0L1.5,54.624v0l0-.013v0l0-.013v0l0-.013v0l-.016-.059v0l0-.012,0-.006,0-.011,0-.006,0-.012v0l-.011-.042v0l0-.011,0-.006,0-.011,0-.006,0-.011,0-.007,0-.01,0-.008,0-.01v0L1.418,54.3l0-.006,0-.01,0-.008,0-.01,0-.008,0-.01,0-.008,0-.009,0-.009,0-.008,0-.017,0-.007,0-.011,0-.008,0-.01,0-.008,0-.01,0-.008,0-.011,0-.007,0-.014v0l0-.018h0l0-.016v-.006l0-.012,0-.006,0-.012,0-.006,0-.012V54.01l0-.014v0l0-.018v0l0-.015v0l0-.013v-.005l0-.013v-.005l0-.014v0L1.3,53.86h0l0-.018v0l0-.015v0l0-.015v0l0-.017h0l-.014-.056v0l0-.017v0l0-.016v0l-.018-.075h0l0-.018h0q-.175-.713-.325-1.436ZM.013,42.219l3,.072C3,42.617,3,42.947,3,43.274c0,1.224.055,2.459.165,3.671l-2.988.27C.14,46.806.109,46.4.083,45.984h0l-.006-.1h0v-.052l0-.068h0v-.086l0-.033V43.57c0-.012,0-.022,0-.034V43.5s0,0,0-.006,0-.007,0-.01v-.023s0-.008,0-.011v-.042s0-.01,0-.014,0,0,0,0,0-.007,0-.011,0,0,0-.007v-.01s0,0,0-.007,0-.006,0-.009,0,0,0-.007,0-.007,0-.01,0,0,0-.007,0-.007,0-.01v-.007S0,43.3,0,43.3s0,0,0-.006v-.017H0v-.017s0,0,0,0,0-.008,0-.013v-.006s0-.007,0-.011,0,0,0-.007v-.01s0,0,0-.007v-.01s0,0,0-.007,0-.007,0-.01,0-.005,0-.007v-.017s0-.007,0-.01v-.025s0-.007,0-.01V43.1s0-.007,0-.01,0,0,0-.007,0-.007,0-.01v-.092H0v-.23H0Q.006,42.482.013,42.219Zm1.381-9.882,2.9.756a40.223,40.223,0,0,0-.908,4.56L.418,37.238l.007-.05h0l0-.017h0l.012-.082v0l0-.014v0l0-.013V37.05l0-.012v-.005l0-.012v-.005l0-.025v-.068l0-.01V36.9l0-.013v0l0-.019h0l0-.018v0l0-.014v0l0-.015v0l0-.016v0l0-.018h0l.009-.058h0l0-.019h0q.169-1.108.394-2.2h0l0-.019h0L.911,34.4v0l0-.016v0l0-.016v0l0-.017v0l.012-.056v0l0-.015v0l0-.013v-.005l0-.013v-.006l0-.013v0l0-.018v0l0-.016,0-.007,0-.011,0-.008,0-.01,0-.008,0-.01,0-.008,0-.01,0-.008,0-.01,0-.015,0-.009,0-.01,0-.008,0-.009,0-.008,0-.01,0-.007,0-.011v-.006l0-.011v0l.01-.044h0l0-.014v0l0-.013v0l0-.014v0l.022-.1h0l0-.016h0q.161-.717.345-1.425Zm3.619-9.3,2.651,1.4a40.21,40.21,0,0,0-1.935,4.227l-2.8-1.088c.087-.223.175-.443.265-.665v0L3.2,26.9v0l.005-.013h0l.018-.044h0l.005-.012,0,0,0-.011,0-.006,0-.01,0-.006,0-.011v0l.01-.024,0-.005,0-.009,0-.008,0-.009,0-.008,0-.009,0-.009,0-.007.005-.013v0l.007-.017,0-.005,0-.012,0-.006,0-.011,0-.006.005-.012,0,0,.007-.016h0l.007-.018h0l.007-.017v0l.006-.015v0l.006-.015v0l.03-.071h0l.007-.017h0l.03-.071h0l.007-.018h0q.426-1,.9-1.972h0Q4.666,23.692,5.013,23.039Zm5.657-8.219,2.259,1.974a40.612,40.612,0,0,0-2.854,3.674L7.6,18.766q.253-.367.512-.728h0l.057-.078h0l.047-.065h0l.009-.013h0l.056-.077v0l.009-.012h0l.048-.065h0l.057-.078h0l.048-.065h0l.009-.013h0l.057-.077v0l.047-.064h0l.009-.012,0,0,.009-.012h0l.038-.051h0l.009-.012v0l.048-.064h0l.009-.012h0l.048-.064h0l.009-.012v0L8.8,17.11h0l.01-.013h0l.049-.064h0l.009-.012h0l.049-.064h0l.009-.012h0l.059-.077h0l.229-.295h0l.01-.013h0q.321-.409.651-.809h0l.01-.012h0l.051-.062h0l.01-.012h0l.051-.062h0l.01-.012h0l.051-.061h0l.009-.011h0l.041-.049h0l.009-.011,0,0,.009-.01,0,0,.04-.048h0l.009-.011,0,0,.009-.01,0,0,.009-.011h0l.03-.035h0l.009-.011,0,0,.009-.011,0,0,.04-.047v0l.009-.01,0,0,.009-.01,0,0,.009-.01h0l.028-.033,0,0,.007-.008,0-.005.007-.008,0,0,.008-.009,0,0,.028-.033,0,0,.008-.009,0,0,.008-.009,0,0,.008-.009,0,0,.018-.021h0l.007-.009,0-.005.007-.008L10.512,15l.006-.007.005-.006.006-.007.007-.008.008-.009.008-.009.005-.006.006-.007.006-.007.006-.007.006-.007.006-.007.005-.006.008-.01.006-.007.008-.01.005-.006.006-.007.005-.006.007-.008.005-.006.006-.007.005-.006.008-.01Zm7.382-6.713,1.75,2.436a40.638,40.638,0,0,0-3.616,2.927l-2.018-2.219q.509-.463,1.033-.91h0l.074-.063h0l.061-.052h0l.011-.009,0,0,.011-.009h0l.047-.04,0,0,.01-.009,0,0,.01-.008,0,0,.046-.039,0,0,.01-.008,0,0,.01-.008,0,0,.034-.028,0,0,.01-.008,0,0,.009-.008,0,0,.01-.008,0,0,.033-.028,0,0,.009-.008,0,0,.009-.008,0,0,.009-.007,0,0,.031-.026,0,0,.009-.007.005,0L15.72,9.9l.006,0,.008-.007.006-.005.007-.006.007-.006.013-.011.006,0,.008-.006.006,0,.008-.007.006,0,.008-.007,0,0,.03-.024.006,0,.008-.006.006,0,.008-.006.006,0,.008-.006.007-.006.006-.005.012-.01.008-.007.007-.005.007-.006.006-.005.007-.006.007-.006.007-.006.007-.006.007-.006.013-.01.006-.005L16,9.675l.007-.006.007-.005.007-.006.006-.005.008-.006.007-.005.007-.006.013-.01.008-.006.006-.005.007-.006L16.09,9.6,16.1,9.6,16.1,9.59l.007-.006.007-.006.008-.007.012-.01.005,0,.009-.007.006,0,.008-.006.007-.005.007-.006.007-.005.009-.007,0,0,.013-.011.005,0,.009-.007.006,0,.008-.007.006,0,.009-.007.005,0,.01-.008,0,0,.013-.01.006,0L16.3,9.43l.007-.005.008-.006.006-.005.008-.006.006,0,.011-.009,0,0,.014-.011.006,0,.008-.006.006-.005.008-.006.006-.005.008-.006.006,0,.009-.007.008-.007.01-.008.006,0,.009-.007.006,0,.008-.006.006-.005.008-.006.007-.005.01-.008.006,0,.011-.009.006,0,.008-.006.007-.005.007-.006.007-.005.008-.007.006,0,.01-.008.009-.007L16.6,9.2l.007-.005.007-.006.007-.006.007-.005.007-.006.007-.005.007-.006.009-.007.011-.008.007-.006.008-.006.007-.005.007-.006.007-.006.007-.005.008-.006.007-.005.007-.005.014-.011.006,0,.007-.006.007-.006.008-.006.006,0,.008-.006.005,0,.031-.024,0,0,.009-.007.005,0L16.849,9l.005,0,.008-.006.006,0,.008-.006,0,0,.02-.015.005,0,.008-.007.006,0,.009-.007,0,0,.009-.007,0,0,.033-.025,0,0,.01-.008,0,0L17,8.882l0,0,.01-.008,0,0,.037-.028h0l.011-.008,0,0,.011-.008,0,0,.011-.008h0l.05-.038,0,0,.011-.009h0l.063-.048h0Q17.635,8.405,18.052,8.106Zm8.72-4.849L27.917,6.03A40.242,40.242,0,0,0,23.73,8.051L22.272,5.429h0l.033-.019h0l.014-.008,0,0,.011-.006.005,0,.011-.006.005,0,.013-.007,0,0,.016-.009.006,0,.009-.005.007,0,.009,0,.007,0,.008,0,.008,0,.007,0,.033-.018,0,0L22.5,5.3l.005,0,.01-.006,0,0,.011-.006,0,0,.053-.029h0l.012-.007h0l.013-.007h0a43.076,43.076,0,0,1,4.153-1.981Zm9.6-2.71.475,2.962a40.174,40.174,0,0,0-4.54,1l-.815-2.887q.82-.232,1.654-.431h0l.113-.027h0l.018,0h0l.018,0h0l.075-.018h0l.017,0h0l.017,0h0l.075-.017h0l.018,0h0l.017,0h0l.074-.017h0l.015,0h0l.015,0h0l.017,0h0l.056-.013h0l.016,0h0l.015,0h0l.015,0h0l.055-.012h0l.015,0,.018,0,.019,0h0l.015,0h0l.018,0h0l.017,0h0l.019,0,.019,0,.018,0,.015,0h0L34.06.983h0l.019,0,.019,0,.018,0,.013,0h.005l.036-.008h0l.019,0,.019,0,.018,0,.018,0,.015,0h0l.018,0,.018,0,.018,0,.018,0,.018,0,.019,0h.005l.018,0,.018,0,.018,0,.018,0,.018,0h.007l.018,0,.017,0,.018,0,.018,0,.018,0,.018,0,.009,0,.018,0,.025-.005.019,0,.018,0,.018,0,.018,0,.018,0h.007l.02,0,.017,0,.018,0,.018,0,.018,0,.017,0h.006l.028-.005.013,0,.016,0,.018,0,.017,0,.018,0h0l.046-.009.016,0,.017,0,.018,0,.017,0h0l.062-.012h0l.015,0h0l.014,0h0l.1-.018h0l.016,0h0l.116-.021h0Q35.892.624,36.374.547ZM43.274,0V3c-.6,0-1.2.013-1.8.039l-.131-3,.4-.016h.268l.07,0H42.1c.186,0,.371-.009.557-.011h.612Z" transform="translate(606.761 9447.207)" fill="#00cea1"/>
    <text id="_1.00_cm-3" data-name="1.00 cm" transform="translate(622.445 9493.846)" fill="#18639b" font-size="10" font-family="SegoeUI, Segoe UI"><tspan x="-17.156" y="0">1.00 cm</tspan></text>
    <text id="Punto_de_origen" data-name="Punto de origen" transform="translate(379.279 9658.521)" fill="#12263f" font-size="14" font-family="SegoeUI, Segoe UI"><tspan x="-49.909" y="0">Punto de origen</tspan></text>
    <path id="Trazado_842360" data-name="Trazado 842360" d="M5.862,125.23l-3.707-1.5,30-74,3.707,1.5Z" transform="translate(302.991 9612.521)" fill="#ffd54f"/>
  </g>
</svg>
