<svg xmlns="http://www.w3.org/2000/svg" width="85" height="85" viewBox="0 0 85 85">
  <g id="Grupo_1078979" data-name="Grupo 1078979" transform="translate(-1020 -8412.927)">
    <path id="Trazado_842348" data-name="Trazado 842348" d="M42.5,0A42.5,42.5,0,1,1,0,42.5,42.5,42.5,0,0,1,42.5,0Z" transform="translate(1020 8412.927)" fill="#673ab7"/>
    <g id="Grupo_1078703" data-name="Grupo 1078703" transform="translate(1033.038 8431.278)">
      <path id="Trazado_841454" data-name="Trazado 841454" d="M187.625,0V3.534h27.048V20.86a14.162,14.162,0,0,1-8.06,12.767s-18.988,9.067-18.988,9.067v5.6h30.583V0Z" transform="translate(-169.778)" fill="#d1bcff"/>
      <path id="Trazado_841455" data-name="Trazado 841455" d="M16.946,253.777.164,270.559a4.957,4.957,0,0,0,4.918,4.394,4.9,4.9,0,0,0,2.128-.479l20.757-9.907a14.188,14.188,0,0,1-11.022-10.79Z" transform="translate(0 -229.838)" fill="#d1bcff"/>
      <path id="Trazado_841456" data-name="Trazado 841456" d="M128.11,81.965a11.314,11.314,0,1,0,22.627,0v-14.5H120.155V86.5l7.955-7.955v3.416Z" transform="translate(-108.672 -61.105)" fill="#d1bcff"/>
    </g>
  </g>
</svg>
