<svg xmlns="http://www.w3.org/2000/svg" width="85" height="85" viewBox="0 0 85 85">
  <g id="Grupo_1078978" data-name="Grupo 1078978" transform="translate(-810 -8412.927)">
    <path id="Trazado_842347" data-name="Trazado 842347" d="M42.5,0A42.5,42.5,0,1,1,0,42.5,42.5,42.5,0,0,1,42.5,0Z" transform="translate(810 8412.927)" fill="#673ab7"/>
    <g id="Grupo_1078702" data-name="Grupo 1078702" transform="translate(821.916 8424.622)">
      <path id="Trazado_841439" data-name="Trazado 841439" d="M29.316,8.838h5.058L31.847,4.863Z" transform="translate(-1.258)" fill="#d1bcff"/>
      <path id="Trazado_841440" data-name="Trazado 841440" d="M41.332,20.1h13.8V45h-13.8Z" transform="translate(-1.967 -0.899)" fill="#d1bcff"/>
      <path id="Trazado_841441" data-name="Trazado 841441" d="M41.332,48.559h13.8V51.4h-13.8Z" transform="translate(-1.967 -2.579)" fill="#d1bcff"/>
      <path id="Trazado_841442" data-name="Trazado 841442" d="M41.332,57.729a1.894,1.894,0,0,0,1.892,1.892H53.252a1.887,1.887,0,0,0,1.879-1.892V53.581h-13.8Z" transform="translate(-1.967 -2.875)" fill="#d1bcff"/>
      <path id="Trazado_841443" data-name="Trazado 841443" d="M44.507,11.087l-3.175,4.987v1.615h13.8V16.073l-3.171-4.986Z" transform="translate(-1.967 -0.367)" fill="#d1bcff"/>
      <path id="Trazado_841444" data-name="Trazado 841444" d="M27.843,11.087l-3.175,4.987v1.615h13.8V16.073L35.3,11.087Z" transform="translate(-0.983 -0.367)" fill="#d1bcff"/>
      <path id="Trazado_841445" data-name="Trazado 841445" d="M24.668,57.729a1.894,1.894,0,0,0,1.892,1.892H36.588a1.887,1.887,0,0,0,1.879-1.892V53.581h-13.8Z" transform="translate(-0.983 -2.875)" fill="#d1bcff"/>
      <path id="Trazado_841446" data-name="Trazado 841446" d="M45.98,8.838h5.059L48.511,4.863Z" transform="translate(-2.241)" fill="#d1bcff"/>
      <path id="Trazado_841447" data-name="Trazado 841447" d="M11.178,11.087,8,16.073v1.615H21.8V16.073l-3.171-4.986Z" transform="translate(0 -0.367)" fill="#d1bcff"/>
      <path id="Trazado_841448" data-name="Trazado 841448" d="M24.668,48.559h13.8V51.4h-13.8Z" transform="translate(-0.983 -2.579)" fill="#d1bcff"/>
      <path id="Trazado_841449" data-name="Trazado 841449" d="M24.668,20.1h13.8V45h-13.8Z" transform="translate(-0.983 -0.899)" fill="#d1bcff"/>
      <path id="Trazado_841450" data-name="Trazado 841450" d="M8,57.729A1.894,1.894,0,0,0,9.9,59.621H19.923A1.887,1.887,0,0,0,21.8,57.729V53.581H8Z" transform="translate(0 -2.875)" fill="#d1bcff"/>
      <path id="Trazado_841451" data-name="Trazado 841451" d="M12.651,8.838H17.71L15.182,4.863Z" transform="translate(-0.274)" fill="#d1bcff"/>
      <path id="Trazado_841452" data-name="Trazado 841452" d="M8,48.559H21.8V51.4H8Z" transform="translate(0 -2.579)" fill="#d1bcff"/>
      <path id="Trazado_841453" data-name="Trazado 841453" d="M8,20.1H21.8V45H8Z" transform="translate(0 -0.899)" fill="#d1bcff"/>
    </g>
  </g>
</svg>
