<svg xmlns="http://www.w3.org/2000/svg" xmlns:xlink="http://www.w3.org/1999/xlink" width="315" height="249.671" viewBox="0 0 315 249.671">
  <defs>
    <clipPath id="clip-path">
      <rect id="Rectángulo_381620" data-name="Rectángulo 381620" width="315" height="249.671" fill="none"/>
    </clipPath>
  </defs>
  <g id="Grupo_1078977" data-name="Grupo 1078977" transform="translate(0 -0.002)">
    <g id="Grupo_1078817" data-name="Grupo 1078817" transform="translate(0 0.002)" clip-path="url(#clip-path)">
      <path id="Trazado_841845" data-name="Trazado 841845" d="M369.309,511.426s-47.855-67.4,14.581-120.359a37.715,37.715,0,0,1,6.436-4.353c4.6-2.5,14.59-10.687,15.558-34.928a73.887,73.887,0,0,1,5.529-25.756c6.02-14.244,18.194-31.466,42.038-32.723,14.044-.74,27.866,4.291,39.429,13.852a81.546,81.546,0,0,1,11.926,12.155,60.9,60.9,0,0,0,15.69,14.223c8.138,4.99,19.618,9.944,31.61,8.416a33.856,33.856,0,0,1,17.846,2.392c13.612,5.888,33.081,21.118,28.727,59.663,0,0-2.766,21.35,7.322,37.212a54.574,54.574,0,0,1,8.241,23.872c1.488,15.085.476,35.995-13.921,46.138Z" transform="translate(-325.021 -270.928)" fill="#eee6ff"/>
      <path id="Trazado_841846" data-name="Trazado 841846" d="M605.858,1258.94s-.5-3.957-6.426-8.668a26.808,26.808,0,0,0-11.3-5.369,17.863,17.863,0,0,0-3.894-.4,4.178,4.178,0,0,0-3.336,6.627c1.447,1.985,4.286,4.09,9.829,5.185.969.191,1.935.388,2.895.617a81.861,81.861,0,0,0,12.236,2.009" transform="translate(-535.962 -1149.827)" fill="#1b989c"/>
      <path id="Trazado_841847" data-name="Trazado 841847" d="M491.14,1008.687a44.475,44.475,0,0,0-11.592-9.839,16.78,16.78,0,0,0-8.084-2.16,12.692,12.692,0,0,0-6.45,1.583,3.188,3.188,0,0,0-1.276,4.146c1.815,3.718,7.8,9.867,27.4,6.269" transform="translate(-428.164 -920.869)" fill="#1b989c"/>
      <path id="Trazado_841848" data-name="Trazado 841848" d="M323.881,766.323s-8.519-8.537-14.1-10.052c0,0-5.956-1.767-10.482-.707a4.862,4.862,0,0,0-.935,9.163c3.769,1.747,11.138,3,25.519,1.6" transform="translate(-273.037 -697.774)" fill="#1b989c"/>
      <path id="Trazado_841849" data-name="Trazado 841849" d="M334.045,476.442s-5.827-15.036-12.821-14.637c0,0-10.411-1.017-7.87,3.992,0,0,1.845,8.959,20.691,10.645" transform="translate(-289.147 -426.597)" fill="#1b989c"/>
      <path id="Trazado_841850" data-name="Trazado 841850" d="M738.3,385.96s-3.574-5.853,5.146-14.407a5.966,5.966,0,0,1,4.225-1.762,3.963,3.963,0,0,1,4.032,3.18s1.176,1.841-.435,5.393a12.934,12.934,0,0,1-8.894,7.156,16.425,16.425,0,0,1-4.074.44" transform="translate(-681.47 -341.66)" fill="#1b989c"/>
      <path id="Trazado_841851" data-name="Trazado 841851" d="M813.984,665.5s-5.95-11.732-.365-17.46a3.369,3.369,0,0,1,5.345.8c1.729,3.195,2.7,8.977-4.98,16.664" transform="translate(-749.517 -597.831)" fill="#1b989c"/>
      <path id="Trazado_841852" data-name="Trazado 841852" d="M1002.536,824.89s-4.39-13.494.742-20.981a3.954,3.954,0,0,1,6.227-.466,9.074,9.074,0,0,1,2.015,5.463,14.872,14.872,0,0,1-1.641,7.9c-1.353,2.655-3.706,6.154-7.342,8.088" transform="translate(-924.656 -741.117)" fill="#1b989c"/>
      <path id="Trazado_841853" data-name="Trazado 841853" d="M1125.029,1091.253s-7.653-14.6,2.178-25.033a6.928,6.928,0,0,1,5.7-2.245c1.934.2,4.075,1.3,5.219,4.745a12.486,12.486,0,0,1,0,7.611c-1.434,4.635-5.1,13.112-13.1,14.922" transform="translate(-1036.824 -983.006)" fill="#1b989c"/>
      <path id="Trazado_841854" data-name="Trazado 841854" d="M681.338,461.648a39.018,39.018,0,0,0,3.051-14.692,42.381,42.381,0,0,0-2.3-14.894,48.666,48.666,0,0,0-10.23-16.865,52.607,52.607,0,0,1-8.344-12.142c-4.843-9.853-9.185-24.777-2.366-39.926L660,362.611c-7.02,15.6-2.578,30.905,2.385,41a53.873,53.873,0,0,0,8.542,12.435c10.434,11.474,12.393,23.125,12.2,30.878A38.4,38.4,0,0,1,680.2,461.1Z" transform="translate(-606.432 -335.027)" fill="#1b989c"/>
      <path id="Trazado_841855" data-name="Trazado 841855" d="M540.06,65.313s6.663-14.444-2.049-25.542a8.339,8.339,0,0,0-7.047-3.02,4.712,4.712,0,0,0-3.949,2.576c-.938,1.953-1.256,5.379,1.908,11,.255.453.5.912.737,1.374,1.218,2.357,5.345,10.333,10.4,13.616" transform="translate(-486.328 -33.935)" fill="#1b989c"/>
      <path id="Trazado_841856" data-name="Trazado 841856" d="M570.979,573.075l6.626-9.086-1.02-.744-6.049,8.295-7.7-3.065-.467,1.173Z" transform="translate(-519.586 -520.398)" fill="#1b989c"/>
      <path id="Trazado_841857" data-name="Trazado 841857" d="M807.883,1087.574l7.619-6.493-.819-.961-7.172,6.112-10.166-1.687-.207,1.245Z" transform="translate(-736.498 -997.954)" fill="#1b989c"/>
      <path id="Trazado_841858" data-name="Trazado 841858" d="M910.356,1408.472l11.979-7.324-.658-1.077-11.282,6.9-7.931-5.418-.712,1.042Z" transform="translate(-833.153 -1293.565)" fill="#1b989c"/>
      <path id="Trazado_841859" data-name="Trazado 841859" d="M640.276,870.82l6.37-6.98-.933-.851-5.731,6.281-10.417-5.112-.556,1.133Z" transform="translate(-581.158 -797.34)" fill="#1b989c"/>
      <path id="Trazado_841860" data-name="Trazado 841860" d="M3583.99,2775.679s.091-3.988,5.492-9.287a26.8,26.8,0,0,1,10.686-6.512,17.869,17.869,0,0,1,3.831-.8,4.178,4.178,0,0,1,4.005,6.246c-1.233,2.125-3.839,4.513-9.238,6.176-.943.291-1.884.586-2.815.915a81.861,81.861,0,0,1-11.961,3.266" transform="translate(-3311.349 -2549.175)" fill="#1b989c"/>
      <path id="Trazado_841861" data-name="Trazado 841861" d="M3645.442,2518.864a44.482,44.482,0,0,1,10.51-10.988,16.779,16.779,0,0,1,7.816-2.986,12.689,12.689,0,0,1,6.579.906,3.187,3.187,0,0,1,1.7,3.992c-1.419,3.885-6.736,10.622-26.6,9.076" transform="translate(-3368.126 -2314.257)" fill="#1b989c"/>
      <path id="Trazado_841862" data-name="Trazado 841862" d="M3777.8,2259.129s7.588-9.375,12.984-11.46c0,0,5.741-2.375,10.352-1.79a4.862,4.862,0,0,1,1.88,9.017c-3.567,2.128-10.767,4.142-25.216,4.234" transform="translate(-3490.415 -2074.944)" fill="#1b989c"/>
      <path id="Trazado_841863" data-name="Trazado 841863" d="M3830.052,1970.582s4.236-15.559,11.234-15.887c0,0,10.249-2.091,8.242,3.154,0,0-.907,9.1-19.476,12.733" transform="translate(-3538.692 -1805.618)" fill="#1b989c"/>
      <path id="Trazado_841864" data-name="Trazado 841864" d="M3485.2,1928.323s2.948-6.192-6.612-13.8a5.965,5.965,0,0,0-4.385-1.314,3.964,3.964,0,0,0-3.681,3.581s-.979,1.953.992,5.319a12.933,12.933,0,0,0,9.588,6.2,16.414,16.414,0,0,0,4.1.015" transform="translate(-3206.29 -1767.636)" fill="#1b989c"/>
      <path id="Trazado_841865" data-name="Trazado 841865" d="M3508.043,2207.683s4.7-12.286-1.447-17.4a3.369,3.369,0,0,0-5.234,1.347c-1.388,3.357-1.754,9.208,6.681,16.058" transform="translate(-3234.3 -2022.963)" fill="#1b989c"/>
      <path id="Trazado_841866" data-name="Trazado 841866" d="M3316.351,2387.1s2.967-13.876-2.913-20.792a3.953,3.953,0,0,0-6.242.182,9.076,9.076,0,0,0-1.437,5.643,14.871,14.871,0,0,0,2.452,7.684c1.62,2.5,4.324,5.737,8.141,7.283" transform="translate(-3054.279 -2184.971)" fill="#1b989c"/>
      <path id="Trazado_841867" data-name="Trazado 841867" d="M3153.554,2669.921s6.1-15.317-4.762-24.672a6.928,6.928,0,0,0-5.9-1.642c-1.9.4-3.919,1.711-4.7,5.261a12.489,12.489,0,0,0,.787,7.57c1.907,4.461,6.436,12.512,14.576,13.483" transform="translate(-2899.213 -2442.38)" fill="#1b989c"/>
      <path id="Trazado_841868" data-name="Trazado 841868" d="M3482.665,1990.018a39.009,39.009,0,0,1-4.558-14.3,42.383,42.383,0,0,1,.74-15.052,48.66,48.66,0,0,1,8.427-17.835,52.6,52.6,0,0,0,7.04-12.942c3.8-10.3,6.567-25.6-1.786-39.957l1.091-.635c8.6,14.785,5.769,30.471,1.879,41.028a53.878,53.878,0,0,1-7.208,13.253c-9.187,12.494-9.928,24.285-8.932,31.977a38.4,38.4,0,0,0,4.383,13.8Z" transform="translate(-3213.192 -1745.579)" fill="#1b989c"/>
      <path id="Trazado_841869" data-name="Trazado 841869" d="M3643.244,1582.619s-8.124-13.676-.611-25.616a8.338,8.338,0,0,1,6.7-3.734,4.712,4.712,0,0,1,4.195,2.153c1.136,1.845,1.807,5.22-.758,11.134-.207.477-.4.959-.591,1.443-.967,2.471-4.245,10.832-8.931,14.621" transform="translate(-3362.585 -1435.106)" fill="#1b989c"/>
      <path id="Trazado_841870" data-name="Trazado 841870" d="M3657.5,2102.723l-7.532-8.35.938-.846,6.876,7.623,7.344-3.847.586,1.118Z" transform="translate(-3372.311 -1934.268)" fill="#1b989c"/>
      <path id="Trazado_841871" data-name="Trazado 841871" d="M3437.743,2643.2l-8.251-5.667.715-1.041,7.767,5.335,9.937-2.733.334,1.217Z" transform="translate(-3168.604 -2435.93)" fill="#1b989c"/>
      <path id="Trazado_841872" data-name="Trazado 841872" d="M3342.427,2969.686l-12.674-6.042.543-1.14,11.937,5.692,7.326-6.211.816.963Z" transform="translate(-3076.452 -2736.661)" fill="#1b989c"/>
      <path id="Trazado_841873" data-name="Trazado 841873" d="M3590.612,2402.958l-7.059-6.282.839-.943,6.352,5.653,9.831-6.165.671,1.07Z" transform="translate(-3310.945 -2213.011)" fill="#1b989c"/>
      <path id="Trazado_841874" data-name="Trazado 841874" d="M626.116,1785.091v100.163H605.671s-3.78.516-3.78,5.326h52.573s-.43-5.24-3.866-5.24H630.153l-.172-100.335Z" transform="translate(-556.104 -1649.216)" fill="#726672"/>
      <path id="Trazado_841875" data-name="Trazado 841875" d="M657.471,553.874H678.6s8.019-19.8,7.286-27.3c-.031-.314-.045-.629-.053-.944-.039-1.384-.765-6.835-7.588-24.947a17.409,17.409,0,0,1-.891-8.9c.356-2.212.879-4.955,1.62-7.756a31.722,31.722,0,0,1,4.6-9.919,30.75,30.75,0,0,0,3.855-7.184,2.241,2.241,0,0,0-1.172-2.721,33.569,33.569,0,0,0-5.121-1.929c-.475-.137-.958-.25-1.44-.359-1.049-.239-4.73-1.624-5.9-9.4,0,0-.859,2.749-6.7,2.749,0,0-7.388.172-7.388-2.749,0,0-.947,8.521-6.016,9.684a21.18,21.18,0,0,0-2.17.594,40.215,40.215,0,0,0-3.916,1.562,2.869,2.869,0,0,0-1.447,3.626,24.73,24.73,0,0,0,3.276,5.792,27.053,27.053,0,0,1,3.921,7.36c1.322,3.853,2.845,9.346,2.8,14.129a9.922,9.922,0,0,1-.355,2.492c-1.275,4.737-6.251,23.563-6.086,28.136.008.217.01.433.01.651,0,1.388.51,7.7,7.745,27.339" transform="translate(-596.823 -418.085)" fill="#fecc99"/>
      <path id="Trazado_841876" data-name="Trazado 841876" d="M840.524,429.985c0,1.281-3.115,2.319-6.958,2.319s-6.958-1.038-6.958-2.319,3.115-2.319,6.958-2.319,6.958,1.038,6.958,2.319" transform="translate(-763.726 -395.133)" fill="#fed7ae"/>
      <path id="Trazado_841877" data-name="Trazado 841877" d="M646.393,464.82a13.075,13.075,0,0,1-4.9,6.664c-.13.092-.263.18-.4.267a11.289,11.289,0,0,0-4.629,8.778c-.029.4-.059.807-.1,1.21-.182,1.929-.27,8.619,7.42,7.736,0,0,5.563-1.2,9.152,0,0,0,5.922,1.546,7.9-.344,0,0-2.692,5.67-12.92,4.639,0,0-6.581-.323-6.98,3.888-.026.279-.054.559-.1.836-.156,1.015-.393,3.616.879,5.409a11.184,11.184,0,0,1,.987,1.618c.958,2,2.249,6.026-.449,9.767a20.094,20.094,0,0,0-2.622,4.832c-2.508,6.86-5.823,22.72,6.306,42.372h-6.819a182.877,182.877,0,0,0-6.114-17.676,26.141,26.141,0,0,1-2.159-12.9,25.878,25.878,0,0,1,.532-3.342,11.952,11.952,0,0,1,.848-2.414c1.9-4.054,8.708-20.558,2.193-37.145a19.3,19.3,0,0,0-2.831-4.865,33.6,33.6,0,0,1-4.691-7.685,2.443,2.443,0,0,1,1.452-3.173c1.213-.471,2.843-1.055,4.643-1.565a11.332,11.332,0,0,0,8.211-8.656q.036-.195.069-.4a9.25,9.25,0,0,0,5.114,2.148" transform="translate(-579.058 -427.476)" fill="#fdb77b"/>
      <path id="Trazado_841878" data-name="Trazado 841878" d="M623.907,2104.67a26.883,26.883,0,1,0,26.883,26.883,26.884,26.884,0,0,0-26.883-26.883m8.008,37.751a3.546,3.546,0,1,1,3.546-3.546,3.546,3.546,0,0,1-3.546,3.546m-3.775-18.189a3.546,3.546,0,1,1,3.546,3.547,3.546,3.546,0,0,1-3.546-3.547m-12.012,18.189a3.546,3.546,0,1,1,3.546-3.546,3.546,3.546,0,0,1-3.546,3.546m-3.775-18.189a3.546,3.546,0,1,1,3.546,3.547,3.546,3.546,0,0,1-3.546-3.547" transform="translate(-551.607 -1944.563)" fill="#af93f9"/>
      <path id="Trazado_841879" data-name="Trazado 841879" d="M682.147,2170.837a21.964,21.964,0,1,0,21.964,21.964,21.964,21.964,0,0,0-21.964-21.964m-7.893,10.982a3.546,3.546,0,1,1-3.546,3.546,3.546,3.546,0,0,1,3.546-3.546m.229,21.735a3.546,3.546,0,1,1,3.546-3.546,3.546,3.546,0,0,1-3.546,3.546m15.558-21.735a3.546,3.546,0,1,1-3.546,3.546,3.546,3.546,0,0,1,3.546-3.546m.229,21.735a3.546,3.546,0,1,1,3.546-3.546,3.546,3.546,0,0,1-3.546,3.546" transform="translate(-609.961 -2005.697)" fill="#9557ff"/>
      <path id="Trazado_841880" data-name="Trazado 841880" d="M1419.467,61.024l.782-3.212s-15.15-40.9-17.9-57.809c0,0,20.692,27.455,29.648,56.2l-5.3,5.353Z" transform="translate(-1295.67 -0.003)" fill="#aed3f5"/>
      <path id="Trazado_841881" data-name="Trazado 841881" d="M1236.679,223.961s-30.936-28.8-39.594-46.875c0,0,37.088,27.891,46.043,34.545,0,0-1.457,4.979-.017,7.628Z" transform="translate(-1106.02 -163.615)" fill="#bfe1ff"/>
      <path id="Trazado_841882" data-name="Trazado 841882" d="M1615.03,579.876a3.849,3.849,0,1,1-3.531,3.554,3.564,3.564,0,0,1,3.531-3.554" transform="translate(-1488.898 -535.756)" fill="#aed3f5"/>
      <path id="Trazado_841883" data-name="Trazado 841883" d="M1632.338,605.868a1.822,1.822,0,1,1-1.759,1.687,1.728,1.728,0,0,1,1.759-1.687" transform="translate(-1506.532 -559.775)" fill="#bfe1ff"/>
      <path id="Trazado_841884" data-name="Trazado 841884" d="M1823.563,578.081a30.388,30.388,0,0,1-1.477,7.352,12.3,12.3,0,0,1-10.762,8.461c-6.734.48-11.307-4.646-12.96-6.871-.809-1.089-1.559-2.067-2.292-2.99a133.732,133.732,0,0,1-14.589-22.2c-6.357-13.135-13.244-10.667-13.534-10.556l.04-.017-1.923-4.5a10.927,10.927,0,0,1,7.165-.079c4.948,1.511,9.2,5.889,12.651,13.01A131.619,131.619,0,0,0,1799.9,580.99c.767.965,1.549,1.985,2.39,3.116,1.173,1.579,4.366,5.217,8.686,4.91a7.418,7.418,0,0,0,6.47-5.132,24.187,24.187,0,0,0-3.618-22.437,29.977,29.977,0,0,0-13.672-10.3c-5.538-2.1-16.018-5.738-23.983-6.558l.5-4.865c8.091.833,18.178,4.184,25.215,6.849a34.856,34.856,0,0,1,15.89,11.991,28.842,28.842,0,0,1,5.785,19.52" transform="translate(-1631.717 -498.663)" fill="#895cd8"/>
      <path id="Trazado_841885" data-name="Trazado 841885" d="M1535.935,811.264a13.639,13.639,0,0,1-.3,2,14.494,14.494,0,0,1-4.475,7.536,13.907,13.907,0,0,1-17.2,1.321c-4.3-2.784-7.913-7.359-10.73-13.6a52.186,52.186,0,0,1-4.5-22.39c.114-5.71.809-13.926,3.469-20.639l4.547,1.8c-2.391,6.034-3.02,13.628-3.126,18.935a47.267,47.267,0,0,0,4.067,20.28c2.424,5.37,5.429,9.242,8.929,11.506a9.336,9.336,0,0,0,13.413-12.04c-5.558-11.15-16.186-23.991-16.293-24.119l-.066-.083c-9.772-12.856-3.837-21.192-3.58-21.541l3.934,2.906.023-.031c-.163.237-3.907,5.91,3.486,15.666.807.974,11.166,13.572,16.873,25.021a14.318,14.318,0,0,1,1.53,7.471" transform="translate(-1384.707 -702.399)" fill="#895cd8"/>
      <path id="Trazado_841886" data-name="Trazado 841886" d="M1791.964,819.7h-88.581a28.2,28.2,0,0,0-28.2,28.2V998.034h144.977V847.9a28.2,28.2,0,0,0-28.2-28.2M1717.3,833.119a3.541,3.541,0,1,1,3.54-3.541,3.541,3.541,0,0,1-3.54,3.541m20.312,0a3.541,3.541,0,1,1,3.541-3.541,3.541,3.541,0,0,1-3.541,3.541m20.312,0a3.541,3.541,0,1,1,3.541-3.541,3.541,3.541,0,0,1-3.541,3.541m20.312,0a3.541,3.541,0,1,1,3.541-3.541,3.541,3.541,0,0,1-3.541,3.541" transform="translate(-1547.75 -757.346)" fill="#f5faff"/>
      <path id="Trazado_841887" data-name="Trazado 841887" d="M2161.041,600.325a7.556,7.556,0,0,1-5.837-3.135l.722-.589a6.661,6.661,0,0,0,5.115,2.792c4.675,0,8.479-6.144,8.479-13.7s-3.8-13.7-8.479-13.7-8.479,6.144-8.479,13.7a21.438,21.438,0,0,0,.407,4.194l-.913.183a22.339,22.339,0,0,1-.426-4.377c0-8.066,4.222-14.628,9.411-14.628s9.41,6.562,9.41,14.628-4.222,14.628-9.41,14.628" transform="translate(-1987.951 -527.627)"/>
      <path id="Trazado_841888" data-name="Trazado 841888" d="M2428.044,600.325a7.555,7.555,0,0,1-5.837-3.135l.723-.589a6.661,6.661,0,0,0,5.115,2.792c4.675,0,8.479-6.144,8.479-13.7s-3.8-13.7-8.479-13.7-8.479,6.144-8.479,13.7a21.42,21.42,0,0,0,.408,4.195l-.914.183a22.339,22.339,0,0,1-.426-4.378c0-8.066,4.222-14.628,9.41-14.628s9.411,6.562,9.411,14.628-4.222,14.628-9.411,14.628" transform="translate(-2234.644 -527.627)"/>
      <path id="Trazado_841889" data-name="Trazado 841889" d="M2695.049,600.325a7.555,7.555,0,0,1-5.837-3.135l.723-.588a6.661,6.661,0,0,0,5.115,2.792c4.675,0,8.479-6.144,8.479-13.7s-3.8-13.7-8.479-13.7-8.479,6.144-8.479,13.7a21.419,21.419,0,0,0,.408,4.194l-.914.183a22.339,22.339,0,0,1-.426-4.377c0-8.066,4.222-14.628,9.41-14.628s9.411,6.562,9.411,14.628-4.222,14.628-9.411,14.628" transform="translate(-2481.337 -527.627)"/>
      <path id="Trazado_841890" data-name="Trazado 841890" d="M2962.055,600.325a7.554,7.554,0,0,1-5.837-3.135l.722-.588a6.661,6.661,0,0,0,5.115,2.792c4.675,0,8.479-6.144,8.479-13.7s-3.8-13.7-8.479-13.7-8.479,6.144-8.479,13.7a21.419,21.419,0,0,0,.408,4.194l-.914.183a22.357,22.357,0,0,1-.426-4.377c0-8.066,4.221-14.628,9.411-14.628s9.41,6.562,9.41,14.628-4.221,14.628-9.41,14.628" transform="translate(-2728.03 -527.627)"/>
      <path id="Trazado_841891" data-name="Trazado 841891" d="M2723.951,2271.783h-24.729l-2.915-26.028-2.553,26.028h-24.736v-58.864h54.933Zm-23.652-1.2h22.448v-56.457h-52.526v56.457h22.441l3.566-36.346Z" transform="translate(-2465.98 -2044.578)"/>
      <path id="Trazado_841892" data-name="Trazado 841892" d="M1919.058,1248.537H1878.54v-38h-11.794v-16.761l18.293-6.065,25.065.023,18.8,5.372.043,17.482-9.89-.051Zm-39.314-1.2h38.111v-38l9.789-.05.022-15.281-17.811-5.088h-24.717l-17.187,5.729v14.69h11.794Z" transform="translate(-1724.739 -1097.356)"/>
      <path id="Trazado_841893" data-name="Trazado 841893" d="M2270.534,1211.6a.373.373,0,0,1-.373-.373V1210.2a.373.373,0,1,1,.745,0v1.025a.373.373,0,0,1-.373.373" transform="translate(-2097.465 -1117.795)"/>
      <path id="Trazado_841894" data-name="Trazado 841894" d="M2270.534,1301.282a.373.373,0,0,1-.373-.373v-2.025a.373.373,0,1,1,.745,0v2.025a.373.373,0,0,1-.373.373m0-4.05a.373.373,0,0,1-.373-.373v-2.025a.373.373,0,1,1,.745,0v2.025a.373.373,0,0,1-.373.373m0-4.05a.373.373,0,0,1-.373-.373v-2.025a.373.373,0,1,1,.745,0v2.025a.373.373,0,0,1-.373.373m0-4.049a.373.373,0,0,1-.373-.373v-2.025a.373.373,0,1,1,.745,0v2.025a.373.373,0,0,1-.373.373m0-4.05a.373.373,0,0,1-.373-.373v-2.025a.373.373,0,1,1,.745,0v2.025a.373.373,0,0,1-.373.373m0-4.05a.373.373,0,0,1-.373-.373v-2.025a.373.373,0,1,1,.745,0v2.025a.373.373,0,0,1-.373.373m0-4.05a.373.373,0,0,1-.373-.373v-2.025a.373.373,0,1,1,.745,0v2.025a.373.373,0,0,1-.373.373m0-4.05a.373.373,0,0,1-.373-.373v-2.025a.373.373,0,1,1,.745,0v2.025a.373.373,0,0,1-.373.373m0-4.05a.373.373,0,0,1-.373-.373v-2.025a.373.373,0,1,1,.745,0v2.025a.373.373,0,0,1-.373.373m0-4.05a.373.373,0,0,1-.373-.373v-2.025a.373.373,0,1,1,.745,0v2.025a.373.373,0,0,1-.373.373m0-4.05a.373.373,0,0,1-.373-.373v-2.025a.373.373,0,1,1,.745,0v2.025a.373.373,0,0,1-.373.373m0-4.05a.373.373,0,0,1-.373-.373v-2.025a.373.373,0,0,1,.745,0v2.025a.373.373,0,0,1-.373.373m0-4.05a.373.373,0,0,1-.373-.373v-2.025a.373.373,0,1,1,.745,0v2.025a.373.373,0,0,1-.373.373" transform="translate(-2097.465 -1154.833)"/>
      <path id="Trazado_841895" data-name="Trazado 841895" d="M2270.534,1943.723a.373.373,0,0,1-.373-.373v-1.025a.373.373,0,1,1,.745,0v1.025a.373.373,0,0,1-.373.373" transform="translate(-2097.465 -1794.225)"/>
      <path id="Trazado_841896" data-name="Trazado 841896" d="M2258.448,1205.866l1.264-1.264,1.264,1.264v-1.073l-1.264-1.264-1.264,1.264Z" transform="translate(-2086.644 -1111.975)"/>
      <path id="Trazado_841897" data-name="Trazado 841897" d="M2258.448,1940.808l1.264,1.264,1.264-1.264v1.073l-1.264,1.264-1.264-1.264Z" transform="translate(-2086.644 -1793.167)"/>
      <path id="Trazado_841898" data-name="Trazado 841898" d="M2584.081,2223.279a.373.373,0,0,1-.373-.373v-1.025a.373.373,0,1,1,.746,0v1.025a.373.373,0,0,1-.373.373" transform="translate(-2387.16 -2052.514)"/>
      <path id="Trazado_841899" data-name="Trazado 841899" d="M2584.081,2312.962a.373.373,0,0,1-.373-.373v-2.025a.373.373,0,0,1,.746,0v2.025a.373.373,0,0,1-.373.373m0-4.049a.373.373,0,0,1-.373-.373v-2.025a.373.373,0,1,1,.746,0v2.025a.373.373,0,0,1-.373.373m0-4.05a.373.373,0,0,1-.373-.373v-2.025a.373.373,0,0,1,.746,0v2.025a.373.373,0,0,1-.373.373m0-4.05a.373.373,0,0,1-.373-.372v-2.025a.373.373,0,1,1,.746,0v2.025a.373.373,0,0,1-.373.372m0-4.05a.373.373,0,0,1-.373-.373v-2.025a.373.373,0,0,1,.746,0v2.025a.373.373,0,0,1-.373.373m0-4.05a.373.373,0,0,1-.373-.373v-2.024a.373.373,0,1,1,.746,0v2.024a.373.373,0,0,1-.373.373m0-4.05a.373.373,0,0,1-.373-.373v-2.025a.373.373,0,1,1,.746,0v2.025a.373.373,0,0,1-.373.373m0-4.049a.373.373,0,0,1-.373-.373v-2.025a.373.373,0,1,1,.746,0v2.025a.373.373,0,0,1-.373.373m0-4.05a.373.373,0,0,1-.373-.373v-2.025a.373.373,0,0,1,.746,0v2.025a.373.373,0,0,1-.373.373m0-4.05a.372.372,0,0,1-.373-.372v-2.025a.373.373,0,1,1,.746,0v2.025a.373.373,0,0,1-.373.372m0-4.049a.373.373,0,0,1-.373-.373v-2.025a.373.373,0,0,1,.746,0v2.025a.373.373,0,0,1-.373.373m0-4.05a.373.373,0,0,1-.373-.373v-2.025a.373.373,0,0,1,.746,0v2.025a.373.373,0,0,1-.373.373m0-4.05a.373.373,0,0,1-.373-.373v-2.025a.373.373,0,1,1,.746,0v2.025a.373.373,0,0,1-.373.373" transform="translate(-2387.16 -2089.553)"/>
      <path id="Trazado_841900" data-name="Trazado 841900" d="M2584.081,2955.4a.373.373,0,0,1-.373-.373V2954a.373.373,0,0,1,.746,0v1.025a.373.373,0,0,1-.373.373" transform="translate(-2387.16 -2728.944)"/>
      <path id="Trazado_841901" data-name="Trazado 841901" d="M2572,2217.545l1.264-1.264,1.263,1.264v-1.073l-1.263-1.264-1.264,1.264Z" transform="translate(-2376.338 -2046.693)"/>
      <path id="Trazado_841902" data-name="Trazado 841902" d="M2572,2952.487l1.264,1.264,1.263-1.264v1.073l-1.263,1.264L2572,2953.56Z" transform="translate(-2376.338 -2727.885)"/>
      <path id="Trazado_841903" data-name="Trazado 841903" d="M2025.825,2023.193H2024.8a.373.373,0,0,1,0-.745h1.025a.373.373,0,0,1,0,.745" transform="translate(-1870.425 -1868.596)"/>
      <path id="Trazado_841904" data-name="Trazado 841904" d="M2098.08,2023.193h-2.125a.373.373,0,1,1,0-.745h2.125a.373.373,0,1,1,0,.745m-4.25,0h-2.125a.373.373,0,1,1,0-.745h2.125a.373.373,0,1,1,0,.745m-4.25,0h-2.125a.373.373,0,1,1,0-.745h2.125a.373.373,0,0,1,0,.745m-4.25,0h-2.125a.373.373,0,1,1,0-.745h2.125a.373.373,0,1,1,0,.745m-4.25,0h-2.125a.373.373,0,0,1,0-.745h2.125a.373.373,0,1,1,0,.745m-4.25,0h-2.125a.373.373,0,0,1,0-.745h2.125a.373.373,0,0,1,0,.745m-4.25,0h-2.125a.373.373,0,1,1,0-.745h2.125a.373.373,0,0,1,0,.745m-4.25,0h-2.125a.373.373,0,1,1,0-.745h2.125a.373.373,0,0,1,0,.745" transform="translate(-1908.681 -1868.596)"/>
      <path id="Trazado_841905" data-name="Trazado 841905" d="M2514.164,2023.193h-1.025a.373.373,0,0,1,0-.745h1.025a.373.373,0,0,1,0,.745" transform="translate(-2321.615 -1868.596)"/>
      <path id="Trazado_841906" data-name="Trazado 841906" d="M2020.464,2013.264,2019.2,2012l1.265-1.264h-1.073l-1.264,1.264,1.264,1.264Z" transform="translate(-1864.604 -1857.776)"/>
      <path id="Trazado_841907" data-name="Trazado 841907" d="M2511.622,2013.264l1.264-1.264-1.264-1.264h1.073l1.264,1.264-1.264,1.264Z" transform="translate(-2320.558 -1857.776)"/>
      <path id="Trazado_841908" data-name="Trazado 841908" d="M2680.327,2152h-1.413c-.284,0-.514-.155-.514-.347s.23-.347.514-.347h1.413c.284,0,.514.156.514.347s-.23.347-.514.347" transform="translate(-2474.649 -1987.648)"/>
      <path id="Trazado_841909" data-name="Trazado 841909" d="M2779.933,2152H2777c-.284,0-.514-.155-.514-.347s.23-.347.514-.347h2.929c.283,0,.514.156.514.347s-.23.347-.514.347m-5.859,0h-2.929c-.284,0-.514-.155-.514-.347s.23-.347.514-.347h2.929c.284,0,.514.156.514.347s-.23.347-.514.347m-5.859,0h-2.929c-.283,0-.514-.155-.514-.347s.23-.347.514-.347h2.929c.284,0,.514.156.514.347s-.23.347-.514.347m-5.858,0h-2.929c-.284,0-.514-.155-.514-.347s.23-.347.514-.347h2.929c.283,0,.514.156.514.347s-.23.347-.514.347m-5.859,0h-2.929c-.284,0-.514-.155-.514-.347s.23-.347.514-.347h2.929c.284,0,.514.156.514.347s-.23.347-.514.347m-5.858,0h-2.929c-.284,0-.514-.155-.514-.347s.23-.347.514-.347h2.929c.283,0,.514.156.514.347s-.23.347-.514.347m-5.859,0h-2.929c-.284,0-.514-.155-.514-.347s.23-.347.514-.347h2.929c.284,0,.514.156.514.347s-.23.347-.514.347m-5.858,0h-2.929c-.284,0-.514-.155-.514-.347s.23-.347.514-.347h2.929c.284,0,.514.156.514.347s-.23.347-.514.347" transform="translate(-2527.386 -1987.648)"/>
      <path id="Trazado_841910" data-name="Trazado 841910" d="M3353.506,2152h-1.413c-.284,0-.514-.155-.514-.347s.23-.347.514-.347h1.413c.284,0,.513.156.513.347s-.23.347-.513.347" transform="translate(-3096.618 -1987.648)"/>
      <path id="Trazado_841911" data-name="Trazado 841911" d="M2672.938,2142.748l-1.743-1.177,1.743-1.177h-1.479l-1.742,1.177,1.742,1.177Z" transform="translate(-2466.625 -1977.57)"/>
      <path id="Trazado_841912" data-name="Trazado 841912" d="M3350,2142.748l1.743-1.177-1.743-1.177h1.479l1.742,1.177-1.742,1.177Z" transform="translate(-3095.161 -1977.57)"/>
      <path id="Trazado_841913" data-name="Trazado 841913" d="M2741.128,1263.8a.373.373,0,0,1-.373-.373V1262.4a.373.373,0,0,1,.745,0v1.025a.372.372,0,0,1-.372.373" transform="translate(-2532.26 -1166.023)"/>
      <path id="Trazado_841914" data-name="Trazado 841914" d="M2741.128,1311.438a.373.373,0,0,1-.373-.373v-1.939a.373.373,0,1,1,.745,0v1.939a.372.372,0,0,1-.372.373m0-3.879a.373.373,0,0,1-.373-.373v-1.939a.373.373,0,1,1,.745,0v1.939a.372.372,0,0,1-.372.373m0-3.879a.373.373,0,0,1-.373-.373v-1.939a.373.373,0,0,1,.745,0v1.939a.372.372,0,0,1-.372.373" transform="translate(-2532.26 -1202.026)"/>
      <path id="Trazado_841915" data-name="Trazado 841915" d="M2741.128,1455.738a.373.373,0,0,1-.373-.373v-1.025a.373.373,0,1,1,.745,0v1.025a.372.372,0,0,1-.372.373" transform="translate(-2532.26 -1343.362)"/>
      <path id="Trazado_841916" data-name="Trazado 841916" d="M2729.043,1258.065l1.264-1.264,1.264,1.264v-1.073l-1.264-1.264-1.264,1.264Z" transform="translate(-2521.439 -1160.202)"/>
      <path id="Trazado_841917" data-name="Trazado 841917" d="M2729.043,1452.823l1.264,1.264,1.264-1.264v1.073l-1.264,1.264-1.264-1.264Z" transform="translate(-2521.439 -1342.304)"/>
      <path id="Trazado_841918" data-name="Trazado 841918" d="M2116.46,1146.242h-1.025a.373.373,0,1,1,0-.745h1.025a.373.373,0,0,1,0,.745" transform="translate(-1954.165 -1058.357)"/>
      <path id="Trazado_841919" data-name="Trazado 841919" d="M2172.372,1146.242h-1.962a.373.373,0,1,1,0-.745h1.962a.373.373,0,0,1,0,.745m-3.925,0h-1.963a.373.373,0,0,1,0-.745h1.963a.373.373,0,0,1,0,.745m-3.925,0h-1.963a.373.373,0,0,1,0-.745h1.963a.373.373,0,0,1,0,.745m-3.926,0h-1.963a.373.373,0,0,1,0-.745h1.963a.373.373,0,0,1,0,.745m-3.925,0h-1.963a.373.373,0,1,1,0-.745h1.963a.373.373,0,1,1,0,.745" transform="translate(-1990.45 -1058.357)"/>
      <path id="Trazado_841920" data-name="Trazado 841920" d="M2413.732,1146.242h-1.025a.373.373,0,1,1,0-.745h1.025a.373.373,0,0,1,0,.745" transform="translate(-2228.823 -1058.357)"/>
      <path id="Trazado_841921" data-name="Trazado 841921" d="M2111.1,1136.312l-1.264-1.264,1.264-1.264h-1.073l-1.264,1.264,1.264,1.264Z" transform="translate(-1948.344 -1047.535)"/>
      <path id="Trazado_841922" data-name="Trazado 841922" d="M2411.189,1136.312l1.264-1.264-1.264-1.264h1.073l1.264,1.264-1.264,1.264Z" transform="translate(-2227.765 -1047.535)"/>
      <path id="Trazado_841923" data-name="Trazado 841923" d="M3064.449,3034.873h-1.025a.373.373,0,0,1,0-.745h1.025a.373.373,0,1,1,0,.745" transform="translate(-2830.039 -2803.316)"/>
      <path id="Trazado_841924" data-name="Trazado 841924" d="M3120.362,3034.873H3118.4a.373.373,0,1,1,0-.745h1.962a.373.373,0,0,1,0,.745m-3.925,0h-1.963a.373.373,0,1,1,0-.745h1.963a.373.373,0,1,1,0,.745m-3.925,0h-1.963a.373.373,0,0,1,0-.745h1.963a.373.373,0,0,1,0,.745m-3.926,0h-1.962a.373.373,0,1,1,0-.745h1.962a.373.373,0,1,1,0,.745m-3.925,0H3102.7a.373.373,0,1,1,0-.745h1.963a.373.373,0,0,1,0,.745" transform="translate(-2866.325 -2803.316)"/>
      <path id="Trazado_841925" data-name="Trazado 841925" d="M3361.722,3034.873H3360.7a.373.373,0,0,1,0-.745h1.025a.373.373,0,0,1,0,.745" transform="translate(-3104.698 -2803.316)"/>
      <path id="Trazado_841926" data-name="Trazado 841926" d="M3059.088,3024.943l-1.265-1.264,1.265-1.263h-1.073l-1.264,1.263,1.264,1.264Z" transform="translate(-2824.218 -2792.495)"/>
      <path id="Trazado_841927" data-name="Trazado 841927" d="M3359.179,3024.943l1.264-1.264-1.264-1.263h1.073l1.264,1.263-1.264,1.264Z" transform="translate(-3103.64 -2792.495)"/>
      <path id="Trazado_841928" data-name="Trazado 841928" d="M1885.206,2287v27.574l-6.114,6.714h-17.738V2287Z" transform="translate(-1719.757 -2113.027)" fill="#9557ff"/>
      <path id="Trazado_841929" data-name="Trazado 841929" d="M2088.4,2645.36v.194l-6.114,6.714h-.22l-.788-7.036Z" transform="translate(-1922.951 -2444.003)" fill="#af93f9"/>
      <rect id="Rectángulo_381617" data-name="Rectángulo 381617" width="9.131" height="3.168" transform="translate(149.051 172.486)" fill="#ffd54f"/>
      <path id="Trazado_841930" data-name="Trazado 841930" d="M3038.961,1236.131V1263.7l-6.114,6.714h-17.739v-34.287Z" transform="translate(-2785.743 -1142.096)" fill="#d1bcff"/>
      <path id="Trazado_841931" data-name="Trazado 841931" d="M3242.155,1594.487v.194l-6.114,6.714h-.22l-.788-7.036Z" transform="translate(-2988.937 -1473.073)" fill="#895cd8"/>
      <rect id="Rectángulo_381618" data-name="Rectángulo 381618" width="9.131" height="3.168" transform="translate(236.819 92.544)" fill="#ffd54f"/>
      <path id="Trazado_841932" data-name="Trazado 841932" d="M2220.831,2348.193c-7.363-.659-12.365-5.1-15.266-8.712a30.584,30.584,0,0,1-4.565-7.735l.874-.323a30.242,30.242,0,0,0,4.435,7.5c2.785,3.46,7.579,7.717,14.6,8.345Z" transform="translate(-2033.565 -2154.067)"/>
      <path id="Trazado_841933" data-name="Trazado 841933" d="M2436.437,2526.392l1.688-1.464-1.465-1.687,1.338.095,1.464,1.687-1.687,1.464Z" transform="translate(-2251.092 -2331.293)"/>
      <path id="Trazado_841934" data-name="Trazado 841934" d="M2679.754,1561.122l-.05-.93a30.854,30.854,0,0,0,16.245-5.48,23.7,23.7,0,0,0,5.257-4.9l.76.539a24.1,24.1,0,0,1-5.444,5.1,31.778,31.778,0,0,1-16.767,5.674" transform="translate(-2475.853 -1431.909)"/>
      <path id="Trazado_841935" data-name="Trazado 841935" d="M2668.892,1670.553l-1.51,1.647,1.648,1.509-1.34.059-1.647-1.509,1.509-1.647Z" transform="translate(-2463.231 -1543.471)"/>
      <path id="Trazado_841936" data-name="Trazado 841936" d="M436.324,2513.332a26.883,26.883,0,1,0,26.883,26.884,26.884,26.884,0,0,0-26.883-26.884m8.008,37.751a3.546,3.546,0,1,1,3.546-3.546,3.546,3.546,0,0,1-3.546,3.546m-3.775-18.189a3.546,3.546,0,1,1,3.546,3.546,3.547,3.547,0,0,1-3.546-3.546m-12.012,18.189a3.546,3.546,0,1,1,3.546-3.546,3.546,3.546,0,0,1-3.546,3.546m-3.775-18.189a3.546,3.546,0,1,1,3.546,3.546,3.547,3.547,0,0,1-3.546-3.546" transform="translate(-378.294 -2322.138)" fill="#ffd54f"/>
      <path id="Trazado_841937" data-name="Trazado 841937" d="M494.565,2579.5a21.964,21.964,0,1,0,21.964,21.964,21.964,21.964,0,0,0-21.964-21.964m-7.893,10.982a3.546,3.546,0,1,1-3.546,3.546,3.546,3.546,0,0,1,3.546-3.546m.229,21.735a3.546,3.546,0,1,1,3.546-3.546,3.546,3.546,0,0,1-3.546,3.546m15.558-21.735a3.546,3.546,0,1,1-3.546,3.546,3.546,3.546,0,0,1,3.546-3.546m.229,21.735a3.546,3.546,0,1,1,3.546-3.546,3.546,3.546,0,0,1-3.546,3.546" transform="translate(-436.649 -2383.272)" fill="#d4a40c"/>
      <path id="Trazado_841938" data-name="Trazado 841938" d="M1376.764,1622.414s8.232.974,9.6,4.08c0,0-7.038-2.908-10.795-2.146,0,0-.022-.63,1.194-1.933" transform="translate(-1270.927 -1498.994)" fill="#673ab7"/>
      <path id="Trazado_841939" data-name="Trazado 841939" d="M1394.529,1448.382l.066,1.889a49.571,49.571,0,0,1,7.646,2.256,22.351,22.351,0,0,1-.783-4.387s3.171.52,3.061-2.629c0,0-.241-6.928-2.5-9.379Z" transform="translate(-1288.444 -1326.884)" fill="#febca5"/>
      <path id="Trazado_841940" data-name="Trazado 841940" d="M1419.367,1596.286a12.712,12.712,0,0,0,5.061.219l.389,2.484a14.688,14.688,0,0,1-5.45-2.7" transform="translate(-1311.393 -1474.853)" fill="#ce9a8d"/>
      <path id="Trazado_841941" data-name="Trazado 841941" d="M1238.789,1689.888s-6.017,5.419-7.6,10.7a6.948,6.948,0,0,0,.37,4.85,9.634,9.634,0,0,0,2.95,3.917s1.786-15.994,4.277-19.466" transform="translate(-1137.278 -1561.335)" fill="#673ab7"/>
      <path id="Trazado_841942" data-name="Trazado 841942" d="M1266.192,2761.662s-6.254,1.479-7.6-1c0,0,.038-17.027.947-27.148,0,0,5.367,9.272,8.692,14.2,0,0-2.19,9.535-2.037,13.944" transform="translate(-1162.847 -2525.573)" fill="#af93f9"/>
      <path id="Trazado_841943" data-name="Trazado 841943" d="M1274.286,2235.257s1.814,33.989-1.833,37.9l8.692,14.2a40.493,40.493,0,0,0,1.865-6.909l-.6-42.425s-6.1.948-8.123-2.766" transform="translate(-1175.654 -2065.217)" fill="#957fe5"/>
      <path id="Trazado_841944" data-name="Trazado 841944" d="M1330.214,2231.878s1.9,8.239,4.091,16.99c0,0,2.87,9.99,1.178,15.724,0,0,.962,18.569,4.528,30.426,0,0,4.474,1.736,6.906-.871,0,0,.06-16.4.859-29.667,0,0,2.429-19.682.967-35.056,0,0-4.865,4.608-18.529,2.455" transform="translate(-1229.022 -2059.826)" fill="#af93f9"/>
      <path id="Trazado_841945" data-name="Trazado 841945" d="M1295.435,1674.732s8.184-9.428,5.838-13.446c0,0-5.781-12.1-12.189-15.025a27.007,27.007,0,0,0-10.795-2.146s-5.537,3.976-6.768,22.937c0,0-.6,13.323-.545,19.886a3.264,3.264,0,0,0,1.494,2.723c1.856,1.192,5.525,2.8,11.265,2.19,0,0,11.945-1.046,11.769-6.085l-.241-6.928Z" transform="translate(-1174.287 -1519.033)" fill="#895cd8"/>
      <path id="Trazado_841946" data-name="Trazado 841946" d="M1469.511,1865.167s4.406-9.3-.7-11.011c0,0-5.778-2.952-4.3,3.3,0,0,1.763,14.424,9.442,17.634l-.23-6.6s-4.453-1.106-4.214-3.321" transform="translate(-1352.881 -1712.464)" fill="#673ab7"/>
      <path id="Trazado_841947" data-name="Trazado 841947" d="M1531.738,2007.352s-.8,4.127,1.8,6.558c0,0,.63-.022-.044-1.26,0,0,1.216-1.3,2.585,1.8,0,0,2.194-.391.173-4.1,0,0-3.5-.824-4.518-3" transform="translate(-1415.108 -1854.649)" fill="#febca5"/>
      <path id="Trazado_841948" data-name="Trazado 841948" d="M1472.951,3088.723s.244,4.03,1.526,4.616l11.967-.417s-.066-1.889-3.845-1.758a26.228,26.228,0,0,0-4.6-3.053,6.57,6.57,0,0,1-5.047.612" transform="translate(-1360.901 -2853.192)"/>
      <path id="Trazado_841949" data-name="Trazado 841949" d="M1271.6,3102.4s-.166,4.733,1.724,4.667l11.966-.417s-.7-1.867-3.845-1.758a19.28,19.28,0,0,0-3.515-2.35s-4.078.726-6.331-.143" transform="translate(-1174.859 -2866.39)"/>
      <path id="Trazado_841950" data-name="Trazado 841950" d="M1318.765,1415.3s-1.135-.691-.729-3.576a11.769,11.769,0,0,0,.093-2.507c-.152-2.06-.755-5.489-2.979-7.861a3.927,3.927,0,0,0-3.087-1.226c-3.347.189-10.669,1.4-8.886,8.507,0,0-1.038-.888-1.7.142a1.125,1.125,0,0,0-.272.627.876.876,0,0,1-.363.667c-.957.67-3.011,2.444-.945,4.186a2.176,2.176,0,0,1,.513.647.522.522,0,0,0,.494.3.847.847,0,0,1,.766.49c.491,1.027,1.681,2.908,3.666,2.488a3.057,3.057,0,0,0,2.13-1.683,3.415,3.415,0,0,0-.216-3.211s5.527,2.254,6.2-2.441c0,0,.423,3.288,3.1,4.429a8.3,8.3,0,0,1-1.833-4.24,5.7,5.7,0,0,1,.152-1.94,10.816,10.816,0,0,0-.065-4.771s1.624,10.356,3.957,10.977" transform="translate(-1200.193 -1293.618)" fill="#a37b5a"/>
      <rect id="Rectángulo_381619" data-name="Rectángulo 381619" width="309.859" height="9.428" transform="translate(0 240.243)" fill="#12263f"/>
    </g>
  </g>
</svg>
