<svg xmlns="http://www.w3.org/2000/svg" width="85" height="85" viewBox="0 0 85 85">
  <g id="Grupo_1078977" data-name="Grupo 1078977" transform="translate(-600 -8412.927)">
    <path id="Trazado_842346" data-name="Trazado 842346" d="M42.5,0A42.5,42.5,0,1,1,0,42.5,42.5,42.5,0,0,1,42.5,0Z" transform="translate(600 8412.927)" fill="#673ab7"/>
    <g id="Grupo_1078694" data-name="Grupo 1078694" transform="translate(618.152 8432.429)">
      <g id="Grupo_1078693" data-name="Grupo 1078693" transform="translate(0 0)">
        <path id="Trazado_841437" data-name="Trazado 841437" d="M34.092,85.886a1.075,1.075,0,0,0-1.478,0l-19.883,19.9A1.046,1.046,0,0,0,13,107.462l1.632.817v2.749l-5,1.431-5.048-5.052,1.43-5.005H8.762l.817,1.634a1.047,1.047,0,0,0,.768.565,1.048,1.048,0,0,0,.907-.293l19.883-19.9a1.046,1.046,0,0,0,0-1.479L27.291,79.08a1.044,1.044,0,0,0-.739-.307h0a1.046,1.046,0,0,0-.74.31L4.484,100.618c-.01.01-.01.026-.02.037a1.023,1.023,0,0,0-.244.412l-1.815,6.356L.04,115.715a1.047,1.047,0,0,0,1.006,1.333,1.062,1.062,0,0,0,.287-.04l8.284-2.368,6.351-1.817c.019-.005.032-.02.051-.026a1.932,1.932,0,0,0,.354-.208c.014-.012.031-.016.044-.029L37.934,91.217a1.046,1.046,0,0,0,0-1.482Z" transform="translate(0 -71.053)" fill="#d1bcff"/>
        <path id="Trazado_841438" data-name="Trazado 841438" d="M306.625,7.466l-6.272-6.277a4.275,4.275,0,0,0-5.916,0l-3.829,3.867a1.047,1.047,0,0,0,0,1.476l10.672,10.681a1.044,1.044,0,0,0,1.475,0l3.867-3.835a4.186,4.186,0,0,0,0-5.918Z" transform="translate(-261.854 -0.002)" fill="#d1bcff"/>
      </g>
    </g>
  </g>
</svg>
