<svg xmlns="http://www.w3.org/2000/svg" width="52.379" height="72.333" viewBox="0 0 52.379 72.333">
  <g id="ropa-masculina" transform="translate(-11 -3)">
    <path id="Trazado_842289" data-name="Trazado 842289" d="M0,0H49.885V39.908H0Z" transform="translate(62.132 74.086) rotate(180)" fill="#70bad2"/>
    <path id="Trazado_842290" data-name="Trazado 842290" d="M27.977,46H35.46V63.46H18V55.977A9.977,9.977,0,0,0,27.977,46Z" transform="translate(1.73 10.627)" fill="#db353a"/>
    <path id="Trazado_842291" data-name="Trazado 842291" d="M39.483,46H32V63.46H49.46V55.977A9.977,9.977,0,0,1,39.483,46Z" transform="translate(5.19 10.627)" fill="#db353a"/>
    <path id="Trazado_842292" data-name="Trazado 842292" d="M0,0H49.885V4.989H0Z" transform="translate(62.132 34.178) rotate(180)" fill="#7bc1d7"/>
    <path id="Trazado_842293" data-name="Trazado 842293" d="M52,24h-.006Z" transform="translate(10.131 5.19)" fill="#70bad2"/>
    <path id="Trazado_842294" data-name="Trazado 842294" d="M16.507,20H57.376c.8,2.947,2.513,4.989,4.5,4.989H12.005c1.989,0,3.7-2.042,4.5-4.989Z" transform="translate(0.248 4.201)" fill="#70bad2"/>
    <path id="Trazado_842295" data-name="Trazado 842295" d="M56.114,16A7.479,7.479,0,0,0,56,17.247a14.313,14.313,0,0,0,.486,3.741H15.615a14.313,14.313,0,0,0,.486-3.741A7.479,7.479,0,0,0,15.984,16Z" transform="translate(1.14 3.213)" fill="#7bc1d7"/>
    <path id="Trazado_842296" data-name="Trazado 842296" d="M59.223,12a9.514,9.514,0,0,0-2.656,4.989H16.438A9.514,9.514,0,0,0,13.781,12Z" transform="translate(0.687 2.224)" fill="#70bad2"/>
    <path id="Trazado_842297" data-name="Trazado 842297" d="M21.692,8H51.624l8.541,4.27c-.268.223-.532.46-.786.718H13.937a10.563,10.563,0,0,0-.786-.718Z" transform="translate(0.532 1.236)" fill="#7bc1d7"/>
    <path id="Trazado_842298" data-name="Trazado 842298" d="M24.989,4H44.943l4.989,4.989L34.966,28.943,20,8.989Z" transform="translate(2.224 0.247)" fill="#9ed5e4"/>
    <path id="Trazado_842299" data-name="Trazado 842299" d="M20,9.007l4.989-4.989,9.977,24.943Z" transform="translate(2.224 0.252)" fill="#db353a"/>
    <path id="Trazado_842300" data-name="Trazado 842300" d="M46.966,9.007,41.977,4.018,32,28.961Z" transform="translate(5.19 0.252)" fill="#db353a"/>
    <path id="Trazado_842301" data-name="Trazado 842301" d="M62.132,27.943h-.007c-1.311,0-2.637-1.635-3.3-4.069a13.027,13.027,0,0,1-.443-3.414,6.188,6.188,0,0,1,.1-1.04A8.265,8.265,0,0,1,60.8,15.1a9.314,9.314,0,0,1,.692-.633,1.247,1.247,0,0,0-.24-2.074l-8.36-4.18L48.048,3.365A1.247,1.247,0,0,0,47.167,3H27.213a1.247,1.247,0,0,0-.882.365L21.485,8.211l-8.36,4.18a1.247,1.247,0,0,0-.24,2.074,9.3,9.3,0,0,1,.693.634A8.26,8.26,0,0,1,15.9,19.42a6.188,6.188,0,0,1,.1,1.04,13.035,13.035,0,0,1-.443,3.414c-.661,2.433-1.988,4.068-3.305,4.068A1.247,1.247,0,0,0,11,29.19v44.9a1.247,1.247,0,0,0,1.247,1.247H62.132a1.247,1.247,0,0,0,1.247-1.247V29.19A1.247,1.247,0,0,0,62.132,27.943Zm-5.419-2.494a10.249,10.249,0,0,0,1.258,2.494H39.7l1.871-2.494ZM43.442,22.954l1.871-2.494H55.89a15.846,15.846,0,0,0,.216,2.494Zm12.84-4.989h-9.1l1.871-2.494h8.34a10.423,10.423,0,0,0-1.111,2.494Zm-3.741-7.143,4.308,2.154H50.925Zm-4.912-4.35,2.889,2.889L41.849,20.921Zm-20.879,0,5.78,14.448L23.861,9.363Zm-9.1,18.975H32.808l1.871,2.494H16.408a10.329,10.329,0,0,0,1.244-2.494Zm.621-2.494a15.848,15.848,0,0,0,.217-2.494H29.067l1.871,2.494Zm3.566-12.131,1.616,2.154H17.531Zm3.486,4.649L27.2,17.966H18.1a10.423,10.423,0,0,0-1.111-2.494ZM35.943,72.839H20.977V67.782a11.247,11.247,0,0,0,9.908-9.908h5.057Zm0-17.46H29.707a1.247,1.247,0,0,0-1.247,1.247,8.74,8.74,0,0,1-8.73,8.73A1.247,1.247,0,0,0,18.483,66.6v6.236H13.494V35.425H35.943Zm0-22.448H13.494V30.437H35.943Zm-6.9-27.437H45.333L37.19,25.853ZM53.4,72.839H38.437V57.874h5.057A11.247,11.247,0,0,0,53.4,67.782Zm7.483,0H55.9V66.6a1.247,1.247,0,0,0-1.247-1.247,8.74,8.74,0,0,1-8.73-8.73,1.247,1.247,0,0,0-1.247-1.247H38.437V35.425H60.885Zm0-39.908H38.437V30.437H60.885Z" transform="translate(0)"/>
  </g>
</svg>
