<svg xmlns="http://www.w3.org/2000/svg" width="62.104" height="67.715" viewBox="0 0 62.104 67.715">
  <g id="Grupo_1078977" data-name="Grupo 1078977" transform="translate(-331.896 -4864.355)">
    <g id="falda-femenina" transform="translate(310.682 4864.355)">
      <path id="Trazado_842242" data-name="Trazado 842242" d="M80.017,92.354H37.264s-8.55,25.919-8.55,54.509H71.466l4.275-7.214,4.27,7.214h8.822c0-28.591-8.818-54.509-8.818-54.509Z" transform="translate(-6.508 -80.14)" fill="#cbafea"/>
      <path id="Trazado_842243" data-name="Trazado 842243" d="M275.988,92.354h-2.939s5.077,15.231,3.073,29.657c-1.4,10.092-9.753,23.072-21.567,24.852h12.883l4.275-7.214,4.27,7.214h8.822C284.806,118.273,275.988,92.354,275.988,92.354Z" transform="translate(-202.479 -80.14)" fill="#bc95e2"/>
      <path id="Trazado_842244" data-name="Trazado 842244" d="M93.364,23.663h42.752v9.085H93.364Z" transform="translate(-62.608 -20.533)" fill="#bed8fb"/>
      <path id="Trazado_842245" data-name="Trazado 842245" d="M394.393,23.663h2.939v9.085h-2.939Z" transform="translate(-323.824 -20.533)" fill="#9dc6fb"/>
      <path id="Trazado_842246" data-name="Trazado 842246" d="M194.615,16.05V12.309a.534.534,0,0,1,.534-.534H205.3a2.138,2.138,0,0,0,0-4.275H192.745a2.4,2.4,0,0,0-2.4,2.4v8.55a2.4,2.4,0,0,0,2.4,2.4H205.3a2.138,2.138,0,0,0,0-4.275H195.15a.534.534,0,0,1-.534-.534Z" transform="translate(-146.758 -6.507)" fill="#ffe07d"/>
      <g id="Grupo_1078945" data-name="Grupo 1078945" transform="translate(21.214 0)">
        <circle id="Elipse_5922" data-name="Elipse 5922" cx="1.069" cy="1.069" r="1.069" transform="translate(42.675 50.959)"/>
        <circle id="Elipse_5923" data-name="Elipse 5923" cx="1.069" cy="1.069" r="1.069" transform="translate(42.675 46.683)"/>
        <circle id="Elipse_5924" data-name="Elipse 5924" cx="1.069" cy="1.069" r="1.069" transform="translate(42.675 55.234)"/>
        <path id="Trazado_842247" data-name="Trazado 842247" d="M78.886,28.535c-2-9.135-4.034-15.419-4.385-16.48V3.129a.992.992,0,0,0-.992-.992H69.665a.992.992,0,1,0,0,1.984h2.852v7.1h-11a3.135,3.135,0,0,0-2.967-2.137h-9.7V6.259h9.7a3.134,3.134,0,0,0,2.968-2.138h3.513a.992.992,0,0,0,0-1.984H61.513A3.135,3.135,0,0,0,58.545,0H45.987a3.4,3.4,0,0,0-3.154,2.137H30.756a.992.992,0,0,0-.992.992v8.93c-.337,1.049-2.309,7.337-4.253,16.482a189.269,189.269,0,0,0-4.3,38.182.992.992,0,0,0,.992.992H51.164a.992.992,0,0,0,0-1.984H23.2a188.449,188.449,0,0,1,4.244-36.748c1.712-8.059,3.443-13.866,4.038-15.778h2.409a.992.992,0,1,0,0-1.984H31.748v-7.1H42.59v7.1H38.528a.992.992,0,1,0,0,1.984h4.3a3.4,3.4,0,0,0,3.154,2.138H58.545a3.134,3.134,0,0,0,2.968-2.138H72.789c.61,1.9,2.4,7.714,4.166,15.785a182.959,182.959,0,0,1,4.376,36.741H74.069l-3.844-6.494V46.684a.992.992,0,1,0-1.984,0V59.237l-3.849,6.494H55.8a.992.992,0,0,0,0,1.984h9.159a.992.992,0,0,0,.853-.486l3.421-5.774,3.417,5.773a.992.992,0,0,0,.854.487h8.822a.992.992,0,0,0,.992-.992,183.828,183.828,0,0,0-4.432-38.188ZM58.545,13.36H45.987a1.414,1.414,0,0,1-1.413-1.413V3.4a1.414,1.414,0,0,1,1.413-1.413H58.545a1.147,1.147,0,0,1,1.146,1.144h0a1.147,1.147,0,0,1-1.146,1.145H48.392A1.528,1.528,0,0,0,46.865,5.8V9.542a1.528,1.528,0,0,0,1.526,1.526H58.545a1.147,1.147,0,0,1,1.146,1.144h0a1.148,1.148,0,0,1-1.146,1.145Z" transform="translate(-21.214 0)"/>
      </g>
    </g>
  </g>
</svg>
