<svg xmlns="http://www.w3.org/2000/svg" width="48.333" height="80.564" viewBox="0 0 48.333 80.564">
  <g id="vaqueros" transform="translate(-102.418)">
    <path id="Trazado_842250" data-name="Trazado 842250" d="M152.569,8.532H114.977L110.949,85.06,124.375,86.4l9.4-57.731,9.4,57.731L156.6,85.06Z" transform="translate(-7.189 -7.189)" fill="#4398d1"/>
    <path id="Trazado_842251" data-name="Trazado 842251" d="M170.178,21.958h-.389a10.9,10.9,0,0,1-5.37-6.713h5.37l-.134-2.685H152.013V8.532h-2.685V12.56h-2.685V8.532h-2.685V12.56h-12.3l-.134,2.685h5.37a10.9,10.9,0,0,1-5.37,6.713h-.389L131,24.643h.873a1.348,1.348,0,0,0,.6-.148,13.493,13.493,0,0,0,7.2-9.25h4.283v4.739a10.968,10.968,0,0,0,6.109,9.881,1.348,1.348,0,0,0,.6.148,1.337,1.337,0,0,0,1.343-1.343V15.245h9.653a13.493,13.493,0,0,0,7.2,9.25,1.348,1.348,0,0,0,.6.148h.846Zm-20.851,4.175a8.322,8.322,0,0,1-2.685-6.149V15.245h2.685Z" transform="translate(-24.086 -7.189)" fill="#126099"/>
    <g id="Grupo_1078947" data-name="Grupo 1078947" transform="translate(103.76 26.65)">
      <path id="Trazado_842252" data-name="Trazado 842252" d="M110.949,359.426l13.426,1.343,4.337-26.637a79.822,79.822,0,0,1-16.89,8.807Z" transform="translate(-110.949 -308.207)" fill="#3e8cc7"/>
      <path id="Trazado_842253" data-name="Trazado 842253" d="M280.831,188.18l5.491,33.753,13.426-1.343-2.685-51.22A108.6,108.6,0,0,1,280.831,188.18Z" transform="translate(-254.1 -169.37)" fill="#3e8cc7"/>
    </g>
    <path id="Trazado_842254" data-name="Trazado 842254" d="M117.052,80.556a1.341,1.341,0,0,0,1.477-1.128l8.056-49.6,8.056,49.6a1.343,1.343,0,0,0,1.343,1.128h.134l13.426-1.343a1.343,1.343,0,0,0,1.208-1.343L146.723,1.343A1.343,1.343,0,0,0,145.381,0H107.788a1.343,1.343,0,0,0-1.343,1.343L102.418,77.87a1.343,1.343,0,0,0,1.208,1.343Zm5.5-72.5h2.685V18.944a8.322,8.322,0,0,1-2.685-6.149Zm0-2.685V2.685h2.685V5.37ZM137.11,77.75l-9.183-56.375V8.056h9.653a13.493,13.493,0,0,0,7.2,9.25h.107l3.182,59.356Zm7.6-63.585a10.857,10.857,0,0,1-4.363-6.109h4.028Zm-.456-8.794H127.927V2.685h16.111ZM119.871,2.685V5.37H108.916l.215-2.685Zm-7.049,5.37a10.857,10.857,0,0,1-4.363,6.109l.322-6.109h4.041Zm-4.538,9.277h.107a13.491,13.491,0,0,0,7.2-9.277h4.283v4.739a10.983,10.983,0,0,0,5.236,9.4l-9.049,55.583L105.17,76.689Z"/>
  </g>
</svg>
