<svg id="medicion" xmlns="http://www.w3.org/2000/svg" width="65.333" height="65.333" viewBox="0 0 65.333 65.333">
  <path id="Trazado_842219" data-name="Trazado 842219" d="M11,47H60a3.267,3.267,0,0,1,3.267,3.267V56.8A3.267,3.267,0,0,1,60,60.067H13.178Z" transform="translate(0.978 4.178)" fill="#e3cd6a"/>
  <path id="Trazado_842220" data-name="Trazado 842220" d="M44.8,22.233a4.341,4.341,0,0,0,.915,4.824A7.725,7.725,0,0,1,47.966,32.5v8.668a2.189,2.189,0,0,1-1.285,1.993,27.985,27.985,0,0,1-9.615,1.394,27.985,27.985,0,0,1-9.615-1.394,2.189,2.189,0,0,1-1.285-1.993V32.5a7.725,7.725,0,0,1,2.254-5.444,4.336,4.336,0,0,0,1.285-3.082,4.285,4.285,0,0,0-.37-1.742l-.751-1.71L27.3,17.595l-3.038-6.925a3.124,3.124,0,0,1,1.873-4.214l5.836-1.938a1.089,1.089,0,0,0,.74-1.034v-.3A2.186,2.186,0,0,1,34.9,1h4.334a2.186,2.186,0,0,1,2.189,2.178v.3a1.089,1.089,0,0,0,.74,1.034L48,6.455a3.124,3.124,0,0,1,1.873,4.214l-3.038,6.925-1.285,2.929Z" transform="translate(2.133 0.089)" fill="#6faaff"/>
  <path id="Trazado_842221" data-name="Trazado 842221" d="M4.267,1H10.8a3.267,3.267,0,0,1,3.267,3.267V64.156h-9.8A3.267,3.267,0,0,1,1,60.889V4.267A3.267,3.267,0,0,1,4.267,1Z" transform="translate(0.089 0.089)" fill="#fde67e"/>
  <path id="Trazado_842222" data-name="Trazado 842222" d="M50.956,11.189a4.206,4.206,0,0,0-2.527-5.68L42.6,3.569v-.3A3.267,3.267,0,0,0,39.333,0H34.984a3.267,3.267,0,0,0-3.267,3.267v.3L25.882,5.51a4.206,4.206,0,0,0-2.527,5.68l5.073,11.568a3.241,3.241,0,0,1-.684,3.619,8.711,8.711,0,0,0-2.58,6.213v8.668a3.29,3.29,0,0,0,1.93,2.981,28.475,28.475,0,0,0,10.061,1.494,28.475,28.475,0,0,0,10.061-1.494,3.29,3.29,0,0,0,1.93-2.981V32.589a8.711,8.711,0,0,0-2.58-6.213,3.241,3.241,0,0,1-.684-3.619Zm-7.333,7.322a3.319,3.319,0,0,1-3.236-2.452,1.089,1.089,0,1,0-2.108.545,5.439,5.439,0,0,0,6.164,4.007l-.555,1.269a5.4,5.4,0,0,0,1.14,6.035,6.555,6.555,0,0,1,1.94,4.671v8.673a1.089,1.089,0,0,1-.653,1,26.936,26.936,0,0,1-9.16,1.3,26.936,26.936,0,0,1-9.16-1.3,1.089,1.089,0,0,1-.653-1V32.589a6.555,6.555,0,0,1,1.94-4.671,5.4,5.4,0,0,0,1.14-6.031l-.555-1.269a5.439,5.439,0,0,0,6.164-4.007,1.089,1.089,0,1,0-2.108-.545A3.345,3.345,0,0,1,28.631,17.8L25.35,10.316a2.03,2.03,0,0,1,1.22-2.74L32.4,5.637a2.178,2.178,0,0,0,1.489-2.068v-.3a1.089,1.089,0,0,1,1.089-1.089H39.32a1.089,1.089,0,0,1,1.089,1.089v.3A2.178,2.178,0,0,0,41.9,5.638l5.832,1.939a2.03,2.03,0,0,1,1.22,2.74L45.672,17.8A3.287,3.287,0,0,1,43.623,18.511Z" transform="translate(2.045)" fill="#373737"/>
  <path id="Trazado_842223" data-name="Trazado 842223" d="M60.978,50.089H18.511a1.089,1.089,0,0,0,0,2.178h6.533v4.356a1.089,1.089,0,0,0,2.178,0V52.267h4.356V58.8a1.089,1.089,0,1,0,2.178,0V52.267h4.356v4.356a1.089,1.089,0,0,0,2.178,0V52.267h4.356v4.356a1.089,1.089,0,0,0,2.178,0V52.267h4.356v4.356a1.089,1.089,0,0,0,2.178,0V52.267h4.356V58.8a1.089,1.089,0,0,0,2.178,0V52.267h1.089a2.178,2.178,0,0,1,2.178,2.178v6.533a2.178,2.178,0,0,1-2.178,2.178H15.244V4.356A4.356,4.356,0,0,0,10.889,0H4.356A4.356,4.356,0,0,0,0,4.356V60.978a4.356,4.356,0,0,0,4.356,4.356H60.978a4.356,4.356,0,0,0,4.356-4.356V54.444A4.356,4.356,0,0,0,60.978,50.089ZM13.067,5.444H6.533a1.089,1.089,0,0,0,0,2.178h6.533v4.356H8.711a1.089,1.089,0,0,0,0,2.178h4.356v4.356H8.711a1.089,1.089,0,1,0,0,2.178h4.356v4.356H8.711a1.089,1.089,0,0,0,0,2.178h4.356v4.356H6.533a1.089,1.089,0,1,0,0,2.178h6.533v4.356H8.711a1.089,1.089,0,1,0,0,2.178h4.356v4.356H8.711a1.089,1.089,0,0,0,0,2.178h4.356v4.356H8.711a1.089,1.089,0,0,0,0,2.178h4.356v4.356H6.533a1.089,1.089,0,0,0,0,2.178h6.533v3.267H4.356a2.178,2.178,0,0,1-2.178-2.178V4.356A2.178,2.178,0,0,1,4.356,2.178h6.533a2.178,2.178,0,0,1,2.178,2.178Z" fill="#373737"/>
</svg>
