<svg id="_03-designer" xmlns="http://www.w3.org/2000/svg" width="75.667" height="75.666" viewBox="0 0 75.667 75.666">
  <path id="Trazado_842255" data-name="Trazado 842255" d="M61.806,27.492,47.275,42.011,46.282,43v-3.44H42.83L58.353,24.04Z" transform="translate(7.807 4.382)" fill="#ff475a"/>
  <path id="Trazado_842256" data-name="Trazado 842256" d="M58.884,24.57,43.36,40.094V36.642H39.92l2.566-2.554,1.478-1.478V32.6L55.443,21.13Z" transform="translate(7.277 3.852)" fill="#ff9696"/>
  <path id="Trazado_842257" data-name="Trazado 842257" d="M33.456,6.911a3.473,3.473,0,0,1-3.4,3.547c-.048,0-.1,0-.148,0-3.393,0-5.7-3.239-5.9-8.678L27.545,1A5.912,5.912,0,0,0,33.456,6.911Z" transform="translate(4.377 0.182)" fill="#f2f6fc"/>
  <path id="Trazado_842258" data-name="Trazado 842258" d="M37.912,1l3.535.78c-.2,5.439-2.506,8.678-5.9,8.678A3.473,3.473,0,0,1,32,7.059c0-.048,0-.1,0-.148A5.912,5.912,0,0,0,37.912,1Z" transform="translate(5.833 0.182)" fill="#f2f6fc"/>
  <path id="Trazado_842259" data-name="Trazado 842259" d="M74.3,45.365v9.458a2.372,2.372,0,0,1-2.365,2.365H3.365A2.372,2.372,0,0,1,1,54.823V45.365A2.372,2.372,0,0,1,3.365,43H71.937A2.372,2.372,0,0,1,74.3,45.365Z" transform="translate(0.182 7.838)" fill="#ffe45c"/>
  <path id="Trazado_842260" data-name="Trazado 842260" d="M71.937,52.365H3.365A2.372,2.372,0,0,1,1,50v3.547a2.372,2.372,0,0,0,2.365,2.365H71.937A2.372,2.372,0,0,0,74.3,53.547V50A2.372,2.372,0,0,1,71.937,52.365Z" transform="translate(0.182 9.114)" fill="#ffa426"/>
  <path id="Trazado_842261" data-name="Trazado 842261" d="M62.986,18.431a4.873,4.873,0,0,1,0,6.892h0l-.863.863L55.23,19.294l.863-.863a4.866,4.866,0,0,1,6.882-.011Z" transform="translate(10.067 3.099)" fill="#f2f6fc"/>
  <path id="Trazado_842262" data-name="Trazado 842262" d="M62.52,25.833l-2.577,2.589L56.49,24.97l-3.44-3.44,2.577-2.589Z" transform="translate(9.67 3.452)" fill="#9196aa"/>
  <path id="Trazado_842263" data-name="Trazado 842263" d="M50.946,15.351a83.881,83.881,0,0,0-2.223,15.216A2.364,2.364,0,0,1,46.371,32.8H24.924a2.364,2.364,0,0,1-2.353-2.235,83.881,83.881,0,0,0-2.223-15.216c-1.4,4.516-3.618,5.628-3.618,5.628L12,16.249A14.486,14.486,0,0,1,19.1,3.244L26.2,1.66c.2,5.439,2.506,8.678,5.9,8.678a3.473,3.473,0,0,0,3.547-3.4c0-.048,0-.1,0-.148a3.473,3.473,0,0,0,3.4,3.547c.048,0,.1,0,.148,0,3.393,0,5.7-3.239,5.9-8.678L52.2,3.244a14.486,14.486,0,0,1,7.094,13.005l-4.729,4.729S52.341,19.867,50.946,15.351Z" transform="translate(2.186 0.303)" fill="#b5efff"/>
  <path id="Trazado_842264" data-name="Trazado 842264" d="M24.84,29.229C24.567,24.1,22.423,13.994,21.218,9,20.743,10.756,20.2,13.172,19,14.536c.6,3.466,2.081,11.181,2.294,14.692a2.364,2.364,0,0,0,2.353,2.235h3.547a2.364,2.364,0,0,1-2.353-2.235Z" transform="translate(3.463 1.641)" fill="#19cffc"/>
  <path id="Trazado_842265" data-name="Trazado 842265" d="M15.548,16.249A14.486,14.486,0,0,1,22.642,3.244l3.607-.8c-.02-.257-.039-.513-.048-.78L19.1,3.244A14.486,14.486,0,0,0,12,16.249l4.729,4.729a5.744,5.744,0,0,0,1.785-1.762Z" transform="translate(2.186 0.303)" fill="#19cffc"/>
  <path id="Trazado_842266" data-name="Trazado 842266" d="M55.2,64.458H15c0-3.417.083-6.562.248-9.458h39.7C55.115,57.9,55.2,61.041,55.2,64.458Z" transform="translate(2.734 10.026)" fill="#b5efff"/>
  <path id="Trazado_842267" data-name="Trazado 842267" d="M49.319,43.685H37l5.178-1.726,5.167-1.726.993-.993c.355,1.348.674,2.826.981,4.445Z" transform="translate(6.744 7.153)" fill="#b5efff"/>
  <path id="Trazado_842268" data-name="Trazado 842268" d="M47.079,37.7v3.44l-5.167,1.726L38.46,39.417l1.726-5.167h3.44V37.7Z" transform="translate(7.011 6.243)" fill="#f2d1a5"/>
  <path id="Trazado_842269" data-name="Trazado 842269" d="M47.591,31.346v.012l-1.478,1.478-.106-.106H20.02C21.923,29.017,23.543,28,23.543,28H44.824A10.433,10.433,0,0,1,47.591,31.346Z" transform="translate(3.649 5.104)" fill="#1ea1e3"/>
  <path id="Trazado_842270" data-name="Trazado 842270" d="M42,32l.106.106L42.213,32Z" transform="translate(7.656 5.833)" fill="#368dcf"/>
  <path id="Trazado_842271" data-name="Trazado 842271" d="M27.09,28H23.543s-1.62,1.017-3.523,4.729h3.547C25.47,29.017,27.09,28,27.09,28Z" transform="translate(3.649 5.104)" fill="#368dcf"/>
  <path id="Trazado_842272" data-name="Trazado 842272" d="M46.74,32.106,44.174,34.66l-1.726,5.167-1.726,5.178H16.58A47.832,47.832,0,0,1,20.647,32H46.634Z" transform="translate(3.022 5.833)" fill="#b5efff"/>
  <path id="Trazado_842273" data-name="Trazado 842273" d="M15.248,55C15.083,57.9,15,61.041,15,64.458h3.547c0-3.417.083-6.562.248-9.458Z" transform="translate(2.734 10.026)" fill="#19cffc"/>
  <path id="Trazado_842274" data-name="Trazado 842274" d="M20.647,32A47.832,47.832,0,0,0,16.58,45.005h3.547A47.832,47.832,0,0,1,24.194,32Z" transform="translate(3.022 5.833)" fill="#19cffc"/>
  <path id="Trazado_842275" data-name="Trazado 842275" d="M42.178,42.072,37,43.8l1.726-5.178Z" transform="translate(6.744 7.04)" fill="#7e8596"/>
  <path id="Trazado_842276" data-name="Trazado 842276" d="M27,1H38.823A5.911,5.911,0,0,1,27,1Z" transform="translate(4.922 0.182)" fill="#1ea1e3"/>
  <g id="Grupo_1078949" data-name="Grupo 1078949" transform="translate(7.094 50.838)">
    <path id="Trazado_842277" data-name="Trazado 842277" d="M31,43h2.365v7.094H31Z" transform="translate(-1.443 -43)" fill="#faa68e"/>
    <path id="Trazado_842278" data-name="Trazado 842278" d="M36,43h2.365v4.729H36Z" transform="translate(-0.532 -43)" fill="#faa68e"/>
    <path id="Trazado_842279" data-name="Trazado 842279" d="M41,43h2.365v7.094H41Z" transform="translate(0.38 -43)" fill="#faa68e"/>
    <path id="Trazado_842280" data-name="Trazado 842280" d="M46,43h2.365v4.729H46Z" transform="translate(1.291 -43)" fill="#faa68e"/>
    <path id="Trazado_842281" data-name="Trazado 842281" d="M51,43h2.365v7.094H51Z" transform="translate(2.203 -43)" fill="#faa68e"/>
    <path id="Trazado_842282" data-name="Trazado 842282" d="M56,43h2.365v4.729H56Z" transform="translate(3.114 -43)" fill="#faa68e"/>
    <path id="Trazado_842283" data-name="Trazado 842283" d="M26,43h2.365v4.729H26Z" transform="translate(-2.354 -43)" fill="#faa68e"/>
    <path id="Trazado_842284" data-name="Trazado 842284" d="M21,43h2.365v7.094H21Z" transform="translate(-3.266 -43)" fill="#faa68e"/>
    <path id="Trazado_842285" data-name="Trazado 842285" d="M16,43h2.365v4.729H16Z" transform="translate(-4.177 -43)" fill="#faa68e"/>
    <path id="Trazado_842286" data-name="Trazado 842286" d="M11,43h2.365v7.094H11Z" transform="translate(-5.089 -43)" fill="#faa68e"/>
    <path id="Trazado_842287" data-name="Trazado 842287" d="M6,43H8.365v4.729H6Z" transform="translate(-6 -43)" fill="#faa68e"/>
  </g>
  <path id="Trazado_842288" data-name="Trazado 842288" d="M72.119,49.656H57.036c-.213-1.064-.426-2.025-.642-2.9l17.5-17.5a6.06,6.06,0,0,0-8.57-8.57l-13.892,13.9c-.277-.389-.539-.731-.779-1.014a3.57,3.57,0,0,0,1.44-2.636,92.925,92.925,0,0,1,1.426-11.5,7.633,7.633,0,0,0,2.707,2.906,1.2,1.2,0,0,0,.526.124,1.179,1.179,0,0,0,.836-.346l4.729-4.729a1.179,1.179,0,0,0,.346-.836A15.561,15.561,0,0,0,54.913,2.489a1.218,1.218,0,0,0-.272-.1L44,.028a1.163,1.163,0,0,0-.257,0V0H31.922V.03a1.163,1.163,0,0,0-.257,0L21.025,2.394a1.218,1.218,0,0,0-.272.1,15.563,15.563,0,0,0-7.747,14.062,1.179,1.179,0,0,0,.346.836l4.729,4.729a1.183,1.183,0,0,0,1.364.222,7.633,7.633,0,0,0,2.707-2.906,92.924,92.924,0,0,1,1.426,11.5,3.573,3.573,0,0,0,1.447,2.64c-1.72,2.051-4.5,6.635-6.395,16.079H3.547A3.547,3.547,0,0,0,0,53.2v9.458a3.547,3.547,0,0,0,3.547,3.547H16.741c-.118,2.568-.189,5.336-.189,8.276a1.183,1.183,0,0,0,1.182,1.182h40.2a1.183,1.183,0,0,0,1.182-1.182c0-2.94-.066-5.708-.189-8.276H72.119a3.547,3.547,0,0,0,3.547-3.547V53.2A3.547,3.547,0,0,0,72.119,49.656Zm-21.088,0,3.354-1.117c.079.357.157.729.236,1.117Zm11.68-23.008,1.773,1.773L51.823,41.087V40.5a1.183,1.183,0,0,0-1.182-1.182H50.05ZM54.089,42.76H53.5L66.161,30.1l1.773,1.773L55.272,44.535v-.591a1.183,1.183,0,0,0-1.18-1.185ZM64.382,24.976l.914-.915,5.226,5.226-.915.914Zm-16.338,16.7h1.419v2.266a1.183,1.183,0,0,0,1.182,1.182h2.262v1.419l-3.665,1.224-2.424-2.42Zm-2.054,6.179.744.744-1.115.371ZM72.226,22.363a3.7,3.7,0,0,1,0,5.225l-.026.027-5.226-5.226L67,22.363a3.7,3.7,0,0,1,5.219,0ZM49.363,36.651H25.717a11.2,11.2,0,0,1,1.892-2.365H48.062a10.343,10.343,0,0,1,1.669,2ZM44.779,2.623l1.253.278c-.368,4.087-2.078,6.557-4.652,6.557a2.094,2.094,0,0,1-2.159-1.33A7.107,7.107,0,0,0,44.779,2.623ZM37.833,5.911a4.73,4.73,0,0,1-4.561-3.547h9.122A4.73,4.73,0,0,1,37.833,5.911ZM36.445,8.128a2.091,2.091,0,0,1-2.159,1.33c-2.574,0-4.285-2.47-4.652-6.557l1.253-.278A7.105,7.105,0,0,0,36.445,8.128Zm-12.691,7.51a30.352,30.352,0,0,0,1.074-8.544H22.463c0,8.122-2.311,11.458-3.452,12.609l-3.636-3.634a13.231,13.231,0,0,1,6.319-11.4l5.616-1.25c.578,5.175,3.192,8.406,6.975,8.406a4.456,4.456,0,0,0,3.547-1.531,4.456,4.456,0,0,0,3.547,1.531c3.783,0,6.4-3.231,6.975-8.406l5.616,1.248a13.358,13.358,0,0,1,6.322,11.4L56.661,19.7C55.506,18.538,53.2,15.2,53.2,7.094H50.838a30.352,30.352,0,0,0,1.074,8.544,86.773,86.773,0,0,0-2.184,15.151,1.2,1.2,0,0,1-1.182,1.133H27.116a1.2,1.2,0,0,1-1.182-1.133,86.766,86.766,0,0,0-2.179-15.151Zm.666,23.377H47l-.642.642.011.009a1.159,1.159,0,0,0-.3.453l-3.183,9.536H21.052A46.477,46.477,0,0,1,24.42,39.015ZM56.75,73.3H18.917c.014-2.509.079-4.879.187-7.094H56.559C56.667,68.422,56.732,70.793,56.75,73.3ZM73.3,62.661a1.183,1.183,0,0,1-1.182,1.182H3.547a1.183,1.183,0,0,1-1.182-1.182V61.479H70.937V59.114H2.365V53.2A1.183,1.183,0,0,1,3.547,52.02H7.094v3.547H9.458V52.02h3.547v5.911H15.37V52.02h3.547v3.547h2.365V52.02h3.547v5.911h2.365V52.02h3.547v3.547H33.1V52.02h3.547v5.911h2.365V52.02h3.547v3.547h2.365V52.02h3.547v5.911h2.365V52.02h3.547v3.547H56.75V52.02H60.3v5.911h2.365V52.02h3.547v3.547h2.365V52.02h3.547A1.183,1.183,0,0,1,73.3,53.2Z" transform="translate(0 0)"/>
</svg>
