<svg xmlns="http://www.w3.org/2000/svg" width="68" height="85.808" viewBox="0 0 68 85.808">
  <g id="stiching" transform="translate(-57.093 -5)">
    <path id="Trazado_842322" data-name="Trazado 842322" d="M410.881,467.86h-7.634a.093.093,0,0,0-.077.145l3.774,5.48a.093.093,0,0,0,.152,0l3.86-5.478a.093.093,0,0,0-.075-.147Z" transform="translate(-286.908 -383.742)" fill="#5fa8ed"/>
    <path id="Trazado_842323" data-name="Trazado 842323" d="M410.714,224.751l-3.774-5.478a.093.093,0,0,0-.152,0l-3.86,5.48a.092.092,0,0,0,.075.145h7.634a.093.093,0,0,0,.077-.145Z" transform="translate(-286.706 -177.613)" fill="#5fa8ed"/>
    <path id="Trazado_842324" data-name="Trazado 842324" d="M115.941,46.574l-.012-.009a2.26,2.26,0,0,0-1.873-.407A24.348,24.348,0,0,1,84.489,22.642a23.508,23.508,0,0,1,1.634-8.964,1.844,1.844,0,0,0-1.7-2.533L66.449,11a3.356,3.356,0,0,0-3.357,3.355V91.4a3.356,3.356,0,0,0,3.356,3.355h47.014a3.356,3.356,0,0,0,3.357-3.355V48.356a2.247,2.247,0,0,0-.879-1.781Z" transform="translate(-4.974 -4.974)" fill="#fae7e3"/>
    <path id="Trazado_842325" data-name="Trazado 842325" d="M68.02,91.4V14.355a3.369,3.369,0,0,1,2.9-3.318L66.258,11a3.363,3.363,0,0,0-3.366,3.355V91.4a3.385,3.385,0,0,0,3.391,3.355h5.128A3.385,3.385,0,0,1,68.02,91.4Z" transform="translate(-4.808 -4.974)" fill="#cebfbc"/>
    <g id="Grupo_1078954" data-name="Grupo 1078954" transform="translate(57.093 5)">
      <path id="Trazado_842326" data-name="Trazado 842326" d="M421.351,295.4a1.026,1.026,0,1,0-2.051,0v4.1a1.026,1.026,0,0,0,2.051,0Z" transform="translate(-357.387 -244.909)" fill="#12263f"/>
      <path id="Trazado_842327" data-name="Trazado 842327" d="M420.326,390.372A1.026,1.026,0,0,0,419.3,391.4v4.1a1.026,1.026,0,1,0,2.051,0v-4.1A1.026,1.026,0,0,0,420.326,390.372Z" transform="translate(-357.387 -324.499)" fill="#12263f"/>
      <path id="Trazado_842328" data-name="Trazado 842328" d="M421.351,343.4a1.026,1.026,0,0,0-2.051,0v4.1a1.026,1.026,0,0,0,2.051,0Z" transform="translate(-357.387 -284.704)" fill="#12263f"/>
      <path id="Trazado_842329" data-name="Trazado 842329" d="M398.027,220.949h2.709v3.077a1.026,1.026,0,1,0,2.051,0v-3.077h2.874a1.118,1.118,0,0,0,.921-1.753l-3.775-5.479a1.119,1.119,0,0,0-.915-.483h-.006a1.12,1.12,0,0,0-.914.474l-3.861,5.479a1.118,1.118,0,0,0,.915,1.762Zm3.851-4.965,2.008,2.914h-4.061Z" transform="translate(-338.823 -177.639)" fill="#12263f"/>
      <path id="Trazado_842330" data-name="Trazado 842330" d="M405.91,442.387h-2.917V439.4a1.026,1.026,0,1,0-2.051,0v2.989h-2.667a1.118,1.118,0,0,0-.921,1.753l3.775,5.479a1.119,1.119,0,0,0,.915.484h.006a1.119,1.119,0,0,0,.914-.474l3.859-5.478a1.118,1.118,0,0,0-.914-1.763Zm-3.851,4.965-2.008-2.914h4.061Z" transform="translate(-339.029 -364.295)" fill="#12263f"/>
      <path id="Trazado_842331" data-name="Trazado 842331" d="M271.409,279.509a1.026,1.026,0,1,0,0,2.051h3.8a1.026,1.026,0,0,0,0-2.051Z" transform="translate(-233.925 -232.587)" fill="#12263f"/>
      <path id="Trazado_842332" data-name="Trazado 842332" d="M137.87,279.509a1.026,1.026,0,1,0,0,2.051h3.8a1.026,1.026,0,1,0,0-2.051Z" transform="translate(-123.212 -232.587)" fill="#12263f"/>
      <path id="Trazado_842333" data-name="Trazado 842333" d="M229.815,281.56h.885a1.026,1.026,0,1,0,0-2.051h-3.8a1.026,1.026,0,1,0,0,2.051h.868v1.807a1.026,1.026,0,1,0,2.051,0Z" transform="translate(-197.021 -232.587)" fill="#12263f"/>
      <path id="Trazado_842334" data-name="Trazado 842334" d="M93.357,281.56h3.8a1.026,1.026,0,1,0,0-2.051h-3.8a1.026,1.026,0,1,0,0,2.051Z" transform="translate(-86.308 -232.587)" fill="#12263f"/>
      <path id="Trazado_842335" data-name="Trazado 842335" d="M182.383,279.509a1.026,1.026,0,1,0,0,2.051h3.8a1.026,1.026,0,1,0,0-2.051Z" transform="translate(-160.116 -232.587)" fill="#12263f"/>
      <path id="Trazado_842336" data-name="Trazado 842336" d="M315.926,281.56h3.8a1.026,1.026,0,0,0,0-2.051h-3.8a1.026,1.026,0,0,0,0,2.051Z" transform="translate(-270.832 -232.587)" fill="#12263f"/>
      <path id="Trazado_842337" data-name="Trazado 842337" d="M239,321.1a1.026,1.026,0,1,0-2.051,0v4.1a1.026,1.026,0,0,0,2.051,0Z" transform="translate(-206.207 -266.221)" fill="#12263f"/>
      <path id="Trazado_842338" data-name="Trazado 842338" d="M239,369.1a1.026,1.026,0,0,0-2.051,0v4.1a1.026,1.026,0,1,0,2.051,0Z" transform="translate(-206.207 -306.016)" fill="#12263f"/>
      <path id="Trazado_842339" data-name="Trazado 842339" d="M237.976,416.078a1.026,1.026,0,0,0-1.026,1.026v4.1a1.026,1.026,0,1,0,2.051,0v-4.1A1.026,1.026,0,0,0,237.976,416.078Z" transform="translate(-206.207 -345.811)" fill="#12263f"/>
      <path id="Trazado_842340" data-name="Trazado 842340" d="M84.918,42.393a1.026,1.026,0,0,0,1.026-1.026v-.342a1.026,1.026,0,0,0-2.051,0v.342A1.026,1.026,0,0,0,84.918,42.393Z" transform="translate(-79.311 -34.017)" fill="#12263f"/>
      <path id="Trazado_842341" data-name="Trazado 842341" d="M83.892,78.751a1.026,1.026,0,0,0,2.051,0V63.026a1.026,1.026,0,0,0-2.051,0Z" transform="translate(-79.311 -52.257)" fill="#12263f"/>
      <path id="Trazado_842342" data-name="Trazado 842342" d="M111.595,40.789l-.014-.011a3.291,3.291,0,0,0-2.72-.6,23.286,23.286,0,0,1-3.692.5,1.027,1.027,0,1,0,.1,2.051,25.237,25.237,0,0,0,4.034-.55,1.241,1.241,0,0,1,1.027.217l.014.011a1.227,1.227,0,0,1,.477.967v8.542h-.983a1.054,1.054,0,0,0-1.068.994,1.026,1.026,0,0,0,1.026,1.057h1.026V86.426a2.33,2.33,0,0,1-2.33,2.33H89.875a1.041,1.041,0,0,0,.013-.158V84.54a1.054,1.054,0,0,0-.994-1.068A1.026,1.026,0,0,0,87.837,84.5v4.1a1.018,1.018,0,0,0,.013.158H61.475a2.33,2.33,0,0,1-2.33-2.33V53.974h1.15a1.054,1.054,0,0,0,1.068-.994,1.026,1.026,0,0,0-1.026-1.057H59.144V9.382a2.331,2.331,0,0,1,2.322-2.33L79.445,7.2a.816.816,0,0,1,.682.375.836.836,0,0,1,.068.758,24.661,24.661,0,0,0-1.7,9.352A25.305,25.305,0,0,0,98.149,42.142a1.026,1.026,0,1,0,.454-2A23.249,23.249,0,0,1,80.541,17.656,22.617,22.617,0,0,1,82.1,9.079a2.892,2.892,0,0,0-.253-2.619,2.862,2.862,0,0,0-2.389-1.315L61.475,5a4.387,4.387,0,0,0-4.382,4.382V86.426a4.382,4.382,0,0,0,4.382,4.382h47.015a4.382,4.382,0,0,0,4.382-4.382V43.381a3.289,3.289,0,0,0-1.276-2.592Z" transform="translate(-57.093 -5)" fill="#12263f"/>
    </g>
  </g>
</svg>
