<svg xmlns="http://www.w3.org/2000/svg" width="71.448" height="76.211" viewBox="0 0 71.448 76.211">
  <g id="ropa" transform="translate(-16)">
    <path id="Trazado_842302" data-name="Trazado 842302" d="M437.431,79.006V92.061h-4.465L428.5,84.547l4.465-8.118Z" transform="translate(-351.1 -65.053)" fill="#fff06e"/>
    <path id="Trazado_842303" data-name="Trazado 842303" d="M369.129,54.333V69.965H353.5l8.931-19.5Z" transform="translate(-287.263 -42.957)" fill="#feffad"/>
    <path id="Trazado_842304" data-name="Trazado 842304" d="M109.664,50.469l8.931,19.5H98.5V56.91Z" transform="translate(-70.22 -42.957)" fill="#feffad"/>
    <path id="Trazado_842305" data-name="Trazado 842305" d="M306.9,33.159,293.5,58.191l13.4,25.032h4.465V35.736Z" transform="translate(-236.194 -28.223)" fill="#1ec97f"/>
    <path id="Trazado_842306" data-name="Trazado 842306" d="M199.177,11.519H183.547l-10.047,5.8V64.8h31.258V14.74Z" transform="translate(-134.056 -9.804)" fill="#66d98c"/>
    <path id="Trazado_842307" data-name="Trazado 842307" d="M236.047,22.013A10.059,10.059,0,0,1,226,11.965,4.465,4.465,0,0,1,230.465,7.5h11.164a4.465,4.465,0,0,1,4.465,4.465A10.059,10.059,0,0,1,236.047,22.013Z" transform="translate(-178.742 -6.384)" fill="#feffad"/>
    <path id="Trazado_842308" data-name="Trazado 842308" d="M256,37.5a5.582,5.582,0,1,0,11.164,0Z" transform="translate(-204.276 -31.918)" fill="#42dcff"/>
    <path id="Trazado_842309" data-name="Trazado 842309" d="M222.965,211.449,218.5,222.613l8.931-4.465v-6.7Z" transform="translate(-172.358 -179.975)" fill="#b2f7ff"/>
    <path id="Trazado_842310" data-name="Trazado 842310" d="M38.5,211.449v6.7l31.258,8.931V211.449Z" transform="translate(-19.151 -179.975)" fill="#e0fcff"/>
    <path id="Trazado_842311" data-name="Trazado 842311" d="M242.431,448.964v4.465h-4.465L233.5,444.5Z" transform="translate(-185.125 -378.336)" fill="#42dcff"/>
    <g id="Grupo_1078953" data-name="Grupo 1078953" transform="translate(17.116 42.638)">
      <path id="Trazado_842312" data-name="Trazado 842312" d="M186.9,444.5v8.931H173.5v-4.465Z" transform="translate(-151.173 -420.973)" fill="#61efff"/>
      <path id="Trazado_842313" data-name="Trazado 842313" d="M41.362,436.2v4.465H23.5V436.2l8.931-6.7Z" transform="translate(-23.5 -408.206)" fill="#61efff"/>
      <path id="Trazado_842314" data-name="Trazado 842314" d="M203.33,286.449l.025,21.293,8.931,6.7h4.465V293.147Z" transform="translate(-176.562 -286.449)" fill="#61efff"/>
    </g>
    <path id="Trazado_842315" data-name="Trazado 842315" d="M59.224,267.613v21.293h-13.4V278.776a2.231,2.231,0,0,0-2.34-2.23,2.274,2.274,0,0,0-2.126,2.292v10.067H23.5V267.613l11.164-11.164H52.526L59.2,266.674s.025.625.025.939Z" transform="translate(-6.384 -218.277)" fill="#b2f7ff"/>
    <path id="Trazado_842316" data-name="Trazado 842316" d="M147.965,256.449v13.4a2.233,2.233,0,0,1-4.465,0v-13.4Z" transform="translate(-108.522 -218.277)" fill="#61efff"/>
    <path id="Trazado_842317" data-name="Trazado 842317" d="M242.08,263.214l-1.691-6.765h-4.465l-2.2,4.62,4.407,5.6a11.127,11.127,0,0,0,4.491.939A18.1,18.1,0,0,0,242.08,263.214Z" transform="translate(-185.316 -218.277)" fill="#42dcff"/>
    <path id="Trazado_842318" data-name="Trazado 842318" d="M224.656,263.214a18,18,0,0,1,.517,3.459,11.159,11.159,0,0,1-6.673-10.224h4.465Z" transform="translate(-172.358 -218.277)" fill="#61efff"/>
    <path id="Trazado_842319" data-name="Trazado 842319" d="M25.733,256.449h8.931A11.157,11.157,0,0,1,23.5,267.613a18.1,18.1,0,0,1,.542-4.4Z" transform="translate(-6.384 -218.277)" fill="#61efff"/>
    <path id="Trazado_842320" data-name="Trazado 842320" d="M86.889,12.987,65.678.748A5.577,5.577,0,0,0,62.888,0H51.724a5.546,5.546,0,0,0-2.789.75S27.722,12.987,27.722,12.987a1.117,1.117,0,0,0-.558.967V27.009a1.116,1.116,0,0,0,1.116,1.116H38.327v2.233H19.349a1.116,1.116,0,0,0-1.116,1.116v6.561l-1.658,6.632A19.274,19.274,0,0,0,16,49.336V75.095a1.116,1.116,0,0,0,1.116,1.116H34.978a1.116,1.116,0,0,0,1.116-1.116V60.563a1.162,1.162,0,0,1,1.061-1.178A1.117,1.117,0,0,1,38.327,60.5V75.095a1.116,1.116,0,0,0,1.116,1.116H57.306a1.116,1.116,0,0,0,1.116-1.116V56.116H75.168A1.116,1.116,0,0,0,76.284,55V28.125H86.331a1.116,1.116,0,0,0,1.116-1.116V13.954a1.116,1.116,0,0,0-.558-.967Zm-24-10.754a3.353,3.353,0,0,1,3.349,3.349,8.931,8.931,0,1,1-17.862,0,3.353,3.353,0,0,1,3.349-3.349ZM53.957,32.59v4.465H20.465V32.59Zm.245,6.7,1.48,5.919a17.033,17.033,0,0,1,.465,2.943,10.064,10.064,0,0,1-8.825-8.862Zm-16.99,13.4a1.118,1.118,0,0,1-1.116-1.116V39.289h2.233v12.28A1.118,1.118,0,0,1,37.211,52.685Zm-18.47-7.477,1.48-5.919H27.1a10.064,10.064,0,0,1-8.825,8.862A17.047,17.047,0,0,1,18.741,45.208Zm-.508,28.77V71.745H33.862v2.233ZM33.862,60.563v8.95H18.233V50.4A12.3,12.3,0,0,0,29.343,39.289h4.518v12.28a3.355,3.355,0,0,0,2.233,3.157v2.617a3.4,3.4,0,0,0-2.233,3.22Zm4.465-3.221V54.726a3.355,3.355,0,0,0,2.233-3.157V39.289h4.518A12.3,12.3,0,0,0,56.189,50.4V69.513H40.56V60.5a3.364,3.364,0,0,0-1.038-2.423A3.33,3.33,0,0,0,38.327,57.341ZM40.56,73.978V71.745H56.189v2.233ZM58.422,53.884V49.336a19.274,19.274,0,0,0-.575-4.67l-1.658-6.632V31.474a1.116,1.116,0,0,0-1.116-1.116H40.56V27.009a1.116,1.116,0,0,0-1.116-1.116H29.4V14.6l8.931-5.153v13.1a1.116,1.116,0,1,0,2.233,0V8.157l5.624-3.245a5.621,5.621,0,0,0-.042.67,11.164,11.164,0,0,0,22.327,0,5.59,5.59,0,0,0-.042-.67l5.624,3.245V53.884ZM85.215,25.892H76.284V9.445L85.215,14.6Z"/>
    <path id="Trazado_842321" data-name="Trazado 842321" d="M255.2,37.815a6.706,6.706,0,0,0,6.7-6.7A1.116,1.116,0,0,0,260.78,30H249.616a1.116,1.116,0,0,0-1.116,1.116A6.706,6.706,0,0,0,255.2,37.815Zm4.324-5.582a4.466,4.466,0,0,1-8.648,0Z" transform="translate(-197.892 -25.535)"/>
  </g>
</svg>
