<svg xmlns="http://www.w3.org/2000/svg" width="215.9" height="214.584" viewBox="0 0 215.9 214.584">
  <g id="Grupo_1078980" data-name="Grupo 1078980" transform="translate(-316.243 -1682.299)">
    <path id="Trazado_59723" data-name="Trazado 59723" d="M13.494,0H175.419a13.494,13.494,0,0,1,13.494,13.494V134.938a13.494,13.494,0,0,1-13.494,13.494H13.494A13.494,13.494,0,0,1,0,134.938V13.494A13.494,13.494,0,0,1,13.494,0Zm0,0" transform="translate(316.243 1682.299)" fill="#12263f"/>
    <path id="Trazado_59724" data-name="Trazado 59724" d="M212.431,251.6l-62.659-39.165H77.494A13.494,13.494,0,0,1,64,198.938V77.494A13.494,13.494,0,0,1,77.494,64H239.419a13.494,13.494,0,0,1,13.494,13.494V198.938a13.494,13.494,0,0,1-13.494,13.494H212.431Zm0,0" transform="translate(279.231 1645.286)" fill="#fff"/>
    <g id="Grupo_1078585" data-name="Grupo 1078585" transform="translate(429.541 1741.664)">
      <path id="Trazado_59234" data-name="Trazado 59234" d="M251.087,151.435H240V101.544a5.544,5.544,0,1,1,11.087,0Zm0,0" transform="translate(-240 -96)" fill="#12263f"/>
      <path id="Trazado_59235" data-name="Trazado 59235" d="M240,288h11.087v11.087H240Zm0,0" transform="translate(-240 -221.478)" fill="#12263f"/>
    </g>
  </g>
</svg>
