<svg xmlns="http://www.w3.org/2000/svg" xmlns:xlink="http://www.w3.org/1999/xlink" width="481" height="415.14" viewBox="0 0 481 415.14">
  <defs>
    <clipPath id="clip-path">
      <rect id="Rectángulo_381278" data-name="Rectángulo 381278" width="481" height="415.14" fill="#fff" stroke="#707070" stroke-width="1"/>
    </clipPath>
  </defs>
  <g id="Grupo_1078975" data-name="Grupo 1078975" transform="translate(-204 -5380.862)">
    <g id="Grupo_1078680" data-name="Grupo 1078680">
      <g id="Enmascarar_grupo_700370" data-name="Enmascarar grupo 700370" transform="translate(204 5380.862)" clip-path="url(#clip-path)">
        <rect id="high-angle-pink-thread-rolls-with-ribbon-textile" width="641.632" height="427.755" transform="translate(-74.165 -12.614)" fill="#fff"/>
      </g>
      <rect id="Rectángulo_381281" data-name="Rectángulo 381281" width="335" height="331" transform="translate(275 5425)" fill="#ffebab"/>
      <path id="Línea_897" data-name="Línea 897" d="M2,394H-2V384H2Zm0-22H-2V360H2Zm0-24H-2V336H2Zm0-24H-2V312H2Zm0-24H-2V288H2Zm0-24H-2V264H2Zm0-24H-2V240H2Zm0-24H-2V216H2Zm0-24H-2V192H2Zm0-24H-2V168H2Zm0-24H-2V144H2Zm0-24H-2V120H2Zm0-24H-2V96H2ZM2,84H-2V72H2ZM2,60H-2V48H2ZM2,36H-2V24H2ZM2,12H-2V0H2Z" transform="translate(442.5 5390.5)" fill="#673ab7"/>
      <path id="Línea_898" data-name="Línea 898" d="M421,2H409V-2h12ZM397,2H385V-2h12ZM373,2H361V-2h12ZM349,2H337V-2h12ZM325,2H313V-2h12ZM301,2H289V-2h12ZM277,2H265V-2h12ZM253,2H241V-2h12ZM229,2H217V-2h12ZM205,2H193V-2h12ZM181,2H169V-2h12ZM157,2H145V-2h12ZM133,2H121V-2h12ZM109,2H97V-2h12ZM85,2H73V-2H85ZM61,2H49V-2H61ZM37,2H25V-2H37ZM13,2H1V-2H13Z" transform="translate(231.5 5590.5)" fill="#673ab7"/>
    </g>
  </g>
</svg>
