<svg xmlns="http://www.w3.org/2000/svg" xmlns:xlink="http://www.w3.org/1999/xlink" width="400" height="389" viewBox="0 0 400 389">
  <defs>
    <clipPath id="clip-path">
      <path id="Trazado_25069" data-name="Trazado 25069" d="M623.5,950.263c-9.083-6.447-18.528-11.591-28.68-13.817q-.6,1.7-1.211,3.387c-5.435,4.479-13.578.291-18.125-4.008a.762.762,0,0,1-.061-.072c-.49.054-.979.117-1.467.183,0-.087-.005-.175-.005-.262-14.068,1.3-26.22,8.541-37.56,18.011-12.445,10.392-22.331,23.472-31.713,36.694a56.04,56.04,0,0,0,13.164,14.3c1.078.824,13.323-10.814,24.319-21.639q-2.279,18.354-4.556,36.7c11.866.047,23.092.64,34.232,1.307.855-.361,1.722-.7,2.589-1.042a13.772,13.772,0,0,0,5.513-3.32,1.092,1.092,0,0,1,1.694,0c1.623,1.7,3.071,3.575,4.742,5.234,9.816.563,19.751,1.028,30.179,1.068q-.243-13.787-.689-27.573c-.188-5.89-.326-12.815-1.01-19.831,12.786,10.856,29.975,25.095,31.137,24.053a56.109,56.109,0,0,0,12-15.291C647.6,971.911,636.719,959.646,623.5,950.263Z" transform="translate(-504.675 -935.675)" fill="#d1bcff"/>
    </clipPath>
    <clipPath id="clip-path-2">
      <path id="Trazado_25086" data-name="Trazado 25086" d="M714.974,989.937c-11.964-8.492-24.4-15.267-37.776-18.2q-.79,2.235-1.6,4.461c-7.159,5.9-17.884.384-23.874-5.28-.031-.03-.052-.061-.08-.093-.646.07-1.289.154-1.933.241,0-.115-.005-.23-.005-.345-18.529,1.712-34.536,11.25-49.473,23.724-16.39,13.688-29.412,30.916-41.77,48.332a73.839,73.839,0,0,0,17.34,18.838c1.42,1.085,17.549-14.243,32.031-28.5q-3,24.172-6,48.346c15.628.061,30.415.843,45.088,1.72,1.125-.476,2.266-.921,3.409-1.373,2.642-1.042,5.343-2.2,7.263-4.372a1.437,1.437,0,0,1,2.23,0c2.139,2.244,4.046,4.707,6.248,6.892,12.929.743,26.014,1.354,39.749,1.408q-.319-18.16-.905-36.319c-.251-7.758-.431-16.877-1.331-26.12,16.839,14.3,39.479,33.055,41.011,31.682a73.858,73.858,0,0,0,15.808-20.142C746.72,1018.45,732.388,1002.3,714.974,989.937Z" transform="translate(-558.466 -970.722)" fill="#d1bcff"/>
    </clipPath>
  </defs>
  <g id="Grupo_1079033" data-name="Grupo 1079033" transform="translate(-181 -11800)">
    <path id="Trazado_841459" data-name="Trazado 841459" d="M20,0H380c11.046,0,20,7.318,20,16.345V372.655c0,9.027-8.954,16.345-20,16.345H20c-11.046,0-20-7.318-20-16.345V16.345C0,7.318,8.954,0,20,0Z" transform="translate(181 11800)" fill="#ffd54f"/>
    <path id="Trazado_842376" data-name="Trazado 842376" d="M154.844,26V9.2h5.063V22.039H165.7V26Zm12.527,0V14h4.992V26Zm3.117-13.9h-3.527l3.5-3.762h4.2ZM190.328,26V19.086a2.206,2.206,0,0,0-.311-1.295A1.168,1.168,0,0,0,189,17.363a1.266,1.266,0,0,0-1.078.521,2.386,2.386,0,0,0-.387,1.447V26h-4.992V19.2q0-1.84-1.254-1.84a1.327,1.327,0,0,0-1.148.533,2.578,2.578,0,0,0-.387,1.529V26h-4.992V14h4.992v1.9h.047a3.869,3.869,0,0,1,.9-1.025,5.261,5.261,0,0,1,1.389-.844,4.313,4.313,0,0,1,1.676-.322,4.241,4.241,0,0,1,2.15.5,3.908,3.908,0,0,1,1.459,1.594,4.277,4.277,0,0,1,1.688-1.553,5.029,5.029,0,0,1,2.344-.545,3.527,3.527,0,0,1,2.895,1.23,5.479,5.479,0,0,1,1.008,3.551V26Zm12.527-15.234a2.144,2.144,0,0,1-.768,1.711,3,3,0,0,1-2.021.656,2.929,2.929,0,0,1-2-.68,2.15,2.15,0,0,1-.779-1.687,2.081,2.081,0,0,1,.756-1.67,3.518,3.518,0,0,1,4.043,0A2.068,2.068,0,0,1,202.855,10.766ZM197.57,26V14h4.992V26Zm15.844-.164a4.864,4.864,0,0,1-1.113.311,10.178,10.178,0,0,1-1.863.146,4.476,4.476,0,0,1-3.264-1.148A4.359,4.359,0,0,1,206,21.875V17.457h-1.887V14H206V11.645l4.922-1.359V14h2.5v3.457h-2.5v3.6q0,1.582,1.254,1.582a3.4,3.4,0,0,0,1.242-.258Zm5.859-4.418a1.686,1.686,0,0,0,.891,1.213,4.016,4.016,0,0,0,2.016.439,8.3,8.3,0,0,0,3.3-.668v3.164a11.877,11.877,0,0,1-4.406.727,6.952,6.952,0,0,1-4.887-1.605,5.7,5.7,0,0,1-1.746-4.418,7.289,7.289,0,0,1,.768-3.41,5.523,5.523,0,0,1,2.273-2.314,6.717,6.717,0,0,1,3.322-.838,6.537,6.537,0,0,1,3.188.727,4.84,4.84,0,0,1,2.01,2.039,6.542,6.542,0,0,1,.686,3.07v1.875Zm3-2.613q0-2.074-1.488-2.074a1.259,1.259,0,0,0-1.043.568,2.836,2.836,0,0,0-.492,1.506Zm15.891,3.211a3.665,3.665,0,0,1-1.553,3.158,7.3,7.3,0,0,1-4.33,1.119,15.055,15.055,0,0,1-2-.164,12.343,12.343,0,0,1-1.939-.4v-3.5a9.55,9.55,0,0,0,3.7.984q1.465,0,1.465-.762a.6.6,0,0,0-.34-.521,12.012,12.012,0,0,0-1.781-.686,5.03,5.03,0,0,1-2.32-1.336,3.177,3.177,0,0,1-.727-2.168,3.459,3.459,0,0,1,1.482-2.947,6.955,6.955,0,0,1,4.166-1.084,13.242,13.242,0,0,1,3.328.457v3.363A10.065,10.065,0,0,0,235.7,17a6.532,6.532,0,0,0-1.477-.211,1.607,1.607,0,0,0-.785.164.5.5,0,0,0-.293.457.637.637,0,0,0,.316.551,5.6,5.6,0,0,0,1.266.5,5.873,5.873,0,0,1,2.637,1.383A3.03,3.03,0,0,1,238.164,22.016Z" transform="translate(185 12126)" fill="#12263f"/>
    <g id="Grupo_15983" data-name="Grupo 15983" transform="translate(-259.073 10962.344)">
      <path id="Trazado_25057" data-name="Trazado 25057" d="M710.183,1096.355c-15.843,7.913-32.461,4.941-45.887-1.786s-24.8-16.916-38.172-23.752c-18.3-9.361-40.2-12.154-62.466-7.965-12.543,2.36-27.112,10.42-40.182,5.827-18.884-6.632-12.765-31.779-9.348-46.36,6.4-27.325,26.646-52.322,49.8-66.9s48.784-19.725,72.673-19.278c12.7.237,25.139,1.98,36.535,6.147,28.761,10.514,57.352,33.5,69.41,62.576C755.6,1036.346,741.636,1080.646,710.183,1096.355Z" transform="translate(6.027 0.856)" fill="#f8f3ff"/>
      <g id="Grupo_15978" data-name="Grupo 15978" transform="translate(502.3 934.962)">
        <path id="Trazado_25058" data-name="Trazado 25058" d="M581.428,937.716c-.129.188-.256.379-.4.558-5.323,6.81-14.623,2.228-19.6-2.483a.771.771,0,0,1-.061-.072,41.067,41.067,0,0,0-13.5,3.633c-12.2,5.88-16.317,15.935-17.959,29.146q-3.185,25.609-6.356,51.216c11.866.047,23.092.64,34.232,1.307.855-.361,1.722-.7,2.589-1.042a13.773,13.773,0,0,0,5.513-3.32,1.092,1.092,0,0,1,1.694,0c1.623,1.7,3.071,3.575,4.742,5.234,9.816.563,19.751,1.028,30.179,1.068q-.243-13.787-.689-27.573C601.2,976.392,601.153,946.628,581.428,937.716Z" transform="translate(-486.476 -934.397)" fill="#673ab7"/>
        <path id="Trazado_25059" data-name="Trazado 25059" d="M574.644,944.619a55.191,55.191,0,0,1-.7-8.944c-14.068,1.3-26.22,8.541-37.56,18.011-12.445,10.392-22.331,23.472-31.713,36.694a56.04,56.04,0,0,0,13.164,14.3c1.893,1.447,38.181-35.492,41.74-39.052,4.714-4.714,7.954-9.683,12.341-14.656.543-.618,1.717-2.062,3.189-3.816Q574.845,945.89,574.644,944.619Z" transform="translate(-500.532 -934.431)" fill="#673ab7"/>
        <path id="Trazado_25060" data-name="Trazado 25060" d="M587.488,949.934c-9.083-6.447-18.528-11.591-28.681-13.817-1.792,5.07-3.652,10.132-5.782,15.071,4.2,4.234,7.639,8.509,12.28,12.473,3.828,3.268,42.9,37.246,44.677,35.656a56.107,56.107,0,0,0,12-15.291C611.592,971.581,600.71,959.317,587.488,949.934Z" transform="translate(-464.522 -934.102)" fill="#673ab7"/>
        <path id="Trazado_25061" data-name="Trazado 25061" d="M603.009,965.217c-1.094-1.218-3.184-3.718-4.844-4.1-2.073-.483-3.788,1.783-5.3,3.111a91.735,91.735,0,0,0-10.535,10.9,3.635,3.635,0,0,0-1.125,2.57,3.705,3.705,0,0,0,1.612,2.19l3.018,2.452a5.33,5.33,0,0,0,2.424,1.344c3.38.516,7.024-5.13,9.279-7.175,2.68-2.43,6.859-6.227,6.126-10.31a1.6,1.6,0,0,0-.427-.726C603.159,965.386,603.084,965.3,603.009,965.217Z" transform="translate(-443.546 -915.535)" fill="#e5e5e5"/>
        <path id="Trazado_25062" data-name="Trazado 25062" d="M517.055,969.681c-2.361-1.8-7.991-8.152-10.472-4.681q-1.746,2.444-3.322,5.006c-.642,1.045-1.282,2.324-.782,3.446a3.907,3.907,0,0,0,1.317,1.4l11.838,9a8.543,8.543,0,0,0,1.753,1.12c4.058,1.748,8.759-4.311,10.034-7.489C523.874,974.993,520.5,972.307,517.055,969.681Z" transform="translate(-502.3 -913.351)" fill="#e5e5e5"/>
        <g id="Grupo_15977" data-name="Grupo 15977" transform="translate(4.144 1.244)">
          <g id="Grupo_15976" data-name="Grupo 15976" clip-path="url(#clip-path)">
            <g id="Grupo_15975" data-name="Grupo 15975" transform="translate(19.62 -3.962)">
              <path id="Trazado_25063" data-name="Trazado 25063" d="M529.757,988.37c1.675-1.951,4.3-2.811,6.213-4.524,2.872-2.568,3.758-6.613,4.889-10.294s3.067-7.648,6.737-8.82a3.853,3.853,0,0,1,3.92.647c1.356,1.41.743,3.75-.194,5.466-2.834,5.184-7.883,9.191-9.42,14.9-.659,2.455-.632,5.128-1.818,7.375-1.624,3.078-6.6,5.681-10.127,4.871C525.844,997.047,527.758,990.7,529.757,988.37Z" transform="translate(-507.279 -910.257)" fill="#d1bcff"/>
              <path id="Trazado_25064" data-name="Trazado 25064" d="M568.388,960.042a4.432,4.432,0,0,1,4.01-2.134,3.629,3.629,0,0,1,3.257,2.985,6.334,6.334,0,0,1-.893,3.448,47.271,47.271,0,0,1-4.737,8.113,35.36,35.36,0,0,0-3.865,5.358c-.93,1.872-1.309,3.978-2.242,5.847-4.044,8.094-13.231-.6-8.945-7.136,2.19-3.339,5.243-5.3,8.49-7.391C567.311,966.657,566.261,963.492,568.388,960.042Z" transform="translate(-487.664 -915.164)" fill="#d1bcff"/>
              <path id="Trazado_25065" data-name="Trazado 25065" d="M585.889,954.458c-1.956,2.209-4.418,3.964-6.117,6.374a13.139,13.139,0,0,0-1.954,10.706,2.174,2.174,0,0,0,.839,1.412,1.97,1.97,0,0,0,1.094.2c2.364-.112,4.442-1.586,6.157-3.216s3.25-3.495,5.269-4.73c1.338-.82,2.884-1.359,3.985-2.478,1.711-1.741,1.931-4.542,1.178-6.864-.563-1.741-3.392-7.466-5.454-7.745C588.51,947.791,587.24,952.933,585.889,954.458Z" transform="translate(-470.118 -922.461)" fill="#d1bcff"/>
              <path id="Trazado_25066" data-name="Trazado 25066" d="M572.238,944.5c2.436-.346,5.459.227,6.337,2.526.806,2.109-.708,4.412-2.483,5.808-2.818,2.219-6.44,3.317-9.043,5.782-2.115,2-3.369,4.732-5.17,7.021s-4.589,4.245-7.438,3.65c-2.689-.562-4.51-3.35-4.62-6.094-.2-5.062,4.268-10.415,8.434-12.873C562.317,947.919,567.583,945.157,572.238,944.5Z" transform="translate(-490.676 -925.213)" fill="#d1bcff"/>
              <path id="Trazado_25067" data-name="Trazado 25067" d="M534.519,943.916a23.64,23.64,0,0,0-4.327,5.1,7.847,7.847,0,0,0-.829,6.447,4.786,4.786,0,0,0,5.264,3.156,7.762,7.762,0,0,0,3.643-2.683q4.433-4.876,8.865-9.753c2.116-2.328,4.386-5.173,3.767-8.258-.687-3.418-5.386-5.866-8.371-3.7-1.206.876-1.871,2.783-2.743,3.966A48.59,48.59,0,0,1,534.519,943.916Z" transform="translate(-506.187 -933.404)" fill="#d1bcff"/>
              <path id="Trazado_25068" data-name="Trazado 25068" d="M517.846,956.7a6.418,6.418,0,0,1,3.219-3.022,2.5,2.5,0,0,1,2.338.309,2.993,2.993,0,0,1,.626,3.064,16.78,16.78,0,0,0-.858,3.181c-.1,1.89,1.516,4.036,2.3,5.705.942,2.008,1.636,4.182.572,6.3-1.124,2.233-3.2,2.329-5.276,1.241C515.138,970.529,514.76,961.525,517.846,956.7Z" transform="translate(-515.92 -918.419)" fill="#d1bcff"/>
            </g>
          </g>
        </g>
        <path id="Trazado_25070" data-name="Trazado 25070" d="M556.475,938.248A32.631,32.631,0,0,1,544,935.4c1.565,2.6,2.326,5.644,3.929,8.242.906,1.466,1.729,2.979,2.537,4.5.089.112.188.216.27.333a14.417,14.417,0,0,1,1.666,3.313c.653,1.2,1.637,9.916,2.361,11.078,2.392-6.51,5.032-19.719,9.321-25.674A26.981,26.981,0,0,1,556.475,938.248Z" transform="translate(-471.247 -934.638)"/>
        <path id="Trazado_25071" data-name="Trazado 25071" d="M601.726,1019.685c-5.66.173-11.378.269-17.031-.091-2.989-.19-6.466-.715-8.806-2.725-2.361-2.027-2.425-4.789-2.551-7.661-.167-3.884-.213-7.777-.209-11.664q.008-11.665.9-23.307l2.663-3.814a14,14,0,0,0,2.43-4.629,1.249,1.249,0,0,0,.026-.659,1.182,1.182,0,0,0-.534-.59c-1.706-1.085-3.957-.649-5.889-1.249-.176-.054-.386-.183-.34-.361.03-.108.145-.166.25-.211a32.421,32.421,0,0,1,4.973-1.771q3.915-.979,7.831-1.959c1.638-.408,1.792-1.438,1.764-2.964-.059-3.331-1.033-6.869-1.6-10.148-.194-1.122-.86-9.256-1.63-9.567a23.993,23.993,0,0,0-3.6-1.132c-.352-.082-.71-.152-1.066-.22-2.586,6.5-5.911,15.588-9.451,21.658-.434.743-.492-1.472-.864-2.415-1.532-3.875-2.968-7.79-4.238-11.76-.532-1.661-.827-4.868-1.591-6.494-1.717-.1-3.432-.3-5.149-.469-1.595,7.49-3.374,15.874-4.793,23.394a2.547,2.547,0,0,0,.3,2.266c.583.6,1.951.625,2.731.7q3.279.314,6.559.63a4.255,4.255,0,0,1,2.439.754c-1.326.639-2.821.743-4.132,1.466a2.23,2.23,0,0,0-.888.745,2.4,2.4,0,0,0,.391,2.352,58.1,58.1,0,0,1,3.685,6q-.563,13.083-.963,26.17c-.175,5.747,1.443,14.365-5.2,16.807-3.484,1.279-7.307,1.167-10.956,1.083-7.2-.269-14.406-.686-21.607-1.031-3.5-.168-3.265,5.274.215,5.44,9.109.436,18.68,1.764,27.784,1a26.737,26.737,0,0,0,3.177-.462c3.593-.738,6.3-.178,9.151-2.957,9.287,7.583,24.9,5.623,36.036,5.281C605.442,1025.017,605.231,1019.577,601.726,1019.685Z" transform="translate(-486.835 -934.962)" fill="#e5e5e5"/>
        <path id="Trazado_25072" data-name="Trazado 25072" d="M526.362,970.794l-.872-.489A89.234,89.234,0,0,1,538.339,952.8l.728.686A88.232,88.232,0,0,0,526.362,970.794Z" transform="translate(-484.704 -921.422)" fill="#8ba8bb"/>
        <path id="Trazado_25073" data-name="Trazado 25073" d="M572.845,965.156l-.475-.88a.207.207,0,0,0-.1.158.667.667,0,0,0-.153-.293l-11.007-13.033.764-.645L572.876,963.5a1.435,1.435,0,0,1,.375,1.106A.785.785,0,0,1,572.845,965.156Z" transform="translate(-458.219 -923.177)" fill="#8ba8bb"/>
        <path id="Trazado_25074" data-name="Trazado 25074" d="M548.593,1014.635l-1-.045q.84-18.794,1.679-37.587.777-17.393,1.554-34.786l1,.045q-.777,17.393-1.554,34.786Q549.432,995.841,548.593,1014.635Z" transform="translate(-468.195 -929.542)"/>
      </g>
      <g id="Grupo_15982" data-name="Grupo 15982" transform="translate(594.84 995.717)">
        <path id="Trazado_25075" data-name="Trazado 25075" d="M659.56,973.412c-.169.248-.337.5-.523.735-7.01,8.97-19.26,2.933-25.823-3.271-.031-.03-.052-.061-.08-.093a54.094,54.094,0,0,0-17.784,4.784c-16.068,7.745-21.492,20.988-23.656,38.39q-4.193,33.727-8.37,67.46c15.628.061,30.415.843,45.088,1.72,1.125-.476,2.266-.921,3.409-1.373,2.642-1.042,5.343-2.2,7.263-4.372a1.437,1.437,0,0,1,2.23,0c2.139,2.244,4.046,4.707,6.248,6.892,12.929.743,26.014,1.354,39.749,1.408q-.319-18.16-.905-36.319C685.6,1024.352,685.541,985.149,659.56,973.412Z" transform="translate(-534.496 -969.039)" fill="#673ab7"/>
        <path id="Trazado_25076" data-name="Trazado 25076" d="M650.627,982.5a72.293,72.293,0,0,1-.918-11.779c-18.529,1.712-34.536,11.25-49.473,23.724-16.39,13.688-29.412,30.916-41.77,48.332a73.839,73.839,0,0,0,17.34,18.838c2.493,1.9,50.289-46.749,54.979-51.438,6.208-6.208,10.477-12.754,16.253-19.3.717-.813,2.263-2.715,4.2-5.027Q650.893,984.178,650.627,982.5Z" transform="translate(-553.009 -969.084)" fill="#673ab7"/>
        <path id="Trazado_25077" data-name="Trazado 25077" d="M667.544,989.5c-11.964-8.492-24.4-15.267-37.776-18.2-2.361,6.679-4.812,13.346-7.618,19.852,5.533,5.578,10.06,11.208,16.174,16.429,5.042,4.306,56.51,49.059,58.846,46.964a73.858,73.858,0,0,0,15.808-20.142C699.29,1018.017,684.958,1001.864,667.544,989.5Z" transform="translate(-505.579 -968.65)" fill="#673ab7"/>
        <path id="Trazado_25078" data-name="Trazado 25078" d="M687.986,1009.634c-1.439-1.605-4.193-4.9-6.379-5.407-2.731-.635-4.988,2.35-6.983,4.1a120.7,120.7,0,0,0-13.878,14.359c-.8.982-1.637,2.129-1.481,3.387a4.878,4.878,0,0,0,2.123,2.884l3.976,3.23a7.034,7.034,0,0,0,3.191,1.767c4.453.68,9.252-6.756,12.222-9.45,3.528-3.2,9.033-8.2,8.068-13.578a2.105,2.105,0,0,0-.564-.958C688.185,1009.856,688.085,1009.744,687.986,1009.634Z" transform="translate(-477.951 -944.195)" fill="#e5e5e5"/>
        <path id="Trazado_25079" data-name="Trazado 25079" d="M574.773,1015.512c-3.111-2.369-10.524-10.736-13.792-6.166q-2.3,3.219-4.376,6.593c-.848,1.378-1.689,3.062-1.029,4.54a5.128,5.128,0,0,0,1.734,1.846l15.593,11.852a11.312,11.312,0,0,0,2.308,1.476c5.346,2.3,11.536-5.679,13.218-9.863C583.753,1022.51,579.313,1018.972,574.773,1015.512Z" transform="translate(-555.338 -941.318)" fill="#e5e5e5"/>
        <g id="Grupo_15981" data-name="Grupo 15981" transform="translate(5.457 1.638)">
          <g id="Grupo_15980" data-name="Grupo 15980" clip-path="url(#clip-path-2)">
            <g id="Grupo_15979" data-name="Grupo 15979" transform="translate(25.843 -5.218)">
              <path id="Trazado_25080" data-name="Trazado 25080" d="M591.5,1040.128c2.207-2.568,5.662-3.7,8.185-5.958,3.781-3.383,4.95-8.71,6.44-13.559s4.039-10.073,8.87-11.617c1.754-.56,3.889-.473,5.165.853,1.785,1.857.979,4.938-.255,7.2-3.732,6.829-10.383,12.107-12.407,19.622-.871,3.233-.832,6.754-2.4,9.715-2.137,4.051-8.685,7.481-13.339,6.415C586.349,1051.558,588.87,1043.192,591.5,1040.128Z" transform="translate(-561.897 -937.243)" fill="#d1bcff"/>
              <path id="Trazado_25081" data-name="Trazado 25081" d="M642.386,1002.816a5.837,5.837,0,0,1,5.28-2.809,4.775,4.775,0,0,1,4.29,3.933,8.311,8.311,0,0,1-1.176,4.542,62.243,62.243,0,0,1-6.239,10.685c-1.757,2.315-3.8,4.454-5.09,7.058-1.225,2.465-1.724,5.24-2.954,7.7-5.328,10.661-17.427-.792-11.782-9.4,2.884-4.4,6.906-6.983,11.182-9.734C640.968,1011.53,639.584,1007.362,642.386,1002.816Z" transform="translate(-536.061 -943.706)" fill="#d1bcff"/>
              <path id="Trazado_25082" data-name="Trazado 25082" d="M665.437,995.463c-2.575,2.907-5.819,5.22-8.057,8.394a17.3,17.3,0,0,0-2.574,14.1,2.863,2.863,0,0,0,1.106,1.86,2.589,2.589,0,0,0,1.441.255c3.113-.146,5.85-2.087,8.108-4.233s4.282-4.6,6.941-6.232c1.764-1.078,3.8-1.788,5.25-3.263,2.254-2.293,2.544-5.983,1.551-9.042-.742-2.293-4.467-9.833-7.185-10.2C668.888,986.682,667.215,993.453,665.437,995.463Z" transform="translate(-512.951 -953.317)" fill="#d1bcff"/>
              <path id="Trazado_25083" data-name="Trazado 25083" d="M647.456,982.341c3.209-.455,7.19.3,8.347,3.326,1.063,2.778-.933,5.813-3.27,7.652-3.713,2.921-8.483,4.367-11.913,7.616-2.783,2.638-4.437,6.232-6.808,9.247s-6.044,5.59-9.8,4.807c-3.54-.74-5.937-4.413-6.084-8.028-.267-6.667,5.622-13.717,11.109-16.956C634.39,986.85,641.324,983.21,647.456,982.341Z" transform="translate(-540.029 -956.942)" fill="#d1bcff"/>
              <path id="Trazado_25084" data-name="Trazado 25084" d="M597.774,981.576a31.159,31.159,0,0,0-5.7,6.716,10.338,10.338,0,0,0-1.09,8.493c1.024,2.762,4.065,4.845,6.93,4.156,1.963-.471,3.444-2.04,4.8-3.535l11.674-12.845c2.788-3.067,5.779-6.815,4.962-10.877-.906-4.5-7.094-7.728-11.025-4.877-1.589,1.151-2.464,3.666-3.614,5.224A63.812,63.812,0,0,1,597.774,981.576Z" transform="translate(-560.458 -967.732)" fill="#d1bcff"/>
              <path id="Trazado_25085" data-name="Trazado 25085" d="M575.815,998.415c1.076-1.686,2.258-3.336,4.24-3.98a3.289,3.289,0,0,1,3.08.4c1.118.923,1.185,2.63.824,4.036a22,22,0,0,0-1.129,4.189c-.133,2.49,2,5.315,3.029,7.515,1.241,2.645,2.153,5.508.754,8.291-1.481,2.942-4.21,3.069-6.951,1.635C572.249,1016.63,571.75,1004.771,575.815,998.415Z" transform="translate(-573.278 -947.993)" fill="#d1bcff"/>
            </g>
          </g>
        </g>
        <path id="Trazado_25087" data-name="Trazado 25087" d="M626.695,974.113a43,43,0,0,1-16.437-3.756c2.06,3.42,3.062,7.434,5.175,10.856,1.192,1.932,2.277,3.922,3.341,5.927.117.148.246.285.358.438a19.047,19.047,0,0,1,2.193,4.367c.858,1.583,2.157,13.06,3.109,14.588,3.151-8.574,6.628-25.971,12.274-33.816A35.516,35.516,0,0,1,626.695,974.113Z" transform="translate(-514.437 -969.356)"/>
        <path id="Trazado_25088" data-name="Trazado 25088" d="M686.3,1081.375c-7.454.229-14.986.354-22.434-.12-3.935-.249-8.515-.94-11.6-3.589-3.109-2.671-3.195-6.307-3.359-10.092-.222-5.114-.281-10.242-.277-15.361q.013-15.363,1.183-30.7l3.505-5.025a18.456,18.456,0,0,0,3.2-6.1,1.647,1.647,0,0,0,.033-.867,1.539,1.539,0,0,0-.7-.776c-2.249-1.431-5.213-.855-7.757-1.645-.232-.071-.51-.242-.447-.476.037-.143.19-.22.326-.277a42.635,42.635,0,0,1,6.552-2.334l10.312-2.579c2.158-.541,2.361-1.9,2.324-3.9-.078-4.388-1.361-9.05-2.109-13.367-.257-1.478-1.132-12.191-2.146-12.6a31.544,31.544,0,0,0-4.737-1.492c-.464-.106-.934-.2-1.4-.29-3.4,8.568-7.787,20.531-12.449,28.527-.571.979-.647-1.938-1.138-3.181-2.015-5.105-3.908-10.261-5.581-15.49-.7-2.188-1.091-6.41-2.1-8.553-2.263-.136-4.521-.4-6.78-.62-2.1,9.868-4.448,20.909-6.314,30.814-.194,1.028-.331,2.235.4,2.985.768.79,2.568.824,3.6.921q4.321.416,8.638.829a5.6,5.6,0,0,1,3.212.995c-1.746.839-3.716.977-5.44,1.928a2.933,2.933,0,0,0-1.169.982c-.564.947-.052,2.153.513,3.1,1.588,2.654,3.617,5.1,4.854,7.905q-.741,17.231-1.269,34.47c-.23,7.569,1.9,18.92-6.854,22.136-4.59,1.687-9.624,1.539-14.431,1.429-9.488-.354-18.973-.9-28.457-1.358-4.61-.221-4.3,6.946.281,7.164,12,.576,24.6,2.325,36.6,1.321a35.238,35.238,0,0,0,4.184-.607c4.732-.974,8.293-.234,12.053-3.9,12.234,9.989,32.793,7.406,47.465,6.957C691.191,1088.4,690.914,1081.234,686.3,1081.375Z" transform="translate(-534.969 -969.783)" fill="#e5e5e5"/>
        <path id="Trazado_25089" data-name="Trazado 25089" d="M586.892,1016.9l-.872-.489a117.427,117.427,0,0,1,16.9-23.026l.728.686A116.423,116.423,0,0,0,586.892,1016.9Z" transform="translate(-532.163 -951.949)" fill="#8ba8bb"/>
        <path id="Trazado_25090" data-name="Trazado 25090" d="M648.18,1009.412l-.474-.88a.128.128,0,0,0-.054.076.933.933,0,0,0-.24-.5l-.782-.926q-6.856-8.119-13.714-16.238l.764-.645q6.859,8.119,13.714,16.238l.781.925a1.734,1.734,0,0,1,.459,1.327A.877.877,0,0,1,648.18,1009.412Z" transform="translate(-497.277 -954.26)" fill="#8ba8bb"/>
        <path id="Trazado_25091" data-name="Trazado 25091" d="M616.154,1074.716l-1-.045q1.11-24.828,2.219-49.656,1.02-22.835,2.04-45.669l1,.045q-1.021,22.835-2.04,45.669Q617.263,1049.888,616.154,1074.716Z" transform="translate(-510.417 -962.645)"/>
      </g>
    </g>
  </g>
</svg>
