<svg xmlns="http://www.w3.org/2000/svg" width="305.143" height="307.691" viewBox="0 0 305.143 307.691">
  <g id="Grupo_1079033" data-name="Grupo 1079033" transform="translate(-227 -2168)">
    <g id="Grupo_1078653" data-name="Grupo 1078653" transform="translate(-58 -310.834)">
      <g id="Grupo_16052" data-name="Grupo 16052" transform="translate(432.418 2478.834)">
        <path id="Trazado_25220" data-name="Trazado 25220" d="M506.766,211.932l-2.335,3.7v3.4h-1.479v-3.367l-2.35-3.735h1.632l1.45,2.418,1.454-2.418Z" transform="translate(-500.602 -211.932)" fill="#00223d"/>
      </g>
      <g id="Grupo_1078652" data-name="Grupo 1078652">
        <g id="Grupo_16053" data-name="Grupo 16053" transform="translate(582.859 2631.119)">
          <path id="Trazado_25221" data-name="Trazado 25221" d="M694.67,415.481l2.767-3.705-2.688-3.4h1.794l1.77,2.329,1.769-2.329h1.794l-2.688,3.4,2.767,3.705h-1.877l-1.764-2.512-1.765,2.512Z" transform="translate(-694.67 -408.379)" fill="#00223d"/>
        </g>
        <g id="Grupo_16056" data-name="Grupo 16056" transform="translate(285 2633.126)">
          <g id="Grupo_16055" data-name="Grupo 16055">
            <g id="Grupo_16054" data-name="Grupo 16054">
              <rect id="Rectángulo_3909" data-name="Rectángulo 3909" width="295.771" height="2.516" fill="#673ab7"/>
            </g>
          </g>
        </g>
        <g id="Grupo_16071" data-name="Grupo 16071" transform="translate(296.788 2629.838)">
          <g id="Grupo_16057" data-name="Grupo 16057" transform="translate(100.707)">
            <rect id="Rectángulo_3910" data-name="Rectángulo 3910" width="0.472" height="9.663" fill="#604053"/>
          </g>
          <g id="Grupo_16058" data-name="Grupo 16058" transform="translate(81.144)">
            <rect id="Rectángulo_3911" data-name="Rectángulo 3911" width="0.472" height="9.663" fill="#604053"/>
          </g>
          <g id="Grupo_16059" data-name="Grupo 16059" transform="translate(120.269)">
            <rect id="Rectángulo_3912" data-name="Rectángulo 3912" width="0.472" height="9.663" fill="#604053"/>
          </g>
          <g id="Grupo_16060" data-name="Grupo 16060" transform="translate(178.957)">
            <rect id="Rectángulo_3913" data-name="Rectángulo 3913" width="0.472" height="9.663" fill="#604053"/>
          </g>
          <g id="Grupo_16061" data-name="Grupo 16061" transform="translate(159.394)">
            <rect id="Rectángulo_3914" data-name="Rectángulo 3914" width="0.472" height="9.663" fill="#604053"/>
          </g>
          <g id="Grupo_16062" data-name="Grupo 16062" transform="translate(198.519)">
            <rect id="Rectángulo_3915" data-name="Rectángulo 3915" width="0.472" height="9.663" fill="#604053"/>
          </g>
          <g id="Grupo_16063" data-name="Grupo 16063" transform="translate(237.644)">
            <rect id="Rectángulo_3916" data-name="Rectángulo 3916" width="0.472" height="9.663" fill="#604053"/>
          </g>
          <g id="Grupo_16064" data-name="Grupo 16064" transform="translate(218.082)">
            <rect id="Rectángulo_3917" data-name="Rectángulo 3917" width="0.472" height="9.663" fill="#604053"/>
          </g>
          <g id="Grupo_16065" data-name="Grupo 16065" transform="translate(257.207)">
            <rect id="Rectángulo_3918" data-name="Rectángulo 3918" width="0.472" height="9.663" fill="#604053"/>
          </g>
          <g id="Grupo_16066" data-name="Grupo 16066" transform="translate(277.228)">
            <rect id="Rectángulo_3919" data-name="Rectángulo 3919" width="0.472" height="9.663" fill="#604053"/>
          </g>
          <g id="Grupo_16067" data-name="Grupo 16067" transform="translate(19.563)">
            <rect id="Rectángulo_3920" data-name="Rectángulo 3920" width="0.472" height="9.663" fill="#604053"/>
          </g>
          <g id="Grupo_16068" data-name="Grupo 16068">
            <rect id="Rectángulo_3921" data-name="Rectángulo 3921" width="0.472" height="9.663" fill="#604053"/>
          </g>
          <g id="Grupo_16069" data-name="Grupo 16069" transform="translate(39.125)">
            <rect id="Rectángulo_3922" data-name="Rectángulo 3922" width="0.472" height="9.663" fill="#604053"/>
          </g>
          <g id="Grupo_16070" data-name="Grupo 16070" transform="translate(59.146)">
            <rect id="Rectángulo_3923" data-name="Rectángulo 3923" width="0.472" height="9.663" fill="#604053"/>
          </g>
        </g>
        <g id="Grupo_16074" data-name="Grupo 16074" transform="translate(435.205 2490.754)">
          <g id="Grupo_16073" data-name="Grupo 16073" transform="translate(0)">
            <g id="Grupo_16072" data-name="Grupo 16072">
              <rect id="Rectángulo_3924" data-name="Rectángulo 3924" width="2.516" height="295.771" fill="#673ab7"/>
            </g>
          </g>
        </g>
        <path id="Trazado_25222" data-name="Trazado 25222" d="M503.533,414.823a3.447,3.447,0,1,1,4.679-1.368A3.448,3.448,0,0,1,503.533,414.823Z" transform="translate(-68.44 2222.746)" fill="#d1bcff"/>
        <g id="Grupo_16089" data-name="Grupo 16089" transform="translate(430.952 2497.036)">
          <g id="Grupo_16075" data-name="Grupo 16075" transform="translate(0 176.522)">
            <rect id="Rectángulo_3925" data-name="Rectángulo 3925" width="9.663" height="0.472" fill="#604053"/>
          </g>
          <g id="Grupo_16076" data-name="Grupo 16076" transform="translate(0 196.084)">
            <rect id="Rectángulo_3926" data-name="Rectángulo 3926" width="9.663" height="0.472" fill="#604053"/>
          </g>
          <g id="Grupo_16077" data-name="Grupo 16077" transform="translate(0 156.959)">
            <rect id="Rectángulo_3927" data-name="Rectángulo 3927" width="9.663" height="0.472" fill="#604053"/>
          </g>
          <g id="Grupo_16078" data-name="Grupo 16078" transform="translate(0 98.271)">
            <rect id="Rectángulo_3928" data-name="Rectángulo 3928" width="9.663" height="0.472" fill="#604053"/>
          </g>
          <g id="Grupo_16079" data-name="Grupo 16079" transform="translate(0 117.834)">
            <rect id="Rectángulo_3929" data-name="Rectángulo 3929" width="9.663" height="0.472" fill="#604053"/>
          </g>
          <g id="Grupo_16080" data-name="Grupo 16080" transform="translate(0 78.709)">
            <rect id="Rectángulo_3930" data-name="Rectángulo 3930" width="9.663" height="0.472" fill="#604053"/>
          </g>
          <g id="Grupo_16081" data-name="Grupo 16081" transform="translate(0 39.584)">
            <rect id="Rectángulo_3931" data-name="Rectángulo 3931" width="9.663" height="0.472" fill="#604053"/>
          </g>
          <g id="Grupo_16082" data-name="Grupo 16082" transform="translate(0 59.146)">
            <rect id="Rectángulo_3932" data-name="Rectángulo 3932" width="9.663" height="0.472" fill="#604053"/>
          </g>
          <g id="Grupo_16083" data-name="Grupo 16083" transform="translate(0 20.021)">
            <rect id="Rectángulo_3933" data-name="Rectángulo 3933" width="9.663" height="0.472" fill="#604053"/>
          </g>
          <g id="Grupo_16084" data-name="Grupo 16084">
            <rect id="Rectángulo_3934" data-name="Rectángulo 3934" width="9.663" height="0.472" fill="#604053"/>
          </g>
          <g id="Grupo_16085" data-name="Grupo 16085" transform="translate(0 257.666)">
            <rect id="Rectángulo_3935" data-name="Rectángulo 3935" width="9.663" height="0.472" fill="#604053"/>
          </g>
          <g id="Grupo_16086" data-name="Grupo 16086" transform="translate(0 277.228)">
            <rect id="Rectángulo_3936" data-name="Rectángulo 3936" width="9.663" height="0.472" fill="#604053"/>
          </g>
          <g id="Grupo_16087" data-name="Grupo 16087" transform="translate(0 238.103)">
            <rect id="Rectángulo_3937" data-name="Rectángulo 3937" width="9.663" height="0.472" fill="#604053"/>
          </g>
          <g id="Grupo_16088" data-name="Grupo 16088" transform="translate(0 218.082)">
            <rect id="Rectángulo_3938" data-name="Rectángulo 3938" width="9.663" height="0.472" fill="#604053"/>
          </g>
        </g>
        <g id="Grupo_16090" data-name="Grupo 16090" transform="translate(424.726 2613.141)">
          <path id="Trazado_25223" data-name="Trazado 25223" d="M491.532,385.186h.4v3.46h-.42v-3l-.83.72v-.454Z" transform="translate(-490.679 -385.186)" fill="#604053"/>
        </g>
        <g id="Grupo_16091" data-name="Grupo 16091" transform="translate(424.184 2593.371)">
          <path id="Trazado_25224" data-name="Trazado 25224" d="M490.592,362.8h1.722v.391H489.98v-.322l1.386-1.433a1.636,1.636,0,0,0,.312-.41.822.822,0,0,0,.086-.357.6.6,0,0,0-.174-.458.711.711,0,0,0-.925.015.762.762,0,0,0-.176.557v.256l-.426-.039v-.214a1.091,1.091,0,0,1,.293-.822,1.21,1.21,0,0,1,1.532-.021.913.913,0,0,1,.294.717,1.094,1.094,0,0,1-.116.5,2.188,2.188,0,0,1-.375.5Z" transform="translate(-489.98 -359.683)" fill="#604053"/>
        </g>
        <g id="Grupo_16092" data-name="Grupo 16092" transform="translate(424.187 2574.44)">
          <path id="Trazado_25225" data-name="Trazado 25225" d="M491.137,338.816q-1.152,0-1.153-1.231l.433-.022a1.079,1.079,0,0,0,.163.651.653.653,0,0,0,.557.216.766.766,0,0,0,.537-.187.691.691,0,0,0,.007-.976.708.708,0,0,0-.495-.179h-.172v-.361h.167a.511.511,0,0,0,.378-.16.537.537,0,0,0,.157-.394.487.487,0,0,0-.167-.381.611.611,0,0,0-.42-.147.673.673,0,0,0-.277.051.4.4,0,0,0-.176.151.707.707,0,0,0-.088.22,1.308,1.308,0,0,0-.027.281l-.433-.016a1.118,1.118,0,0,1,.26-.793.96.96,0,0,1,.739-.278,1.024,1.024,0,0,1,.708.254.809.809,0,0,1,.284.629.763.763,0,0,1-.137.45.782.782,0,0,1-.346.28.95.95,0,0,1,.486.317.888.888,0,0,1,.19.582.949.949,0,0,1-.331.754A1.236,1.236,0,0,1,491.137,338.816Z" transform="translate(-489.984 -335.263)" fill="#604053"/>
        </g>
        <g id="Grupo_16093" data-name="Grupo 16093" transform="translate(424.096 2554.523)">
          <path id="Trazado_25226" data-name="Trazado 25226" d="M492.376,311.848v.375h-.512v.667h-.409v-.667h-1.589v-.378l1.382-2.275h.616v2.278Zm-2.087,0h1.167v-1.978Z" transform="translate(-489.867 -309.57)" fill="#604053"/>
        </g>
        <g id="Grupo_16094" data-name="Grupo 16094" transform="translate(424.243 2535.178)">
          <path id="Trazado_25227" data-name="Trazado 25227" d="M491.068,285.793a1.285,1.285,0,0,1,.905.28,1.011,1.011,0,0,1,.3.779,1.1,1.1,0,0,1-.308.808,1.082,1.082,0,0,1-.805.312,1.271,1.271,0,0,1-.415-.067,1.133,1.133,0,0,1-.352-.193.884.884,0,0,1-.245-.327,1.074,1.074,0,0,1-.091-.448,1.564,1.564,0,0,1,.012-.17l.417-.035a1.672,1.672,0,0,0-.019.186.743.743,0,0,0,.06.309.524.524,0,0,0,.161.212.72.72,0,0,0,.218.114.786.786,0,0,0,.246.038.68.68,0,0,0,.515-.2.722.722,0,0,0,.195-.521.687.687,0,0,0-.2-.523.9.9,0,0,0-.638-.191h-.84l.205-1.537h1.74v.38h-1.4l-.108.8Z" transform="translate(-490.056 -284.614)" fill="#604053"/>
        </g>
        <g id="Grupo_16095" data-name="Grupo 16095" transform="translate(424.2 2515.831)">
          <path id="Trazado_25228" data-name="Trazado 25228" d="M492.3,261.873a1.118,1.118,0,0,1-.151.6,1.066,1.066,0,0,1-.417.406,1.2,1.2,0,0,1-.575.141,1.159,1.159,0,0,1-.826-.312A1.056,1.056,0,0,1,490,261.9a1.311,1.311,0,0,1,.288-.8l1.111-1.443h.481l-.922,1.163a1.066,1.066,0,0,1,.8.088,1.017,1.017,0,0,1,.389.381A1.136,1.136,0,0,1,492.3,261.873Zm-1.154.764a.721.721,0,0,0,.755-.771.729.729,0,0,0-.762-.767.711.711,0,0,0-.542.228.76.76,0,0,0-.21.555.736.736,0,0,0,.213.554A.758.758,0,0,0,491.149,262.636Z" transform="translate(-490.001 -259.658)" fill="#604053"/>
        </g>
        <g id="Grupo_16096" data-name="Grupo 16096" transform="translate(424.216 2495.611)">
          <path id="Trazado_25229" data-name="Trazado 25229" d="M490.021,233.575h2.27v.343l-1.622,2.978H490.2l1.636-2.943h-1.818Z" transform="translate(-490.021 -233.575)" fill="#604053"/>
        </g>
        <g id="Grupo_16097" data-name="Grupo 16097" transform="translate(455.282 2643.322)">
          <path id="Trazado_25230" data-name="Trazado 25230" d="M530.949,424.12h.4v3.46h-.421v-3l-.83.72v-.454Z" transform="translate(-530.096 -424.12)" fill="#604053"/>
        </g>
        <g id="Grupo_16098" data-name="Grupo 16098" transform="translate(475.03 2643.296)">
          <path id="Trazado_25231" data-name="Trazado 25231" d="M556.183,427.208h1.723v.391h-2.335v-.322l1.386-1.433a1.652,1.652,0,0,0,.312-.411.828.828,0,0,0,.086-.357.6.6,0,0,0-.175-.458.711.711,0,0,0-.925.015.767.767,0,0,0-.176.557v.256l-.425-.04v-.214a1.1,1.1,0,0,1,.292-.822,1.073,1.073,0,0,1,.781-.284,1.085,1.085,0,0,1,.751.263.916.916,0,0,1,.293.718,1.081,1.081,0,0,1-.116.5,2.185,2.185,0,0,1-.375.5Z" transform="translate(-555.571 -424.087)" fill="#604053"/>
        </g>
        <g id="Grupo_16099" data-name="Grupo 16099" transform="translate(492.626 2643.275)">
          <path id="Trazado_25232" data-name="Trazado 25232" d="M579.423,427.613q-1.154,0-1.153-1.231l.433-.023a1.084,1.084,0,0,0,.162.651.655.655,0,0,0,.558.216.767.767,0,0,0,.537-.187.632.632,0,0,0,.2-.489.622.622,0,0,0-.2-.486.707.707,0,0,0-.5-.18H579.3v-.361h.167a.513.513,0,0,0,.378-.16.535.535,0,0,0,.157-.393.485.485,0,0,0-.167-.381.613.613,0,0,0-.421-.148.671.671,0,0,0-.276.052.386.386,0,0,0-.176.151.7.7,0,0,0-.089.22,1.3,1.3,0,0,0-.027.28l-.433-.015a1.12,1.12,0,0,1,.26-.794.961.961,0,0,1,.738-.278,1.028,1.028,0,0,1,.709.253.81.81,0,0,1,.284.629.754.754,0,0,1-.138.45.784.784,0,0,1-.346.281.951.951,0,0,1,.487.316.89.89,0,0,1,.189.583.951.951,0,0,1-.33.754A1.243,1.243,0,0,1,579.423,427.613Z" transform="translate(-578.27 -424.06)" fill="#604053"/>
        </g>
        <g id="Grupo_16100" data-name="Grupo 16100" transform="translate(513.909 2643.392)">
          <path id="Trazado_25233" data-name="Trazado 25233" d="M608.234,426.488v.375h-.512v.667h-.409v-.667h-1.589v-.378l1.382-2.276h.615v2.278Zm-2.088,0h1.167V424.51Z" transform="translate(-605.725 -424.21)" fill="#604053"/>
        </g>
        <g id="Grupo_16101" data-name="Grupo 16101" transform="translate(533.338 2643.373)">
          <path id="Trazado_25234" data-name="Trazado 25234" d="M631.8,425.365a1.288,1.288,0,0,1,.905.28,1.014,1.014,0,0,1,.3.779,1.1,1.1,0,0,1-.308.808,1.083,1.083,0,0,1-.805.312,1.282,1.282,0,0,1-.416-.067,1.122,1.122,0,0,1-.351-.193.882.882,0,0,1-.245-.327,1.072,1.072,0,0,1-.091-.448,1.542,1.542,0,0,1,.012-.17l.417-.035a1.662,1.662,0,0,0-.019.186.751.751,0,0,0,.06.309.527.527,0,0,0,.161.211.726.726,0,0,0,.218.114.787.787,0,0,0,.247.038.679.679,0,0,0,.515-.2.721.721,0,0,0,.195-.521.687.687,0,0,0-.2-.523.906.906,0,0,0-.638-.192h-.839l.205-1.537h1.74v.38h-1.4l-.108.8Z" transform="translate(-630.788 -424.186)" fill="#604053"/>
        </g>
        <g id="Grupo_16102" data-name="Grupo 16102" transform="translate(552.853 2643.373)">
          <path id="Trazado_25235" data-name="Trazado 25235" d="M658.265,426.4a1.122,1.122,0,0,1-.151.6,1.058,1.058,0,0,1-.417.405,1.188,1.188,0,0,1-.576.142,1.161,1.161,0,0,1-.825-.312,1.056,1.056,0,0,1-.333-.805,1.307,1.307,0,0,1,.288-.8l1.111-1.443h.481l-.922,1.163a1.044,1.044,0,0,1,.288-.04,1.06,1.06,0,0,1,.509.127,1.018,1.018,0,0,1,.389.381A1.136,1.136,0,0,1,658.265,426.4Zm-1.154.764a.722.722,0,0,0,.755-.771.729.729,0,0,0-.762-.766.714.714,0,0,0-.543.228.762.762,0,0,0-.209.555.731.731,0,0,0,.213.554A.759.759,0,0,0,657.111,427.164Z" transform="translate(-655.963 -424.186)" fill="#604053"/>
        </g>
        <g id="Grupo_16103" data-name="Grupo 16103" transform="translate(572.496 2643.392)">
          <path id="Trazado_25236" data-name="Trazado 25236" d="M681.3,424.21h2.271v.342l-1.622,2.978h-.467l1.636-2.943H681.3Z" transform="translate(-681.302 -424.21)" fill="#604053"/>
        </g>
        <text id="Positivo_Aumenta" data-name="Positivo
Aumenta" transform="translate(489.872 2572.037)" fill="#12263f" font-size="16" font-family="SegoeUI-Bold, Segoe UI" font-weight="700"><tspan x="-29.895" y="0">Positivo</tspan><tspan x="-34.379" y="20">Aumenta</tspan></text>
        <text id="Negativo_Reduce" data-name="Negativo
Reduce" transform="translate(372.576 2688.94)" fill="#12263f" font-size="16" font-family="SegoeUI-Bold, Segoe UI" font-weight="700"><tspan x="-34.441" y="0">Negativo</tspan><tspan x="-27.313" y="20">Reduce</tspan></text>
        <g id="Grupo_16118" data-name="Grupo 16118" transform="translate(291.658 2643.275)">
          <g id="Grupo_16104" data-name="Grupo 16104" transform="translate(125.473 0.047)">
            <path id="Trazado_25237" data-name="Trazado 25237" d="M481.735,424.12h.4v3.46h-.421v-3l-.83.72v-.454Z" transform="translate(-480.882 -424.12)" fill="#990831"/>
          </g>
          <g id="Grupo_16105" data-name="Grupo 16105" transform="translate(105.186 0.021)">
            <path id="Trazado_25238" data-name="Trazado 25238" d="M455.325,427.208h1.722v.391h-2.334v-.322l1.386-1.433a1.626,1.626,0,0,0,.312-.411.818.818,0,0,0,.086-.357.6.6,0,0,0-.174-.458.711.711,0,0,0-.925.015.764.764,0,0,0-.176.557v.256l-.425-.04v-.214a1.1,1.1,0,0,1,.292-.822,1.21,1.21,0,0,1,1.532-.021.914.914,0,0,1,.294.718,1.092,1.092,0,0,1-.116.5,2.188,2.188,0,0,1-.375.5Z" transform="translate(-454.713 -424.087)" fill="#990831"/>
          </g>
          <g id="Grupo_16106" data-name="Grupo 16106" transform="translate(82.9)">
            <path id="Trazado_25239" data-name="Trazado 25239" d="M427.117,427.613q-1.152,0-1.153-1.231l.433-.023a1.083,1.083,0,0,0,.162.651.655.655,0,0,0,.558.216.767.767,0,0,0,.537-.187.632.632,0,0,0,.2-.489.622.622,0,0,0-.2-.486.707.707,0,0,0-.5-.18h-.171v-.361h.167a.513.513,0,0,0,.378-.16.535.535,0,0,0,.157-.393.485.485,0,0,0-.167-.381.613.613,0,0,0-.42-.148.673.673,0,0,0-.277.052.387.387,0,0,0-.176.151.705.705,0,0,0-.088.22,1.3,1.3,0,0,0-.027.28l-.433-.015a1.12,1.12,0,0,1,.26-.794.961.961,0,0,1,.738-.278,1.028,1.028,0,0,1,.709.253.81.81,0,0,1,.284.629.759.759,0,0,1-.137.45.793.793,0,0,1-.346.281.949.949,0,0,1,.486.316.89.89,0,0,1,.189.583.951.951,0,0,1-.33.754A1.243,1.243,0,0,1,427.117,427.613Z" transform="translate(-425.964 -424.06)" fill="#990831"/>
          </g>
          <g id="Grupo_16107" data-name="Grupo 16107" transform="translate(62.775 0.116)">
            <path id="Trazado_25240" data-name="Trazado 25240" d="M402.512,426.488v.375H402v.667h-.408v-.667H400v-.378l1.381-2.276H402v2.278Zm-2.087,0h1.168V424.51Z" transform="translate(-400.003 -424.21)" fill="#990831"/>
          </g>
          <g id="Grupo_16108" data-name="Grupo 16108" transform="translate(43.595 0.098)">
            <path id="Trazado_25241" data-name="Trazado 25241" d="M376.272,425.365a1.287,1.287,0,0,1,.905.28,1.011,1.011,0,0,1,.3.779,1.1,1.1,0,0,1-.307.808,1.083,1.083,0,0,1-.805.312,1.274,1.274,0,0,1-.416-.067,1.106,1.106,0,0,1-.351-.193.885.885,0,0,1-.246-.327,1.074,1.074,0,0,1-.091-.448,1.561,1.561,0,0,1,.012-.17l.418-.035a1.736,1.736,0,0,0-.019.186.749.749,0,0,0,.06.309.534.534,0,0,0,.161.211.729.729,0,0,0,.219.114.78.78,0,0,0,.246.038.679.679,0,0,0,.515-.2.718.718,0,0,0,.195-.521.684.684,0,0,0-.2-.523.9.9,0,0,0-.638-.192h-.84l.205-1.537h1.74v.38h-1.4l-.109.8Z" transform="translate(-375.26 -424.186)" fill="#990831"/>
          </g>
          <g id="Grupo_16109" data-name="Grupo 16109" transform="translate(23.241 0.098)">
            <path id="Trazado_25242" data-name="Trazado 25242" d="M351.305,426.4a1.12,1.12,0,0,1-.151.6,1.055,1.055,0,0,1-.418.405,1.186,1.186,0,0,1-.575.142,1.159,1.159,0,0,1-.825-.312,1.056,1.056,0,0,1-.333-.805,1.3,1.3,0,0,1,.288-.8l1.111-1.443h.481l-.922,1.163a1.043,1.043,0,0,1,.288-.04,1.06,1.06,0,0,1,.509.127,1.019,1.019,0,0,1,.389.381A1.143,1.143,0,0,1,351.305,426.4Zm-1.153.764a.721.721,0,0,0,.754-.771.728.728,0,0,0-.761-.766.714.714,0,0,0-.543.228.762.762,0,0,0-.209.555.731.731,0,0,0,.213.554A.757.757,0,0,0,350.152,427.164Z" transform="translate(-349.004 -424.186)" fill="#990831"/>
          </g>
          <g id="Grupo_16110" data-name="Grupo 16110" transform="translate(3.984 0.116)">
            <path id="Trazado_25243" data-name="Trazado 25243" d="M324.162,424.21h2.271v.342l-1.623,2.978h-.467l1.637-2.943h-1.819Z" transform="translate(-324.162 -424.21)" fill="#990831"/>
          </g>
          <g id="Grupo_16111" data-name="Grupo 16111" transform="translate(121.546 1.56)">
            <path id="Trazado_25244" data-name="Trazado 25244" d="M475.817,426.506v-.433h2.171v.433Z" transform="translate(-475.817 -426.073)" fill="#990831"/>
          </g>
          <g id="Grupo_16112" data-name="Grupo 16112" transform="translate(101.045 1.56)">
            <path id="Trazado_25245" data-name="Trazado 25245" d="M449.37,426.506v-.433h2.171v.433Z" transform="translate(-449.37 -426.073)" fill="#990831"/>
          </g>
          <g id="Grupo_16113" data-name="Grupo 16113" transform="translate(78.698 1.56)">
            <path id="Trazado_25246" data-name="Trazado 25246" d="M420.543,426.506v-.433h2.171v.433Z" transform="translate(-420.543 -426.073)" fill="#990831"/>
          </g>
          <g id="Grupo_16114" data-name="Grupo 16114" transform="translate(58.791 1.56)">
            <path id="Trazado_25247" data-name="Trazado 25247" d="M394.863,426.506v-.433h2.171v.433Z" transform="translate(-394.863 -426.073)" fill="#990831"/>
          </g>
          <g id="Grupo_16115" data-name="Grupo 16115" transform="translate(39.442 1.56)">
            <path id="Trazado_25248" data-name="Trazado 25248" d="M369.9,426.506v-.433h2.171v.433Z" transform="translate(-369.903 -426.073)" fill="#990831"/>
          </g>
          <g id="Grupo_16116" data-name="Grupo 16116" transform="translate(19.349 1.56)">
            <path id="Trazado_25249" data-name="Trazado 25249" d="M343.983,426.506v-.433h2.171v.433Z" transform="translate(-343.983 -426.073)" fill="#990831"/>
          </g>
          <g id="Grupo_16117" data-name="Grupo 16117" transform="translate(0 1.56)">
            <path id="Trazado_25250" data-name="Trazado 25250" d="M319.023,426.506v-.433h2.171v.433Z" transform="translate(-319.023 -426.073)" fill="#990831"/>
          </g>
        </g>
        <g id="Grupo_16134" data-name="Grupo 16134" transform="translate(420.609 2652.74)">
          <g id="Grupo_16122" data-name="Grupo 16122" transform="translate(3.574 0)">
            <g id="Grupo_16119" data-name="Grupo 16119" transform="translate(0.542)">
              <path id="Trazado_25251" data-name="Trazado 25251" d="M491.532,436.269h.4v3.46h-.42v-3l-.83.72V437Z" transform="translate(-490.679 -436.269)" fill="#990831"/>
            </g>
            <g id="Grupo_16120" data-name="Grupo 16120" transform="translate(0 19.299)">
              <path id="Trazado_25252" data-name="Trazado 25252" d="M490.592,464.285h1.722v.391H489.98v-.322l1.386-1.433a1.61,1.61,0,0,0,.312-.41.817.817,0,0,0,.086-.357.6.6,0,0,0-.174-.458.711.711,0,0,0-.925.015.764.764,0,0,0-.176.557v.256l-.426-.04v-.214a1.093,1.093,0,0,1,.293-.822,1.211,1.211,0,0,1,1.532-.021.914.914,0,0,1,.294.718,1.091,1.091,0,0,1-.116.5,2.188,2.188,0,0,1-.375.5Z" transform="translate(-489.98 -461.164)" fill="#990831"/>
            </g>
            <g id="Grupo_16121" data-name="Grupo 16121" transform="translate(0.003 38.604)">
              <path id="Trazado_25253" data-name="Trazado 25253" d="M491.137,489.622q-1.152,0-1.153-1.231l.433-.023a1.077,1.077,0,0,0,.163.651.65.65,0,0,0,.557.216.769.769,0,0,0,.537-.186.691.691,0,0,0,.007-.976.7.7,0,0,0-.495-.179h-.172v-.361h.167a.511.511,0,0,0,.378-.16.538.538,0,0,0,.157-.394.487.487,0,0,0-.167-.381.611.611,0,0,0-.42-.147.673.673,0,0,0-.277.051.4.4,0,0,0-.176.151.706.706,0,0,0-.088.22,1.3,1.3,0,0,0-.027.28l-.433-.015a1.121,1.121,0,0,1,.26-.794.963.963,0,0,1,.739-.278,1.024,1.024,0,0,1,.708.253.809.809,0,0,1,.284.629.759.759,0,0,1-.137.45.778.778,0,0,1-.346.281.946.946,0,0,1,.486.317.888.888,0,0,1,.19.582.949.949,0,0,1-.331.754A1.236,1.236,0,0,1,491.137,489.622Z" transform="translate(-489.984 -486.068)" fill="#990831"/>
            </g>
          </g>
          <g id="Grupo_16123" data-name="Grupo 16123" transform="translate(3.487 60.775)">
            <path id="Trazado_25254" data-name="Trazado 25254" d="M492.376,516.947v.375h-.512v.667h-.409v-.667h-1.589v-.377l1.382-2.275h.616v2.278Zm-2.087,0h1.167v-1.978Z" transform="translate(-489.867 -514.669)" fill="#990831"/>
          </g>
          <g id="Grupo_16124" data-name="Grupo 16124" transform="translate(3.633 80.522)">
            <path id="Trazado_25255" data-name="Trazado 25255" d="M491.068,541.32a1.288,1.288,0,0,1,.905.28,1.013,1.013,0,0,1,.3.779,1.1,1.1,0,0,1-.308.808,1.081,1.081,0,0,1-.805.312,1.272,1.272,0,0,1-.415-.067,1.119,1.119,0,0,1-.352-.194.875.875,0,0,1-.245-.326,1.075,1.075,0,0,1-.091-.448,1.539,1.539,0,0,1,.012-.17l.417-.036a1.681,1.681,0,0,0-.019.187.745.745,0,0,0,.06.308.529.529,0,0,0,.161.212.74.74,0,0,0,.218.114.786.786,0,0,0,.246.037.681.681,0,0,0,.515-.2.722.722,0,0,0,.195-.521.69.69,0,0,0-.2-.524.906.906,0,0,0-.638-.191h-.84l.205-1.537h1.74v.379h-1.4l-.108.8Z" transform="translate(-490.056 -540.142)" fill="#990831"/>
          </g>
          <g id="Grupo_16125" data-name="Grupo 16125" transform="translate(3.591 100.079)">
            <path id="Trazado_25256" data-name="Trazado 25256" d="M492.3,567.586a1.117,1.117,0,0,1-.151.6,1.066,1.066,0,0,1-.417.406,1.2,1.2,0,0,1-.575.141,1.158,1.158,0,0,1-.826-.312,1.055,1.055,0,0,1-.333-.805,1.312,1.312,0,0,1,.288-.8l1.111-1.443h.481l-.922,1.163a1.066,1.066,0,0,1,.8.088,1.018,1.018,0,0,1,.389.381A1.136,1.136,0,0,1,492.3,567.586Zm-1.154.764a.769.769,0,1,0-.007-1.537.711.711,0,0,0-.542.228.76.76,0,0,0-.21.555.736.736,0,0,0,.213.554A.758.758,0,0,0,491.149,568.349Z" transform="translate(-490.001 -565.371)" fill="#990831"/>
          </g>
          <g id="Grupo_16126" data-name="Grupo 16126" transform="translate(3.606 119.726)">
            <path id="Trazado_25257" data-name="Trazado 25257" d="M490.021,590.715h2.27v.342l-1.622,2.978H490.2l1.636-2.943h-1.818Z" transform="translate(-490.021 -590.715)" fill="#990831"/>
          </g>
          <g id="Grupo_16127" data-name="Grupo 16127" transform="translate(0 1.514)">
            <path id="Trazado_25258" data-name="Trazado 25258" d="M485.369,438.655v-.433h2.171v.433Z" transform="translate(-485.369 -438.222)" fill="#990831"/>
          </g>
          <g id="Grupo_16128" data-name="Grupo 16128" transform="translate(0 21.074)">
            <path id="Trazado_25259" data-name="Trazado 25259" d="M485.369,463.887v-.433h2.171v.433Z" transform="translate(-485.369 -463.454)" fill="#990831"/>
          </g>
          <g id="Grupo_16129" data-name="Grupo 16129" transform="translate(0 40.164)">
            <path id="Trazado_25260" data-name="Trazado 25260" d="M485.369,488.513v-.433h2.171v.433Z" transform="translate(-485.369 -488.081)" fill="#990831"/>
          </g>
          <g id="Grupo_16130" data-name="Grupo 16130" transform="translate(0 62.162)">
            <path id="Trazado_25261" data-name="Trazado 25261" d="M485.369,516.891v-.433h2.171v.433Z" transform="translate(-485.369 -516.458)" fill="#990831"/>
          </g>
          <g id="Grupo_16131" data-name="Grupo 16131" transform="translate(0 81.984)">
            <path id="Trazado_25262" data-name="Trazado 25262" d="M485.369,542.461v-.433h2.171v.433Z" transform="translate(-485.369 -542.028)" fill="#990831"/>
          </g>
          <g id="Grupo_16132" data-name="Grupo 16132" transform="translate(0 101.982)">
            <path id="Trazado_25263" data-name="Trazado 25263" d="M485.369,568.257v-.432h2.171v.432Z" transform="translate(-485.369 -567.825)" fill="#990831"/>
          </g>
          <g id="Grupo_16133" data-name="Grupo 16133" transform="translate(0 121.169)">
            <path id="Trazado_25264" data-name="Trazado 25264" d="M485.369,593.01v-.433h2.171v.433Z" transform="translate(-485.369 -592.577)" fill="#990831"/>
          </g>
        </g>
      </g>
    </g>
  </g>
</svg>
