<svg xmlns="http://www.w3.org/2000/svg" xmlns:xlink="http://www.w3.org/1999/xlink" width="400" height="389" viewBox="0 0 400 389">
  <defs>
    <clipPath id="clip-path">
      <path id="Trazado_25125" data-name="Trazado 25125" d="M886.675,1148.446c-12.986-9.217-26.49-16.569-41-19.754q-.856,2.423-1.733,4.842c-7.769,6.4-19.411.417-25.914-5.731-.033-.033-.056-.068-.086-.1-.7.075-1.4.166-2.1.26,0-.125-.006-.249-.006-.374-20.114,1.858-37.489,12.211-53.7,25.75-17.792,14.859-31.925,33.559-45.34,52.464a80.166,80.166,0,0,0,18.821,20.448c1.542,1.178,19.049-15.46,34.769-30.936q-3.258,26.24-6.513,52.477c16.964.067,33.015.915,48.943,1.869,1.222-.517,2.462-1,3.7-1.492,2.866-1.131,5.8-2.39,7.884-4.746a1.559,1.559,0,0,1,2.421,0c2.321,2.435,4.392,5.11,6.78,7.481,14.034.807,28.238,1.47,43.148,1.528q-.348-19.714-.984-39.423c-.271-8.42-.467-18.32-1.445-28.351,18.279,15.52,42.855,35.878,44.518,34.388a80.193,80.193,0,0,0,17.159-21.863C921.137,1179.4,905.578,1161.863,886.675,1148.446Z" transform="translate(-716.792 -1127.589)" fill="#d1bcff"/>
    </clipPath>
  </defs>
  <g id="Grupo_1079035" data-name="Grupo 1079035" transform="translate(-1021 -11800)">
    <path id="Trazado_841460" data-name="Trazado 841460" d="M20,0H380c11.046,0,20,7.318,20,16.345V372.655c0,9.027-8.954,16.345-20,16.345H20c-11.046,0-20-7.318-20-16.345V16.345C0,7.318,8.954,0,20,0Z" transform="translate(1021 11800)" fill="#ffd54f"/>
    <path id="Trazado_842378" data-name="Trazado 842378" d="M100.318,26V9.2h5.063V26Zm15.691,0V19.449a2.912,2.912,0,0,0-.334-1.6,1.22,1.22,0,0,0-1.084-.486,1.173,1.173,0,0,0-1.008.5,2.15,2.15,0,0,0-.363,1.289V26h-4.992V14h4.992v1.875h.047a4.237,4.237,0,0,1,1.605-1.6,4.386,4.386,0,0,1,2.191-.568q3.938,0,3.938,4.969V26Zm17.133-.34a4.706,4.706,0,0,1-1.512.457,14.292,14.292,0,0,1-2.379.176,7.317,7.317,0,0,1-3.393-.768,5.6,5.6,0,0,1-2.314-2.15,5.971,5.971,0,0,1-.82-3.105,6.8,6.8,0,0,1,.873-3.533,5.691,5.691,0,0,1,2.49-2.25,8.543,8.543,0,0,1,3.75-.779,13.119,13.119,0,0,1,2.1.152,3.214,3.214,0,0,1,1.2.352V18.1a3.467,3.467,0,0,0-1.078-.516,4.331,4.331,0,0,0-1.3-.223,3.167,3.167,0,0,0-2.221.7,2.537,2.537,0,0,0-.756,1.963,2.49,2.49,0,0,0,.744,1.928,2.9,2.9,0,0,0,2.045.686,5.093,5.093,0,0,0,2.566-.668Zm11.016-7.383a4.8,4.8,0,0,0-1.559-.34q-2.473,0-2.473,2.859V26h-4.992V14h4.992v2.109h.047a3.747,3.747,0,0,1,1.3-1.729,3.342,3.342,0,0,1,1.969-.592,1.691,1.691,0,0,1,.715.141Zm5.742,3.141a1.686,1.686,0,0,0,.891,1.213,4.016,4.016,0,0,0,2.016.439,8.3,8.3,0,0,0,3.3-.668v3.164a11.877,11.877,0,0,1-4.406.727,6.952,6.952,0,0,1-4.887-1.605,5.7,5.7,0,0,1-1.746-4.418,7.289,7.289,0,0,1,.768-3.41,5.523,5.523,0,0,1,2.273-2.314,6.717,6.717,0,0,1,3.322-.838,6.537,6.537,0,0,1,3.188.727,4.84,4.84,0,0,1,2.01,2.039,6.542,6.542,0,0,1,.686,3.07v1.875Zm3-2.613q0-2.074-1.488-2.074a1.259,1.259,0,0,0-1.043.568,2.836,2.836,0,0,0-.492,1.506ZM174.6,26V19.086a2.206,2.206,0,0,0-.311-1.295,1.168,1.168,0,0,0-1.014-.428,1.266,1.266,0,0,0-1.078.521,2.386,2.386,0,0,0-.387,1.447V26h-4.992V19.2q0-1.84-1.254-1.84a1.327,1.327,0,0,0-1.148.533,2.578,2.578,0,0,0-.387,1.529V26h-4.992V14h4.992v1.9h.047a3.869,3.869,0,0,1,.9-1.025,5.261,5.261,0,0,1,1.389-.844,4.313,4.313,0,0,1,1.676-.322,4.241,4.241,0,0,1,2.15.5A3.908,3.908,0,0,1,171.65,15.8a4.277,4.277,0,0,1,1.688-1.553,5.029,5.029,0,0,1,2.344-.545,3.527,3.527,0,0,1,2.895,1.23,5.479,5.479,0,0,1,1.008,3.551V26Zm11.543-4.582a1.686,1.686,0,0,0,.891,1.213,4.016,4.016,0,0,0,2.016.439,8.3,8.3,0,0,0,3.3-.668v3.164a11.877,11.877,0,0,1-4.406.727,6.952,6.952,0,0,1-4.887-1.605,5.7,5.7,0,0,1-1.746-4.418,7.289,7.289,0,0,1,.768-3.41,5.523,5.523,0,0,1,2.273-2.314,6.717,6.717,0,0,1,3.322-.838,6.537,6.537,0,0,1,3.188.727,4.84,4.84,0,0,1,2.01,2.039,6.542,6.542,0,0,1,.686,3.07v1.875Zm3-2.613q0-2.074-1.488-2.074a1.259,1.259,0,0,0-1.043.568,2.836,2.836,0,0,0-.492,1.506ZM203.068,26V19.449a2.912,2.912,0,0,0-.334-1.6,1.22,1.22,0,0,0-1.084-.486,1.173,1.173,0,0,0-1.008.5,2.15,2.15,0,0,0-.363,1.289V26h-4.992V14h4.992v1.875h.047a4.237,4.237,0,0,1,1.605-1.6,4.386,4.386,0,0,1,2.191-.568q3.938,0,3.938,4.969V26Zm15.691-.164a4.864,4.864,0,0,1-1.113.311,10.178,10.178,0,0,1-1.863.146,4.476,4.476,0,0,1-3.264-1.148,4.359,4.359,0,0,1-1.178-3.27V17.457h-1.887V14h1.887V11.645l4.922-1.359V14h2.5v3.457h-2.5v3.6q0,1.582,1.254,1.582a3.4,3.4,0,0,0,1.242-.258Zm14.906-6.047a6.249,6.249,0,0,1-1.834,4.77,8.473,8.473,0,0,1-10.219.041,6.061,6.061,0,0,1-1.822-4.67,6.256,6.256,0,0,1,.855-3.316,5.563,5.563,0,0,1,2.438-2.156,8.415,8.415,0,0,1,3.645-.75,8.151,8.151,0,0,1,3.7.785,5.715,5.715,0,0,1,2.4,2.18A5.935,5.935,0,0,1,233.666,19.789Zm-5.062.023q0-2.449-1.875-2.449t-1.875,2.566q0,2.707,1.9,2.707Q228.6,22.637,228.6,19.813Z" transform="translate(1055 12112)" fill="#12263f"/>
    <g id="Grupo_16011" data-name="Grupo 16011" transform="translate(392.988 10778.408)">
      <path id="Trazado_25113" data-name="Trazado 25113" d="M738.9,1127.534c13.94-10.364,30.5-10.349,44.623-6.16s26.86,12.075,40.943,16.381c19.285,5.9,40.916,4.829,61.695-3.04,11.709-4.435,24.394-14.72,37.8-12.531,19.376,3.161,17.786,28.5,16.991,43.167-1.487,27.487-16.744,55.106-36.6,73.166s-43.724,27.428-66.871,31.1c-12.306,1.954-24.618,2.405-36.339.34-29.582-5.212-61.142-22.5-77.782-48.505C705.349,1193.289,711.227,1148.107,738.9,1127.534Z" transform="translate(0.029 5.16)" fill="#f8f3ff"/>
      <g id="Grupo_16002" data-name="Grupo 16002" transform="translate(713.012 1135.985)">
        <path id="Trazado_25114" data-name="Trazado 25114" d="M829.588,1130.516c-.185.268-.365.539-.567.8-7.611,9.736-20.907,3.184-28.031-3.551-.033-.033-.056-.067-.086-.1a58.7,58.7,0,0,0-19.306,5.193c-17.441,8.406-23.328,22.781-25.677,41.67q-4.551,36.612-9.086,73.225c16.965.067,33.016.915,48.943,1.869,1.222-.517,2.462-1,3.7-1.492,2.866-1.131,5.8-2.39,7.884-4.747a1.559,1.559,0,0,1,2.421,0c2.321,2.435,4.392,5.11,6.781,7.481,14.034.807,28.238,1.47,43.148,1.528q-.348-19.714-.984-39.423C857.852,1185.809,857.791,1143.257,829.588,1130.516Z" transform="translate(-693.834 -1125.769)" fill="#673ab7"/>
        <path id="Trazado_25115" data-name="Trazado 25115" d="M816.829,1140.376a78.638,78.638,0,0,1-1-12.787c-20.114,1.858-37.489,12.211-53.7,25.75-17.792,14.859-31.925,33.559-45.34,52.464a80.166,80.166,0,0,0,18.821,20.448c2.706,2.067,54.589-50.745,59.678-55.834,6.738-6.738,11.373-13.845,17.641-20.954.779-.881,2.457-2.946,4.562-5.455Q817.119,1142.194,816.829,1140.376Z" transform="translate(-710.869 -1125.811)" fill="#673ab7"/>
        <path id="Trazado_25116" data-name="Trazado 25116" d="M843.033,1148.047c-12.986-9.217-26.49-16.57-41-19.754-2.562,7.251-5.223,14.485-8.268,21.548,6,6.055,10.921,12.167,17.555,17.833,5.474,4.675,61.341,53.252,63.876,50.978a80.193,80.193,0,0,0,17.159-21.863C877.495,1179,861.936,1161.464,843.033,1148.047Z" transform="translate(-667.226 -1125.411)" fill="#673ab7"/>
        <path id="Trazado_25117" data-name="Trazado 25117" d="M869.791,1173.94c-1.562-1.74-4.552-5.314-6.925-5.867-2.963-.689-5.414,2.551-7.58,4.449a131.2,131.2,0,0,0-15.064,15.589c-.871,1.065-1.775,2.308-1.606,3.675.163,1.32,1.271,2.292,2.3,3.131q2.158,1.751,4.316,3.505a7.619,7.619,0,0,0,3.465,1.918c4.833.74,10.043-7.332,13.266-10.256,3.83-3.476,9.8-8.9,8.757-14.739a2.269,2.269,0,0,0-.611-1.04C870.005,1174.183,869.9,1174.061,869.791,1173.94Z" transform="translate(-641.804 -1102.909)" fill="#e5e5e5"/>
        <path id="Trazado_25118" data-name="Trazado 25118" d="M734.109,1180.8c-3.377-2.573-11.427-11.654-14.973-6.693q-2.5,3.493-4.75,7.155c-.92,1.5-1.833,3.325-1.117,4.928a5.587,5.587,0,0,0,1.882,2q8.464,6.434,16.927,12.865a12.259,12.259,0,0,0,2.506,1.6c5.8,2.5,12.522-6.166,14.346-10.707C743.856,1188.394,739.035,1184.553,734.109,1180.8Z" transform="translate(-713.012 -1100.261)" fill="#e5e5e5"/>
        <g id="Grupo_16001" data-name="Grupo 16001" transform="translate(5.923 1.779)">
          <g id="Grupo_16000" data-name="Grupo 16000" clip-path="url(#clip-path)">
            <g id="Grupo_15999" data-name="Grupo 15999" transform="translate(28.052 -5.664)">
              <path id="Trazado_25119" data-name="Trazado 25119" d="M756.357,1207.6c2.4-2.788,6.146-4.016,8.885-6.469,4.1-3.671,5.372-9.454,6.99-14.717s4.385-10.932,9.63-12.61c1.9-.608,4.22-.511,5.605.927,1.938,2.015,1.062,5.36-.277,7.813-4.051,7.414-11.27,13.143-13.466,21.3-.945,3.51-.906,7.332-2.6,10.546-2.321,4.4-9.429,8.12-14.479,6.964C750.763,1220.006,753.5,1210.925,756.357,1207.6Z" transform="translate(-724.222 -1095.92)" fill="#d1bcff"/>
              <path id="Trazado_25120" data-name="Trazado 25120" d="M815.862,1166.03a6.339,6.339,0,0,1,5.731-3.05,5.185,5.185,0,0,1,4.657,4.269,9.028,9.028,0,0,1-1.276,4.93,67.587,67.587,0,0,1-6.773,11.6c-1.909,2.514-4.123,4.836-5.527,7.661-1.329,2.675-1.87,5.688-3.2,8.36-5.784,11.571-18.917-.86-12.79-10.2,3.131-4.775,7.495-7.58,12.138-10.566C814.322,1175.487,812.82,1170.965,815.862,1166.03Z" transform="translate(-700.449 -1101.867)" fill="#d1bcff"/>
              <path id="Trazado_25121" data-name="Trazado 25121" d="M844.7,1156.459c-2.8,3.156-6.317,5.667-8.747,9.112a18.782,18.782,0,0,0-2.793,15.307,3.1,3.1,0,0,0,1.2,2.018,2.818,2.818,0,0,0,1.564.277c3.378-.16,6.35-2.266,8.8-4.6s4.648-5,7.533-6.763c1.915-1.172,4.124-1.942,5.7-3.543,2.448-2.489,2.761-6.494,1.685-9.814-.807-2.489-4.85-10.673-7.8-11.071C848.45,1146.927,846.634,1154.278,844.7,1156.459Z" transform="translate(-679.184 -1110.711)" fill="#d1bcff"/>
              <path id="Trazado_25122" data-name="Trazado 25122" d="M820.708,1141.617c3.484-.5,7.805.323,9.062,3.609,1.152,3.016-1.014,6.311-3.551,8.307-4.03,3.172-9.208,4.74-12.929,8.268-3.023,2.863-4.819,6.765-7.392,10.036s-6.56,6.069-10.635,5.218c-3.842-.8-6.445-4.79-6.6-8.712-.292-7.238,6.1-14.89,12.057-18.4C806.525,1146.511,814.053,1142.561,820.708,1141.617Z" transform="translate(-704.099 -1114.046)" fill="#d1bcff"/>
              <path id="Trazado_25123" data-name="Trazado 25123" d="M763.4,1139a33.794,33.794,0,0,0-6.185,7.29c-1.569,2.788-2.3,6.22-1.185,9.219s4.414,5.259,7.525,4.511c2.13-.512,3.736-2.216,5.21-3.837l12.673-13.943c3.026-3.33,6.273-7.4,5.386-11.807-.983-4.886-7.7-8.387-11.967-5.293-1.725,1.252-2.675,3.98-3.922,5.671A69.138,69.138,0,0,1,763.4,1139Z" transform="translate(-722.898 -1123.974)" fill="#d1bcff"/>
              <path id="Trazado_25124" data-name="Trazado 25124" d="M737.447,1160.543c1.169-1.829,2.451-3.62,4.6-4.32a3.579,3.579,0,0,1,3.344.44c1.213,1,1.285,2.855.893,4.38s-1.142,2.976-1.225,4.547c-.144,2.7,2.167,5.77,3.288,8.158,1.346,2.871,2.338,5.978.818,9-1.608,3.194-4.569,3.331-7.544,1.775C733.577,1180.316,733.035,1167.444,737.447,1160.543Z" transform="translate(-734.693 -1105.812)" fill="#d1bcff"/>
            </g>
          </g>
        </g>
        <path id="Trazado_25126" data-name="Trazado 25126" d="M797.229,1131.224a46.609,46.609,0,0,1-17.842-4.077c2.236,3.712,3.324,8.07,5.616,11.786,1.294,2.1,2.473,4.258,3.626,6.432.127.162.27.309.389.477a20.652,20.652,0,0,1,2.382,4.739c.931,1.719,2.339,14.177,3.375,15.836,3.419-9.307,7.194-28.192,13.324-36.706A38.53,38.53,0,0,1,797.229,1131.224Z" transform="translate(-675.376 -1126.062)"/>
        <path id="Trazado_25127" data-name="Trazado 25127" d="M858.531,1247.584c-8.092.248-16.267.384-24.352-.13-4.272-.271-9.244-1.022-12.589-3.9-3.375-2.9-3.468-6.848-3.645-10.955-.24-5.552-.306-11.118-.3-16.674q.012-16.678,1.283-33.322l3.8-5.455a20.02,20.02,0,0,0,3.477-6.617,1.81,1.81,0,0,0,.036-.943,1.675,1.675,0,0,0-.762-.841c-2.44-1.555-5.658-.929-8.421-1.786-.249-.078-.552-.263-.484-.517.041-.155.207-.238.354-.3a46.253,46.253,0,0,1,7.111-2.534l11.195-2.8c2.343-.586,2.56-2.057,2.523-4.239-.085-4.762-1.478-9.822-2.291-14.509-.277-1.6-1.228-13.232-2.33-13.677a34.151,34.151,0,0,0-5.141-1.619c-.5-.116-1.014-.218-1.525-.315-3.7,9.3-8.451,22.286-13.512,30.966-.619,1.062-.7-2.1-1.235-3.452-2.188-5.541-4.242-11.14-6.058-16.814-.76-2.376-1.183-6.959-2.275-9.285-2.456-.148-4.906-.432-7.36-.671-2.282,10.709-4.826,22.694-6.853,33.447-.211,1.115-.36,2.427.431,3.24.834.859,2.788.893,3.9,1q4.689.451,9.377.9a6.092,6.092,0,0,1,3.487,1.08c-1.9.912-4.034,1.061-5.906,2.094a3.189,3.189,0,0,0-1.269,1.066c-.611,1.028-.056,2.336.558,3.363,1.724,2.88,3.925,5.542,5.268,8.582q-.8,18.7-1.376,37.416c-.251,8.216,2.062,20.537-7.44,24.029-4.982,1.829-10.446,1.669-15.664,1.55-10.3-.386-20.6-.981-30.891-1.474-5-.24-4.667,7.54.306,7.778,13.024.624,26.708,2.523,39.726,1.434a38.9,38.9,0,0,0,4.541-.66c5.137-1.056,9-.255,13.083-4.229,13.279,10.842,35.595,8.039,51.522,7.55C863.845,1255.208,863.542,1247.431,858.531,1247.584Z" transform="translate(-694.269 -1126.454)" fill="#e5e5e5"/>
        <path id="Trazado_25128" data-name="Trazado 25128" d="M750.621,1180.284a127,127,0,0,1,18.27-24.889" transform="translate(-691.687 -1110.044)" fill="none" stroke="#8ba8bb" stroke-miterlimit="10" stroke-width="1"/>
        <path id="Trazado_25129" data-name="Trazado 25129" d="M823.13,1171.56c.439-.237.16-.9-.163-1.285l-15.734-18.63" transform="translate(-659.587 -1112.17)" fill="none" stroke="#8ba8bb" stroke-miterlimit="10" stroke-width="1"/>
        <path id="Trazado_25130" data-name="Trazado 25130" d="M785.909,1241.512q2.313-51.737,4.624-103.473" transform="translate(-671.678 -1119.885)" fill="none" stroke="#000" stroke-miterlimit="10" stroke-width="1"/>
      </g>
      <g id="Grupo_16006" data-name="Grupo 16006" transform="translate(942.752 1125.436)">
        <g id="Grupo_16003" data-name="Grupo 16003" transform="translate(5.624 1.699)">
          <rect id="Rect치ngulo_3892" data-name="Rect치ngulo 3892" width="1.567" height="144.273" fill="#de5954"/>
        </g>
        <g id="Grupo_16005" data-name="Grupo 16005">
          <g id="Grupo_16004" data-name="Grupo 16004">
            <path id="Trazado_25131" data-name="Trazado 25131" d="M872.438,1126.614l-1.148,1.069-5.26-5.66-5.261,5.66-1.148-1.069,6.409-6.892Z" transform="translate(-859.622 -1119.722)" fill="#de5954"/>
          </g>
        </g>
      </g>
      <g id="Grupo_16010" data-name="Grupo 16010" transform="translate(771.946 1109.645)">
        <g id="Grupo_16007" data-name="Grupo 16007" transform="translate(0 5.623)">
          <rect id="Rect치ngulo_3893" data-name="Rect치ngulo 3893" width="144.273" height="1.567" fill="#de5954"/>
        </g>
        <g id="Grupo_16009" data-name="Grupo 16009" transform="translate(138.012)">
          <g id="Grupo_16008" data-name="Grupo 16008">
            <path id="Trazado_25132" data-name="Trazado 25132" d="M839.763,1122.461l-1.069-1.148,5.66-5.26-5.66-5.261,1.069-1.148,6.892,6.409Z" transform="translate(-838.694 -1109.645)" fill="#de5954"/>
          </g>
        </g>
      </g>
    </g>
  </g>
</svg>
