<svg xmlns="http://www.w3.org/2000/svg" xmlns:xlink="http://www.w3.org/1999/xlink" width="400" height="389" viewBox="0 0 400 389">
  <defs>
    <clipPath id="clip-path">
      <path id="Trazado_25104" data-name="Trazado 25104" d="M694.3,965.73c-12.935-9.18-26.384-16.5-40.841-19.674q-.852,2.414-1.726,4.824c-7.738,6.377-19.333.414-25.81-5.709-.033-.031-.056-.067-.086-.1-.7.075-1.394.165-2.09.259,0-.123-.006-.248-.006-.373C603.708,946.81,586.4,957.12,570.256,970.6c-17.72,14.8-31.8,33.424-45.158,52.253a79.872,79.872,0,0,0,18.746,20.366c1.536,1.174,18.972-15.4,34.629-30.812q-3.245,26.134-6.486,52.265c16.9.067,32.883.913,48.746,1.862,1.217-.515,2.452-1,3.686-1.484,2.854-1.127,5.776-2.38,7.852-4.729a1.554,1.554,0,0,1,2.411,0c2.311,2.427,4.375,5.089,6.753,7.451,13.979.8,28.126,1.464,42.976,1.523q-.349-19.637-.98-39.265c-.272-8.387-.467-18.246-1.439-28.238,18.2,15.459,42.681,35.734,44.337,34.252a79.913,79.913,0,0,0,17.09-21.775C728.622,996.556,713.127,979.093,694.3,965.73Z" transform="translate(-525.098 -944.957)" fill="#d1bcff"/>
    </clipPath>
  </defs>
  <g id="Grupo_1079034" data-name="Grupo 1079034" transform="translate(-600 -12228.486)">
    <path id="Trazado_841461" data-name="Trazado 841461" d="M20,0H380c11.046,0,20,7.318,20,16.345V372.655c0,9.027-8.954,16.345-20,16.345H20c-11.046,0-20-7.318-20-16.345V16.345C0,7.318,8.954,0,20,0Z" transform="translate(600 12228.486)" fill="#ffd54f"/>
    <path id="Trazado_842377" data-name="Trazado 842377" d="M110.713,13.156V16.18h4.992v3.961h-4.992V26H105.65V9.2h10.535v3.961ZM127.2,18.277a4.8,4.8,0,0,0-1.559-.34q-2.473,0-2.473,2.859V26h-4.992V14h4.992v2.109h.047a3.747,3.747,0,0,1,1.3-1.729,3.342,3.342,0,0,1,1.969-.592,1.691,1.691,0,0,1,.715.141Zm5.742,3.141a1.686,1.686,0,0,0,.891,1.213,4.016,4.016,0,0,0,2.016.439,8.3,8.3,0,0,0,3.3-.668v3.164a11.877,11.877,0,0,1-4.406.727,6.952,6.952,0,0,1-4.887-1.605,5.7,5.7,0,0,1-1.746-4.418,7.289,7.289,0,0,1,.768-3.41,5.523,5.523,0,0,1,2.273-2.314,6.717,6.717,0,0,1,3.322-.838,6.537,6.537,0,0,1,3.188.727,4.84,4.84,0,0,1,2.01,2.039,6.542,6.542,0,0,1,.686,3.07v1.875Zm3-2.613q0-2.074-1.488-2.074a1.259,1.259,0,0,0-1.043.568,2.836,2.836,0,0,0-.492,1.506Zm16.031,6.855a4.706,4.706,0,0,1-1.512.457,14.292,14.292,0,0,1-2.379.176,7.317,7.317,0,0,1-3.393-.768,5.6,5.6,0,0,1-2.314-2.15,5.971,5.971,0,0,1-.82-3.105,6.8,6.8,0,0,1,.873-3.533,5.691,5.691,0,0,1,2.49-2.25,8.543,8.543,0,0,1,3.75-.779,13.119,13.119,0,0,1,2.1.152,3.214,3.214,0,0,1,1.2.352V18.1a3.467,3.467,0,0,0-1.078-.516,4.331,4.331,0,0,0-1.3-.223,3.167,3.167,0,0,0-2.221.7,2.537,2.537,0,0,0-.756,1.963,2.49,2.49,0,0,0,.744,1.928,2.9,2.9,0,0,0,2.045.686,5.093,5.093,0,0,0,2.566-.668Zm9.633.34V24.148h-.047a6.568,6.568,0,0,1-1.119,1.254,4.306,4.306,0,0,1-1.125.645,3.978,3.978,0,0,1-1.459.246,3.63,3.63,0,0,1-3-1.277,5.9,5.9,0,0,1-1.031-3.773V14h4.992v6.867q0,1.77,1.324,1.77a1.3,1.3,0,0,0,1.1-.48,2.19,2.19,0,0,0,.369-1.359V14H166.6V26Zm11.684-4.582a1.686,1.686,0,0,0,.891,1.213,4.016,4.016,0,0,0,2.016.439,8.3,8.3,0,0,0,3.3-.668v3.164a11.877,11.877,0,0,1-4.406.727,6.952,6.952,0,0,1-4.887-1.605,5.7,5.7,0,0,1-1.746-4.418,7.289,7.289,0,0,1,.768-3.41,5.523,5.523,0,0,1,2.273-2.314,6.717,6.717,0,0,1,3.322-.838,6.537,6.537,0,0,1,3.188.727,4.84,4.84,0,0,1,2.01,2.039,6.542,6.542,0,0,1,.686,3.07v1.875Zm3-2.613q0-2.074-1.488-2.074a1.259,1.259,0,0,0-1.043.568,2.836,2.836,0,0,0-.492,1.506ZM190.213,26V19.449a2.912,2.912,0,0,0-.334-1.6,1.22,1.22,0,0,0-1.084-.486,1.173,1.173,0,0,0-1.008.5,2.15,2.15,0,0,0-.363,1.289V26h-4.992V14h4.992v1.875h.047a4.237,4.237,0,0,1,1.605-1.6,4.386,4.386,0,0,1,2.191-.568q3.938,0,3.938,4.969V26Zm17.133-.34a4.706,4.706,0,0,1-1.512.457,14.292,14.292,0,0,1-2.379.176,7.317,7.317,0,0,1-3.393-.768,5.6,5.6,0,0,1-2.314-2.15,5.971,5.971,0,0,1-.82-3.105,6.8,6.8,0,0,1,.873-3.533,5.691,5.691,0,0,1,2.49-2.25,8.543,8.543,0,0,1,3.75-.779,13.119,13.119,0,0,1,2.1.152,3.214,3.214,0,0,1,1.2.352V18.1a3.467,3.467,0,0,0-1.078-.516,4.331,4.331,0,0,0-1.3-.223,3.167,3.167,0,0,0-2.221.7,2.537,2.537,0,0,0-.756,1.963,2.49,2.49,0,0,0,.744,1.928,2.9,2.9,0,0,0,2.045.686,5.093,5.093,0,0,0,2.566-.668Zm7.277-14.895a2.144,2.144,0,0,1-.768,1.711,3,3,0,0,1-2.021.656,2.929,2.929,0,0,1-2-.68,2.15,2.15,0,0,1-.779-1.687,2.081,2.081,0,0,1,.756-1.67,3.518,3.518,0,0,1,4.043,0A2.068,2.068,0,0,1,214.623,10.766ZM209.338,26V14h4.992V26Zm14.051,0V24.172h-.047a3.926,3.926,0,0,1-3.656,2.121,3.5,3.5,0,0,1-2.66-1.008,3.744,3.744,0,0,1-.961-2.7q0-3.539,4.348-4.1l2.977-.387a1.135,1.135,0,0,0-.527-.961,2.4,2.4,0,0,0-1.418-.375,9.34,9.34,0,0,0-4.254,1.148V14.668a11.38,11.38,0,0,1,2.438-.691,14.186,14.186,0,0,1,2.508-.27,6.3,6.3,0,0,1,4.436,1.307q1.377,1.307,1.377,4.365V26Zm-2.953-4.078a1.106,1.106,0,0,0,.311.809,1.184,1.184,0,0,0,.885.316,1.573,1.573,0,0,0,1.271-.586,2.27,2.27,0,0,0,.486-1.5V20.5l-1.687.234Q220.436,20.949,220.436,21.922Z" transform="translate(634 12540.486)" fill="#12263f"/>
    <path id="Trazado_25092" data-name="Trazado 25092" d="M657.424,1128.556c-17.241-1.426-29.612-12.336-37.412-24.761s-12.135-26.7-19.829-39.191c-10.536-17.1-27.409-30.537-48.123-38.328-11.671-4.389-27.923-5.047-36.508-15.509-12.4-15.115,5.458-33.009,15.7-43.453,19.2-19.572,48.784-30.178,75.509-30.615s50.737,8.27,70.459,20.756c10.485,6.638,19.988,14.4,27.392,23.661,18.685,23.364,30.9,57.058,26.228,87.452C725.782,1101.479,691.654,1131.389,657.424,1128.556Z" transform="translate(157.697 11375.689)" fill="#f8f3ff"/>
    <g id="Grupo_15997" data-name="Grupo 15997" transform="translate(677.37 12311.291)">
      <g id="Grupo_15987" data-name="Grupo 15987" transform="translate(7.247 12.223)">
        <path id="Trazado_25093" data-name="Trazado 25093" d="M637.561,947.872c-.183.267-.364.538-.565.794-7.58,9.7-20.823,3.171-27.918-3.537-.033-.031-.056-.067-.086-.1a58.481,58.481,0,0,0-19.228,5.172c-17.371,8.373-23.234,22.69-25.572,41.5q-4.532,36.462-9.051,72.929c16.9.067,32.883.913,48.746,1.862,1.217-.515,2.452-1,3.686-1.484,2.855-1.127,5.776-2.38,7.852-4.729a1.554,1.554,0,0,1,2.411,0c2.312,2.427,4.375,5.089,6.753,7.451,13.979.8,28.126,1.464,42.976,1.523q-.349-19.637-.98-39.265C665.712,1002.945,665.651,960.562,637.561,947.872Z" transform="translate(-502.353 -943.145)" fill="#673ab7"/>
        <path id="Trazado_25094" data-name="Trazado 25094" d="M624.733,957.693a78.278,78.278,0,0,1-.991-12.735C603.708,946.81,586.4,957.12,570.256,970.6c-17.72,14.8-31.8,33.424-45.158,52.253a79.872,79.872,0,0,0,18.746,20.366c2.7,2.058,54.369-50.541,59.438-55.609,6.713-6.713,11.328-13.791,17.572-20.87.774-.879,2.446-2.936,4.543-5.434Q625.021,959.505,624.733,957.693Z" transform="translate(-519.199 -943.186)" fill="#673ab7"/>
        <path id="Trazado_25095" data-name="Trazado 25095" d="M651.142,965.336c-12.935-9.18-26.384-16.5-40.841-19.675-2.55,7.222-5.2,14.427-8.234,21.462,5.982,6.031,10.877,12.117,17.485,17.761,5.452,4.656,61.094,53.038,63.62,50.775a79.913,79.913,0,0,0,17.09-21.775C685.464,996.161,669.969,978.7,651.142,965.336Z" transform="translate(-476.041 -942.791)" fill="#673ab7"/>
        <path id="Trazado_25096" data-name="Trazado 25096" d="M677.971,991.286c-1.556-1.734-4.532-5.294-6.9-5.845-2.951-.687-5.392,2.541-7.549,4.432a130.558,130.558,0,0,0-15,15.525c-.868,1.061-1.768,2.3-1.6,3.66.162,1.316,1.267,2.283,2.3,3.118l4.3,3.491a7.588,7.588,0,0,0,3.449,1.912c4.813.736,10-7.3,13.213-10.217,3.816-3.462,9.765-8.868,8.723-14.68a2.293,2.293,0,0,0-.609-1.035C678.187,991.526,678.079,991.406,677.971,991.286Z" transform="translate(-450.901 -920.538)" fill="#e5e5e5"/>
        <path id="Trazado_25097" data-name="Trazado 25097" d="M542.33,998.134c-3.363-2.561-11.379-11.607-14.913-6.666q-2.486,3.481-4.731,7.128c-.916,1.49-1.826,3.31-1.113,4.908a5.573,5.573,0,0,0,1.874,1.995l16.859,12.815a12.314,12.314,0,0,0,2.5,1.6c5.779,2.489,12.472-6.141,14.29-10.663C552.038,1005.7,547.237,1001.873,542.33,998.134Z" transform="translate(-521.318 -917.921)" fill="#e5e5e5"/>
        <g id="Grupo_15986" data-name="Grupo 15986" transform="translate(5.899 1.771)">
          <g id="Grupo_15985" data-name="Grupo 15985" clip-path="url(#clip-path)">
            <g id="Grupo_15984" data-name="Grupo 15984" transform="translate(27.939 -5.641)">
              <path id="Trazado_25098" data-name="Trazado 25098" d="M564.65,1024.83c2.388-2.777,6.121-4,8.849-6.441,4.088-3.658,5.352-9.417,6.962-14.66s4.367-10.888,9.591-12.558c1.895-.605,4.2-.51,5.583.922,1.931,2.007,1.06,5.339-.276,7.782-4.034,7.384-11.223,13.09-13.411,21.215-.941,3.494-.9,7.3-2.591,10.5-2.311,4.381-9.391,8.088-14.421,6.936C559.08,1037.186,561.8,1028.142,564.65,1024.83Z" transform="translate(-532.644 -913.6)" fill="#d1bcff"/>
              <path id="Trazado_25099" data-name="Trazado 25099" d="M624.084,983.387a6.309,6.309,0,0,1,5.708-3.037,5.164,5.164,0,0,1,4.64,4.251,9,9,0,0,1-1.272,4.908,67.335,67.335,0,0,1-6.745,11.554c-1.9,2.5-4.106,4.815-5.5,7.629-1.323,2.666-1.863,5.665-3.193,8.327-5.761,11.524-18.841-.857-12.739-10.162,3.118-4.755,7.466-7.548,12.091-10.524C622.55,992.806,621.055,988.3,624.084,983.387Z" transform="translate(-509.135 -919.481)" fill="#d1bcff"/>
              <path id="Trazado_25100" data-name="Trazado 25100" d="M652.961,973.791c-2.784,3.143-6.291,5.644-8.71,9.076a18.708,18.708,0,0,0-2.783,15.245,3.092,3.092,0,0,0,1.2,2.01,2.81,2.81,0,0,0,1.558.276c3.367-.159,6.324-2.257,8.767-4.578s4.629-4.977,7.5-6.736c1.907-1.167,4.108-1.934,5.675-3.529,2.438-2.478,2.75-6.466,1.678-9.775-.8-2.477-4.83-10.63-7.768-11.026C656.692,964.3,654.884,971.619,652.961,973.791Z" transform="translate(-488.106 -928.227)" fill="#d1bcff"/>
              <path id="Trazado_25101" data-name="Trazado 25101" d="M628.885,958.985c3.47-.493,7.774.323,9.026,3.6,1.147,3-1.01,6.283-3.537,8.272-4.013,3.159-9.169,4.721-12.878,8.234-3.011,2.852-4.8,6.738-7.362,10s-6.533,6.045-10.591,5.2c-3.828-.8-6.421-4.771-6.578-8.678-.29-7.207,6.076-14.83,12.01-18.331C614.759,963.859,622.257,959.924,628.885,958.985Z" transform="translate(-512.745 -931.525)" fill="#d1bcff"/>
              <path id="Trazado_25102" data-name="Trazado 25102" d="M571.678,956.31a33.612,33.612,0,0,0-6.162,7.261c-1.562,2.776-2.288,6.2-1.18,9.182s4.4,5.238,7.495,4.493c2.123-.51,3.722-2.207,5.189-3.821l12.622-13.889c3.014-3.315,6.248-7.367,5.364-11.759-.979-4.866-7.668-8.354-11.919-5.272-1.718,1.245-2.663,3.963-3.906,5.647A68.847,68.847,0,0,1,571.678,956.31Z" transform="translate(-531.335 -941.343)" fill="#d1bcff"/>
              <path id="Trazado_25103" data-name="Trazado 25103" d="M545.743,977.892c1.164-1.821,2.441-3.605,4.585-4.3a3.562,3.562,0,0,1,3.329.439c1.21,1,1.28,2.844.89,4.362s-1.138,2.964-1.22,4.529c-.144,2.692,2.158,5.747,3.274,8.127,1.341,2.858,2.329,5.953.815,8.962-1.6,3.181-4.551,3.318-7.513,1.768C541.888,997.586,541.347,984.766,545.743,977.892Z" transform="translate(-543 -923.382)" fill="#d1bcff"/>
            </g>
          </g>
        </g>
        <path id="Trazado_25105" data-name="Trazado 25105" d="M605.463,948.577a46.447,46.447,0,0,1-17.77-4.063c2.227,3.7,3.31,8.039,5.594,11.738,1.289,2.088,2.463,4.241,3.613,6.407.126.161.267.307.385.474a20.651,20.651,0,0,1,2.374,4.72c.927,1.714,2.33,14.12,3.36,15.772,3.407-9.269,7.165-28.077,13.271-36.558A38.381,38.381,0,0,1,605.463,948.577Z" transform="translate(-484.101 -943.434)"/>
        <path id="Trazado_25106" data-name="Trazado 25106" d="M666.385,1064.466c-8.058.247-16.2.382-24.252-.13-4.256-.27-9.207-1.017-12.539-3.88-3.362-2.887-3.454-6.82-3.632-10.911-.239-5.53-.3-11.072-.3-16.606q.014-16.612,1.278-33.189l3.791-5.433a19.936,19.936,0,0,0,3.462-6.591,1.783,1.783,0,0,0,.036-.94,1.668,1.668,0,0,0-.758-.838c-2.43-1.547-5.636-.924-8.387-1.779-.248-.078-.549-.262-.482-.515.041-.154.206-.237.353-.3a46.186,46.186,0,0,1,7.084-2.524l11.148-2.787c2.333-.584,2.552-2.051,2.513-4.223-.084-4.742-1.472-9.782-2.28-14.449-.278-1.6-1.225-13.18-2.321-13.623a34.249,34.249,0,0,0-5.122-1.612c-.5-.116-1.008-.217-1.517-.314-3.682,9.264-8.418,22.2-13.46,30.843-.616,1.057-.7-2.1-1.228-3.44-2.18-5.519-4.226-11.094-6.035-16.747-.757-2.366-1.178-6.931-2.266-9.246-2.445-.148-4.887-.432-7.331-.67-2.272,10.668-4.807,22.6-6.825,33.314-.209,1.11-.359,2.416.429,3.226.83.855,2.778.89,3.889,1q4.668.447,9.338.9a6.067,6.067,0,0,1,3.473,1.074c-1.887.908-4.017,1.057-5.882,2.085a3.188,3.188,0,0,0-1.263,1.061c-.61,1.024-.056,2.327.556,3.351,1.715,2.869,3.91,5.52,5.247,8.547q-.8,18.628-1.37,37.265c-.25,8.183,2.052,20.455-7.412,23.932-4.962,1.823-10.4,1.662-15.6,1.545-10.259-.386-20.514-.979-30.766-1.469-4.983-.239-4.649,7.509.3,7.746,12.97.621,26.6,2.513,39.564,1.428a38.415,38.415,0,0,0,4.523-.657c5.116-1.052,8.966-.254,13.03-4.212,13.226,10.8,35.453,8.006,51.315,7.521C671.677,1072.06,671.378,1064.313,666.385,1064.466Z" transform="translate(-502.783 -943.822)" fill="#e5e5e5"/>
        <path id="Trazado_25107" data-name="Trazado 25107" d="M559.364,997.8l-.872-.489a126.885,126.885,0,0,1,18.267-24.887l.728.685A125.884,125.884,0,0,0,559.364,997.8Z" transform="translate(-500.23 -927.594)" fill="#8ba8bb"/>
        <path id="Trazado_25108" data-name="Trazado 25108" d="M631.609,989.288l-.475-.88h0a.1.1,0,0,0-.038.053,1,1,0,0,0-.268-.57l-15.671-18.555.764-.645,15.671,18.555a1.837,1.837,0,0,1,.486,1.4A.909.909,0,0,1,631.609,989.288Z" transform="translate(-468.486 -929.697)" fill="#8ba8bb"/>
        <path id="Trazado_25109" data-name="Trazado 25109" d="M594.716,1058.487l-1-.045q1.189-26.617,2.378-53.234,1.113-24.911,2.226-49.823l1,.045q-1.113,24.912-2.226,49.823Q595.9,1031.869,594.716,1058.487Z" transform="translate(-480.443 -937.326)"/>
      </g>
      <g id="Grupo_15991" data-name="Grupo 15991" transform="translate(153.403 0)">
        <g id="Grupo_15988" data-name="Grupo 15988" transform="translate(0)">
          <rect id="Rectángulo_3888" data-name="Rectángulo 3888" width="3.122" height="3.901" transform="translate(0 2.554) rotate(-54.894)" fill="#de5954"/>
        </g>
        <g id="Grupo_15989" data-name="Grupo 15989" transform="translate(9.366 6.584)">
          <path id="Trazado_25110" data-name="Trazado 25110" d="M688.89,990.508l-6.174-4.342,1.8-2.553,6.174,4.34Zm-12.35-8.681-6.174-4.34,1.8-2.555,6.174,4.34Zm-12.35-8.681-6.174-4.342,1.795-2.553,6.176,4.34Zm-12.35-8.681-6.174-4.34,1.795-2.555,6.174,4.34Zm-12.35-8.682-6.174-4.34,1.795-2.553,6.174,4.34ZM627.14,947.1l-6.174-4.34,1.795-2.555,6.174,4.34Z" transform="translate(-620.966 -940.209)" fill="#de5954"/>
        </g>
        <g id="Grupo_15990" data-name="Grupo 15990" transform="translate(83.466 58.669)">
          <rect id="Rectángulo_3889" data-name="Rectángulo 3889" width="3.122" height="3.901" transform="translate(0 2.554) rotate(-54.894)" fill="#de5954"/>
        </g>
      </g>
      <g id="Grupo_15995" data-name="Grupo 15995" transform="translate(60.503 148.334)">
        <g id="Grupo_15992" data-name="Grupo 15992" transform="translate(111.89 2.573)">
          <rect id="Rectángulo_3890" data-name="Rectángulo 3890" width="3.122" height="3.901" transform="translate(0 3.121) rotate(-88.679)" fill="#de5954"/>
        </g>
        <g id="Grupo_15993" data-name="Grupo 15993" transform="translate(12.21 0.282)">
          <path id="Trazado_25111" data-name="Trazado 25111" d="M654.639,1036.435l-8.308-.19.07-3.122,8.306.19Zm-16.614-.384-8.308-.19.07-3.121,8.308.19Zm-16.615-.381-8.308-.192.073-3.121,8.306.192Zm-16.612-.382-8.306-.19.07-3.121,8.306.19Zm-16.615-.381-8.308-.192.073-3.121,8.308.192Zm-16.612-.382-8.306-.19.07-3.121,8.306.19Z" transform="translate(-563.264 -1031.213)" fill="#de5954"/>
        </g>
        <g id="Grupo_15994" data-name="Grupo 15994" transform="translate(0 0)">
          <rect id="Rectángulo_3891" data-name="Rectángulo 3891" width="3.122" height="3.903" transform="matrix(0.023, -1, 1, 0.023, 0, 3.121)" fill="#de5954"/>
        </g>
      </g>
      <g id="Grupo_15996" data-name="Grupo 15996" transform="translate(0 101.665)">
        <path id="Trazado_25112" data-name="Trazado 25112" d="M541.058,1022.44l-4.623-3.572,1.909-2.469,4.623,3.572Zm-9.564-7.388-4.94-3.818,1.909-2.471,4.94,3.819Zm-9.879-7.635-4.94-3.818,1.909-2.469,4.94,3.818Z" transform="translate(-516.675 -1001.13)" fill="#de5954"/>
      </g>
    </g>
  </g>
</svg>
