<svg xmlns="http://www.w3.org/2000/svg" xmlns:xlink="http://www.w3.org/1999/xlink" width="481" height="415.14" viewBox="0 0 481 415.14">
  <defs>
    <clipPath id="clip-path">
      <rect id="Rectángulo_381278" data-name="Rectángulo 381278" width="481" height="415.14" fill="#fff" stroke="#707070" stroke-width="1"/>
    </clipPath>
  </defs>
  <g id="Grupo_1078976" data-name="Grupo 1078976" transform="translate(-204 -6081.862)">
    <g id="Enmascarar_grupo_700370" data-name="Enmascarar grupo 700370" transform="translate(204 6081.862)" clip-path="url(#clip-path)">
      <rect id="high-angle-pink-thread-rolls-with-ribbon-textile" width="641.632" height="427.755" transform="translate(-74.165 -12.614)" fill="#fff"/>
    </g>
    <rect id="Rectángulo_381281" data-name="Rectángulo 381281" width="168" height="331" transform="translate(441 6126)" fill="#ffebab"/>
    <line id="Línea_897" data-name="Línea 897" y2="394" transform="translate(441.5 6091.5)" fill="none" stroke="#673ab7" stroke-width="4" stroke-dasharray="12"/>
    <line id="Línea_898" data-name="Línea 898" x1="421" transform="translate(230.5 6291.5)" fill="none" stroke="#673ab7" stroke-width="4" stroke-dasharray="12"/>
    <path id="Trazado_842349" data-name="Trazado 842349" d="M7.969-5.648a11.005,11.005,0,0,1-.254,2.492A5.807,5.807,0,0,1,6.98-1.324,3.305,3.305,0,0,1,5.8-.191,3.23,3.23,0,0,1,4.211.2a3.016,3.016,0,0,1-1.5-.371A3.152,3.152,0,0,1,1.594-1.258,5.484,5.484,0,0,1,.906-3,10.8,10.8,0,0,1,.672-5.375,12.222,12.222,0,0,1,.918-7.969a5.933,5.933,0,0,1,.723-1.887A3.216,3.216,0,0,1,2.824-11a3.323,3.323,0,0,1,1.621-.387Q7.969-11.391,7.969-5.648Zm-1.312.125q0-4.781-2.273-4.781-2.4,0-2.4,4.867Q1.984-.9,4.336-.9,6.656-.9,6.656-5.523Z" transform="translate(449 6282)" fill="#12263f"/>
    <path id="Trazado_842351" data-name="Trazado 842351" d="M7.969-5.648a11.005,11.005,0,0,1-.254,2.492A5.807,5.807,0,0,1,6.98-1.324,3.305,3.305,0,0,1,5.8-.191,3.23,3.23,0,0,1,4.211.2a3.016,3.016,0,0,1-1.5-.371A3.152,3.152,0,0,1,1.594-1.258,5.484,5.484,0,0,1,.906-3,10.8,10.8,0,0,1,.672-5.375,12.222,12.222,0,0,1,.918-7.969a5.933,5.933,0,0,1,.723-1.887A3.216,3.216,0,0,1,2.824-11a3.323,3.323,0,0,1,1.621-.387Q7.969-11.391,7.969-5.648Zm-1.312.125q0-4.781-2.273-4.781-2.4,0-2.4,4.867Q1.984-.9,4.336-.9,6.656-.9,6.656-5.523Z" transform="translate(449 6311)" fill="#12263f"/>
    <path id="Trazado_842350" data-name="Trazado 842350" d="M7.969-5.648a11.005,11.005,0,0,1-.254,2.492A5.807,5.807,0,0,1,6.98-1.324,3.305,3.305,0,0,1,5.8-.191,3.23,3.23,0,0,1,4.211.2a3.016,3.016,0,0,1-1.5-.371A3.152,3.152,0,0,1,1.594-1.258,5.484,5.484,0,0,1,.906-3,10.8,10.8,0,0,1,.672-5.375,12.222,12.222,0,0,1,.918-7.969a5.933,5.933,0,0,1,.723-1.887A3.216,3.216,0,0,1,2.824-11a3.323,3.323,0,0,1,1.621-.387Q7.969-11.391,7.969-5.648Zm-1.312.125q0-4.781-2.273-4.781-2.4,0-2.4,4.867Q1.984-.9,4.336-.9,6.656-.9,6.656-5.523Z" transform="translate(461 6296)" fill="#12263f"/>
  </g>
</svg>
