<svg xmlns="http://www.w3.org/2000/svg" width="305.143" height="307.691" viewBox="0 0 305.143 307.691">
  <g id="Grupo_1079070" data-name="Grupo 1079070" transform="translate(-647.428 -2168.654)">
    <path id="Trazado_25219" data-name="Trazado 25219" d="M1006.984,407V387.722H948.426" transform="translate(-149.249 1917.205)" fill="none" stroke="#afafaf" stroke-miterlimit="10" stroke-width="2" stroke-dasharray="3"/>
    <g id="Grupo_16135" data-name="Grupo 16135" transform="translate(794.846 2168.654)">
      <path id="Trazado_25265" data-name="Trazado 25265" d="M949,211.932l-2.335,3.7v3.4h-1.479v-3.367l-2.35-3.735h1.632l1.45,2.418,1.454-2.418Z" transform="translate(-942.839 -211.932)" fill="#00223d"/>
    </g>
    <g id="Grupo_16136" data-name="Grupo 16136" transform="translate(945.287 2320.939)">
      <path id="Trazado_25266" data-name="Trazado 25266" d="M1136.907,415.481l2.767-3.705-2.688-3.4h1.794l1.77,2.329,1.769-2.329h1.794l-2.688,3.4,2.767,3.705h-1.877l-1.764-2.512-1.765,2.512Z" transform="translate(-1136.907 -408.379)" fill="#00223d"/>
    </g>
    <g id="Grupo_16139" data-name="Grupo 16139" transform="translate(647.428 2322.946)">
      <g id="Grupo_16138" data-name="Grupo 16138">
        <g id="Grupo_16137" data-name="Grupo 16137">
          <rect id="Rectángulo_3939" data-name="Rectángulo 3939" width="295.771" height="2.516" fill="#673ab7"/>
        </g>
      </g>
    </g>
    <g id="Grupo_16154" data-name="Grupo 16154" transform="translate(659.217 2319.658)">
      <g id="Grupo_16140" data-name="Grupo 16140" transform="translate(100.706)">
        <rect id="Rectángulo_3940" data-name="Rectángulo 3940" width="0.472" height="9.663" fill="#604053"/>
      </g>
      <g id="Grupo_16141" data-name="Grupo 16141" transform="translate(81.144)">
        <rect id="Rectángulo_3941" data-name="Rectángulo 3941" width="0.472" height="9.663" fill="#604053"/>
      </g>
      <g id="Grupo_16142" data-name="Grupo 16142" transform="translate(120.269)">
        <rect id="Rectángulo_3942" data-name="Rectángulo 3942" width="0.472" height="9.663" fill="#604053"/>
      </g>
      <g id="Grupo_16143" data-name="Grupo 16143" transform="translate(178.957)">
        <rect id="Rectángulo_3943" data-name="Rectángulo 3943" width="0.472" height="9.663" fill="#604053"/>
      </g>
      <g id="Grupo_16144" data-name="Grupo 16144" transform="translate(159.394)">
        <rect id="Rectángulo_3944" data-name="Rectángulo 3944" width="0.472" height="9.663" fill="#604053"/>
      </g>
      <g id="Grupo_16145" data-name="Grupo 16145" transform="translate(198.519)">
        <rect id="Rectángulo_3945" data-name="Rectángulo 3945" width="0.472" height="9.663" fill="#604053"/>
      </g>
      <g id="Grupo_16146" data-name="Grupo 16146" transform="translate(237.644)">
        <rect id="Rectángulo_3946" data-name="Rectángulo 3946" width="0.472" height="9.663" fill="#604053"/>
      </g>
      <g id="Grupo_16147" data-name="Grupo 16147" transform="translate(218.082)">
        <rect id="Rectángulo_3947" data-name="Rectángulo 3947" width="0.472" height="9.663" fill="#604053"/>
      </g>
      <g id="Grupo_16148" data-name="Grupo 16148" transform="translate(257.207)">
        <rect id="Rectángulo_3948" data-name="Rectángulo 3948" width="0.472" height="9.663" fill="#604053"/>
      </g>
      <g id="Grupo_16149" data-name="Grupo 16149" transform="translate(277.228)">
        <rect id="Rectángulo_3949" data-name="Rectángulo 3949" width="0.472" height="9.663" fill="#604053"/>
      </g>
      <g id="Grupo_16150" data-name="Grupo 16150" transform="translate(19.563)">
        <rect id="Rectángulo_3950" data-name="Rectángulo 3950" width="0.472" height="9.663" fill="#604053"/>
      </g>
      <g id="Grupo_16151" data-name="Grupo 16151">
        <rect id="Rectángulo_3951" data-name="Rectángulo 3951" width="0.472" height="9.663" fill="#604053"/>
      </g>
      <g id="Grupo_16152" data-name="Grupo 16152" transform="translate(39.125)">
        <rect id="Rectángulo_3952" data-name="Rectángulo 3952" width="0.472" height="9.663" fill="#604053"/>
      </g>
      <g id="Grupo_16153" data-name="Grupo 16153" transform="translate(59.146)">
        <rect id="Rectángulo_3953" data-name="Rectángulo 3953" width="0.472" height="9.663" fill="#604053"/>
      </g>
    </g>
    <g id="Grupo_16157" data-name="Grupo 16157" transform="translate(797.633 2180.574)">
      <g id="Grupo_16156" data-name="Grupo 16156">
        <g id="Grupo_16155" data-name="Grupo 16155">
          <rect id="Rectángulo_3954" data-name="Rectángulo 3954" width="2.516" height="295.771" fill="#673ab7"/>
        </g>
      </g>
    </g>
    <path id="Trazado_25267" data-name="Trazado 25267" d="M945.77,414.823a3.447,3.447,0,1,1,4.679-1.368A3.448,3.448,0,0,1,945.77,414.823Z" transform="translate(-148.249 1912.566)" fill="#d1bcff"/>
    <g id="Grupo_16172" data-name="Grupo 16172" transform="translate(793.38 2186.856)">
      <g id="Grupo_16158" data-name="Grupo 16158" transform="translate(0 176.522)">
        <rect id="Rectángulo_3955" data-name="Rectángulo 3955" width="9.663" height="0.472" fill="#604053"/>
      </g>
      <g id="Grupo_16159" data-name="Grupo 16159" transform="translate(0 196.084)">
        <rect id="Rectángulo_3956" data-name="Rectángulo 3956" width="9.663" height="0.472" fill="#604053"/>
      </g>
      <g id="Grupo_16160" data-name="Grupo 16160" transform="translate(0 156.959)">
        <rect id="Rectángulo_3957" data-name="Rectángulo 3957" width="9.663" height="0.472" fill="#604053"/>
      </g>
      <g id="Grupo_16161" data-name="Grupo 16161" transform="translate(0 98.271)">
        <rect id="Rectángulo_3958" data-name="Rectángulo 3958" width="9.663" height="0.472" fill="#604053"/>
      </g>
      <g id="Grupo_16162" data-name="Grupo 16162" transform="translate(0 117.834)">
        <rect id="Rectángulo_3959" data-name="Rectángulo 3959" width="9.663" height="0.472" fill="#604053"/>
      </g>
      <g id="Grupo_16163" data-name="Grupo 16163" transform="translate(0 78.709)">
        <rect id="Rectángulo_3960" data-name="Rectángulo 3960" width="9.663" height="0.472" fill="#604053"/>
      </g>
      <g id="Grupo_16164" data-name="Grupo 16164" transform="translate(0 39.584)">
        <rect id="Rectángulo_3961" data-name="Rectángulo 3961" width="9.663" height="0.472" fill="#604053"/>
      </g>
      <g id="Grupo_16165" data-name="Grupo 16165" transform="translate(0 59.146)">
        <rect id="Rectángulo_3962" data-name="Rectángulo 3962" width="9.663" height="0.472" fill="#604053"/>
      </g>
      <g id="Grupo_16166" data-name="Grupo 16166" transform="translate(0 20.021)">
        <rect id="Rectángulo_3963" data-name="Rectángulo 3963" width="9.663" height="0.472" fill="#604053"/>
      </g>
      <g id="Grupo_16167" data-name="Grupo 16167">
        <rect id="Rectángulo_3964" data-name="Rectángulo 3964" width="9.663" height="0.472" fill="#604053"/>
      </g>
      <g id="Grupo_16168" data-name="Grupo 16168" transform="translate(0 257.666)">
        <rect id="Rectángulo_3965" data-name="Rectángulo 3965" width="9.663" height="0.472" fill="#604053"/>
      </g>
      <g id="Grupo_16169" data-name="Grupo 16169" transform="translate(0 277.228)">
        <rect id="Rectángulo_3966" data-name="Rectángulo 3966" width="9.663" height="0.472" fill="#604053"/>
      </g>
      <g id="Grupo_16170" data-name="Grupo 16170" transform="translate(0 238.103)">
        <rect id="Rectángulo_3967" data-name="Rectángulo 3967" width="9.663" height="0.472" fill="#604053"/>
      </g>
      <g id="Grupo_16171" data-name="Grupo 16171" transform="translate(0 218.082)">
        <rect id="Rectángulo_3968" data-name="Rectángulo 3968" width="9.663" height="0.472" fill="#604053"/>
      </g>
    </g>
    <g id="Grupo_16173" data-name="Grupo 16173" transform="translate(787.154 2302.961)">
      <path id="Trazado_25268" data-name="Trazado 25268" d="M933.769,385.186h.4v3.46h-.42v-3l-.83.72v-.454Z" transform="translate(-932.916 -385.186)" fill="#604053"/>
    </g>
    <g id="Grupo_16174" data-name="Grupo 16174" transform="translate(786.612 2283.191)">
      <path id="Trazado_25269" data-name="Trazado 25269" d="M932.829,362.8h1.722v.391h-2.334v-.322l1.386-1.433a1.635,1.635,0,0,0,.312-.41.821.821,0,0,0,.086-.357.6.6,0,0,0-.174-.458.711.711,0,0,0-.925.015.762.762,0,0,0-.176.557v.256L932.3,361v-.214a1.091,1.091,0,0,1,.293-.822,1.21,1.21,0,0,1,1.532-.021.913.913,0,0,1,.294.717,1.086,1.086,0,0,1-.117.5,2.158,2.158,0,0,1-.374.5Z" transform="translate(-932.217 -359.683)" fill="#604053"/>
    </g>
    <g id="Grupo_16175" data-name="Grupo 16175" transform="translate(786.615 2264.261)">
      <path id="Trazado_25270" data-name="Trazado 25270" d="M933.374,338.816q-1.152,0-1.153-1.231l.433-.022a1.08,1.08,0,0,0,.163.651.653.653,0,0,0,.557.216.766.766,0,0,0,.537-.187.691.691,0,0,0,.007-.976.709.709,0,0,0-.495-.179h-.172v-.361h.167a.513.513,0,0,0,.378-.16.537.537,0,0,0,.157-.394.487.487,0,0,0-.167-.381.611.611,0,0,0-.42-.147.673.673,0,0,0-.277.051.4.4,0,0,0-.176.151.7.7,0,0,0-.088.22,1.306,1.306,0,0,0-.027.281l-.433-.016a1.118,1.118,0,0,1,.26-.793.96.96,0,0,1,.739-.278,1.024,1.024,0,0,1,.709.254.809.809,0,0,1,.284.629.763.763,0,0,1-.137.45.783.783,0,0,1-.346.28.951.951,0,0,1,.486.317.888.888,0,0,1,.19.582.949.949,0,0,1-.331.754A1.236,1.236,0,0,1,933.374,338.816Z" transform="translate(-932.221 -335.263)" fill="#604053"/>
    </g>
    <g id="Grupo_16176" data-name="Grupo 16176" transform="translate(786.525 2244.344)">
      <path id="Trazado_25271" data-name="Trazado 25271" d="M934.613,311.848v.375H934.1v.667h-.409v-.667H932.1v-.378l1.382-2.275h.615v2.278Zm-2.087,0h1.167v-1.978Z" transform="translate(-932.104 -309.57)" fill="#604053"/>
    </g>
    <g id="Grupo_16177" data-name="Grupo 16177" transform="translate(786.671 2224.998)">
      <path id="Trazado_25272" data-name="Trazado 25272" d="M933.3,285.793a1.284,1.284,0,0,1,.905.28,1.011,1.011,0,0,1,.3.779,1.1,1.1,0,0,1-.308.808,1.082,1.082,0,0,1-.805.312,1.28,1.28,0,0,1-.416-.067,1.141,1.141,0,0,1-.351-.193.883.883,0,0,1-.245-.327,1.073,1.073,0,0,1-.091-.448,1.589,1.589,0,0,1,.012-.17l.417-.035a1.693,1.693,0,0,0-.019.186.742.742,0,0,0,.061.309.522.522,0,0,0,.161.212.719.719,0,0,0,.218.114.787.787,0,0,0,.246.038.68.68,0,0,0,.516-.2.722.722,0,0,0,.195-.521.686.686,0,0,0-.2-.523.9.9,0,0,0-.638-.191h-.84l.206-1.537h1.74v.38h-1.4l-.109.8Z" transform="translate(-932.293 -284.614)" fill="#604053"/>
    </g>
    <g id="Grupo_16178" data-name="Grupo 16178" transform="translate(786.628 2205.651)">
      <path id="Trazado_25273" data-name="Trazado 25273" d="M934.539,261.873a1.118,1.118,0,0,1-.151.6,1.067,1.067,0,0,1-.417.406,1.2,1.2,0,0,1-.575.141,1.159,1.159,0,0,1-.826-.312,1.056,1.056,0,0,1-.333-.805,1.312,1.312,0,0,1,.288-.8l1.111-1.443h.481l-.922,1.163a1.066,1.066,0,0,1,.8.088,1.016,1.016,0,0,1,.389.381A1.136,1.136,0,0,1,934.539,261.873Zm-1.154.764a.721.721,0,0,0,.755-.771.729.729,0,0,0-.762-.767.711.711,0,0,0-.542.228.76.76,0,0,0-.21.555.736.736,0,0,0,.213.554A.758.758,0,0,0,933.386,262.636Z" transform="translate(-932.238 -259.658)" fill="#604053"/>
    </g>
    <g id="Grupo_16179" data-name="Grupo 16179" transform="translate(786.644 2185.432)">
      <path id="Trazado_25274" data-name="Trazado 25274" d="M932.258,233.575h2.271v.343l-1.623,2.978h-.467l1.636-2.943h-1.818Z" transform="translate(-932.258 -233.575)" fill="#604053"/>
    </g>
    <g id="Grupo_16180" data-name="Grupo 16180" transform="translate(817.71 2333.143)">
      <path id="Trazado_25275" data-name="Trazado 25275" d="M973.186,424.12h.4v3.46h-.421v-3l-.83.72v-.454Z" transform="translate(-972.333 -424.12)" fill="#604053"/>
    </g>
    <g id="Grupo_16181" data-name="Grupo 16181" transform="translate(837.458 2333.116)">
      <path id="Trazado_25276" data-name="Trazado 25276" d="M998.42,427.208h1.723v.391h-2.335v-.322l1.386-1.433a1.649,1.649,0,0,0,.312-.411.828.828,0,0,0,.086-.357.6.6,0,0,0-.175-.458.711.711,0,0,0-.925.015.767.767,0,0,0-.176.557v.256l-.425-.04v-.214a1.1,1.1,0,0,1,.292-.822,1.073,1.073,0,0,1,.781-.284,1.085,1.085,0,0,1,.751.263.916.916,0,0,1,.293.718,1.092,1.092,0,0,1-.116.5,2.191,2.191,0,0,1-.375.5Z" transform="translate(-997.808 -424.087)" fill="#604053"/>
    </g>
    <g id="Grupo_16182" data-name="Grupo 16182" transform="translate(855.054 2333.096)">
      <path id="Trazado_25277" data-name="Trazado 25277" d="M1021.66,427.613q-1.154,0-1.153-1.231l.432-.023a1.084,1.084,0,0,0,.162.651.656.656,0,0,0,.558.216.767.767,0,0,0,.537-.187.632.632,0,0,0,.2-.489.624.624,0,0,0-.2-.486.707.707,0,0,0-.5-.18h-.172v-.361h.167a.513.513,0,0,0,.378-.16.535.535,0,0,0,.157-.393.483.483,0,0,0-.167-.381.61.61,0,0,0-.42-.148.671.671,0,0,0-.276.052.383.383,0,0,0-.176.151.707.707,0,0,0-.088.22,1.3,1.3,0,0,0-.027.28l-.433-.015a1.12,1.12,0,0,1,.26-.794.961.961,0,0,1,.738-.278,1.028,1.028,0,0,1,.709.253.81.81,0,0,1,.284.629.753.753,0,0,1-.138.45.783.783,0,0,1-.346.281.951.951,0,0,1,.487.316.89.89,0,0,1,.189.583.951.951,0,0,1-.33.754A1.244,1.244,0,0,1,1021.66,427.613Z" transform="translate(-1020.507 -424.06)" fill="#604053"/>
    </g>
    <g id="Grupo_16183" data-name="Grupo 16183" transform="translate(876.337 2333.212)">
      <path id="Trazado_25278" data-name="Trazado 25278" d="M1050.471,426.488v.375h-.512v.667h-.408v-.667h-1.589v-.378l1.382-2.276h.615v2.278Zm-2.088,0h1.167V424.51Z" transform="translate(-1047.962 -424.21)" fill="#604053"/>
    </g>
    <g id="Grupo_16184" data-name="Grupo 16184" transform="translate(895.766 2333.193)">
      <path id="Trazado_25279" data-name="Trazado 25279" d="M1074.036,425.365a1.289,1.289,0,0,1,.906.28,1.014,1.014,0,0,1,.3.779,1.1,1.1,0,0,1-.308.808,1.083,1.083,0,0,1-.805.312,1.28,1.28,0,0,1-.416-.067,1.122,1.122,0,0,1-.351-.193.884.884,0,0,1-.245-.327,1.072,1.072,0,0,1-.091-.448,1.569,1.569,0,0,1,.012-.17l.417-.035a1.651,1.651,0,0,0-.019.186.76.76,0,0,0,.06.309.536.536,0,0,0,.162.211.725.725,0,0,0,.218.114.784.784,0,0,0,.247.038.68.68,0,0,0,.515-.2.721.721,0,0,0,.195-.521.687.687,0,0,0-.2-.523.906.906,0,0,0-.638-.192h-.84l.205-1.537h1.74v.38h-1.4l-.109.8Z" transform="translate(-1073.025 -424.186)" fill="#604053"/>
    </g>
    <g id="Grupo_16185" data-name="Grupo 16185" transform="translate(915.282 2333.193)">
      <path id="Trazado_25280" data-name="Trazado 25280" d="M1100.5,426.4a1.121,1.121,0,0,1-.151.6,1.058,1.058,0,0,1-.417.405,1.19,1.19,0,0,1-.576.142,1.161,1.161,0,0,1-.825-.312,1.055,1.055,0,0,1-.333-.805,1.307,1.307,0,0,1,.288-.8l1.111-1.443h.481l-.922,1.163a1.042,1.042,0,0,1,.287-.04,1.06,1.06,0,0,1,.509.127,1.019,1.019,0,0,1,.389.381A1.133,1.133,0,0,1,1100.5,426.4Zm-1.153.764a.722.722,0,0,0,.755-.771.729.729,0,0,0-.762-.766.714.714,0,0,0-.543.228.762.762,0,0,0-.209.555.731.731,0,0,0,.213.554A.759.759,0,0,0,1099.348,427.164Z" transform="translate(-1098.2 -424.186)" fill="#604053"/>
    </g>
    <g id="Grupo_16186" data-name="Grupo 16186" transform="translate(934.924 2333.212)">
      <path id="Trazado_25281" data-name="Trazado 25281" d="M1123.539,424.21h2.271v.342l-1.622,2.978h-.467l1.636-2.943h-1.818Z" transform="translate(-1123.539 -424.21)" fill="#604053"/>
    </g>
    <g id="Grupo_16201" data-name="Grupo 16201" transform="translate(654.087 2333.096)">
      <g id="Grupo_16187" data-name="Grupo 16187" transform="translate(125.473 0.047)">
        <path id="Trazado_25282" data-name="Trazado 25282" d="M923.972,424.12h.4v3.46h-.421v-3l-.83.72v-.454Z" transform="translate(-923.119 -424.12)" fill="#990831"/>
      </g>
      <g id="Grupo_16188" data-name="Grupo 16188" transform="translate(105.186 0.021)">
        <path id="Trazado_25283" data-name="Trazado 25283" d="M897.562,427.208h1.722v.391H896.95v-.322l1.386-1.433a1.624,1.624,0,0,0,.312-.411.817.817,0,0,0,.086-.357.6.6,0,0,0-.174-.458.711.711,0,0,0-.925.015.764.764,0,0,0-.176.557v.256l-.425-.04v-.214a1.1,1.1,0,0,1,.292-.822,1.21,1.21,0,0,1,1.532-.021.914.914,0,0,1,.294.718,1.092,1.092,0,0,1-.116.5,2.191,2.191,0,0,1-.375.5Z" transform="translate(-896.95 -424.087)" fill="#990831"/>
      </g>
      <g id="Grupo_16189" data-name="Grupo 16189" transform="translate(82.9)">
        <path id="Trazado_25284" data-name="Trazado 25284" d="M869.354,427.613q-1.152,0-1.153-1.231l.433-.023a1.082,1.082,0,0,0,.162.651.655.655,0,0,0,.558.216.766.766,0,0,0,.537-.187.631.631,0,0,0,.2-.489.622.622,0,0,0-.2-.486.707.707,0,0,0-.5-.18h-.172v-.361h.167a.513.513,0,0,0,.378-.16.536.536,0,0,0,.157-.393.486.486,0,0,0-.167-.381.614.614,0,0,0-.421-.148.67.67,0,0,0-.276.052.388.388,0,0,0-.176.151.7.7,0,0,0-.088.22,1.294,1.294,0,0,0-.027.28l-.433-.015a1.12,1.12,0,0,1,.26-.794.961.961,0,0,1,.738-.278,1.028,1.028,0,0,1,.709.253.81.81,0,0,1,.284.629.759.759,0,0,1-.137.45.794.794,0,0,1-.347.281.95.95,0,0,1,.486.316.89.89,0,0,1,.189.583.951.951,0,0,1-.33.754A1.243,1.243,0,0,1,869.354,427.613Z" transform="translate(-868.201 -424.06)" fill="#990831"/>
      </g>
      <g id="Grupo_16190" data-name="Grupo 16190" transform="translate(62.775 0.116)">
        <path id="Trazado_25285" data-name="Trazado 25285" d="M844.749,426.488v.375h-.512v.667h-.408v-.667H842.24v-.378l1.381-2.276h.616v2.278Zm-2.087,0h1.167V424.51Z" transform="translate(-842.24 -424.21)" fill="#990831"/>
      </g>
      <g id="Grupo_16191" data-name="Grupo 16191" transform="translate(43.595 0.098)">
        <path id="Trazado_25286" data-name="Trazado 25286" d="M818.509,425.365a1.289,1.289,0,0,1,.905.28,1.011,1.011,0,0,1,.3.779,1.1,1.1,0,0,1-.308.808,1.08,1.08,0,0,1-.8.312,1.275,1.275,0,0,1-.416-.067,1.1,1.1,0,0,1-.351-.193.885.885,0,0,1-.246-.327,1.073,1.073,0,0,1-.091-.448,1.556,1.556,0,0,1,.012-.17l.418-.035a1.728,1.728,0,0,0-.019.186.75.75,0,0,0,.06.309.536.536,0,0,0,.161.211.73.73,0,0,0,.219.114.781.781,0,0,0,.247.038.679.679,0,0,0,.515-.2.718.718,0,0,0,.195-.521.687.687,0,0,0-.2-.523.9.9,0,0,0-.638-.192h-.84l.205-1.537h1.74v.38h-1.4l-.109.8Z" transform="translate(-817.497 -424.186)" fill="#990831"/>
      </g>
      <g id="Grupo_16192" data-name="Grupo 16192" transform="translate(23.241 0.098)">
        <path id="Trazado_25287" data-name="Trazado 25287" d="M793.543,426.4a1.122,1.122,0,0,1-.151.6,1.056,1.056,0,0,1-.418.405,1.185,1.185,0,0,1-.575.142,1.159,1.159,0,0,1-.825-.312,1.056,1.056,0,0,1-.332-.805,1.3,1.3,0,0,1,.288-.8l1.11-1.443h.481l-.922,1.163a1.044,1.044,0,0,1,.288-.04,1.06,1.06,0,0,1,.509.127,1.018,1.018,0,0,1,.389.381A1.143,1.143,0,0,1,793.543,426.4Zm-1.154.764a.721.721,0,0,0,.754-.771.728.728,0,0,0-.761-.766.714.714,0,0,0-.543.228.762.762,0,0,0-.209.555.731.731,0,0,0,.213.554A.757.757,0,0,0,792.389,427.164Z" transform="translate(-791.241 -424.186)" fill="#990831"/>
      </g>
      <g id="Grupo_16193" data-name="Grupo 16193" transform="translate(3.984 0.116)">
        <path id="Trazado_25288" data-name="Trazado 25288" d="M766.4,424.21h2.271v.342l-1.622,2.978h-.467l1.637-2.943H766.4Z" transform="translate(-766.399 -424.21)" fill="#990831"/>
      </g>
      <g id="Grupo_16194" data-name="Grupo 16194" transform="translate(121.546 1.56)">
        <path id="Trazado_25289" data-name="Trazado 25289" d="M918.054,426.506v-.433h2.171v.433Z" transform="translate(-918.054 -426.073)" fill="#990831"/>
      </g>
      <g id="Grupo_16195" data-name="Grupo 16195" transform="translate(101.045 1.56)">
        <path id="Trazado_25290" data-name="Trazado 25290" d="M891.607,426.506v-.433h2.171v.433Z" transform="translate(-891.607 -426.073)" fill="#990831"/>
      </g>
      <g id="Grupo_16196" data-name="Grupo 16196" transform="translate(78.698 1.56)">
        <path id="Trazado_25291" data-name="Trazado 25291" d="M862.78,426.506v-.433h2.171v.433Z" transform="translate(-862.78 -426.073)" fill="#990831"/>
      </g>
      <g id="Grupo_16197" data-name="Grupo 16197" transform="translate(58.791 1.56)">
        <path id="Trazado_25292" data-name="Trazado 25292" d="M837.1,426.506v-.433h2.171v.433Z" transform="translate(-837.1 -426.073)" fill="#990831"/>
      </g>
      <g id="Grupo_16198" data-name="Grupo 16198" transform="translate(39.442 1.56)">
        <path id="Trazado_25293" data-name="Trazado 25293" d="M812.14,426.506v-.433h2.171v.433Z" transform="translate(-812.14 -426.073)" fill="#990831"/>
      </g>
      <g id="Grupo_16199" data-name="Grupo 16199" transform="translate(19.349 1.56)">
        <path id="Trazado_25294" data-name="Trazado 25294" d="M786.22,426.506v-.433h2.171v.433Z" transform="translate(-786.22 -426.073)" fill="#990831"/>
      </g>
      <g id="Grupo_16200" data-name="Grupo 16200" transform="translate(0 1.56)">
        <path id="Trazado_25295" data-name="Trazado 25295" d="M761.26,426.506v-.433h2.171v.433Z" transform="translate(-761.26 -426.073)" fill="#990831"/>
      </g>
    </g>
    <g id="Grupo_16217" data-name="Grupo 16217" transform="translate(783.038 2342.561)">
      <g id="Grupo_16205" data-name="Grupo 16205" transform="translate(3.574 0)">
        <g id="Grupo_16202" data-name="Grupo 16202" transform="translate(0.542)">
          <path id="Trazado_25296" data-name="Trazado 25296" d="M933.769,436.269h.4v3.46h-.42v-3l-.83.72V437Z" transform="translate(-932.916 -436.269)" fill="#990831"/>
        </g>
        <g id="Grupo_16203" data-name="Grupo 16203" transform="translate(0 19.299)">
          <path id="Trazado_25297" data-name="Trazado 25297" d="M932.829,464.285h1.722v.391h-2.334v-.322l1.386-1.433a1.609,1.609,0,0,0,.312-.41.816.816,0,0,0,.086-.357.6.6,0,0,0-.174-.458.711.711,0,0,0-.925.015.764.764,0,0,0-.176.557v.256l-.426-.04v-.214a1.093,1.093,0,0,1,.293-.822,1.211,1.211,0,0,1,1.532-.021.914.914,0,0,1,.294.718,1.082,1.082,0,0,1-.117.5,2.158,2.158,0,0,1-.374.5Z" transform="translate(-932.217 -461.164)" fill="#990831"/>
        </g>
        <g id="Grupo_16204" data-name="Grupo 16204" transform="translate(0.003 38.604)">
          <path id="Trazado_25298" data-name="Trazado 25298" d="M933.374,489.622q-1.152,0-1.153-1.231l.433-.023a1.078,1.078,0,0,0,.163.651.65.65,0,0,0,.557.216.769.769,0,0,0,.537-.186.691.691,0,0,0,.007-.976.7.7,0,0,0-.495-.179h-.172v-.361h.167a.513.513,0,0,0,.378-.16.539.539,0,0,0,.157-.394.487.487,0,0,0-.167-.381.611.611,0,0,0-.42-.147.673.673,0,0,0-.277.051.4.4,0,0,0-.176.151.7.7,0,0,0-.088.22,1.3,1.3,0,0,0-.027.28l-.433-.015a1.122,1.122,0,0,1,.26-.794.963.963,0,0,1,.739-.278,1.024,1.024,0,0,1,.709.253.809.809,0,0,1,.284.629.759.759,0,0,1-.137.45.779.779,0,0,1-.346.281.946.946,0,0,1,.486.317.888.888,0,0,1,.19.582.949.949,0,0,1-.331.754A1.236,1.236,0,0,1,933.374,489.622Z" transform="translate(-932.221 -486.068)" fill="#990831"/>
        </g>
      </g>
      <g id="Grupo_16206" data-name="Grupo 16206" transform="translate(3.487 60.775)">
        <path id="Trazado_25299" data-name="Trazado 25299" d="M934.613,516.947v.375H934.1v.667h-.409v-.667H932.1v-.377l1.382-2.275h.615v2.278Zm-2.087,0h1.167v-1.978Z" transform="translate(-932.104 -514.669)" fill="#990831"/>
      </g>
      <g id="Grupo_16207" data-name="Grupo 16207" transform="translate(3.633 80.522)">
        <path id="Trazado_25300" data-name="Trazado 25300" d="M933.3,541.32a1.288,1.288,0,0,1,.905.28,1.013,1.013,0,0,1,.3.779,1.1,1.1,0,0,1-.308.808,1.081,1.081,0,0,1-.805.312,1.281,1.281,0,0,1-.416-.067,1.126,1.126,0,0,1-.351-.194.875.875,0,0,1-.245-.326,1.074,1.074,0,0,1-.091-.448,1.563,1.563,0,0,1,.012-.17l.417-.036a1.7,1.7,0,0,0-.019.187.744.744,0,0,0,.061.308.528.528,0,0,0,.161.212.738.738,0,0,0,.218.114.787.787,0,0,0,.246.037.682.682,0,0,0,.516-.2.723.723,0,0,0,.195-.521.689.689,0,0,0-.2-.524.905.905,0,0,0-.638-.191h-.84l.206-1.537h1.74v.379h-1.4l-.109.8Z" transform="translate(-932.293 -540.142)" fill="#990831"/>
      </g>
      <g id="Grupo_16208" data-name="Grupo 16208" transform="translate(3.591 100.079)">
        <path id="Trazado_25301" data-name="Trazado 25301" d="M934.539,567.586a1.116,1.116,0,0,1-.151.6,1.066,1.066,0,0,1-.417.406,1.2,1.2,0,0,1-.575.141,1.158,1.158,0,0,1-.826-.312,1.055,1.055,0,0,1-.333-.805,1.313,1.313,0,0,1,.288-.8l1.111-1.443h.481l-.922,1.163a1.066,1.066,0,0,1,.8.088,1.017,1.017,0,0,1,.389.381A1.136,1.136,0,0,1,934.539,567.586Zm-1.154.764a.769.769,0,1,0-.007-1.537.711.711,0,0,0-.542.228.759.759,0,0,0-.21.555.736.736,0,0,0,.213.554A.758.758,0,0,0,933.386,568.349Z" transform="translate(-932.238 -565.371)" fill="#990831"/>
      </g>
      <g id="Grupo_16209" data-name="Grupo 16209" transform="translate(3.606 119.726)">
        <path id="Trazado_25302" data-name="Trazado 25302" d="M932.258,590.715h2.271v.342l-1.623,2.978h-.467l1.636-2.943h-1.818Z" transform="translate(-932.258 -590.715)" fill="#990831"/>
      </g>
      <g id="Grupo_16210" data-name="Grupo 16210" transform="translate(0 1.514)">
        <path id="Trazado_25303" data-name="Trazado 25303" d="M927.606,438.655v-.433h2.171v.433Z" transform="translate(-927.606 -438.222)" fill="#990831"/>
      </g>
      <g id="Grupo_16211" data-name="Grupo 16211" transform="translate(0 21.074)">
        <path id="Trazado_25304" data-name="Trazado 25304" d="M927.606,463.887v-.433h2.171v.433Z" transform="translate(-927.606 -463.454)" fill="#990831"/>
      </g>
      <g id="Grupo_16212" data-name="Grupo 16212" transform="translate(0 40.164)">
        <path id="Trazado_25305" data-name="Trazado 25305" d="M927.606,488.513v-.433h2.171v.433Z" transform="translate(-927.606 -488.081)" fill="#990831"/>
      </g>
      <g id="Grupo_16213" data-name="Grupo 16213" transform="translate(0 62.162)">
        <path id="Trazado_25306" data-name="Trazado 25306" d="M927.606,516.891v-.433h2.171v.433Z" transform="translate(-927.606 -516.458)" fill="#990831"/>
      </g>
      <g id="Grupo_16214" data-name="Grupo 16214" transform="translate(0 81.984)">
        <path id="Trazado_25307" data-name="Trazado 25307" d="M927.606,542.461v-.433h2.171v.433Z" transform="translate(-927.606 -542.028)" fill="#990831"/>
      </g>
      <g id="Grupo_16215" data-name="Grupo 16215" transform="translate(0 101.982)">
        <path id="Trazado_25308" data-name="Trazado 25308" d="M927.606,568.257v-.432h2.171v.432Z" transform="translate(-927.606 -567.825)" fill="#990831"/>
      </g>
      <g id="Grupo_16216" data-name="Grupo 16216" transform="translate(0 121.169)">
        <path id="Trazado_25309" data-name="Trazado 25309" d="M927.606,593.01v-.433h2.171v.433Z" transform="translate(-927.606 -592.577)" fill="#990831"/>
      </g>
    </g>
    <path id="Trazado_25310" data-name="Trazado 25310" d="M915.44,344.916l.752.7,2.59-2.786v35.748h1.711v-35.75l2.591,2.788.752-.7-4.2-4.514Z" transform="translate(-141.833 1927.842)" fill="#ffd54f"/>
    <path id="Trazado_25311" data-name="Trazado 25311" d="M1006.846,438.491l-.7.752,2.786,2.59H973.184v1.711h35.75l-2.788,2.591.7.752,4.514-4.2Z" transform="translate(-154.814 1905.791)" fill="#ffd54f"/>
    <path id="Trazado_842377" data-name="Trazado 842377" d="M-15.41-2.344H-19.52L-20.3,0h-2.492l4.234-11.375h2.172L-12.129,0h-2.492Zm-3.477-1.9h2.844L-17.473-8.5Zm9.375-4.211.07.977a2.951,2.951,0,0,1,2.43-1.133,2.453,2.453,0,0,1,2,.789A3.682,3.682,0,0,1-4.34-5.461V0H-6.6V-5.406A1.465,1.465,0,0,0-6.91-6.449a1.4,1.4,0,0,0-1.039-.324,1.553,1.553,0,0,0-1.43.813V0h-2.258V-8.453ZM.887-1.664A1.481,1.481,0,0,0,1.9-2.008a1.2,1.2,0,0,0,.406-.914H4.426a2.9,2.9,0,0,1-.469,1.574A3.093,3.093,0,0,1,2.7-.238,3.949,3.949,0,0,1,.926.156,3.67,3.67,0,0,1-1.934-1,4.56,4.56,0,0,1-2.98-4.18v-.148A4.508,4.508,0,0,1-1.941-7.445,3.627,3.627,0,0,1,.91-8.609a3.555,3.555,0,0,1,2.543.9,3.2,3.2,0,0,1,.973,2.4H2.309A1.551,1.551,0,0,0,1.9-6.377,1.354,1.354,0,0,0,.871-6.789,1.36,1.36,0,0,0-.32-6.214a3.333,3.333,0,0,0-.4,1.866v.235a3.375,3.375,0,0,0,.4,1.878A1.377,1.377,0,0,0,.887-1.664ZM7.918-7.531a2.818,2.818,0,0,1,2.258-1.078q2.75,0,2.789,3.2V0H10.707V-5.352a1.57,1.57,0,0,0-.312-1.074,1.34,1.34,0,0,0-1.039-.348,1.537,1.537,0,0,0-1.437.766V0H5.66V-12H7.918Zm6.4,3.227A5.013,5.013,0,0,1,14.8-6.547,3.546,3.546,0,0,1,16.2-8.07a4.069,4.069,0,0,1,2.113-.539A3.849,3.849,0,0,1,21.1-7.562a4.2,4.2,0,0,1,1.207,2.844l.016.578A4.418,4.418,0,0,1,21.238-1.02,3.775,3.775,0,0,1,18.324.156a3.793,3.793,0,0,1-2.918-1.172A4.5,4.5,0,0,1,14.316-4.2Zm2.258.16A3.16,3.16,0,0,0,17.027-2.3a1.5,1.5,0,0,0,1.3.638,1.5,1.5,0,0,0,1.281-.63,3.457,3.457,0,0,0,.461-2.015,3.128,3.128,0,0,0-.461-1.831,1.5,1.5,0,0,0-1.3-.649,1.474,1.474,0,0,0-1.281.646A3.516,3.516,0,0,0,16.574-4.144Z" transform="translate(834.303 2366.498)" fill="#12263f"/>
    <path id="Trazado_842378" data-name="Trazado 842378" d="M-17.2-1.883h4.977V0h-7.32V-11.375H-17.2ZM-6.125,0a2.507,2.507,0,0,1-.227-.758A2.732,2.732,0,0,1-8.484.156a3,3,0,0,1-2.059-.719,2.312,2.312,0,0,1-.816-1.812,2.389,2.389,0,0,1,1-2.062,4.915,4.915,0,0,1,2.879-.727h1.039v-.484a1.393,1.393,0,0,0-.3-.937A1.183,1.183,0,0,0-7.7-6.937a1.345,1.345,0,0,0-.895.273.929.929,0,0,0-.324.75h-2.258a2.268,2.268,0,0,1,.453-1.359,3,3,0,0,1,1.281-.98,4.669,4.669,0,0,1,1.859-.355,3.689,3.689,0,0,1,2.48.785A2.747,2.747,0,0,1-4.18-5.617v3.664a4.041,4.041,0,0,0,.336,1.82V0ZM-7.992-1.57a1.945,1.945,0,0,0,.922-.223,1.462,1.462,0,0,0,.625-.6V-3.844h-.844q-1.7,0-1.8,1.172l-.008.133a.9.9,0,0,0,.3.7A1.153,1.153,0,0,0-7.992-1.57ZM2.3-6.336A6.134,6.134,0,0,0,1.492-6.4a1.654,1.654,0,0,0-1.68.867V0H-2.445V-8.453H-.312L-.25-7.445A2.092,2.092,0,0,1,1.633-8.609a2.366,2.366,0,0,1,.7.1Zm.609,2.047A4.954,4.954,0,0,1,3.84-7.422a3,3,0,0,1,2.5-1.187A2.631,2.631,0,0,1,8.5-7.656l.094-.8h2.047V-.281a3.613,3.613,0,0,1-.5,1.93A3.236,3.236,0,0,1,8.719,2.9a4.985,4.985,0,0,1-2.141.43,4.635,4.635,0,0,1-1.812-.371A3.217,3.217,0,0,1,3.43,2l1-1.375a2.645,2.645,0,0,0,2.047.945,1.936,1.936,0,0,0,1.4-.48,1.8,1.8,0,0,0,.5-1.363V-.727A2.612,2.612,0,0,1,6.32.156,2.992,2.992,0,0,1,3.855-1.035,4.953,4.953,0,0,1,2.914-4.2Zm2.258.168a3.085,3.085,0,0,0,.461,1.8A1.466,1.466,0,0,0,6.9-1.664a1.568,1.568,0,0,0,1.477-.775V-6a1.564,1.564,0,0,0-1.461-.775,1.476,1.476,0,0,0-1.277.665A3.477,3.477,0,0,0,5.172-4.121ZM12.023-4.3a5.013,5.013,0,0,1,.484-2.242A3.546,3.546,0,0,1,13.9-8.07a4.069,4.069,0,0,1,2.113-.539,3.849,3.849,0,0,1,2.793,1.047,4.2,4.2,0,0,1,1.207,2.844l.016.578A4.418,4.418,0,0,1,18.945-1.02,3.775,3.775,0,0,1,16.031.156a3.793,3.793,0,0,1-2.918-1.172A4.5,4.5,0,0,1,12.023-4.2Zm2.258.16A3.16,3.16,0,0,0,14.734-2.3a1.5,1.5,0,0,0,1.3.638,1.5,1.5,0,0,0,1.281-.63,3.457,3.457,0,0,0,.461-2.015,3.128,3.128,0,0,0-.461-1.831,1.5,1.5,0,0,0-1.3-.649,1.474,1.474,0,0,0-1.281.646A3.516,3.516,0,0,0,14.281-4.144Z" transform="translate(763.436 2293.661) rotate(-90)" fill="#12263f"/>
    <path id="Trazado_25366" data-name="Trazado 25366" d="M1023.518,389.539a2.559,2.559,0,1,1,2.569-2.548A2.559,2.559,0,0,1,1023.518,389.539Z" transform="translate(-165.557 1917.946)" fill="#45ace3"/>
  </g>
</svg>
