<svg xmlns="http://www.w3.org/2000/svg" width="373.592" height="307.691" viewBox="0 0 373.592 307.691">
  <g id="Grupo_1078983" data-name="Grupo 1078983" transform="translate(-1036.016 -2115)">
    <g id="Grupo_16051" data-name="Grupo 16051" transform="translate(1224.314 2211.137)">
      <path id="Trazado_25218" data-name="Trazado 25218" d="M1418.19,395.646h-1.551v-2.326h1.551Zm0-4.651h-1.551V388.67h1.551Zm0-4.651h-1.551v-2.326h1.551Zm0-4.651h-1.551v-2.326h1.551Zm0-4.651h-1.551v-2.326h1.551Zm0-4.651h-1.551v-2.326h1.551Zm0-4.651h-1.551v-2.326h1.551Zm0-4.651h-1.551v-2.326h1.551Zm0-4.651h-1.551v-2.326h1.551Zm0-4.651h-1.551V351.46h1.551Zm0-4.651h-1.551v-2.326h1.551Zm0-4.651h-1.551v-2.326h1.551Zm0-4.651h-1.551v-2.326h1.551Zm-2.316-2.335h-2.326v-1.55h2.326Zm-4.651,0H1408.9v-1.55h2.325Zm-4.651,0h-2.326v-1.55h2.326Zm-4.651,0h-2.326v-1.55h2.326Z" transform="translate(-1399.594 -335.947)" fill="#afafaf"/>
    </g>
    <text id="Aumentar_A._Ancho:_3_-_Largo:_1_B._Ancho:_1_-_Largo:_3" data-name="Aumentar
A. Ancho: 3 - Largo: 1
B. Ancho: 1 - Largo: 3" transform="translate(1327.608 2140.332)" fill="#12263f" font-size="16" font-family="SegoeUI-Bold, Segoe UI" font-weight="700"><tspan x="-37.563" y="0">Aumentar</tspan><tspan x="-81.004" y="20">A. Ancho: 3 - Largo: 1</tspan><tspan x="-80.508" y="40">B. Ancho: 1 - Largo: 3</tspan></text>
    <text id="Reduce_A._Ancho:_3_-_Largo:_1_B._Ancho:_1_-_Largo:_3" data-name="Reduce
A. Ancho: 3 - Largo: 1
B. Ancho: 1 - Largo: 3" transform="translate(1118.016 2347.938)" fill="#12263f" font-size="16" font-family="SegoeUI-Bold, Segoe UI" font-weight="700"><tspan x="-27.313" y="0">Reduce</tspan><tspan x="-81.004" y="20">A. Ancho: 3 - Largo: 1</tspan><tspan x="-80.508" y="40">B. Ancho: 1 - Largo: 3</tspan></text>
    <g id="Grupo_16223" data-name="Grupo 16223" transform="translate(1222.941 2250.497)">
      <g id="Grupo_16218" data-name="Grupo 16218" transform="translate(57.783 18.89)">
        <rect id="Rectángulo_3969" data-name="Rectángulo 3969" width="1.55" height="1.163" fill="#afafaf"/>
      </g>
      <g id="Grupo_16219" data-name="Grupo 16219" transform="translate(57.783 4.36)">
        <path id="Trazado_25312" data-name="Trazado 25312" d="M1473.913,404.455h-1.551v-2.422h1.551Zm0-4.843h-1.551v-2.422h1.551Zm0-4.843h-1.551v-2.422h1.551Z" transform="translate(-1472.363 -392.346)" fill="#afafaf"/>
      </g>
      <g id="Grupo_16220" data-name="Grupo 16220" transform="translate(57.396 0)">
        <path id="Trazado_25313" data-name="Trazado 25313" d="M1473.8,388.66h-1.55v-.388h-.388v-1.55h1.938Z" transform="translate(-1471.863 -386.722)" fill="#afafaf"/>
      </g>
      <g id="Grupo_16221" data-name="Grupo 16221" transform="translate(3.412 0)">
        <path id="Trazado_25314" data-name="Trazado 25314" d="M1453.958,388.272h-2.249v-1.55h2.249Zm-4.5,0h-2.251v-1.55h2.251Zm-4.5,0h-2.249v-1.55h2.249Zm-4.5,0h-2.25v-1.55h2.25Zm-4.5,0h-2.25v-1.55h2.25Zm-4.5,0h-2.25v-1.55h2.25Zm-4.5,0h-2.249v-1.55h2.249Zm-4.5,0h-2.25v-1.55h2.25Zm-4.5,0h-2.25v-1.55h2.25Zm-4.5,0h-2.25v-1.55h2.25Zm-4.5,0h-2.249v-1.55h2.249Zm-4.5,0h-2.25v-1.55h2.25Z" transform="translate(-1402.224 -386.722)" fill="#afafaf"/>
      </g>
      <g id="Grupo_16222" data-name="Grupo 16222" transform="translate(0 0)">
        <rect id="Rectángulo_3970" data-name="Rectángulo 3970" width="1.163" height="1.55" fill="#afafaf"/>
      </g>
    </g>
    <g id="Grupo_16224" data-name="Grupo 16224" transform="translate(1202.714 2270.061)">
      <path id="Trazado_25315" data-name="Trazado 25315" d="M1371.731,411.959h1.55v2.326h-1.55Zm0,4.651h1.55v2.326h-1.55Zm0,4.651h1.55v2.326h-1.55Zm0,4.651h1.55v2.326h-1.55Zm0,4.651h1.55v2.326h-1.55Zm0,4.651h1.55v2.326h-1.55Zm0,4.651h1.55v2.326h-1.55Zm0,4.651h1.55v2.326h-1.55Zm0,4.651h1.55v2.326h-1.55Zm0,4.651h1.55v2.326h-1.55Zm0,4.651h1.55V460.8h-1.55Zm0,4.651h1.55v2.326h-1.55Zm0,4.651h1.55V470.1h-1.55Zm2.316,2.336h2.326v1.55h-2.326Zm4.651,0h2.326v1.55H1378.7Zm4.651,0h2.326v1.55h-2.326Zm4.651,0h2.326v1.55H1388Z" transform="translate(-1371.731 -411.959)" fill="#45ace3"/>
    </g>
    <g id="Grupo_16230" data-name="Grupo 16230" transform="translate(1163.349 2270.348)">
      <g id="Grupo_16225" data-name="Grupo 16225">
        <rect id="Rectángulo_3971" data-name="Rectángulo 3971" width="1.55" height="1.163" fill="#45ace3"/>
      </g>
      <g id="Grupo_16226" data-name="Grupo 16226" transform="translate(0 3.585)">
        <path id="Trazado_25316" data-name="Trazado 25316" d="M1320.95,416.953h1.551v2.422h-1.551Zm0,4.843h1.551v2.422h-1.551Zm0,4.843h1.551v2.422h-1.551Z" transform="translate(-1320.95 -416.953)" fill="#45ace3"/>
      </g>
      <g id="Grupo_16227" data-name="Grupo 16227" transform="translate(0 18.115)">
        <path id="Trazado_25317" data-name="Trazado 25317" d="M1320.95,435.7h1.55v.388h.388v1.55h-1.938Z" transform="translate(-1320.95 -435.697)" fill="#45ace3"/>
      </g>
      <g id="Grupo_16228" data-name="Grupo 16228" transform="translate(4.187 18.503)">
        <path id="Trazado_25318" data-name="Trazado 25318" d="M1326.351,436.2h2.249v1.55h-2.249Zm4.5,0h2.25v1.55h-2.25Zm4.5,0h2.25v1.55h-2.25Zm4.5,0h2.25v1.55h-2.25Zm4.5,0h2.249v1.55h-2.249Zm4.5,0h2.25v1.55h-2.25Zm4.5,0h2.25v1.55h-2.25Zm4.5,0h2.25v1.55h-2.25Zm4.5,0h2.249v1.55h-2.249Zm4.5,0h2.25v1.55h-2.25Zm4.5,0h2.25v1.55h-2.25Zm4.5,0h2.25v1.55h-2.25Z" transform="translate(-1326.351 -436.197)" fill="#45ace3"/>
      </g>
      <g id="Grupo_16229" data-name="Grupo 16229" transform="translate(58.171 18.503)">
        <rect id="Rectángulo_3972" data-name="Rectángulo 3972" width="1.163" height="1.55" fill="#45ace3"/>
      </g>
    </g>
    <g id="Grupo_16231" data-name="Grupo 16231" transform="translate(1218.61 2115)">
      <path id="Trazado_25319" data-name="Trazado 25319" d="M1398.4,211.932l-2.334,3.7v3.4h-1.48v-3.367l-2.35-3.735h1.632l1.45,2.418,1.455-2.418Z" transform="translate(-1392.236 -211.932)" fill="#00223d"/>
    </g>
    <g id="Grupo_16232" data-name="Grupo 16232" transform="translate(1369.052 2267.285)">
      <path id="Trazado_25320" data-name="Trazado 25320" d="M1586.305,415.481l2.766-3.705-2.688-3.4h1.794l1.77,2.329,1.769-2.329h1.794l-2.688,3.4,2.768,3.705h-1.878l-1.764-2.512-1.764,2.512Z" transform="translate(-1586.305 -408.379)" fill="#00223d"/>
    </g>
    <g id="Grupo_16235" data-name="Grupo 16235" transform="translate(1071.192 2269.292)">
      <g id="Grupo_16234" data-name="Grupo 16234">
        <g id="Grupo_16233" data-name="Grupo 16233">
          <rect id="Rectángulo_3973" data-name="Rectángulo 3973" width="295.771" height="2.516" fill="#673ab7"/>
        </g>
      </g>
    </g>
    <g id="Grupo_16250" data-name="Grupo 16250" transform="translate(1082.98 2266.004)">
      <g id="Grupo_16236" data-name="Grupo 16236" transform="translate(100.707)">
        <rect id="Rectángulo_3974" data-name="Rectángulo 3974" width="0.472" height="9.663" fill="#604053"/>
      </g>
      <g id="Grupo_16237" data-name="Grupo 16237" transform="translate(81.144)">
        <rect id="Rectángulo_3975" data-name="Rectángulo 3975" width="0.472" height="9.663" fill="#604053"/>
      </g>
      <g id="Grupo_16238" data-name="Grupo 16238" transform="translate(120.269)">
        <rect id="Rectángulo_3976" data-name="Rectángulo 3976" width="0.472" height="9.663" fill="#604053"/>
      </g>
      <g id="Grupo_16239" data-name="Grupo 16239" transform="translate(178.957)">
        <rect id="Rectángulo_3977" data-name="Rectángulo 3977" width="0.472" height="9.663" fill="#604053"/>
      </g>
      <g id="Grupo_16240" data-name="Grupo 16240" transform="translate(159.394)">
        <rect id="Rectángulo_3978" data-name="Rectángulo 3978" width="0.472" height="9.663" fill="#604053"/>
      </g>
      <g id="Grupo_16241" data-name="Grupo 16241" transform="translate(198.519)">
        <rect id="Rectángulo_3979" data-name="Rectángulo 3979" width="0.472" height="9.663" fill="#604053"/>
      </g>
      <g id="Grupo_16242" data-name="Grupo 16242" transform="translate(237.644)">
        <rect id="Rectángulo_3980" data-name="Rectángulo 3980" width="0.472" height="9.663" fill="#604053"/>
      </g>
      <g id="Grupo_16243" data-name="Grupo 16243" transform="translate(218.082)">
        <rect id="Rectángulo_3981" data-name="Rectángulo 3981" width="0.472" height="9.663" fill="#604053"/>
      </g>
      <g id="Grupo_16244" data-name="Grupo 16244" transform="translate(257.207)">
        <rect id="Rectángulo_3982" data-name="Rectángulo 3982" width="0.472" height="9.663" fill="#604053"/>
      </g>
      <g id="Grupo_16245" data-name="Grupo 16245" transform="translate(277.228)">
        <rect id="Rectángulo_3983" data-name="Rectángulo 3983" width="0.472" height="9.663" fill="#604053"/>
      </g>
      <g id="Grupo_16246" data-name="Grupo 16246" transform="translate(19.563)">
        <rect id="Rectángulo_3984" data-name="Rectángulo 3984" width="0.472" height="9.663" fill="#604053"/>
      </g>
      <g id="Grupo_16247" data-name="Grupo 16247">
        <rect id="Rectángulo_3985" data-name="Rectángulo 3985" width="0.472" height="9.663" fill="#604053"/>
      </g>
      <g id="Grupo_16248" data-name="Grupo 16248" transform="translate(39.125)">
        <rect id="Rectángulo_3986" data-name="Rectángulo 3986" width="0.472" height="9.663" fill="#604053"/>
      </g>
      <g id="Grupo_16249" data-name="Grupo 16249" transform="translate(59.146)">
        <rect id="Rectángulo_3987" data-name="Rectángulo 3987" width="0.472" height="9.663" fill="#604053"/>
      </g>
    </g>
    <g id="Grupo_16253" data-name="Grupo 16253" transform="translate(1221.397 2126.92)">
      <g id="Grupo_16252" data-name="Grupo 16252" transform="translate(0)">
        <g id="Grupo_16251" data-name="Grupo 16251">
          <rect id="Rectángulo_3988" data-name="Rectángulo 3988" width="2.516" height="295.771" fill="#673ab7"/>
        </g>
      </g>
    </g>
    <path id="Trazado_25321" data-name="Trazado 25321" d="M1395.167,414.823a3.447,3.447,0,1,1,4.679-1.368A3.448,3.448,0,0,1,1395.167,414.823Z" transform="translate(-173.882 1858.912)" fill="#d1bcff"/>
    <g id="Grupo_16268" data-name="Grupo 16268" transform="translate(1217.143 2133.202)">
      <g id="Grupo_16254" data-name="Grupo 16254" transform="translate(0 176.522)">
        <rect id="Rectángulo_3989" data-name="Rectángulo 3989" width="9.663" height="0.472" fill="#604053"/>
      </g>
      <g id="Grupo_16255" data-name="Grupo 16255" transform="translate(0 196.084)">
        <rect id="Rectángulo_3990" data-name="Rectángulo 3990" width="9.663" height="0.472" fill="#604053"/>
      </g>
      <g id="Grupo_16256" data-name="Grupo 16256" transform="translate(0 156.959)">
        <rect id="Rectángulo_3991" data-name="Rectángulo 3991" width="9.663" height="0.472" fill="#604053"/>
      </g>
      <g id="Grupo_16257" data-name="Grupo 16257" transform="translate(0 98.271)">
        <rect id="Rectángulo_3992" data-name="Rectángulo 3992" width="9.663" height="0.472" fill="#604053"/>
      </g>
      <g id="Grupo_16258" data-name="Grupo 16258" transform="translate(0 117.834)">
        <rect id="Rectángulo_3993" data-name="Rectángulo 3993" width="9.663" height="0.472" fill="#604053"/>
      </g>
      <g id="Grupo_16259" data-name="Grupo 16259" transform="translate(0 78.709)">
        <rect id="Rectángulo_3994" data-name="Rectángulo 3994" width="9.663" height="0.472" fill="#604053"/>
      </g>
      <g id="Grupo_16260" data-name="Grupo 16260" transform="translate(0 39.584)">
        <rect id="Rectángulo_3995" data-name="Rectángulo 3995" width="9.663" height="0.472" fill="#604053"/>
      </g>
      <g id="Grupo_16261" data-name="Grupo 16261" transform="translate(0 59.146)">
        <rect id="Rectángulo_3996" data-name="Rectángulo 3996" width="9.663" height="0.472" fill="#604053"/>
      </g>
      <g id="Grupo_16262" data-name="Grupo 16262" transform="translate(0 20.021)">
        <rect id="Rectángulo_3997" data-name="Rectángulo 3997" width="9.663" height="0.472" fill="#604053"/>
      </g>
      <g id="Grupo_16263" data-name="Grupo 16263" transform="translate(0)">
        <rect id="Rectángulo_3998" data-name="Rectángulo 3998" width="9.663" height="0.472" fill="#604053"/>
      </g>
      <g id="Grupo_16264" data-name="Grupo 16264" transform="translate(0 257.666)">
        <rect id="Rectángulo_3999" data-name="Rectángulo 3999" width="9.663" height="0.472" fill="#604053"/>
      </g>
      <g id="Grupo_16265" data-name="Grupo 16265" transform="translate(0 277.228)">
        <rect id="Rectángulo_4000" data-name="Rectángulo 4000" width="9.663" height="0.472" fill="#604053"/>
      </g>
      <g id="Grupo_16266" data-name="Grupo 16266" transform="translate(0 238.103)">
        <rect id="Rectángulo_4001" data-name="Rectángulo 4001" width="9.663" height="0.472" fill="#604053"/>
      </g>
      <g id="Grupo_16267" data-name="Grupo 16267" transform="translate(0 218.082)">
        <rect id="Rectángulo_4002" data-name="Rectángulo 4002" width="9.663" height="0.472" fill="#604053"/>
      </g>
    </g>
    <g id="Grupo_16269" data-name="Grupo 16269" transform="translate(1210.918 2249.307)">
      <path id="Trazado_25322" data-name="Trazado 25322" d="M1383.166,385.186h.4v3.46h-.42v-3l-.83.72v-.454Z" transform="translate(-1382.313 -385.186)" fill="#604053"/>
    </g>
    <g id="Grupo_16270" data-name="Grupo 16270" transform="translate(1210.376 2229.537)">
      <path id="Trazado_25323" data-name="Trazado 25323" d="M1382.226,362.8h1.723v.391h-2.334v-.322L1383,361.44a1.636,1.636,0,0,0,.312-.41.822.822,0,0,0,.086-.357.6.6,0,0,0-.175-.458.711.711,0,0,0-.925.015.763.763,0,0,0-.176.557v.256L1381.7,361v-.214a1.094,1.094,0,0,1,.292-.822,1.211,1.211,0,0,1,1.532-.021.913.913,0,0,1,.294.717,1.094,1.094,0,0,1-.116.5,2.187,2.187,0,0,1-.375.5Z" transform="translate(-1381.614 -359.683)" fill="#604053"/>
    </g>
    <g id="Grupo_16271" data-name="Grupo 16271" transform="translate(1210.38 2210.606)">
      <path id="Trazado_25324" data-name="Trazado 25324" d="M1382.771,338.816q-1.152,0-1.152-1.231l.432-.022a1.079,1.079,0,0,0,.163.651.653.653,0,0,0,.557.216.766.766,0,0,0,.537-.187.691.691,0,0,0,.007-.976.709.709,0,0,0-.495-.179h-.172v-.361h.167a.514.514,0,0,0,.379-.16.539.539,0,0,0,.156-.394.487.487,0,0,0-.167-.381.611.611,0,0,0-.42-.147.673.673,0,0,0-.277.051.4.4,0,0,0-.176.151.71.71,0,0,0-.088.22,1.317,1.317,0,0,0-.026.281l-.432-.016a1.118,1.118,0,0,1,.259-.793.962.962,0,0,1,.739-.278,1.024,1.024,0,0,1,.708.254.809.809,0,0,1,.284.629.764.764,0,0,1-.137.45.784.784,0,0,1-.347.28.956.956,0,0,1,.487.317.893.893,0,0,1,.189.582.949.949,0,0,1-.331.754A1.236,1.236,0,0,1,1382.771,338.816Z" transform="translate(-1381.619 -335.263)" fill="#604053"/>
    </g>
    <g id="Grupo_16272" data-name="Grupo 16272" transform="translate(1210.288 2190.689)">
      <path id="Trazado_25325" data-name="Trazado 25325" d="M1384.01,311.848v.375h-.512v.667h-.408v-.667h-1.59v-.378l1.382-2.275h.615v2.278Zm-2.087,0h1.167v-1.978Z" transform="translate(-1381.501 -309.57)" fill="#604053"/>
    </g>
    <g id="Grupo_16273" data-name="Grupo 16273" transform="translate(1210.435 2171.344)">
      <path id="Trazado_25326" data-name="Trazado 25326" d="M1382.7,285.793a1.285,1.285,0,0,1,.906.28,1.011,1.011,0,0,1,.3.779,1.1,1.1,0,0,1-.308.808,1.082,1.082,0,0,1-.805.312,1.272,1.272,0,0,1-.416-.067,1.132,1.132,0,0,1-.352-.193.884.884,0,0,1-.245-.327,1.074,1.074,0,0,1-.091-.448,1.54,1.54,0,0,1,.012-.17l.417-.035a1.671,1.671,0,0,0-.019.186.744.744,0,0,0,.06.309.524.524,0,0,0,.161.212.721.721,0,0,0,.218.114.788.788,0,0,0,.247.038.679.679,0,0,0,.515-.2.722.722,0,0,0,.195-.521.687.687,0,0,0-.2-.523.9.9,0,0,0-.638-.191h-.84l.205-1.537h1.74v.38h-1.4l-.109.8Z" transform="translate(-1381.69 -284.614)" fill="#604053"/>
    </g>
    <g id="Grupo_16274" data-name="Grupo 16274" transform="translate(1210.392 2151.997)">
      <path id="Trazado_25327" data-name="Trazado 25327" d="M1383.937,261.873a1.121,1.121,0,0,1-.151.6,1.066,1.066,0,0,1-.417.406,1.2,1.2,0,0,1-.575.141,1.158,1.158,0,0,1-.826-.312,1.056,1.056,0,0,1-.333-.805,1.31,1.31,0,0,1,.288-.8l1.111-1.443h.481l-.922,1.163a1.066,1.066,0,0,1,.8.088,1.017,1.017,0,0,1,.389.381A1.139,1.139,0,0,1,1383.937,261.873Zm-1.154.764a.721.721,0,0,0,.755-.771.729.729,0,0,0-.762-.767.711.711,0,0,0-.542.228.76.76,0,0,0-.21.555.736.736,0,0,0,.213.554A.758.758,0,0,0,1382.783,262.636Z" transform="translate(-1381.635 -259.658)" fill="#604053"/>
    </g>
    <g id="Grupo_16275" data-name="Grupo 16275" transform="translate(1210.408 2131.777)">
      <path id="Trazado_25328" data-name="Trazado 25328" d="M1381.655,233.575h2.271v.343L1382.3,236.9h-.467l1.636-2.943h-1.818Z" transform="translate(-1381.655 -233.575)" fill="#604053"/>
    </g>
    <g id="Grupo_16276" data-name="Grupo 16276" transform="translate(1241.474 2279.488)">
      <path id="Trazado_25329" data-name="Trazado 25329" d="M1422.583,424.12h.4v3.46h-.42v-3l-.831.72v-.454Z" transform="translate(-1421.73 -424.12)" fill="#604053"/>
    </g>
    <g id="Grupo_16277" data-name="Grupo 16277" transform="translate(1261.222 2279.462)">
      <path id="Trazado_25330" data-name="Trazado 25330" d="M1447.817,427.208h1.723v.391H1447.2v-.322l1.386-1.433a1.646,1.646,0,0,0,.312-.411.826.826,0,0,0,.086-.357.6.6,0,0,0-.174-.458.712.712,0,0,0-.926.015.767.767,0,0,0-.176.557v.256l-.425-.04v-.214a1.1,1.1,0,0,1,.292-.822,1.073,1.073,0,0,1,.781-.284,1.085,1.085,0,0,1,.751.263.913.913,0,0,1,.294.718,1.081,1.081,0,0,1-.117.5,2.194,2.194,0,0,1-.374.5Z" transform="translate(-1447.205 -424.087)" fill="#604053"/>
    </g>
    <g id="Grupo_16278" data-name="Grupo 16278" transform="translate(1278.818 2279.441)">
      <path id="Trazado_25331" data-name="Trazado 25331" d="M1471.057,427.613q-1.152,0-1.153-1.231l.432-.023a1.082,1.082,0,0,0,.162.651.655.655,0,0,0,.558.216.767.767,0,0,0,.537-.187.631.631,0,0,0,.2-.489.622.622,0,0,0-.2-.486.707.707,0,0,0-.5-.18h-.171v-.361h.167a.512.512,0,0,0,.378-.16.535.535,0,0,0,.157-.393.486.486,0,0,0-.167-.381.613.613,0,0,0-.421-.148.671.671,0,0,0-.276.052.388.388,0,0,0-.176.151.7.7,0,0,0-.088.22,1.3,1.3,0,0,0-.027.28l-.433-.015a1.12,1.12,0,0,1,.26-.794.961.961,0,0,1,.738-.278,1.028,1.028,0,0,1,.709.253.811.811,0,0,1,.284.629.758.758,0,0,1-.137.45.793.793,0,0,1-.346.281.951.951,0,0,1,.486.316.889.889,0,0,1,.189.583.951.951,0,0,1-.33.754A1.243,1.243,0,0,1,1471.057,427.613Z" transform="translate(-1469.904 -424.06)" fill="#604053"/>
    </g>
    <g id="Grupo_16279" data-name="Grupo 16279" transform="translate(1300.101 2279.558)">
      <path id="Trazado_25332" data-name="Trazado 25332" d="M1499.868,426.488v.375h-.512v.667h-.408v-.667h-1.589v-.378l1.382-2.276h.615v2.278Zm-2.087,0h1.167V424.51Z" transform="translate(-1497.359 -424.21)" fill="#604053"/>
    </g>
    <g id="Grupo_16280" data-name="Grupo 16280" transform="translate(1319.53 2279.539)">
      <path id="Trazado_25333" data-name="Trazado 25333" d="M1523.433,425.365a1.289,1.289,0,0,1,.906.28,1.014,1.014,0,0,1,.3.779,1.1,1.1,0,0,1-.308.808,1.082,1.082,0,0,1-.805.312,1.28,1.28,0,0,1-.416-.067,1.12,1.12,0,0,1-.351-.193.883.883,0,0,1-.245-.327,1.074,1.074,0,0,1-.091-.448,1.542,1.542,0,0,1,.012-.17l.417-.035a1.662,1.662,0,0,0-.019.186.752.752,0,0,0,.06.309.528.528,0,0,0,.161.211.724.724,0,0,0,.218.114.787.787,0,0,0,.247.038.679.679,0,0,0,.515-.2.721.721,0,0,0,.195-.521.687.687,0,0,0-.2-.523.906.906,0,0,0-.638-.192h-.839l.205-1.537h1.74v.38h-1.4l-.108.8Z" transform="translate(-1522.422 -424.186)" fill="#604053"/>
    </g>
    <g id="Grupo_16281" data-name="Grupo 16281" transform="translate(1339.045 2279.539)">
      <path id="Trazado_25334" data-name="Trazado 25334" d="M1549.9,426.4a1.119,1.119,0,0,1-.151.6,1.059,1.059,0,0,1-.417.405,1.189,1.189,0,0,1-.576.142,1.161,1.161,0,0,1-.825-.312,1.056,1.056,0,0,1-.333-.805,1.307,1.307,0,0,1,.287-.8l1.111-1.443h.481l-.922,1.163a1.043,1.043,0,0,1,.287-.04,1.06,1.06,0,0,1,.509.127,1.02,1.02,0,0,1,.389.381A1.137,1.137,0,0,1,1549.9,426.4Zm-1.153.764a.722.722,0,0,0,.755-.771.729.729,0,0,0-.762-.766.711.711,0,0,0-.542.228.76.76,0,0,0-.21.555.731.731,0,0,0,.213.554A.759.759,0,0,0,1548.745,427.164Z" transform="translate(-1547.597 -424.186)" fill="#604053"/>
    </g>
    <g id="Grupo_16282" data-name="Grupo 16282" transform="translate(1358.688 2279.558)">
      <path id="Trazado_25335" data-name="Trazado 25335" d="M1572.936,424.21h2.271v.342l-1.623,2.978h-.468l1.636-2.943h-1.818Z" transform="translate(-1572.936 -424.21)" fill="#604053"/>
    </g>
    <g id="Grupo_16297" data-name="Grupo 16297" transform="translate(1077.85 2279.441)">
      <g id="Grupo_16283" data-name="Grupo 16283" transform="translate(125.473 0.047)">
        <path id="Trazado_25336" data-name="Trazado 25336" d="M1373.369,424.12h.4v3.46h-.42v-3l-.831.72v-.454Z" transform="translate(-1372.516 -424.12)" fill="#990831"/>
      </g>
      <g id="Grupo_16284" data-name="Grupo 16284" transform="translate(105.187 0.021)">
        <path id="Trazado_25337" data-name="Trazado 25337" d="M1346.959,427.208h1.722v.391h-2.334v-.322l1.386-1.433a1.625,1.625,0,0,0,.312-.411.817.817,0,0,0,.086-.357.6.6,0,0,0-.174-.458.711.711,0,0,0-.925.015.764.764,0,0,0-.176.557v.256l-.425-.04v-.214a1.1,1.1,0,0,1,.292-.822,1.21,1.21,0,0,1,1.532-.021.913.913,0,0,1,.294.718,1.09,1.09,0,0,1-.116.5,2.175,2.175,0,0,1-.375.5Z" transform="translate(-1346.347 -424.087)" fill="#990831"/>
      </g>
      <g id="Grupo_16285" data-name="Grupo 16285" transform="translate(82.9)">
        <path id="Trazado_25338" data-name="Trazado 25338" d="M1318.751,427.613q-1.152,0-1.153-1.231l.432-.023a1.084,1.084,0,0,0,.162.651.656.656,0,0,0,.558.216.767.767,0,0,0,.537-.187.632.632,0,0,0,.2-.489.621.621,0,0,0-.2-.486.706.706,0,0,0-.495-.18h-.172v-.361h.167a.513.513,0,0,0,.378-.16.536.536,0,0,0,.157-.393.485.485,0,0,0-.167-.381.611.611,0,0,0-.42-.148.672.672,0,0,0-.277.052.387.387,0,0,0-.176.151.707.707,0,0,0-.088.22,1.3,1.3,0,0,0-.027.28l-.433-.015a1.12,1.12,0,0,1,.26-.794.962.962,0,0,1,.738-.278,1.029,1.029,0,0,1,.709.253.81.81,0,0,1,.284.629.758.758,0,0,1-.137.45.783.783,0,0,1-.346.281.949.949,0,0,1,.486.316.889.889,0,0,1,.189.583.948.948,0,0,1-.33.754A1.24,1.24,0,0,1,1318.751,427.613Z" transform="translate(-1317.598 -424.06)" fill="#990831"/>
      </g>
      <g id="Grupo_16286" data-name="Grupo 16286" transform="translate(62.775 0.116)">
        <path id="Trazado_25339" data-name="Trazado 25339" d="M1294.146,426.488v.375h-.512v.667h-.408v-.667h-1.589v-.378l1.381-2.276h.616v2.278Zm-2.087,0h1.167V424.51Z" transform="translate(-1291.637 -424.21)" fill="#990831"/>
      </g>
      <g id="Grupo_16287" data-name="Grupo 16287" transform="translate(43.595 0.098)">
        <path id="Trazado_25340" data-name="Trazado 25340" d="M1267.906,425.365a1.287,1.287,0,0,1,.905.28,1.011,1.011,0,0,1,.3.779,1.1,1.1,0,0,1-.308.808,1.083,1.083,0,0,1-.805.312,1.275,1.275,0,0,1-.416-.067,1.116,1.116,0,0,1-.351-.193.886.886,0,0,1-.246-.327,1.074,1.074,0,0,1-.091-.448,1.538,1.538,0,0,1,.012-.17l.418-.035a1.734,1.734,0,0,0-.019.186.75.75,0,0,0,.061.309.534.534,0,0,0,.161.211.73.73,0,0,0,.219.114.78.78,0,0,0,.246.038.678.678,0,0,0,.515-.2.719.719,0,0,0,.194-.521.683.683,0,0,0-.2-.523.9.9,0,0,0-.638-.192h-.84l.206-1.537h1.74v.38h-1.4l-.109.8Z" transform="translate(-1266.894 -424.186)" fill="#990831"/>
      </g>
      <g id="Grupo_16288" data-name="Grupo 16288" transform="translate(23.241 0.098)">
        <path id="Trazado_25341" data-name="Trazado 25341" d="M1242.939,426.4a1.12,1.12,0,0,1-.151.6,1.058,1.058,0,0,1-.417.405,1.191,1.191,0,0,1-.576.142,1.161,1.161,0,0,1-.825-.312,1.056,1.056,0,0,1-.333-.805,1.307,1.307,0,0,1,.288-.8l1.111-1.443h.481l-.922,1.163a1.043,1.043,0,0,1,.287-.04,1.061,1.061,0,0,1,.509.127,1.018,1.018,0,0,1,.389.381A1.135,1.135,0,0,1,1242.939,426.4Zm-1.154.764a.722.722,0,0,0,.755-.771.729.729,0,0,0-.762-.766.714.714,0,0,0-.543.228.762.762,0,0,0-.209.555.731.731,0,0,0,.213.554A.759.759,0,0,0,1241.786,427.164Z" transform="translate(-1240.638 -424.186)" fill="#990831"/>
      </g>
      <g id="Grupo_16289" data-name="Grupo 16289" transform="translate(3.984 0.116)">
        <path id="Trazado_25342" data-name="Trazado 25342" d="M1215.8,424.21h2.271v.342l-1.622,2.978h-.467l1.636-2.943H1215.8Z" transform="translate(-1215.796 -424.21)" fill="#990831"/>
      </g>
      <g id="Grupo_16290" data-name="Grupo 16290" transform="translate(121.546 1.56)">
        <path id="Trazado_25343" data-name="Trazado 25343" d="M1367.451,426.506v-.433h2.171v.433Z" transform="translate(-1367.451 -426.073)" fill="#990831"/>
      </g>
      <g id="Grupo_16291" data-name="Grupo 16291" transform="translate(101.045 1.56)">
        <path id="Trazado_25344" data-name="Trazado 25344" d="M1341,426.506v-.433h2.172v.433Z" transform="translate(-1341.004 -426.073)" fill="#990831"/>
      </g>
      <g id="Grupo_16292" data-name="Grupo 16292" transform="translate(78.698 1.56)">
        <path id="Trazado_25345" data-name="Trazado 25345" d="M1312.177,426.506v-.433h2.171v.433Z" transform="translate(-1312.177 -426.073)" fill="#990831"/>
      </g>
      <g id="Grupo_16293" data-name="Grupo 16293" transform="translate(58.791 1.56)">
        <path id="Trazado_25346" data-name="Trazado 25346" d="M1286.5,426.506v-.433h2.171v.433Z" transform="translate(-1286.497 -426.073)" fill="#990831"/>
      </g>
      <g id="Grupo_16294" data-name="Grupo 16294" transform="translate(39.442 1.56)">
        <path id="Trazado_25347" data-name="Trazado 25347" d="M1261.537,426.506v-.433h2.171v.433Z" transform="translate(-1261.537 -426.073)" fill="#990831"/>
      </g>
      <g id="Grupo_16295" data-name="Grupo 16295" transform="translate(19.349 1.56)">
        <path id="Trazado_25348" data-name="Trazado 25348" d="M1235.617,426.506v-.433h2.171v.433Z" transform="translate(-1235.617 -426.073)" fill="#990831"/>
      </g>
      <g id="Grupo_16296" data-name="Grupo 16296" transform="translate(0 1.56)">
        <path id="Trazado_25349" data-name="Trazado 25349" d="M1210.657,426.506v-.433h2.171v.433Z" transform="translate(-1210.657 -426.073)" fill="#990831"/>
      </g>
    </g>
    <g id="Grupo_16313" data-name="Grupo 16313" transform="translate(1206.801 2288.906)">
      <g id="Grupo_16301" data-name="Grupo 16301" transform="translate(3.574 0)">
        <g id="Grupo_16298" data-name="Grupo 16298" transform="translate(0.542)">
          <path id="Trazado_25350" data-name="Trazado 25350" d="M1383.166,436.269h.4v3.46h-.42v-3l-.83.72V437Z" transform="translate(-1382.313 -436.269)" fill="#990831"/>
        </g>
        <g id="Grupo_16299" data-name="Grupo 16299" transform="translate(0 19.299)">
          <path id="Trazado_25351" data-name="Trazado 25351" d="M1382.226,464.285h1.723v.391h-2.334v-.322l1.386-1.433a1.61,1.61,0,0,0,.312-.41.817.817,0,0,0,.086-.357.6.6,0,0,0-.175-.458.711.711,0,0,0-.925.015.764.764,0,0,0-.176.557v.256l-.425-.04v-.214a1.1,1.1,0,0,1,.292-.822,1.211,1.211,0,0,1,1.532-.021.914.914,0,0,1,.294.718,1.091,1.091,0,0,1-.116.5,2.188,2.188,0,0,1-.375.5Z" transform="translate(-1381.614 -461.164)" fill="#990831"/>
        </g>
        <g id="Grupo_16300" data-name="Grupo 16300" transform="translate(0.004 38.604)">
          <path id="Trazado_25352" data-name="Trazado 25352" d="M1382.771,489.622q-1.152,0-1.152-1.231l.432-.023a1.077,1.077,0,0,0,.163.651.651.651,0,0,0,.557.216.769.769,0,0,0,.537-.186.691.691,0,0,0,.007-.976.7.7,0,0,0-.495-.179h-.172v-.361h.167a.514.514,0,0,0,.379-.16.541.541,0,0,0,.156-.394.486.486,0,0,0-.167-.381.611.611,0,0,0-.42-.147.673.673,0,0,0-.277.051.4.4,0,0,0-.176.151.709.709,0,0,0-.088.22,1.314,1.314,0,0,0-.026.28l-.432-.015a1.121,1.121,0,0,1,.259-.794.964.964,0,0,1,.739-.278,1.024,1.024,0,0,1,.708.253.809.809,0,0,1,.284.629.76.76,0,0,1-.137.45.779.779,0,0,1-.347.281.952.952,0,0,1,.487.317.892.892,0,0,1,.189.582.949.949,0,0,1-.331.754A1.236,1.236,0,0,1,1382.771,489.622Z" transform="translate(-1381.619 -486.068)" fill="#990831"/>
        </g>
      </g>
      <g id="Grupo_16302" data-name="Grupo 16302" transform="translate(3.487 60.775)">
        <path id="Trazado_25353" data-name="Trazado 25353" d="M1384.01,516.947v.375h-.512v.667h-.408v-.667h-1.59v-.377l1.382-2.275h.615v2.278Zm-2.087,0h1.167v-1.978Z" transform="translate(-1381.501 -514.669)" fill="#990831"/>
      </g>
      <g id="Grupo_16303" data-name="Grupo 16303" transform="translate(3.633 80.522)">
        <path id="Trazado_25354" data-name="Trazado 25354" d="M1382.7,541.32a1.289,1.289,0,0,1,.906.28,1.013,1.013,0,0,1,.3.779,1.1,1.1,0,0,1-.308.808,1.081,1.081,0,0,1-.805.312,1.273,1.273,0,0,1-.416-.067,1.118,1.118,0,0,1-.352-.194.875.875,0,0,1-.245-.326,1.075,1.075,0,0,1-.091-.448,1.516,1.516,0,0,1,.012-.17l.417-.036a1.681,1.681,0,0,0-.019.187.746.746,0,0,0,.06.308.53.53,0,0,0,.161.212.74.74,0,0,0,.218.114.787.787,0,0,0,.247.037.681.681,0,0,0,.515-.2.722.722,0,0,0,.195-.521.69.69,0,0,0-.2-.524.9.9,0,0,0-.638-.191h-.84l.205-1.537h1.74v.379h-1.4l-.109.8Z" transform="translate(-1381.69 -540.142)" fill="#990831"/>
      </g>
      <g id="Grupo_16304" data-name="Grupo 16304" transform="translate(3.591 100.079)">
        <path id="Trazado_25355" data-name="Trazado 25355" d="M1383.937,567.586a1.119,1.119,0,0,1-.151.6,1.066,1.066,0,0,1-.417.406,1.2,1.2,0,0,1-.575.141,1.158,1.158,0,0,1-.826-.312,1.055,1.055,0,0,1-.333-.805,1.311,1.311,0,0,1,.288-.8l1.111-1.443h.481l-.922,1.163a1.066,1.066,0,0,1,.8.088,1.018,1.018,0,0,1,.389.381A1.139,1.139,0,0,1,1383.937,567.586Zm-1.154.764a.769.769,0,1,0-.007-1.537.711.711,0,0,0-.542.228.76.76,0,0,0-.21.555.736.736,0,0,0,.213.554A.758.758,0,0,0,1382.783,568.349Z" transform="translate(-1381.635 -565.371)" fill="#990831"/>
      </g>
      <g id="Grupo_16305" data-name="Grupo 16305" transform="translate(3.606 119.726)">
        <path id="Trazado_25356" data-name="Trazado 25356" d="M1381.655,590.715h2.271v.342l-1.623,2.978h-.467l1.636-2.943h-1.818Z" transform="translate(-1381.655 -590.715)" fill="#990831"/>
      </g>
      <g id="Grupo_16306" data-name="Grupo 16306" transform="translate(0 1.514)">
        <path id="Trazado_25357" data-name="Trazado 25357" d="M1377,438.655v-.433h2.172v.433Z" transform="translate(-1377.003 -438.222)" fill="#990831"/>
      </g>
      <g id="Grupo_16307" data-name="Grupo 16307" transform="translate(0 21.074)">
        <path id="Trazado_25358" data-name="Trazado 25358" d="M1377,463.887v-.433h2.172v.433Z" transform="translate(-1377.003 -463.454)" fill="#990831"/>
      </g>
      <g id="Grupo_16308" data-name="Grupo 16308" transform="translate(0 40.164)">
        <path id="Trazado_25359" data-name="Trazado 25359" d="M1377,488.513v-.433h2.172v.433Z" transform="translate(-1377.003 -488.081)" fill="#990831"/>
      </g>
      <g id="Grupo_16309" data-name="Grupo 16309" transform="translate(0 62.162)">
        <path id="Trazado_25360" data-name="Trazado 25360" d="M1377,516.891v-.433h2.172v.433Z" transform="translate(-1377.003 -516.458)" fill="#990831"/>
      </g>
      <g id="Grupo_16310" data-name="Grupo 16310" transform="translate(0 81.984)">
        <path id="Trazado_25361" data-name="Trazado 25361" d="M1377,542.461v-.433h2.172v.433Z" transform="translate(-1377.003 -542.028)" fill="#990831"/>
      </g>
      <g id="Grupo_16311" data-name="Grupo 16311" transform="translate(0 101.982)">
        <path id="Trazado_25362" data-name="Trazado 25362" d="M1377,568.257v-.432h2.172v.432Z" transform="translate(-1377.003 -567.825)" fill="#990831"/>
      </g>
      <g id="Grupo_16312" data-name="Grupo 16312" transform="translate(0 121.169)">
        <path id="Trazado_25363" data-name="Trazado 25363" d="M1377,593.01v-.433h2.172v.433Z" transform="translate(-1377.003 -592.577)" fill="#990831"/>
      </g>
    </g>
    <path id="Trazado_25364" data-name="Trazado 25364" d="M1473.154,389.234a2.559,2.559,0,1,1,2.569-2.548A2.558,2.558,0,0,1,1473.154,389.234Z" transform="translate(-191.244 1864.36)" fill="#45ace3"/>
    <path id="Trazado_25365" data-name="Trazado 25365" d="M1421.829,338.763a2.559,2.559,0,1,1,2.569-2.548A2.559,2.559,0,0,1,1421.829,338.763Z" transform="translate(-179.706 1875.707)" fill="#45ace3"/>
    <path id="Trazado_25367" data-name="Trazado 25367" d="M1321.7,439a2.559,2.559,0,1,1,2.569-2.548A2.559,2.559,0,0,1,1321.7,439Z" transform="translate(-157.196 1853.173)" fill="#f3d35a"/>
    <path id="Trazado_25368" data-name="Trazado 25368" d="M1372.024,489.789a2.559,2.559,0,1,1,2.569-2.548A2.559,2.559,0,0,1,1372.024,489.789Z" transform="translate(-168.51 1841.756)" fill="#f3d35a"/>
  </g>
</svg>
