<svg xmlns="http://www.w3.org/2000/svg" width="68" height="66.084" viewBox="0 0 68 66.084">
  <g id="planificacion" transform="translate(0 -7.213)">
    <g id="Grupo_1078924" data-name="Grupo 1078924" transform="translate(1.214 29.831)">
      <path id="Trazado_842201" data-name="Trazado 842201" d="M9.185,177.513l-.041,37.662a4.825,4.825,0,0,0,4.819,4.808H70.111a4.831,4.831,0,0,0,4.823-4.808l-.041-37.662H9.185Z" transform="translate(-9.144 -177.513)" fill="#e8eaea" fill-rule="evenodd"/>
    </g>
    <g id="Grupo_1078925" data-name="Grupo 1078925" transform="translate(1.214 25.643)">
      <path id="Trazado_842202" data-name="Trazado 842202" d="M9.144,150.789v37.038a4.829,4.829,0,0,1,4.819-4.812h3.193a.709.709,0,0,0,.708-.706V146.683a.709.709,0,0,0-.708-.706H13.963A4.829,4.829,0,0,0,9.144,150.789Z" transform="translate(-9.144 -145.977)" fill="#ade194" fill-rule="evenodd"/>
    </g>
    <g id="Grupo_1078926" data-name="Grupo 1078926" transform="translate(58.281 25.643)">
      <path id="Trazado_842203" data-name="Trazado 842203" d="M438.821,150.165v32.143a.711.711,0,0,0,.708.706h3.193a4.832,4.832,0,0,1,4.823,4.812V150.789a4.832,4.832,0,0,0-4.823-4.812h-3.193a.711.711,0,0,0-.708.706Z" transform="translate(-438.821 -145.977)" fill="#ade194" fill-rule="evenodd"/>
    </g>
    <g id="Grupo_1078927" data-name="Grupo 1078927" transform="translate(58.281 25.643)">
      <path id="Trazado_842204" data-name="Trazado 842204" d="M438.821,182.309a.711.711,0,0,0,.708.706h3.193a4.832,4.832,0,0,1,4.823,4.812V150.789a4.832,4.832,0,0,0-4.823-4.812h-.2a4.8,4.8,0,0,1,1.645,3.614V179.4c0,.492.09.7-.339.6a4.879,4.879,0,0,0-1.107-.128h-3.9Z" transform="translate(-438.821 -145.977)" fill="#80d261" fill-rule="evenodd"/>
    </g>
    <g id="Grupo_1078928" data-name="Grupo 1078928" transform="translate(1.214 25.643)">
      <path id="Trazado_842205" data-name="Trazado 842205" d="M17.863,182.309a.709.709,0,0,1-.708.706H13.963a4.829,4.829,0,0,0-4.819,4.812v-5.342c0-.815,1.427-2.051,3.418-2.468,1.788-.379,1.4.237,1.4-2.01V145.977h3.193a.709.709,0,0,1,.708.706v35.626Z" transform="translate(-9.144 -145.977)" fill="#80d261" fill-rule="evenodd"/>
    </g>
    <g id="Grupo_1078929" data-name="Grupo 1078929" transform="translate(37.642 29.831)">
      <path id="Trazado_842206" data-name="Trazado 842206" d="M304.064,177.513H284.49a37.886,37.886,0,0,1,2.4,5.079h10.1a.637.637,0,0,1,.636.635v29.232a.637.637,0,0,1-.636.635H286.911a37.664,37.664,0,0,1-3.486,6.889h24.539a4.831,4.831,0,0,0,4.823-4.808v-.011a4.832,4.832,0,0,0-4.823-4.8h-3.193a.711.711,0,0,1-.708-.706V177.513Z" transform="translate(-283.425 -177.513)" fill="#d4d6d8" fill-rule="evenodd"/>
    </g>
    <g id="Grupo_1078930" data-name="Grupo 1078930" transform="translate(16.183 34.91)">
      <path id="Trazado_842207" data-name="Trazado 842207" d="M122.486,215.753h34.391a.637.637,0,0,1,.636.635V245.62a.637.637,0,0,1-.636.635H122.486a.637.637,0,0,1-.636-.635V216.388A.637.637,0,0,1,122.486,215.753Z" transform="translate(-121.85 -215.753)" fill="#c1eaf4" fill-rule="evenodd"/>
    </g>
    <g id="Grupo_1078931" data-name="Grupo 1078931" transform="translate(16.183 52.388)">
      <path id="Trazado_842208" data-name="Trazado 842208" d="M121.85,347.356v12.389a.637.637,0,0,0,.636.635h21.881v-11.2a.556.556,0,0,0-.553-.552H137.47a.556.556,0,0,0-.553.552v3.764a.557.557,0,0,1-.553.556h-6.536a.557.557,0,0,1-.553-.556v-4.793a.8.8,0,0,0-.8-.8Z" transform="translate(-121.85 -347.356)" fill="#ade194" fill-rule="evenodd"/>
    </g>
    <g id="Grupo_1078932" data-name="Grupo 1078932" transform="translate(16.183 34.91)">
      <path id="Trazado_842209" data-name="Trazado 842209" d="M121.85,216.387v9.023a9.668,9.668,0,0,0,9.679-9.658h-9.043a.637.637,0,0,0-.636.635Z" transform="translate(-121.85 -215.752)" fill="#ade194" fill-rule="evenodd"/>
    </g>
    <g id="Grupo_1078933" data-name="Grupo 1078933" transform="translate(35.963 34.91)">
      <path id="Trazado_842210" data-name="Trazado 842210" d="M270.783,215.753v8.422a.671.671,0,0,0,.67.669h15.213v-8.456a.637.637,0,0,0-.636-.635Z" transform="translate(-270.783 -215.753)" fill="#ade194" fill-rule="evenodd"/>
    </g>
    <g id="Grupo_1078934" data-name="Grupo 1078934" transform="translate(41.11 34.91)">
      <path id="Trazado_842211" data-name="Trazado 842211" d="M320.269,224.843v-8.456a.637.637,0,0,0-.636-.635h-10.1a41.217,41.217,0,0,1,2.36,9.09Z" transform="translate(-309.532 -215.753)" fill="#80d261" fill-rule="evenodd"/>
    </g>
    <g id="Grupo_1078935" data-name="Grupo 1078935" transform="translate(41.128 44)">
      <path id="Trazado_842212" data-name="Trazado 842212" d="M320.392,284.2h-8.377a43.875,43.875,0,0,1,.437,6.183,42.368,42.368,0,0,1-2.778,15.228h10.082a.637.637,0,0,0,.636-.635Z" transform="translate(-309.674 -284.199)" fill="#99cfe0" fill-rule="evenodd"/>
    </g>
    <g id="Grupo_1078936" data-name="Grupo 1078936" transform="translate(45.74 48.425)">
      <path id="Trazado_842213" data-name="Trazado 842213" d="M344.4,323.614a6.1,6.1,0,0,0,6.106,6.1V317.517A6.1,6.1,0,0,0,344.4,323.614Z" transform="translate(-344.399 -317.517)" fill="#fe9737" fill-rule="evenodd"/>
    </g>
    <g id="Grupo_1078937" data-name="Grupo 1078937" transform="translate(0.996 8.209)">
      <path id="Trazado_842214" data-name="Trazado 842214" d="M8.163,26.106H72.841a.666.666,0,0,0,.666-.661V15.374a.666.666,0,0,0-.666-.661H8.163a.663.663,0,0,0-.663.661V25.445a.663.663,0,0,0,.663.661Z" transform="translate(-7.5 -14.713)" fill="#6bd9e7" fill-rule="evenodd"/>
    </g>
    <g id="Grupo_1078938" data-name="Grupo 1078938" transform="translate(61.925 8.209)">
      <path id="Trazado_842215" data-name="Trazado 842215" d="M471.34,25.445V15.374a.666.666,0,0,0-.666-.661h-4.412a.663.663,0,0,1,.663.661V25.445a.663.663,0,0,1-.663.661h4.412A.666.666,0,0,0,471.34,25.445Z" transform="translate(-466.261 -14.713)" fill="#00c7dd" fill-rule="evenodd"/>
    </g>
    <g id="Grupo_1078939" data-name="Grupo 1078939" transform="translate(0 7.213)">
      <path id="Trazado_842216" data-name="Trazado 842216" d="M66.337,7.213H1.659A1.66,1.66,0,0,0,0,8.87V18.941A1.66,1.66,0,0,0,1.659,20.6H31.89a1,1,0,0,0,0-1.992H1.992v-9.4H8.328l-.005,3.369a1,1,0,0,0,1,.992h0a1,1,0,0,0,.992-1l.005-3.361H18.2l-.022,3.4a1,1,0,0,0,1,.992h0a1,1,0,0,0,.992-1l.023-3.394h7.875l-.015,3.4a1,1,0,0,0,1,.992h0a1,1,0,0,0,.992-1l.015-3.391h7.875l0,3.38a1,1,0,0,0,1,.992h0a1,1,0,0,0,.992-1l0-3.371H47.8l-.023,3.425a1,1,0,0,0,1,.992h0a1,1,0,0,0,.992-1l.023-3.416h7.875l.015,3.4a1,1,0,0,0,1,.992h0a1,1,0,0,0,.992-1l-.015-3.395h6.346v9.4H36.716a1,1,0,1,0,0,1.992H66.337A1.662,1.662,0,0,0,68,18.941V8.87a1.662,1.662,0,0,0-1.663-1.657Z" transform="translate(0 -7.213)"/>
      <path id="Trazado_842217" data-name="Trazado 842217" d="M63.608,138.477H60.415a1.705,1.705,0,0,0-1.7,1.7v2.486H12.356v-2.486a1.705,1.705,0,0,0-1.7-1.7H7.46a5.818,5.818,0,0,0-5.815,5.808v37.038a5.816,5.816,0,0,0,5.815,5.8H63.608a5.818,5.818,0,0,0,5.819-5.8V144.285A5.82,5.82,0,0,0,63.608,138.477Zm-59.97,5.808a3.824,3.824,0,0,1,3.823-3.816h2.9v35.046H7.46a5.8,5.8,0,0,0-3.823,1.435Zm59.97,40.85H7.46a3.814,3.814,0,1,1,0-7.628h3.193a1.705,1.705,0,0,0,1.7-1.7V144.658H58.711V175.8a1.705,1.705,0,0,0,1.7,1.7h3.193a3.814,3.814,0,1,1,0,7.628Zm3.827-8.184a5.8,5.8,0,0,0-3.827-1.436H60.7V140.469h2.9a3.826,3.826,0,0,1,3.827,3.816Z" transform="translate(-1.427 -121.044)"/>
      <path id="Trazado_842218" data-name="Trazado 842218" d="M150.373,208.252H115.982a1.634,1.634,0,0,0-1.632,1.631v29.232a1.634,1.634,0,0,0,1.635,1.631l7.9-.023a1,1,0,0,0,0-1.992h0l-7.536.022v-11.03h5.432v4.593a1.553,1.553,0,0,0,1.55,1.552h6.536a1.552,1.552,0,0,0,1.55-1.552V229h5.458v9.749l-8.089.008a1,1,0,0,0,0,1.992h0l8.954-.009a.9.9,0,0,0,.26,0l12.481-.013a1.519,1.519,0,0,0,1.531-1.608V209.883a1.634,1.634,0,0,0-1.633-1.631Zm-.36,25.611a5.1,5.1,0,0,1,0-10.005Zm0-16.52H136.122v-7.1h13.891Zm-33.672-7.1h7.63a8.69,8.69,0,0,1-7.63,7.609Zm22.517,28.5V228.552A1.551,1.551,0,0,0,137.31,227h-6.344a1.551,1.551,0,0,0-1.55,1.548v3.324h-5.65v-4.353a1.8,1.8,0,0,0-1.794-1.792h-5.63v-5.877a10.681,10.681,0,0,0,9.631-9.61h8.157v7.426a1.667,1.667,0,0,0,1.666,1.665h14.217v2.5a7.09,7.09,0,0,0,0,14.043v2.85Z" transform="translate(-99.163 -181.552)"/>
    </g>
  </g>
</svg>
