<svg xmlns="http://www.w3.org/2000/svg" width="105" height="105" viewBox="0 0 105 105">
  <g id="Grupo_1078978" data-name="Grupo 1078978" transform="translate(-180 -420.392)">
    <path id="Trazado_842370" data-name="Trazado 842370" d="M52.5,0A52.5,52.5,0,1,1,0,52.5,52.5,52.5,0,0,1,52.5,0Z" transform="translate(180 420.392)" fill="#d1bcff"/>
    <path id="Trazado_842124" data-name="Trazado 842124" d="M76.753,168.5H1.329A1.329,1.329,0,0,1,0,167.169V119.037a1.329,1.329,0,0,1,1.33-1.33H76.753a1.329,1.329,0,0,1,1.33,1.33v48.132A1.329,1.329,0,0,1,76.753,168.5Zm0,0" transform="translate(193.459 331.623)" fill="#6770e6"/>
    <path id="Trazado_842125" data-name="Trazado 842125" d="M30,188.019V149.037a1.329,1.329,0,0,1,1.33-1.33H97.6a1.329,1.329,0,0,1,1.33,1.33v38.982a1.329,1.329,0,0,1-1.33,1.33H31.33A1.329,1.329,0,0,1,30,188.019Zm0,0" transform="translate(168.033 306.199)" fill="#d1bcff"/>
    <path id="Trazado_842126" data-name="Trazado 842126" d="M199.148,450.754h17.34v5.991h-17.34Zm0,0" transform="translate(24.682 49.369)" fill="#5861c7"/>
    <path id="Trazado_842127" data-name="Trazado 842127" d="M187.012,493.385H160.819a1.675,1.675,0,0,1,0-3.35h26.192a1.675,1.675,0,1,1,0,3.35Zm0,0" transform="translate(58.584 16.078)" fill="#6770e6"/>
    <path id="Trazado_842128" data-name="Trazado 842128" d="M187.012,496.932H160.819a1.674,1.674,0,0,1-1.49-.912,1.673,1.673,0,0,0,1.49,2.437h26.192a1.673,1.673,0,0,0,1.491-2.437,1.674,1.674,0,0,1-1.49.912Zm0,0" transform="translate(58.584 11.007)" fill="#5861c7"/>
    <path id="Trazado_842129" data-name="Trazado 842129" d="M132.305,0H84.581a2.691,2.691,0,0,0-2.691,2.691V64.168H135V2.691A2.691,2.691,0,0,0,132.305,0Zm0,0" transform="translate(124.057 431.38)" fill="#fff7f2"/>
    <path id="Trazado_842140" data-name="Trazado 842140" d="M132.305,0H84.581a2.691,2.691,0,0,0-2.691,2.691V5.3H135V2.691A2.691,2.691,0,0,0,132.305,0Zm0,0" transform="translate(124.057 431.38)" fill="#673ab7"/>
    <path id="Trazado_842141" data-name="Trazado 842141" d="M135,3.05H81.89V2.691A2.691,2.691,0,0,1,84.581,0H132.3A2.691,2.691,0,0,1,135,2.691Zm0,0" transform="translate(124.057 431.38)" fill="#895cd8"/>
    <path id="Trazado_842142" data-name="Trazado 842142" d="M132.728,13.394H114.281a.875.875,0,1,1,0-1.75h18.447a.875.875,0,1,1,0,1.75Zm0,0" transform="translate(97.348 421.511)" fill="#ffefe4"/>
    <path id="Trazado_842144" data-name="Trazado 842144" d="M156.245,289.364H133.183a1.633,1.633,0,0,1,0-3.266h23.062a1.633,1.633,0,0,1,0,3.266Zm0,0" transform="translate(81.97 188.913)" fill="#fff7f2"/>
    <g id="Grupo_1078887" data-name="Grupo 1078887" transform="translate(230.019 442.228)">
      <path id="Trazado_842147" data-name="Trazado 842147" d="M235.142,46.263a.824.824,0,0,1-.824-.824V39.914a.824.824,0,1,1,1.648,0v5.525A.824.824,0,0,1,235.142,46.263Z" transform="translate(-234.318 -39.09)" fill="#2b4d66"/>
    </g>
    <g id="Grupo_1078888" data-name="Grupo 1078888" transform="translate(230.019 479.174)">
      <path id="Trazado_842148" data-name="Trazado 842148" d="M235.142,390.108a.824.824,0,0,1-.824-.824v-3.153a.824.824,0,0,1,1.648,0v3.153A.824.824,0,0,1,235.142,390.108Z" transform="translate(-234.318 -385.307)" fill="#2b4d66"/>
    </g>
    <g id="Grupo_1078889" data-name="Grupo 1078889" transform="translate(229.227 441.613)">
      <circle id="Elipse_5921" data-name="Elipse 5921" cx="1.615" cy="1.615" r="1.615" fill="#e4f6ff"/>
    </g>
    <g id="Grupo_1078890" data-name="Grupo 1078890" transform="translate(229.32 441.705)">
      <path id="Trazado_842149" data-name="Trazado 842149" d="M229.831,34.2a1.616,1.616,0,0,1-2.062,2.062,1.615,1.615,0,1,0,2.062-2.062Z" transform="translate(-227.769 -34.199)" fill="#d3effb"/>
    </g>
    <g id="Grupo_1078891" data-name="Grupo 1078891" transform="translate(220.502 447.162)">
      <path id="Trazado_842150" data-name="Trazado 842150" d="M165.15,112.042l-.493-2.346a9.141,9.141,0,0,0-2.887-4.964,2.715,2.715,0,0,1-.608-3.287l1.706-3.272a10.307,10.307,0,0,0,1.167-4.764V90.853a.9.9,0,0,0-.509-.811L158.4,87.56a.9.9,0,0,1-.509-.811v-.9a.512.512,0,0,0-.512-.512h-3.795a.512.512,0,0,0-.512.512v.9a.9.9,0,0,1-.509.811l-5.126,2.482a.9.9,0,0,0-.509.811v2.556a10.307,10.307,0,0,0,1.167,4.764l1.706,3.272a2.7,2.7,0,0,1-.6,3.277,9.14,9.14,0,0,0-2.9,4.975l-.493,2.346a31.466,31.466,0,0,0-.673,6.472.9.9,0,0,0,.9.9h18.878a.9.9,0,0,0,.9-.9,31.451,31.451,0,0,0-.673-6.479Z" transform="translate(-145.142 -85.336)" fill="#365e7d"/>
    </g>
    <g id="Grupo_1078892" data-name="Grupo 1078892" transform="translate(229.546 447.162)">
      <path id="Trazado_842151" data-name="Trazado 842151" d="M240.854,112.041l-.493-2.346a9.141,9.141,0,0,0-2.887-4.964,2.715,2.715,0,0,1-.608-3.287l1.706-3.272a10.307,10.307,0,0,0,1.167-4.764V90.852a.9.9,0,0,0-.509-.811L234.1,87.559a.9.9,0,0,1-.509-.811v-.9a.512.512,0,0,0-.512-.512H229.89a.512.512,0,0,1,.512.512v.9a.9.9,0,0,0,.509.811l5.126,2.482a.9.9,0,0,1,.509.811v2.556a10.306,10.306,0,0,1-1.167,4.764l-1.706,3.272a2.715,2.715,0,0,0,.608,3.287,9.141,9.141,0,0,1,2.887,4.964l.493,2.346a31.468,31.468,0,0,1,.673,6.478.9.9,0,0,1-.9.9h3.194a.9.9,0,0,0,.9-.9A31.469,31.469,0,0,0,240.854,112.041Z" transform="translate(-229.89 -85.335)" fill="#2b4d66"/>
    </g>
    <path id="Trazado_842152" data-name="Trazado 842152" d="M67.933,75.554l-.631.631v-33.3l.631.631A.824.824,0,1,0,69.1,42.347l-2.038-2.038a.824.824,0,0,0-1.165,0l-2.038,2.038a.824.824,0,0,0,1.165,1.166l.631-.631v33.3l-.631-.631a.824.824,0,0,0-1.165,1.166L65.9,78.757a.824.824,0,0,0,1.166,0L69.1,76.719a.824.824,0,0,0-1.166-1.166Z" transform="translate(148.186 402.264)" fill="#ffc250"/>
    <path id="Trazado_842153" data-name="Trazado 842153" d="M164.048,429.81l-2.038-2.038a.824.824,0,0,0-1.165,1.166l.631.631H145.691l.631-.631a.824.824,0,0,0-1.165-1.166l-2.038,2.038a.824.824,0,0,0,0,1.166l2.038,2.038a.824.824,0,0,0,1.166-1.166l-.631-.631h15.785l-.631.631a.824.824,0,0,0,1.166,1.166l2.038-2.038A.824.824,0,0,0,164.048,429.81Z" transform="translate(77.383 56.148)" fill="#ffc250"/>
    <g id="Grupo_1078893" data-name="Grupo 1078893" transform="translate(245.438 438.056)">
      <path id="Trazado_842154" data-name="Trazado 842154" d="M386.912,0h-8.1V54.638h8.1A2.988,2.988,0,0,0,389.9,51.65V2.988A2.988,2.988,0,0,0,386.912,0Z" transform="translate(-378.807)" fill="#ffe07d"/>
    </g>
    <g id="Grupo_1078894" data-name="Grupo 1078894" transform="translate(245.438 438.056)">
      <path id="Trazado_842155" data-name="Trazado 842155" d="M386.911,0h-1.183V49.368a1.1,1.1,0,0,1-1.1,1.1h-5.823v4.171h8.1A2.988,2.988,0,0,0,389.9,51.65V2.988A2.988,2.988,0,0,0,386.911,0Z" transform="translate(-378.806)" fill="#ffd064"/>
    </g>
    <g id="Grupo_1078902" data-name="Grupo 1078902" transform="translate(245.438 443.131)">
      <g id="Grupo_1078895" data-name="Grupo 1078895" transform="translate(0)">
        <path id="Trazado_842156" data-name="Trazado 842156" d="M384.286,49.2h-5.48V47.556h5.48a.824.824,0,1,1,0,1.648Z" transform="translate(-378.806 -47.556)" fill="#ffc250"/>
      </g>
      <g id="Grupo_1078896" data-name="Grupo 1078896" transform="translate(0 14.342)">
        <path id="Trazado_842157" data-name="Trazado 842157" d="M384.286,183.6h-5.48v-1.648h5.48a.824.824,0,1,1,0,1.648Z" transform="translate(-378.806 -181.952)" fill="#ffc250"/>
      </g>
      <g id="Grupo_1078897" data-name="Grupo 1078897" transform="translate(0 28.684)">
        <path id="Trazado_842158" data-name="Trazado 842158" d="M384.286,318h-5.48v-1.648h5.48a.824.824,0,1,1,0,1.648Z" transform="translate(-378.806 -316.348)" fill="#ffc250"/>
      </g>
      <g id="Grupo_1078898" data-name="Grupo 1078898" transform="translate(0 43.026)">
        <path id="Trazado_842159" data-name="Trazado 842159" d="M384.286,452.392h-5.48v-1.648h5.48a.824.824,0,1,1,0,1.648Z" transform="translate(-378.806 -450.744)" fill="#ffc250"/>
      </g>
      <g id="Grupo_1078899" data-name="Grupo 1078899" transform="translate(0 7.171)">
        <path id="Trazado_842160" data-name="Trazado 842160" d="M381.134,116.4h-2.328v-1.648h2.328a.824.824,0,1,1,0,1.648Z" transform="translate(-378.806 -114.754)" fill="#ffc250"/>
      </g>
      <g id="Grupo_1078900" data-name="Grupo 1078900" transform="translate(0 21.513)">
        <path id="Trazado_842161" data-name="Trazado 842161" d="M381.134,250.8h-2.328V249.15h2.328a.824.824,0,1,1,0,1.648Z" transform="translate(-378.806 -249.15)" fill="#ffc250"/>
      </g>
      <g id="Grupo_1078901" data-name="Grupo 1078901" transform="translate(0 35.855)">
        <path id="Trazado_842162" data-name="Trazado 842162" d="M381.134,385.194h-2.328v-1.648h2.328a.824.824,0,1,1,0,1.648Z" transform="translate(-378.806 -383.546)" fill="#ffc250"/>
      </g>
    </g>
  </g>
</svg>
