<svg xmlns="http://www.w3.org/2000/svg" width="1320" height="506.835" viewBox="0 0 1320 506.835">
  <g id="Grupo_1079033" data-name="Grupo 1079033" transform="translate(-144.332 -70)">
    <path id="Rectangle_652" data-name="Rectangle 652" d="M1299.213,0H20.787C9.307,0,0,8.4,0,18.772V488.063c0,10.367,9.307,18.772,20.787,18.772H1299.213c11.48,0,20.787-8.4,20.787-18.772V18.772C1320,8.4,1310.693,0,1299.213,0Z" transform="translate(144.332 70)" fill="#673ab7"/>
    <path id="Trazado_842376" data-name="Trazado 842376" d="M0,28.509a8.972,8.972,0,0,1-6.364-2.636,9,9,0,0,1,0-12.728L13.146-6.364a9,9,0,0,1,12.728,0,9,9,0,0,1,0,12.728L6.364,25.873A8.972,8.972,0,0,1,0,28.509Z" transform="translate(1274.003 379.573)" fill="#673ab7"/>
    <path id="Trazado_29882" data-name="Trazado 29882" d="M377.478,1108.123a90.253,90.253,0,0,1-11.168-.659.25.25,0,0,1,.062-.5,90.778,90.778,0,0,0,11.941.652h0a.25.25,0,0,1,0,.5Q377.9,1108.123,377.478,1108.123Zm12.813-.685a.25.25,0,0,1-.025-.5c3.676-.368,7.562-.882,11.88-1.573a.25.25,0,0,1,.079.494c-4.328.692-8.223,1.208-11.909,1.577Zm-35.667-2.484a.25.25,0,0,1-.075-.012,53.759,53.759,0,0,1-11.006-4.858.25.25,0,0,1,.253-.431,53.271,53.271,0,0,0,10.9,4.813.25.25,0,0,1-.075.488ZM414,1103.762a.25.25,0,0,1-.046-.5c3.24-.613,7.507-1.423,11.787-2.25a.25.25,0,1,1,.095.491c-4.28.827-8.549,1.637-11.789,2.25A.255.255,0,0,1,414,1103.762Zm23.562-4.569a.25.25,0,0,1-.049-.5c4.181-.842,8.024-1.638,11.748-2.434a.25.25,0,0,1,.1.489c-3.725.8-7.57,1.593-11.753,2.435A.254.254,0,0,1,437.561,1099.194Zm23.466-5.032a.25.25,0,0,1-.056-.494c4.011-.924,7.934-1.868,11.662-2.806a.25.25,0,0,1,.122.485c-3.731.939-7.658,1.884-11.672,2.809A.256.256,0,0,1,461.027,1094.162Zm-126.889-1.289a.249.249,0,0,1-.174-.07,55.5,55.5,0,0,1-7.679-9.261.25.25,0,1,1,.417-.276,55,55,0,0,0,7.61,9.178.25.25,0,0,1-.174.43ZM484.3,1088.29a.25.25,0,0,1-.067-.491c3.929-1.09,7.8-2.222,11.511-3.365a.25.25,0,0,1,.147.478c-3.714,1.144-7.591,2.278-11.524,3.369A.249.249,0,0,1,484.3,1088.29Zm22.927-7.083a.25.25,0,0,1-.081-.486c3.832-1.318,7.623-2.7,11.266-4.1a.25.25,0,0,1,.18.467c-3.649,1.407-7.445,2.789-11.283,4.11A.249.249,0,0,1,507.223,1081.207Zm-186.365-8.128a.25.25,0,0,1-.23-.153,83.784,83.784,0,0,1-3.842-11.4.25.25,0,1,1,.484-.127,83.283,83.283,0,0,0,3.819,11.327.25.25,0,0,1-.23.348Zm208.747-.517a.25.25,0,0,1-.1-.48c3.7-1.6,7.366-3.285,10.895-5a.25.25,0,0,1,.219.45c-3.535,1.72-7.207,3.406-10.915,5.011A.251.251,0,0,1,529.606,1072.562Zm21.566-10.51a.25.25,0,0,1-.12-.469c3.521-1.926,7.009-3.951,10.367-6.016a.25.25,0,0,1,.262.426c-3.366,2.07-6.861,4.1-10.389,6.029A.249.249,0,0,1,551.172,1062.052ZM314.655,1049.96a.25.25,0,0,1-.247-.213c-.557-3.762-.977-7.783-1.248-11.953a.25.25,0,0,1,.5-.032c.27,4.156.688,8.163,1.243,11.912a.25.25,0,0,1-.211.284A.238.238,0,0,1,314.655,1049.96Zm256.947-.484a.25.25,0,0,1-.142-.456c3.148-2.173,6.413-4.542,9.7-7.04a.25.25,0,0,1,.3.4c-3.3,2.5-6.566,4.876-9.72,7.054A.249.249,0,0,1,571.6,1049.476ZM590.733,1035a.25.25,0,0,1-.158-.444c2.927-2.39,5.932-4.913,9.186-7.711a.25.25,0,0,1,.326.379c-3.258,2.8-6.266,5.326-9.2,7.719A.249.249,0,0,1,590.733,1035Zm-277.712-8.96a.25.25,0,0,1-.25-.249c-.011-3.787.075-7.827.257-12.008a.25.25,0,0,1,.5.022c-.181,4.173-.268,8.206-.257,11.985a.25.25,0,0,1-.249.251Zm295.934-6.658a.25.25,0,0,1-.166-.437c3.052-2.71,6.1-5.447,8.94-8a.25.25,0,0,1,.334.372c-2.84,2.555-5.889,5.294-8.942,8A.249.249,0,0,1,608.955,1019.378Zm17.865-16.027a.25.25,0,0,1-.167-.436c3.458-3.1,6.312-5.628,8.981-7.963a.25.25,0,0,1,.329.376c-2.668,2.334-5.52,4.864-8.977,7.959A.249.249,0,0,1,626.82,1003.351Zm-312.808-1.29h-.019a.25.25,0,0,1-.23-.268c.22-2.858.477-5.821.784-9.059.076-.8.176-1.846.283-2.9a.25.25,0,1,1,.5.051c-.107,1.05-.207,2.1-.282,2.895-.307,3.235-.563,6.2-.783,9.051A.25.25,0,0,1,314.012,1002.061ZM644.9,987.575a.25.25,0,0,1-.161-.441c3.263-2.738,6.309-5.219,9.309-7.584a.25.25,0,1,1,.31.393c-3,2.362-6.038,4.839-9.3,7.574A.249.249,0,0,1,644.9,987.575Zm-328.11-9.336a.25.25,0,0,1-.245-.3,44.938,44.938,0,0,1,3.854-11.4.25.25,0,0,1,.445.229,44.45,44.45,0,0,0-3.809,11.271A.25.25,0,0,1,316.794,978.239Zm346.981-5.486a.25.25,0,0,1-.147-.452c3.341-2.419,6.672-4.708,9.9-6.8a.25.25,0,1,1,.272.419c-3.221,2.089-6.545,4.372-9.879,6.786A.249.249,0,0,1,663.775,972.753Zm20.149-13.016a.25.25,0,0,1-.123-.468c3.438-1.94,7.018-3.817,10.64-5.577a.25.25,0,1,1,.219.45c-3.613,1.756-7.184,3.627-10.613,5.563A.249.249,0,0,1,683.925,959.737ZM328.08,957.6a.25.25,0,0,1-.161-.442,44.066,44.066,0,0,1,10.278-6.252.25.25,0,1,1,.206.455,43.574,43.574,0,0,0-10.163,6.18A.249.249,0,0,1,328.08,957.6Zm377.41-8.366a.25.25,0,0,1-.1-.481c3.617-1.508,7.387-2.964,11.205-4.327a.25.25,0,0,1,.168.471c-3.811,1.36-7.572,2.812-11.181,4.317A.249.249,0,0,1,705.49,949.239Zm-355.977-2.113a.25.25,0,0,1-.081-.487c3.768-1.292,7.591-2.59,11.365-3.859a.25.25,0,0,1,.159.474c-3.773,1.268-7.6,2.566-11.363,3.858A.25.25,0,0,1,349.513,947.126Zm378.564-5.972a.25.25,0,0,1-.073-.489c3.718-1.134,7.607-2.233,11.557-3.264a.25.25,0,0,1,.126.484c-3.944,1.03-7.826,2.126-11.538,3.258A.249.249,0,0,1,728.077,941.154Zm-355.814-1.677a.25.25,0,0,1-.078-.487c3.782-1.247,7.62-2.5,11.408-3.723a.25.25,0,1,1,.154.476c-3.787,1.223-7.624,2.476-11.405,3.722A.249.249,0,0,1,372.263,939.477Zm379.024-4.408a.25.25,0,0,1-.055-.494c3.751-.841,7.706-1.667,11.753-2.454a.25.25,0,0,1,.1.491c-4.043.786-7.992,1.611-11.739,2.451A.253.253,0,0,1,751.287,935.069ZM395.1,932.1a.25.25,0,0,1-.075-.488c3.8-1.2,7.65-2.409,11.452-3.587a.25.25,0,1,1,.148.478c-3.8,1.178-7.654,2.385-11.449,3.587A.252.252,0,0,1,395.1,932.1Zm379.738-1.633a.25.25,0,0,1-.042-.5c3.751-.641,7.627-1.268,11.85-1.917a.25.25,0,1,1,.076.494c-4.221.649-8.094,1.275-11.842,1.916A.252.252,0,0,1,774.839,930.466Zm23.718-3.669a.25.25,0,0,1-.035-.5c4.259-.607,8.4-1.178,11.887-1.656a.25.25,0,0,1,.068.5c-3.487.478-7.626,1.049-11.884,1.656Zm-380.533-1.8a.25.25,0,0,1-.073-.489c3.811-1.157,7.679-2.318,11.5-3.451a.25.25,0,0,1,.142.479c-3.816,1.133-7.682,2.294-11.493,3.451A.249.249,0,0,1,418.024,924.993Zm404.307-1.48a.25.25,0,0,1-.034-.5l2.672-.369c3.056-.424,6.154-.861,9.209-1.3a.25.25,0,0,1,.071.495c-3.055.438-6.154.875-9.211,1.3l-2.672.37Zm23.756-3.406a.25.25,0,0,1-.037-.5c3.937-.588,7.928-1.2,11.862-1.805a.25.25,0,1,1,.077.494c-3.935.611-7.927,1.218-11.865,1.806Zm-405.056-1.946a.25.25,0,0,1-.07-.49c3.824-1.111,7.705-2.226,11.535-3.314a.25.25,0,0,1,.137.481c-3.829,1.087-7.709,2.2-11.532,3.313A.25.25,0,0,1,441.031,918.161ZM869.8,916.427a.25.25,0,0,1-.04-.5c3.93-.633,7.914-1.286,11.841-1.942a.25.25,0,0,1,.082.493c-3.928.656-7.913,1.309-11.843,1.942A.254.254,0,0,1,869.8,916.427Zm23.673-3.952a.25.25,0,0,1-.042-.5c3.922-.678,7.9-1.377,11.817-2.078a.25.25,0,1,1,.088.492c-3.92.7-7.9,1.4-11.82,2.078A.252.252,0,0,1,893.475,912.475ZM464.118,911.6a.25.25,0,0,1-.067-.491c3.837-1.065,7.731-2.134,11.573-3.175a.25.25,0,1,1,.131.483c-3.841,1.042-7.734,2.11-11.57,3.175A.252.252,0,0,1,464.118,911.6ZM917.1,908.251a.25.25,0,0,1-.045-.5c3.914-.723,7.882-1.468,11.793-2.213a.25.25,0,1,1,.094.491c-3.912.746-7.881,1.491-11.8,2.214A.253.253,0,0,1,917.1,908.251Zm-429.82-2.93a.25.25,0,0,1-.064-.492c3.85-1.019,7.757-2.041,11.611-3.037a.25.25,0,1,1,.125.484c-3.854,1-7.759,2.017-11.608,3.036A.251.251,0,0,1,487.281,905.321Zm453.395-1.564a.25.25,0,0,1-.048-.5c3.906-.768,7.864-1.558,11.767-2.348a.25.25,0,1,1,.1.49c-3.9.79-7.863,1.581-11.769,2.349A.249.249,0,0,1,940.675,903.757Zm-430.159-4.439a.25.25,0,0,1-.061-.493c3.862-.973,7.781-1.948,11.647-2.9a.25.25,0,0,1,.119.486c-3.866.949-7.783,1.924-11.645,2.9A.252.252,0,0,1,510.517,899.318Zm453.682-.325a.25.25,0,0,1-.051-.495c3.9-.812,7.846-1.647,11.738-2.482a.25.25,0,0,1,.1.489c-3.894.835-7.844,1.67-11.741,2.483A.249.249,0,0,1,964.2,898.993Zm23.466-5.032a.25.25,0,0,1-.054-.494c3.887-.857,7.827-1.737,11.711-2.616a.25.25,0,0,1,.11.488c-3.884.879-7.825,1.76-11.713,2.617A.252.252,0,0,1,987.664,893.961Zm-453.84-.368a.25.25,0,0,1-.058-.493c3.873-.927,7.8-1.854,11.68-2.757a.25.25,0,1,1,.113.487c-3.876.9-7.8,1.83-11.677,2.756A.25.25,0,0,1,533.825,893.593Zm477.247-4.931a.25.25,0,0,1-.056-.494c3.877-.9,7.806-1.826,11.679-2.749a.25.25,0,0,1,.116.486c-3.874.923-7.8,1.849-11.682,2.75A.249.249,0,0,1,1011.072,888.662ZM557.2,888.15a.25.25,0,0,1-.055-.494c3.884-.88,7.825-1.76,11.713-2.616a.25.25,0,0,1,.108.488c-3.887.856-7.827,1.736-11.71,2.616A.252.252,0,0,1,557.2,888.15Zm477.219-5.053a.25.25,0,0,1-.059-.493c3.866-.945,7.785-1.915,11.647-2.882a.25.25,0,0,1,.121.485c-3.863.967-7.783,1.937-11.65,2.882A.25.25,0,0,1,1034.418,883.1Zm-453.781-.108a.25.25,0,0,1-.052-.495c3.895-.833,7.846-1.666,11.744-2.475a.25.25,0,0,1,.1.49c-3.9.809-7.848,1.641-11.741,2.474A.25.25,0,0,1,580.637,882.989Zm23.5-4.878a.25.25,0,0,1-.049-.5c3.9-.786,7.865-1.571,11.773-2.332a.25.25,0,0,1,.1.491c-3.907.762-7.866,1.546-11.77,2.332A.25.25,0,0,1,604.136,878.111Zm453.562-.845a.25.25,0,0,1-.062-.492c3.856-.989,7.763-2,11.615-3.014a.25.25,0,1,1,.127.484c-3.852,1.011-7.76,2.026-11.617,3.015A.252.252,0,0,1,1057.7,877.266Zm-430.005-3.748a.25.25,0,0,1-.046-.5c3.913-.738,7.883-1.475,11.8-2.189a.25.25,0,1,1,.09.492c-3.915.714-7.884,1.451-11.8,2.189A.253.253,0,0,1,627.693,873.518Zm453.219-2.346a.25.25,0,0,1-.065-.492c3.844-1.032,7.74-2.091,11.579-3.145a.25.25,0,1,1,.132.482c-3.84,1.055-7.736,2.113-11.581,3.146A.249.249,0,0,1,1080.912,871.172ZM651.3,869.212a.25.25,0,0,1-.043-.5c3.922-.691,7.9-1.379,11.826-2.046a.25.25,0,1,1,.084.493c-3.924.666-7.9,1.354-11.823,2.045A.248.248,0,0,1,651.3,869.212Zm23.66-4.019a.25.25,0,0,1-.04-.5c2.619-.429,5.289-.862,7.872-1.281l3.972-.645a.25.25,0,1,1,.08.493l-3.973.645c-2.583.419-5.253.852-7.871,1.281A.248.248,0,0,1,674.963,865.193Zm429.092-.382a.25.25,0,0,1-.068-.491c4.5-1.276,8.147-2.372,11.484-3.449a.25.25,0,0,1,.154.476c-3.343,1.078-7,2.176-11.5,3.454A.25.25,0,0,1,1104.055,864.811Zm-405.407-3.5a.25.25,0,0,1-.041-.5c4.34-.729,8.207-1.4,11.821-2.049a.25.25,0,0,1,.088.492c-3.616.65-7.485,1.32-11.827,2.05A.25.25,0,0,1,698.648,861.316Zm428.2-3.986a.25.25,0,0,1-.093-.482c3.958-1.573,7.525-3.188,10.906-4.936a.25.25,0,0,1,.23.444c-3.4,1.756-6.977,3.377-10.95,4.956A.248.248,0,0,1,1126.848,857.33Zm-404.583-.284a.25.25,0,0,1-.048-.5c4.077-.807,8.026-1.636,11.738-2.464a.25.25,0,0,1,.109.488c-3.716.828-7.669,1.658-11.75,2.466A.252.252,0,0,1,722.265,857.046Zm23.417-5.247a.25.25,0,0,1-.062-.492c3.971-1.013,7.861-2.079,11.563-3.17a.25.25,0,0,1,.141.48c-3.708,1.093-7.6,2.161-11.581,3.175A.251.251,0,0,1,745.681,851.8Zm402.378-5.583a.25.25,0,0,1-.143-.455,75.5,75.5,0,0,0,9.241-7.572.25.25,0,1,1,.347.36,75.988,75.988,0,0,1-9.3,7.623A.249.249,0,0,1,1148.059,846.215Zm-379.37-1.224a.25.25,0,0,1-.081-.487c3.844-1.317,7.626-2.717,11.241-4.161a.25.25,0,0,1,.186.464c-3.622,1.447-7.412,2.85-11.264,4.17A.249.249,0,0,1,768.689,844.991Zm22.267-8.924a.25.25,0,0,1-.106-.477c3.655-1.705,7.255-3.52,10.7-5.394a.25.25,0,0,1,.239.439c-3.453,1.879-7.062,3.7-10.727,5.408A.249.249,0,0,1,790.956,836.067Zm374.259-6.477a.25.25,0,0,1-.2-.4,87.321,87.321,0,0,0,6.379-10.113.25.25,0,1,1,.439.239,87.856,87.856,0,0,1-6.416,10.17A.25.25,0,0,1,1165.215,829.589Zm-353.2-5a.25.25,0,0,1-.134-.461c3.38-2.143,6.706-4.418,9.888-6.763a.25.25,0,0,1,.3.4c-3.191,2.352-6.527,4.634-9.917,6.783A.249.249,0,0,1,812.011,824.586ZM224.487,813.778q-1.835,0-3.659-.014a.25.25,0,0,1,0-.5h0c3.977.031,8.012.011,11.993-.058a.25.25,0,1,1,.009.5C230.065,813.754,227.27,813.778,224.487,813.778Zm-15.654-.258h-.008c-3.984-.131-8.019-.315-11.994-.547a.25.25,0,1,1,.029-.5c3.971.231,8,.415,11.981.547a.25.25,0,0,1-.008.5Zm35.991-.174a.25.25,0,0,1-.011-.5c3.974-.169,8-.391,11.975-.659a.25.25,0,0,1,.034.5c-3.977.269-8.01.491-11.988.66Zm23.943-1.618a.25.25,0,0,1-.023-.5c3.96-.367,7.973-.789,11.928-1.254a.25.25,0,0,1,.058.5c-3.958.466-7.976.889-11.94,1.256Zm562.515-1.415a.25.25,0,0,1-.165-.438c3.077-2.687,5.98-5.478,8.629-8.3a.25.25,0,0,1,.364.342c-2.66,2.831-5.575,5.634-8.664,8.331A.249.249,0,0,1,831.281,810.314ZM292.6,808.923a.25.25,0,0,1-.035-.5c3.937-.563,7.925-1.183,11.851-1.843a.25.25,0,1,1,.083.493c-3.931.661-7.922,1.281-11.863,1.844Zm884.215-.285a.25.25,0,0,1-.23-.349c1.415-3.3,2.852-6.944,4.394-11.15a.25.25,0,1,1,.469.172c-1.545,4.215-2.985,7.871-4.4,11.176A.25.25,0,0,1,1176.814,808.638Zm-636.276-2.858a75.523,75.523,0,0,1-10.211-.681.25.25,0,0,1,.068-.5,75.758,75.758,0,0,0,11.93.656.25.25,0,1,1,.011.5Q541.435,805.781,540.538,805.781Zm-224.273-.836a.25.25,0,0,1-.047-.5c3.905-.755,7.857-1.571,11.747-2.422a.25.25,0,1,1,.107.488c-3.893.853-7.85,1.669-11.759,2.425A.251.251,0,0,1,316.265,804.945Zm238-.3a.25.25,0,0,1-.04-.5,96.646,96.646,0,0,0,11.662-2.66.25.25,0,1,1,.141.48,97.149,97.149,0,0,1-11.723,2.674A.253.253,0,0,1,554.269,804.644Zm-35.591-2.209a.25.25,0,0,1-.078-.013,60.933,60.933,0,0,1-11.01-4.846.25.25,0,1,1,.246-.435,60.452,60.452,0,0,0,10.92,4.806.25.25,0,0,1-.078.488Zm-178.971-2.624a.25.25,0,0,1-.059-.493c3.864-.946,7.771-1.953,11.615-2.993a.25.25,0,0,1,.131.483c-3.847,1.042-7.759,2.049-11.627,3A.251.251,0,0,1,339.707,799.812Zm237.549-1.869a.25.25,0,0,1-.1-.481c3.518-1.468,7.169-3.174,10.849-5.072a.25.25,0,1,1,.229.444c-3.693,1.9-7.355,3.616-10.886,5.089A.248.248,0,0,1,577.256,797.943Zm-214.385-4.4a.25.25,0,0,1-.071-.49c3.813-1.132,7.668-2.328,11.456-3.553a.25.25,0,1,1,.154.476c-3.792,1.227-7.651,2.423-11.468,3.557A.25.25,0,0,1,362.872,793.542Zm484.765-.729a.25.25,0,0,1-.2-.4,91.52,91.52,0,0,0,6.5-10.037.25.25,0,1,1,.437.243,92.012,92.012,0,0,1-6.537,10.092A.25.25,0,0,1,847.637,792.813Zm-349.7-2.129a.249.249,0,0,1-.164-.061,73.4,73.4,0,0,1-8.361-8.646.25.25,0,0,1,.385-.319,72.882,72.882,0,0,0,8.3,8.588.25.25,0,0,1-.164.439Zm100.67-3.66a.25.25,0,0,1-.128-.465c3.213-1.913,6.536-3.995,10.16-6.364a.25.25,0,1,1,.274.419c-3.63,2.373-6.959,4.458-10.178,6.375A.248.248,0,0,1,598.606,787.024Zm-212.9-.867a.25.25,0,0,1-.083-.486c3.754-1.315,7.547-2.7,11.272-4.1a.25.25,0,1,1,.177.468c-3.729,1.408-7.525,2.789-11.283,4.105A.249.249,0,0,1,385.7,786.157Zm799.492,0a.25.25,0,0,1-.236-.331l.557-1.621c1.1-3.191,2.228-6.492,3.377-9.719a.25.25,0,1,1,.471.168c-1.148,3.224-2.28,6.523-3.375,9.713l-.557,1.622A.25.25,0,0,1,1185.2,786.156Zm-777.041-8.475a.25.25,0,0,1-.094-.482c3.687-1.494,7.409-3.054,11.062-4.637a.25.25,0,0,1,.2.459c-3.657,1.585-7.383,3.147-11.073,4.642A.251.251,0,0,1,408.156,777.681Zm210.574-3.727a.25.25,0,0,1-.142-.456c3.061-2.108,6.161-4.276,9.16-6.374l.687-.481a.25.25,0,1,1,.287.41l-.687.481c-3,2.1-6.1,4.267-9.163,6.376A.249.249,0,0,1,618.73,773.954Zm-136.218-1.559a.25.25,0,0,1-.209-.113c-2-3.035-4.035-6.395-6.233-10.271a.25.25,0,1,1,.435-.247c2.193,3.867,4.226,7.217,6.216,10.243a.25.25,0,0,1-.209.387Zm376.716-.51a.25.25,0,0,1-.234-.339,74.9,74.9,0,0,0,3.313-11.479.25.25,0,1,1,.49.1,75.4,75.4,0,0,1-3.335,11.556A.25.25,0,0,1,859.228,771.884ZM430.112,768a.25.25,0,0,1-.111-.474c3.622-1.8,7.182-3.688,10.583-5.624a.25.25,0,0,1,.247.435c-3.409,1.94-6.978,3.837-10.608,5.637A.249.249,0,0,1,430.112,768Zm763.255-4.407a.25.25,0,0,1-.232-.344c1.641-4.045,3.248-7.632,4.915-10.966a.25.25,0,0,1,.447.224c-1.661,3.321-3.263,6.9-4.9,10.93A.25.25,0,0,1,1193.367,763.592Zm-554.931-3.338a.25.25,0,0,1-.142-.456c1.386-.95,2.669-1.821,3.922-2.664,2-1.347,4.04-2.7,6.059-4.01a.25.25,0,0,1,.273.419c-2.017,1.313-4.053,2.66-6.053,4.005-1.252.842-2.534,1.713-3.918,2.662A.249.249,0,0,1,638.436,760.254Zm-187.493-4.145a.25.25,0,0,1-.137-.459c3.4-2.234,6.688-4.566,9.771-6.93a.25.25,0,0,1,.3.4c-3.093,2.372-6.391,4.71-9.8,6.951A.249.249,0,0,1,450.943,756.109Zm19.6-4.509a.25.25,0,0,1-.221-.133q-.633-1.193-1.262-2.385l-4.347-8.224a.25.25,0,0,1,.442-.234l4.347,8.224q.629,1.191,1.262,2.384a.25.25,0,0,1-.221.367Zm393.473-3.131h-.011a.25.25,0,0,1-.239-.26,69.376,69.376,0,0,0-.5-11.932.25.25,0,1,1,.5-.065,69.854,69.854,0,0,1,.5,12.018A.25.25,0,0,1,864.021,748.469Zm-205.468-1.3a.25.25,0,0,1-.131-.463c3.4-2.089,6.865-4.161,10.307-6.158a.25.25,0,0,1,.251.433c-3.438,1.995-6.9,4.064-10.3,6.151A.249.249,0,0,1,658.552,747.168Zm545.606-4.977a.25.25,0,0,1-.211-.383c2.109-3.352,4.424-6.667,6.881-9.854a.25.25,0,0,1,.4.305c-2.447,3.174-4.753,6.476-6.854,9.815A.25.25,0,0,1,1204.158,742.191Zm-734.215-.705a.25.25,0,0,1-.168-.435c3.017-2.744,5.864-5.593,8.463-8.467a.25.25,0,1,1,.371.335c-2.609,2.886-5.468,5.747-8.5,8.5A.249.249,0,0,1,469.943,741.486Zm209.367-6.359a.25.25,0,0,1-.12-.469c3.5-1.911,7.071-3.8,10.612-5.616a.25.25,0,1,1,.228.445c-3.537,1.813-7.1,3.7-10.6,5.61A.249.249,0,0,1,679.31,735.127Zm-219.979-4.745a.25.25,0,0,1-.221-.133L453.5,719.639a.25.25,0,0,1,.442-.234l5.607,10.609a.25.25,0,0,1-.221.367Zm401.48-5.557a.25.25,0,0,1-.236-.169,49.777,49.777,0,0,0-4.529-9.689c-.213-.348-.432-.7-.651-1.039a.25.25,0,1,1,.42-.271c.222.344.443.7.658,1.049a50.28,50.28,0,0,1,4.574,9.787.25.25,0,0,1-.236.332Zm-160.146-.645a.25.25,0,0,1-.108-.475c3.6-1.726,7.261-3.425,10.892-5.051a.25.25,0,1,1,.2.456c-3.627,1.624-7.288,3.322-10.88,5.046A.249.249,0,0,1,700.665,724.18Zm-214.7-.507a.25.25,0,0,1-.2-.4,92.316,92.316,0,0,0,6.329-10.147.25.25,0,1,1,.441.236,92.815,92.815,0,0,1-6.364,10.2A.25.25,0,0,1,485.961,723.673Zm732.811-.477a.25.25,0,0,1-.183-.42c2.654-2.873,5.517-5.728,8.51-8.485a.25.25,0,1,1,.339.368c-2.982,2.748-5.836,5.593-8.481,8.456A.249.249,0,0,1,1218.772,723.2Zm-496.2-8.823a.25.25,0,0,1-.1-.481c3.683-1.533,7.433-3.034,11.146-4.463a.25.25,0,0,1,.18.467c-3.708,1.427-7.454,2.927-11.133,4.458A.25.25,0,0,1,722.567,714.374Zm-274.451-5.21a.25.25,0,0,1-.221-.133l-5.608-10.609a.25.25,0,0,1,.442-.234l5.608,10.609a.25.25,0,0,1-.221.367Zm788.263-2.243a.25.25,0,0,1-.156-.445c3.023-2.415,6.257-4.84,9.612-7.206a.25.25,0,1,1,.288.409c-3.347,2.361-6.573,4.779-9.588,7.188A.249.249,0,0,1,1236.379,706.92Zm-491.416-1.166a.25.25,0,0,1-.083-.486c3.761-1.331,7.587-2.628,11.371-3.852a.25.25,0,0,1,.154.476c-3.781,1.223-7.6,2.518-11.359,3.848A.25.25,0,0,1,744.963,705.755Zm102.947-.875a.249.249,0,0,1-.169-.066,45.519,45.519,0,0,0-9.766-6.8.25.25,0,1,1,.23-.444,46.019,46.019,0,0,1,9.873,6.876.25.25,0,0,1-.169.434ZM497.2,702.552a.25.25,0,0,1-.235-.335,78.762,78.762,0,0,0,3.2-11.514.25.25,0,1,1,.491.1,79.247,79.247,0,0,1-3.22,11.587A.25.25,0,0,1,497.2,702.552Zm270.6-4.183a.25.25,0,0,1-.07-.49c1.71-.5,3.445-1,5.159-1.479,2.151-.6,4.316-1.163,6.433-1.666a.25.25,0,0,1,.116.487c-2.111.5-4.269,1.06-6.414,1.661-1.711.479-3.445.976-5.153,1.477A.25.25,0,0,1,767.795,698.368Zm59.1-4.574a.25.25,0,0,1-.063-.008,69.261,69.261,0,0,0-11.782-1.947.25.25,0,0,1,.041-.5,69.757,69.757,0,0,1,11.867,1.962.25.25,0,0,1-.063.492Zm429.062-.735a.25.25,0,0,1-.134-.461c3.222-2.043,6.678-4.136,10.272-6.222a.25.25,0,1,1,.251.432c-3.588,2.083-7.038,4.173-10.255,6.212A.249.249,0,0,1,1255.958,693.06Zm-464.81-.141a.25.25,0,0,1-.037-.5,119.189,119.189,0,0,1,11.957-1.233.25.25,0,0,1,.025.5,118.635,118.635,0,0,0-11.907,1.227Zm-354.241-4.976a.25.25,0,0,1-.222-.136,47.222,47.222,0,0,1-4.377-11.207.25.25,0,1,1,.489-.106,46.772,46.772,0,0,0,4.333,11.084.25.25,0,0,1-.222.365Zm839.784-6.963a.25.25,0,0,1-.119-.47c3.259-1.766,6.73-3.6,10.614-5.609a.25.25,0,0,1,.23.444c-3.881,2.006-7.35,3.84-10.605,5.6A.249.249,0,0,1,1276.691,680.98ZM501.824,679.1h-.011a.25.25,0,0,1-.239-.261c.017-.383.031-.772.042-1.156.084-2.88.02-7.106-1.493-10.54a.25.25,0,0,1,.458-.2c1.554,3.526,1.62,7.828,1.535,10.756-.011.386-.025.778-.042,1.163A.25.25,0,0,1,501.824,679.1Zm796.115-9.173a.249.249,0,0,1-.093-.018c-3.694-1.481-7.484-2.856-11.263-4.087a.25.25,0,0,1,.155-.475c3.79,1.234,7.59,2.613,11.294,4.1a.25.25,0,0,1-.093.482Zm-864.148-4.8a.25.25,0,0,1-.218-.371,12.716,12.716,0,0,1,4.138-4.465,17.554,17.554,0,0,1,5.556-2.337.25.25,0,0,1,.119.486,17.058,17.058,0,0,0-5.4,2.268A12.221,12.221,0,0,0,434.01,665,.25.25,0,0,1,433.791,665.129Zm841.344-2.63a.249.249,0,0,1-.062-.008c-3.858-.977-7.8-1.836-11.706-2.552a.25.25,0,1,1,.09-.492c3.92.718,7.87,1.579,11.739,2.559a.25.25,0,0,1-.061.492Zm-783.984-2.138a.25.25,0,0,1-.055-.006,39.836,39.836,0,0,0-6.144-.751l-5.753-.357a.25.25,0,1,1,.031-.5l5.753.357a40.268,40.268,0,0,1,6.222.763.25.25,0,0,1-.054.494Zm707.571-.246a.25.25,0,0,1-.046-.5c1.651-.314,3.329-.608,4.99-.874a.25.25,0,1,1,.079.494c-1.655.266-3.329.559-4.975.872A.254.254,0,0,1,1198.722,660.115ZM467.238,658.5h-.016l-11.977-.743a.25.25,0,0,1,.031-.5l11.977.743a.25.25,0,0,1-.015.5Zm784.307-.322-.029,0c-3.955-.452-7.973-.774-11.943-.957a.25.25,0,1,1,.023-.5c3.981.184,8.01.506,11.976.959a.25.25,0,0,1-.028.5Zm-35.936-.431a.25.25,0,0,1-.022-.5c3.969-.359,8-.586,12-.673h.006a.25.25,0,0,1,.005.5c-3.98.087-8,.313-11.962.672Z" transform="translate(-47.514 -575.817)" fill="#895cd8"/>
    <path id="Trazado_29883" data-name="Trazado 29883" d="M1549.774,1079.149c-.913,0-1.826,0-2.733-.01a.25.25,0,0,1,0-.5h0c1.913.014,3.852.014,5.764,0h0a.25.25,0,0,1,0,.5C1551.8,1079.144,1550.789,1079.149,1549.774,1079.149Zm-14.728-.294h-.01c-3.98-.159-8.014-.386-11.989-.674a.25.25,0,0,1,.036-.5c3.969.288,8,.514,11.973.673a.25.25,0,0,1-.01.5Zm-23.933-1.734h-.026c-3.963-.417-7.974-.9-11.92-1.449a.25.25,0,1,1,.068-.5c3.941.544,7.946,1.031,11.9,1.447a.25.25,0,0,1-.026.5Zm-23.77-3.282a.252.252,0,0,1-.042,0c-3.17-.543-6.376-1.136-9.528-1.761-.762-.151-1.527-.308-2.273-.465a.25.25,0,0,1,.1-.489c.744.157,1.507.313,2.267.464,3.148.625,6.349,1.217,9.515,1.759a.25.25,0,0,1-.042.5Zm-23.439-5.1a.252.252,0,0,1-.069-.01c-4.032-1.159-7.863-2.455-11.386-3.852a.25.25,0,0,1,.184-.465c3.508,1.391,7.323,2.682,11.34,3.836a.25.25,0,0,1-.069.49Zm-22.209-8.959a.249.249,0,0,1-.122-.032,65.555,65.555,0,0,1-9.937-6.779.25.25,0,1,1,.32-.384,65.066,65.066,0,0,0,9.861,6.726.25.25,0,0,1-.122.468Zm-18.126-15.447a.25.25,0,0,1-.2-.1,43.181,43.181,0,0,1-5.209-9.363c-.164-.408-.324-.826-.476-1.241a.25.25,0,0,1,.47-.172c.15.41.308.823.471,1.226a42.69,42.69,0,0,0,5.148,9.254.25.25,0,0,1-.2.4Zm-8.228-22.228a.25.25,0,0,1-.249-.227,64.813,64.813,0,0,1,.06-12.029.25.25,0,1,1,.5.045,64.332,64.332,0,0,0-.06,11.937.25.25,0,0,1-.226.272Zm-285.111-.257c-2.432,0-4.883-.032-7.329-.1a.25.25,0,0,1,.006-.5h.007c4.019.1,8.052.124,11.988.056h0a.25.25,0,0,1,0,.5Q1132.59,1021.847,1130.23,1021.847Zm16.666-.521a.25.25,0,0,1-.016-.5c4.011-.255,8.028-.608,11.941-1.051a.25.25,0,1,1,.056.5c-3.92.443-7.946.8-11.965,1.053Zm-35.974-.134h-.017c-3.936-.263-7.961-.611-11.964-1.033a.25.25,0,1,1,.052-.5c4,.422,8.016.769,11.945,1.032a.25.25,0,0,1-.017.5Zm-23.863-2.508-.036,0c-.946-.134-1.906-.275-2.855-.418-3.051-.459-6.079-.962-9-1.493a.25.25,0,0,1,.089-.492c2.916.53,5.939,1.032,8.985,1.491.948.143,1.907.283,2.851.417a.25.25,0,0,1-.035.5Zm83.674-.065a.25.25,0,0,1-.041-.5c3.96-.659,7.918-1.429,11.764-2.289a.25.25,0,1,1,.109.488c-3.855.862-7.822,1.634-11.791,2.294A.251.251,0,0,1,1170.733,1018.619Zm-107.275-4.254a.25.25,0,0,1-.056-.006c-3.98-.914-7.894-1.919-11.634-2.989a.25.25,0,1,1,.137-.481c3.732,1.067,7.637,2.071,11.609,2.982a.25.25,0,0,1-.056.494Zm130.681-.994a.25.25,0,0,1-.068-.49c1.888-.54,3.788-1.113,5.646-1.7,1.925-.612,3.866-1.265,5.769-1.94a.25.25,0,1,1,.167.471c-1.908.677-3.854,1.331-5.785,1.945-1.863.593-3.767,1.167-5.66,1.708A.252.252,0,0,1,1194.139,1013.371Zm-153.734-5.634a.249.249,0,0,1-.083-.014c-3.848-1.36-7.61-2.838-11.184-4.392a.25.25,0,0,1,.2-.458c3.563,1.55,7.315,3.023,11.151,4.379a.25.25,0,0,1-.083.486Zm176.336-2.39a.25.25,0,0,1-.1-.48c3.667-1.576,7.316-3.289,10.846-5.091a.25.25,0,0,1,.227.445c-3.54,1.807-7.2,3.525-10.876,5.105A.249.249,0,0,1,1216.741,1005.346Zm200.5-7.077a.253.253,0,0,1-.052-.005.25.25,0,0,1-.193-.3c.678-3.238,1.513-6.669,2.627-10.8q.117-.434.236-.868a.25.25,0,0,1,.482.131q-.118.434-.235.867c-1.112,4.12-1.945,7.542-2.621,10.77A.25.25,0,0,1,1417.239,998.269Zm-398.807-.133a.249.249,0,0,1-.118-.03c-3.588-1.918-7.065-3.982-10.335-6.134a.25.25,0,0,1,.275-.418c3.257,2.144,6.721,4.2,10.3,6.111a.25.25,0,0,1-.118.47Zm219.665-3.7a.25.25,0,0,1-.129-.465c3.433-2.057,6.816-4.248,10.056-6.512a.25.25,0,1,1,.286.41c-3.249,2.271-6.642,4.468-10.085,6.531A.249.249,0,0,1,1238.1,994.435Zm-239.658-9.509a.25.25,0,0,1-.158-.056,110.175,110.175,0,0,1-8.549-7.739l-.345-.35a.25.25,0,1,1,.357-.35l.343.348a109.668,109.668,0,0,0,8.51,7.7.25.25,0,0,1-.158.444Zm259.306-4.238a.25.25,0,0,1-.158-.444c3.109-2.53,6.136-5.19,9-7.907a.25.25,0,1,1,.344.363c-2.871,2.726-5.908,5.395-9.026,7.932A.249.249,0,0,1,1257.746,980.689Zm165.745-5.581a.25.25,0,0,1-.238-.327c1.311-4.081,2.631-7.783,4.036-11.317a.25.25,0,1,1,.465.185c-1.4,3.523-2.718,7.215-4.025,11.285A.25.25,0,0,1,1423.49,975.107ZM983.221,966.86a.25.25,0,0,1-.244-.2c-.742-3.36-.254-7.133,1.536-11.875a.25.25,0,0,1,.468.177c-1.754,4.647-2.235,8.33-1.515,11.59a.25.25,0,0,1-.244.3Zm291.9-2.691a.25.25,0,0,1-.186-.417c2.675-2.982,5.239-6.091,7.618-9.24a.25.25,0,0,1,.4.3c-2.388,3.16-4.96,6.279-7.645,9.272A.249.249,0,0,1,1275.122,964.169Zm157.323-11.3a.25.25,0,0,1-.222-.364,98.141,98.141,0,0,1,6.091-10.366.25.25,0,1,1,.414.28,97.66,97.66,0,0,0-6.06,10.313A.25.25,0,0,1,1432.445,952.868Zm-142.881-7.831a.25.25,0,0,1-.212-.383c.467-.746.933-1.506,1.384-2.259,1.554-2.594,3.079-5.337,4.532-8.153a.25.25,0,1,1,.444.229c-1.457,2.826-2.987,5.578-4.547,8.181-.453.756-.921,1.519-1.39,2.268A.25.25,0,0,1,1289.564,945.037Zm-299.753-.78a.25.25,0,0,1-.22-.368c1.767-3.3,3.767-6.686,6.114-10.345a.25.25,0,1,1,.421.27c-2.34,3.648-4.333,7.021-6.093,10.311A.25.25,0,0,1,989.812,944.257Zm456.149-11.129a.25.25,0,0,1-.183-.42c1.284-1.383,2.627-2.72,3.993-3.974,1.5-1.379,3.1-2.732,4.889-4.135a.25.25,0,1,1,.309.393c-1.777,1.395-3.367,2.739-4.86,4.109-1.356,1.245-2.69,2.572-3.965,3.946A.249.249,0,0,1,1445.961,933.128Zm-443.319-9.135a.25.25,0,0,1-.2-.394c1.8-2.55,3.655-5.127,5.451-7.619l1.54-2.138a.25.25,0,1,1,.406.292l-1.54,2.138c-1.8,2.491-3.652,5.067-5.448,7.615A.25.25,0,0,1,1002.642,923.993Zm297.968-.237a.25.25,0,0,1-.229-.349c1.519-3.512,2.975-7.152,4.454-11.127a.25.25,0,0,1,.469.174c-1.482,3.984-2.942,7.631-4.464,11.151A.25.25,0,0,1,1300.61,923.756Zm163.984-5.657a.25.25,0,0,1-.138-.459c2.334-1.537,4.738-3.066,7.063-4.544,1-.634,2.03-1.29,3.04-1.937a.25.25,0,1,1,.27.421c-1.011.647-2.043,1.3-3.042,1.938-2.324,1.477-4.726,3-7.057,4.539A.249.249,0,0,1,1464.594,918.1Zm20.064-13.165a.25.25,0,0,1-.146-.453,84.05,84.05,0,0,0,9.234-7.592.25.25,0,0,1,.347.36,84.555,84.555,0,0,1-9.289,7.638A.249.249,0,0,1,1484.658,904.934Zm-468.111-.5a.25.25,0,0,1-.206-.391c2.074-3.037,3.871-5.792,5.493-8.423.336-.546.673-1.1,1-1.648a.25.25,0,1,1,.43.256c-.328.55-.665,1.107-1,1.655-1.626,2.638-3.427,5.4-5.506,8.443A.25.25,0,0,1,1016.547,904.432Zm292.486-3.141a.25.25,0,0,1-.237-.329c1.131-3.414,2.287-7.046,3.638-11.43a.25.25,0,0,1,.478.147c-1.352,4.387-2.509,8.022-3.641,11.44A.25.25,0,0,1,1309.033,901.291Zm192.478-13.224a.25.25,0,0,1-.213-.381,36.93,36.93,0,0,0,4.252-9.8c.1-.383.2-.774.291-1.163a.25.25,0,0,1,.487.113c-.092.394-.191.791-.3,1.18a37.429,37.429,0,0,1-4.31,9.932A.25.25,0,0,1,1501.511,888.067Zm-472.835-4.312a.25.25,0,0,1-.226-.356,99.524,99.524,0,0,0,4.421-11.116.25.25,0,1,1,.475.155,100,100,0,0,1-4.443,11.172A.25.25,0,0,1,1028.676,883.755Zm287.484-5.381a.25.25,0,0,1-.239-.322c1.167-3.865,2.313-7.652,3.506-11.479a.25.25,0,1,1,.477.149c-1.192,3.825-2.338,7.611-3.5,11.475A.25.25,0,0,1,1316.16,878.374Zm190.822-13.27a.25.25,0,0,1-.25-.236,73.829,73.829,0,0,0-1.771-11.815.25.25,0,1,1,.488-.109,74.321,74.321,0,0,1,1.782,11.895.25.25,0,0,1-.235.264Zm-470.99-4.13a.253.253,0,0,1-.041,0,.25.25,0,0,1-.206-.287,61.46,61.46,0,0,0,.833-11.9.25.25,0,0,1,.5-.016,61.978,61.978,0,0,1-.839,12A.25.25,0,0,1,1035.992,860.974Zm287.368-5.494a.25.25,0,0,1-.237-.33c1.383-4.085,2.712-7.782,4.062-11.3a.25.25,0,1,1,.467.179c-1.348,3.513-2.675,7.2-4.055,11.283A.25.25,0,0,1,1323.36,855.48Zm178.811-13.839a.25.25,0,0,1-.24-.182c-1.079-3.831-2.191-7.712-3.306-11.533a.25.25,0,1,1,.48-.14c1.116,3.823,2.229,7.7,3.308,11.538a.25.25,0,0,1-.241.318Zm-467.109-4.46a.25.25,0,0,1-.241-.183,46.29,46.29,0,0,0-1.811-5.273,48.3,48.3,0,0,0-2.815-5.7.25.25,0,0,1,.433-.25,48.817,48.817,0,0,1,2.844,5.756,46.783,46.783,0,0,1,1.83,5.33.25.25,0,0,1-.241.317Zm296.954-4.076a.25.25,0,0,1-.228-.353c1.7-3.774,3.486-7.4,5.314-10.776a.25.25,0,1,1,.44.238c-1.822,3.366-3.6,6.981-5.3,10.744A.25.25,0,0,1,1332.017,833.106Zm163.43-14.5a.25.25,0,0,1-.239-.178c-1.152-3.81-2.338-7.669-3.526-11.468a.25.25,0,0,1,.477-.149c1.188,3.8,2.375,7.661,3.527,11.472a.25.25,0,0,1-.24.322Zm-472.075-2.142a.249.249,0,0,1-.188-.085,95.02,95.02,0,0,0-8.487-8.428.25.25,0,0,1,.331-.374,95.507,95.507,0,0,1,8.531,8.473.25.25,0,0,1-.188.415Zm320.11-4.408a.25.25,0,0,1-.208-.388c1.093-1.65,2.229-3.28,3.377-4.844,1.2-1.63,2.458-3.258,3.748-4.838a.25.25,0,0,1,.387.316c-1.285,1.574-2.54,3.195-3.732,4.818-1.144,1.558-2.276,3.181-3.364,4.824A.25.25,0,0,1,1343.482,812.052ZM1005.6,800.388a.249.249,0,0,1-.153-.053q-.522-.407-1.045-.81c-2.8-2.165-5.663-4.333-8.507-6.444a.25.25,0,0,1,.3-.4c2.846,2.113,5.711,4.283,8.514,6.45l1.046.811a.25.25,0,0,1-.154.447Zm482.688-4.691a.25.25,0,0,1-.238-.173c-1.224-3.788-2.484-7.623-3.744-11.4a.25.25,0,0,1,.474-.158c1.261,3.777,2.521,7.614,3.746,11.4a.25.25,0,0,1-.238.327Zm-129.665-2.22a.25.25,0,0,1-.178-.426c2.76-2.787,5.729-5.531,8.827-8.155a.25.25,0,1,1,.323.381c-3.087,2.615-6.046,5.349-8.8,8.126A.249.249,0,0,1,1358.62,793.476Zm-372.291-7.394a.249.249,0,0,1-.144-.046c-3.246-2.3-6.562-4.6-9.858-6.832a.25.25,0,0,1,.28-.414c3.3,2.234,6.619,4.534,9.867,6.838a.25.25,0,0,1-.145.454Zm390.557-8.13a.25.25,0,0,1-.146-.453c3.158-2.278,6.518-4.527,9.984-6.684a.25.25,0,0,1,.264.425c-3.457,2.151-6.807,4.394-9.956,6.665A.249.249,0,0,1,1376.886,777.952Zm103.8-5.02a.25.25,0,0,1-.236-.169c-1.3-3.764-2.629-7.574-3.961-11.325a.25.25,0,0,1,.471-.167c1.333,3.753,2.666,7.564,3.962,11.33a.25.25,0,0,1-.236.331Zm-514.229-.3a.249.249,0,0,1-.135-.04c-3.343-2.159-6.756-4.312-10.145-6.4a.25.25,0,1,1,.262-.426c3.392,2.088,6.808,4.243,10.154,6.4a.25.25,0,0,1-.136.46Zm430.772-7.378a.25.25,0,0,1-.12-.47c3.4-1.85,7-3.688,10.7-5.463a.25.25,0,1,1,.217.451c-3.687,1.771-7.278,3.606-10.675,5.452A.249.249,0,0,1,1397.23,765.248Zm-451.208-5.2a.249.249,0,0,1-.126-.034c-3.434-2.013-6.937-4.015-10.413-5.953a.25.25,0,0,1,.243-.437c3.479,1.939,6.986,3.943,10.423,5.958a.25.25,0,0,1-.127.466Zm472.819-5.217a.25.25,0,0,1-.1-.48c3.535-1.52,7.274-3.049,11.115-4.546a.25.25,0,0,1,.182.466c-3.835,1.494-7.569,3.022-11.1,4.539A.249.249,0,0,1,1418.841,754.829Zm53.553-4.408a.25.25,0,0,1-.224-.139,22.3,22.3,0,0,0-3.283-5.026,12.354,12.354,0,0,0-4.663-3.355.25.25,0,1,1,.186-.464,13.016,13.016,0,0,1,4.85,3.486,22.778,22.778,0,0,1,3.358,5.137.25.25,0,0,1-.224.361Zm-547.335-2.058a.249.249,0,0,1-.117-.029c-3.519-1.862-7.106-3.711-10.662-5.495a.25.25,0,0,1,.224-.447c3.559,1.786,7.15,3.636,10.672,5.5a.25.25,0,0,1-.117.471Zm516.13-2.273a.25.25,0,0,1-.084-.485c2.58-.924,5.3-1.874,8.083-2.822.964-.328,2.108-.71,3.288-1.054a.25.25,0,0,1,.14.48c-1.171.341-2.308.721-3.267,1.047-2.781.947-5.5,1.9-8.076,2.819A.249.249,0,0,1,1441.19,746.09Z" transform="translate(-93.129 -510.499)" fill="#895cd8"/>
    <path id="Trazado_29884" data-name="Trazado 29884" d="M804.611,1123.137q-.687,0-1.371,0a.25.25,0,0,1,0-.5h0c3.967.017,8-.041,11.988-.175h.008a.25.25,0,0,1,.008.5C811.711,1123.077,808.14,1123.137,804.611,1123.137Zm-13.365-.286h-.011c-3.85-.165-7.742-.406-11.567-.715l-.42-.034a.25.25,0,1,1,.041-.5l.419.034c3.819.309,7.7.549,11.548.714a.25.25,0,0,1-.01.5Zm35.976-.516a.25.25,0,0,1-.017-.5c3.953-.28,7.971-.637,11.943-1.063a.25.25,0,0,1,.053.5c-3.978.427-8,.785-11.961,1.065ZM767.33,1120.9l-.03,0c-3.836-.454-7.84-.992-11.9-1.6a.25.25,0,0,1,.074-.495c4.055.605,8.054,1.142,11.885,1.6a.25.25,0,0,1-.029.5Zm83.751-1.121a.25.25,0,0,1-.035-.5c3.92-.562,7.9-1.2,11.838-1.906a.25.25,0,0,1,.088.492c-3.94.7-7.928,1.346-11.855,1.908Zm-107.488-2.4a.262.262,0,0,1-.043,0c-3.793-.663-7.654-1.378-11.8-2.186a.25.25,0,1,1,.1-.491c4.146.807,8,1.522,11.794,2.184a.25.25,0,0,1-.043.5Zm131.109-1.816a.25.25,0,0,1-.052-.495c3.873-.827,7.8-1.734,11.686-2.7a.25.25,0,0,1,.12.485c-3.887.963-7.824,1.871-11.7,2.7A.25.25,0,0,1,874.7,1115.562Zm-154.67-2.75a.249.249,0,0,1-.052-.005c-3.55-.743-7.389-1.565-11.736-2.515a.25.25,0,1,1,.107-.488c4.345.949,8.183,1.771,11.732,2.514a.25.25,0,0,1-.051.495Zm177.962-3.019a.25.25,0,0,1-.068-.491c3.81-1.073,7.676-2.227,11.491-3.429a.25.25,0,0,1,.15.477c-3.82,1.2-7.691,2.359-11.506,3.434A.251.251,0,0,1,897.994,1109.793Zm-201.414-2.08a.253.253,0,0,1-.055-.006l-1.606-.356c-3.123-.693-6.663-1.479-10.1-2.277a.25.25,0,1,1,.113-.487c3.438.8,6.977,1.583,10.1,2.276l1.606.356a.25.25,0,0,1-.054.494Zm224.3-5.13a.25.25,0,0,1-.082-.486c3.738-1.3,7.528-2.683,11.266-4.106a.25.25,0,0,1,.178.467c-3.742,1.425-7.537,2.808-11.279,4.111A.249.249,0,0,1,920.884,1102.584Zm-247.66-.385a.253.253,0,0,1-.065-.009c-4.174-1.115-7.942-2.23-11.519-3.408a.25.25,0,1,1,.156-.475c3.568,1.175,7.327,2.287,11.492,3.4a.25.25,0,0,1-.064.492Zm-22.75-7.587a.251.251,0,0,1-.1-.02c-2.965-1.246-5.852-2.588-8.579-3.989-.754-.387-1.516-.789-2.266-1.195a.25.25,0,0,1,.238-.44c.747.4,1.506.8,2.256,1.19,2.716,1.4,5.591,2.732,8.544,3.972a.25.25,0,0,1-.1.481Zm292.836-.564a.25.25,0,0,1-.1-.481c3.659-1.512,7.368-3.1,11.022-4.73a.25.25,0,1,1,.2.457c-3.659,1.629-7.371,3.222-11.034,4.736A.248.248,0,0,1,943.31,1094.048Zm21.924-9.757a.25.25,0,0,1-.108-.476c3.574-1.705,7.194-3.49,10.759-5.3a.25.25,0,0,1,.227.446c-3.568,1.816-7.192,3.6-10.77,5.309A.248.248,0,0,1,965.233,1084.29Zm-335.844-1.062a.249.249,0,0,1-.139-.042c-3.236-2.17-6.5-4.563-9.686-7.113a.25.25,0,0,1,.312-.391c3.18,2.541,6.427,4.926,9.652,7.089a.25.25,0,0,1-.139.458Zm357.235-9.818a.25.25,0,0,1-.119-.47c3.484-1.883,7.011-3.844,10.482-5.829a.25.25,0,1,1,.248.434c-3.474,1.987-7,3.95-10.492,5.835A.249.249,0,0,1,986.624,1073.411ZM610.629,1068.3a.249.249,0,0,1-.17-.066c-2.839-2.622-5.721-5.455-8.568-8.421a.25.25,0,0,1,.361-.346c2.84,2.958,5.715,5.784,8.546,8.4a.25.25,0,0,1-.17.434Zm396.83-6.8a.25.25,0,0,1-.129-.464c3.392-2.047,6.823-4.17,10.2-6.312a.25.25,0,0,1,.268.422c-3.377,2.144-6.811,4.27-10.206,6.318A.249.249,0,0,1,1007.459,1061.5Zm-413.471-10.477a.249.249,0,0,1-.189-.086c-2.516-2.9-5.1-6-7.688-9.225a.25.25,0,0,1,.39-.313c2.581,3.221,5.163,6.32,7.676,9.21a.25.25,0,0,1-.189.414Zm433.732-2.384a.25.25,0,0,1-.139-.458c3.3-2.2,6.632-4.473,9.907-6.76a.25.25,0,0,1,.286.41c-3.279,2.289-6.615,4.566-9.917,6.766A.249.249,0,0,1,1027.72,1048.639ZM1047.4,1034.9a.25.25,0,0,1-.148-.452c3.2-2.339,6.437-4.753,9.613-7.174a.25.25,0,0,1,.3.4c-3.179,2.424-6.416,4.84-9.622,7.18A.248.248,0,0,1,1047.4,1034.9Zm-468.441-2.583a.25.25,0,0,1-.2-.1c-2.3-3.069-4.623-6.239-7.089-9.691a.25.25,0,0,1,.407-.291c2.463,3.449,4.779,6.616,7.082,9.681a.25.25,0,0,1-.2.4Zm487.529-11.962a.25.25,0,0,1-.155-.446c3.1-2.459,6.237-5,9.327-7.541a.25.25,0,0,1,.318.386c-3.092,2.547-6.232,5.086-9.334,7.547A.249.249,0,0,1,1066.485,1020.357Zm-501.5-7.553a.25.25,0,0,1-.206-.108c-2.072-3.008-4.28-6.255-6.75-9.924a.25.25,0,0,1,.415-.279c2.469,3.668,4.676,6.913,6.747,9.92a.25.25,0,0,1-.206.392Zm520.023-7.7a.25.25,0,0,1-.162-.44c3.008-2.57,6.055-5.218,9.055-7.87a.25.25,0,0,1,.331.375c-3,2.655-6.051,5.3-9.061,7.876A.249.249,0,0,1,1085.009,1005.1ZM551.565,992.907a.249.249,0,0,1-.208-.111l-2.019-3.032c-1.518-2.28-3.088-4.639-4.635-6.954a.25.25,0,0,1,.416-.278c1.547,2.316,3.117,4.674,4.636,6.955l2.019,3.032a.25.25,0,0,1-.208.389Zm551.424-3.7a.25.25,0,0,1-.169-.435c2.918-2.668,5.875-5.415,8.787-8.164a.25.25,0,0,1,.343.364c-2.914,2.751-5.873,5.5-8.793,8.169A.249.249,0,0,1,1102.989,989.2ZM538.216,972.962a.249.249,0,0,1-.207-.11c-2.446-3.607-4.668-6.841-6.794-9.889a.25.25,0,0,1,.41-.286c2.127,3.05,4.35,6.286,6.8,9.895a.25.25,0,0,1-.207.39Zm582.226-.23a.25.25,0,0,1-.174-.429c2.834-2.758,5.705-5.6,8.535-8.432a.25.25,0,0,1,.354.353c-2.832,2.839-5.7,5.677-8.54,8.437A.249.249,0,0,1,1120.442,972.732Zm16.952-16.991a.25.25,0,0,1-.179-.424c2.751-2.838,5.541-5.754,8.291-8.668a.25.25,0,1,1,.364.343c-2.751,2.916-5.542,5.834-8.3,8.673A.249.249,0,0,1,1137.394,955.742Zm-612.929-2.45a.25.25,0,0,1-.2-.1c-2.448-3.368-4.862-6.6-7.175-9.61a.25.25,0,1,1,.4-.3c2.315,3.013,4.732,6.249,7.183,9.621a.25.25,0,0,1-.2.4Zm629.4-15a.25.25,0,0,1-.184-.419c2.675-2.91,5.388-5.9,8.063-8.884a.25.25,0,1,1,.372.334c-2.677,2.986-5.391,5.977-8.068,8.889A.249.249,0,0,1,1153.864,938.289Zm-644.047-4a.25.25,0,0,1-.193-.091c-2.622-3.178-5.253-6.235-7.82-9.086a.25.25,0,0,1,.372-.335c2.572,2.856,5.207,5.918,7.834,9.1a.25.25,0,0,1-.193.409Zm-289.159-9.74a.25.25,0,0,1-.2-.4,113.466,113.466,0,0,1,7.685-9.244.25.25,0,0,1,.367.34,112.967,112.967,0,0,0-7.651,9.2A.25.25,0,0,1,220.658,924.545Zm949.228-4.128a.25.25,0,0,1-.188-.415c2.6-2.974,5.242-6.027,7.846-9.074a.25.25,0,0,1,.38.325c-2.606,3.049-5.247,6.1-7.85,9.078A.249.249,0,0,1,1169.886,920.417Zm-676.152-3.934a.249.249,0,0,1-.177-.073c-2.9-2.893-5.838-5.652-8.738-8.2a.25.25,0,0,1,.33-.376c2.908,2.554,5.856,5.32,8.761,8.221a.25.25,0,0,1-.177.427Zm-256.788-9.5a.25.25,0,0,1-.164-.439,111.547,111.547,0,0,1,9.5-7.367.25.25,0,1,1,.285.411,111.025,111.025,0,0,0-9.456,7.334A.249.249,0,0,1,236.946,906.98Zm948.534-4.8a.25.25,0,0,1-.192-.41c2.534-3.031,5.106-6.142,7.646-9.246a.25.25,0,1,1,.387.317c-2.54,3.1-5.114,6.217-7.649,9.25A.249.249,0,0,1,1185.48,902.177Zm-709.795-1.484a.249.249,0,0,1-.15-.05c-3.246-2.443-6.565-4.726-9.866-6.786a.25.25,0,0,1,.265-.424c3.313,2.068,6.644,4.359,9.9,6.811a.25.25,0,0,1-.151.45Zm-219.06-7.372a.25.25,0,0,1-.121-.469c3.438-1.891,7.07-3.668,10.8-5.282a.25.25,0,1,1,.2.459c-3.712,1.607-7.33,3.377-10.754,5.261A.248.248,0,0,1,256.625,893.321Zm198.706-5.282a.249.249,0,0,1-.111-.026c-3.523-1.748-7.214-3.359-10.97-4.79a.25.25,0,0,1,.178-.467c3.772,1.436,7.477,3.054,11.014,4.809a.25.25,0,0,1-.111.474ZM278.6,883.759a.25.25,0,0,1-.08-.487c3.687-1.241,7.564-2.386,11.523-3.4a.25.25,0,0,1,.124.484c-3.948,1.015-7.813,2.157-11.488,3.394A.248.248,0,0,1,278.6,883.759Zm922.076-.156a.25.25,0,0,1-.195-.406c2.471-3.083,4.98-6.245,7.459-9.4a.25.25,0,1,1,.393.309c-2.479,3.156-4.99,6.319-7.462,9.4A.25.25,0,0,1,1200.68,883.6ZM432.947,879.48a.251.251,0,0,1-.068-.009c-3.734-1.054-7.652-1.994-11.647-2.792a.25.25,0,0,1,.1-.49c4.008.8,7.939,1.743,11.685,2.8a.25.25,0,0,1-.068.491Zm-131.129-1.735a.25.25,0,0,1-.047-.5c3.8-.728,7.784-1.381,11.854-1.942a.25.25,0,1,1,.068.5c-4.061.56-8.04,1.212-11.828,1.938A.252.252,0,0,1,301.818,877.745Zm107.624-3.01-.033,0c-3.8-.5-7.808-.915-11.921-1.232a.25.25,0,0,1,.038-.5c4.123.318,8.143.733,11.948,1.235a.25.25,0,0,1-.032.5Zm-83.862-.3a.25.25,0,0,1-.023-.5c3.81-.359,7.839-.665,11.974-.911a.25.25,0,0,1,.03.5c-4.129.245-8.152.551-11.957.909Zm23.952-1.454a.25.25,0,0,1-.008-.5c2.506-.082,5.052-.148,7.783-.2,1.5-.029,2.876-.054,4.217-.074h0a.25.25,0,0,1,0,.5c-1.341.021-2.719.045-4.215.074-2.729.054-5.273.12-7.777.2Zm35.994-.134h-.009c-3.785-.132-7.707-.2-11.99-.222a.25.25,0,0,1,0-.5h0c4.288.018,8.215.09,12.005.222a.25.25,0,0,1-.008.5Zm829.983-8.111a.25.25,0,0,1-.2-.4c2.411-3.127,4.862-6.334,7.283-9.533a.25.25,0,0,1,.4.3c-2.423,3.2-4.874,6.408-7.286,9.537A.25.25,0,0,1,1215.51,864.733ZM1230,845.6a.25.25,0,0,1-.2-.4c2.357-3.167,4.754-6.415,7.124-9.655a.25.25,0,1,1,.4.3c-2.371,3.24-4.769,6.49-7.126,9.658A.25.25,0,0,1,1230,845.6Zm14.176-19.368a.25.25,0,0,1-.2-.4c2.306-3.2,4.653-6.485,6.977-9.761a.25.25,0,0,1,.408.289c-2.324,3.276-4.672,6.561-6.979,9.764A.249.249,0,0,1,1244.174,826.233Zm13.888-19.573a.25.25,0,0,1-.2-.393c2.26-3.232,4.563-6.547,6.844-9.855a.25.25,0,1,1,.411.284c-2.282,3.309-4.585,6.625-6.846,9.858A.25.25,0,0,1,1258.062,806.66ZM1271.69,786.9a.25.25,0,0,1-.206-.391q.916-1.346,1.83-2.693c1.726-2.543,3.445-5.088,4.9-7.242a.25.25,0,0,1,.414.28c-1.454,2.154-3.173,4.7-4.9,7.242q-.914,1.348-1.831,2.694A.25.25,0,0,1,1271.69,786.9Zm13.447-19.88a.25.25,0,0,1-.207-.39c2.6-3.84,4.748-6.992,6.758-9.918a.25.25,0,0,1,.412.283c-2.009,2.925-4.156,6.076-6.756,9.916A.25.25,0,0,1,1285.137,767.025Zm13.607-19.771a.25.25,0,0,1-.2-.394c2.453-3.48,4.742-6.67,7-9.753a.25.25,0,1,1,.4.3c-2.254,3.081-4.542,6.269-6.993,9.746A.25.25,0,0,1,1298.743,747.254Zm14.191-19.353a.25.25,0,0,1-.2-.4c2.517-3.275,5.025-6.442,7.455-9.413a.25.25,0,1,1,.387.316c-2.426,2.968-4.931,6.131-7.445,9.4A.249.249,0,0,1,1312.934,727.9Zm15.209-18.56a.25.25,0,0,1-.187-.415c2.711-3.077,5.447-6.051,8.132-8.84a.25.25,0,0,1,.36.347c-2.68,2.783-5.411,5.752-8.117,8.823A.249.249,0,0,1,1328.143,709.341Zm16.664-17.259a.25.25,0,0,1-.171-.433c2.979-2.787,6.011-5.46,9.012-7.945a.25.25,0,1,1,.319.385c-2.993,2.479-6.018,5.145-8.989,7.925A.249.249,0,0,1,1344.807,692.082Zm18.525-15.229a.25.25,0,0,1-.144-.454c3.3-2.322,6.7-4.511,10.1-6.508a.25.25,0,0,1,.253.431c-3.4,1.989-6.783,4.171-10.068,6.485A.249.249,0,0,1,1363.332,676.853Zm20.695-12.095a.25.25,0,0,1-.107-.476c3.674-1.729,7.412-3.272,11.111-4.584a.25.25,0,1,1,.167.471c-3.684,1.307-7.407,2.844-11.066,4.566A.249.249,0,0,1,1384.027,664.758Zm80.851-1.263a.249.249,0,0,1-.119-.03,75.879,75.879,0,0,0-10.916-4.861.25.25,0,1,1,.167-.471A76.391,76.391,0,0,1,1465,663.025a.25.25,0,0,1-.12.47Zm-58.259-6.707a.25.25,0,0,1-.057-.493,97.753,97.753,0,0,1,11.849-2.037.25.25,0,0,1,.054.5,97.253,97.253,0,0,0-11.788,2.027A.251.251,0,0,1,1406.619,656.788Zm35.723-1.251a.249.249,0,0,1-.045,0,79.684,79.684,0,0,0-11.885-1.252.25.25,0,0,1,.007-.5h.008a80.189,80.189,0,0,1,11.96,1.26.25.25,0,0,1-.045.5Z" transform="translate(-46.033 -575.992)" fill="#895cd8"/>
    <path id="Elipse_1789" data-name="Elipse 1789" d="M8.58-1.614A10.193,10.193,0,1,1-1.614,8.58,10.2,10.2,0,0,1,8.58-1.614Zm0,17.159A6.966,6.966,0,1,0,1.614,8.58,6.974,6.974,0,0,0,8.58,15.546Z" transform="matrix(0.987, -0.16, 0.16, 0.987, 586.566, 539.602)" fill="#bfbfbf" opacity="0.5"/>
    <g id="Grupo_26920" data-name="Grupo 26920" transform="translate(586.846 94.013)" style="isolation: isolate">
      <path id="Línea_209" data-name="Línea 209" d="M0,20.791a1.614,1.614,0,0,1-1.614-1.614V0A1.614,1.614,0,0,1,0-1.614,1.614,1.614,0,0,1,1.614,0V19.178A1.614,1.614,0,0,1,0,20.791Z" transform="translate(9.589)" fill="#fff"/>
      <path id="Línea_210" data-name="Línea 210" d="M19.178,1.614H0A1.614,1.614,0,0,1-1.614,0,1.614,1.614,0,0,1,0-1.614H19.178A1.614,1.614,0,0,1,20.791,0,1.614,1.614,0,0,1,19.178,1.614Z" transform="translate(0 9.589)" fill="#fff"/>
    </g>
    <g id="Grupo_26921" data-name="Grupo 26921" transform="translate(626.211 94.013)" style="isolation: isolate">
      <path id="Línea_211" data-name="Línea 211" d="M0,20.791a1.614,1.614,0,0,1-1.614-1.614V0A1.614,1.614,0,0,1,0-1.614,1.614,1.614,0,0,1,1.614,0V19.178A1.614,1.614,0,0,1,0,20.791Z" transform="translate(9.589)" fill="#fff"/>
      <path id="Línea_212" data-name="Línea 212" d="M19.178,1.614H0A1.614,1.614,0,0,1-1.614,0,1.614,1.614,0,0,1,0-1.614H19.178A1.614,1.614,0,0,1,20.791,0,1.614,1.614,0,0,1,19.178,1.614Z" transform="translate(0 9.589)" fill="#fff"/>
    </g>
    <g id="Grupo_26922" data-name="Grupo 26922" transform="translate(665.576 94.013)" style="isolation: isolate">
      <path id="Línea_213" data-name="Línea 213" d="M0,20.791a1.614,1.614,0,0,1-1.614-1.614V0A1.614,1.614,0,0,1,0-1.614,1.614,1.614,0,0,1,1.614,0V19.178A1.614,1.614,0,0,1,0,20.791Z" transform="translate(9.589)" fill="#fff"/>
      <path id="Línea_214" data-name="Línea 214" d="M19.178,1.614H0A1.614,1.614,0,0,1-1.614,0,1.614,1.614,0,0,1,0-1.614H19.178A1.614,1.614,0,0,1,20.791,0,1.614,1.614,0,0,1,19.178,1.614Z" transform="translate(0 9.589)" fill="#fff"/>
    </g>
  </g>
</svg>
