<svg id="Grupo_1204655" data-name="Grupo 1204655" xmlns="http://www.w3.org/2000/svg" xmlns:xlink="http://www.w3.org/1999/xlink" width="96.633" height="80.115" viewBox="0 0 96.633 80.115">
  <defs>
    <clipPath id="clip-path">
      <rect id="Rectángulo_455166" data-name="Rectángulo 455166" width="96.634" height="80.115" fill="#214539"/>
    </clipPath>
  </defs>
  <g id="Grupo_1204057" data-name="Grupo 1204057" clip-path="url(#clip-path)">
    <path id="Trazado_1261602" data-name="Trazado 1261602" d="M6.75,39.4c5.879,4.662,32.57-2.98,32.57-2.98s1.473.858,3.6,2.2l.055-.089c.219.136,13.811,8.6,28.446,17.236.9.523,1.1.622,1.835,1.081,8.345,4.906,16.861,9.76,23.292,13.074l0,.008.088.041c-2.535-4.285-10.4-11.025-18.806-17.494l-1.666-1.274C64.5,42.354,52.4,34.355,52.4,34.355l-5.341-6.931S45.29,23.628,41.5,23.7c-1.278-.353-3.75-.487-5.166-4.145s-4.269-12.592-9.9-16.724S13.952-.224,12.508,1.759s-1.477,4.911.55,9.336,9.6,17.283,14.157,17.143,14.66-.449,14.66-.449l-.7,3.343s-11.867,5.4-19.249,3-7.6-10.392-7.568-11.273-.718-1.806-1.705-.838S4.742,21.292,1.28,25.442,1.967,35.475,6.75,39.4m37.215-6.182a2.608,2.608,0,1,1,.714,3.619,2.608,2.608,0,0,1-.714-3.619M31.519,23.313c-2.511,1.988-8.152-.952-12.6-6.568S12.9,4.965,15.412,2.977s8.152.952,12.6,6.567,6.018,11.78,3.507,13.769M3.172,28.038c1.392-2.077,5.536-1.739,9.255.755s5.6,6.2,4.212,8.276-5.537,1.739-9.256-.755-5.6-6.2-4.211-8.277" transform="translate(0 0)" fill="#214539"/>
    <path id="Trazado_1261603" data-name="Trazado 1261603" d="M262.295,229.351c-7.623-4.5-14.931-8.938-20.186-12.153,6.324,6.829,11.539,12.283,15.909,16.683.694.676.479.545,1.461,1.464,10.527,10.486,15.867,14.5,20.169,17.106-3.724-8.255-11.276-17.257-14.789-21.588" transform="translate(-192.101 -172.335)" fill="#214539"/>
  </g>
</svg>
