<svg xmlns="http://www.w3.org/2000/svg" xmlns:xlink="http://www.w3.org/1999/xlink" width="84" height="84" viewBox="0 0 84 84">
  <defs>
    <clipPath id="clip-path">
      <rect id="Rectángulo_455180" data-name="Rectángulo 455180" width="52" height="47.992" fill="none" stroke="#fdf2d4" stroke-width="1"/>
    </clipPath>
  </defs>
  <g id="Grupo_1204615" data-name="Grupo 1204615" transform="translate(-989.833 -168)">
    <path id="Trazado_1261618" data-name="Trazado 1261618" d="M42,0A42,42,0,1,1,0,42,42,42,0,0,1,42,0Z" transform="translate(989.833 168)" fill="#214539"/>
    <g id="Grupo_1204088" data-name="Grupo 1204088" transform="translate(1005.832 182.05)">
      <g id="Grupo_1204087" data-name="Grupo 1204087" clip-path="url(#clip-path)">
        <path id="Trazado_1261681" data-name="Trazado 1261681" d="M46.549,38.655H45.386V26.995a3.261,3.261,0,0,0,2.9-3.237V15.393a3.261,3.261,0,0,0-2.9-3.237A2.83,2.83,0,0,0,42.56,9.394H40.968c0-.022,0-.044,0-.067V8.842a.353.353,0,0,0-.134-.277l-.6-.475V3.467l.6-.475a.353.353,0,0,0,.134-.277V2.229a.774.774,0,0,0-.773-.773H37.805V.353a.353.353,0,1,0-.706,0v1.1H34.706a.774.774,0,0,0-.773.773v.486a.354.354,0,0,0,.134.277l.6.475V8.09l-.6.475a.354.354,0,0,0-.134.277v.486c0,.022,0,.045,0,.067H14.512V8.322A1.054,1.054,0,0,0,13.46,7.269h-2.8A1.054,1.054,0,0,0,9.611,8.322V9.394H8.149a2.83,2.83,0,0,0-2.827,2.827v16.13A1.43,1.43,0,0,0,6.751,29.78h.837V32.6A1.215,1.215,0,0,0,8.8,33.812h1.367v3.061a.353.353,0,1,0,.706,0V33.812h1.367A1.215,1.215,0,0,0,13.456,32.6V29.78h.5a1.43,1.43,0,0,0,1.429-1.429v-5.7a1.837,1.837,0,0,1,1.571-.937H28.431a2.019,2.019,0,0,1,1.893,2.12V38.655H5.451A5.54,5.54,0,0,0,0,44.269v3.369a.353.353,0,0,0,.353.353H51.646A.353.353,0,0,0,52,47.638V44.269a5.54,5.54,0,0,0-5.451-5.614m-31.871-10.3a.723.723,0,0,1-.722.722h-7.2a.723.723,0,0,1-.722-.722V12.221a2.123,2.123,0,0,1,2.12-2.12H42.56a2.121,2.121,0,0,1,2.116,2.036c0,.028,0,.056,0,.085V38.59H31.031V23.835a2.723,2.723,0,0,0-2.6-2.827H16.955a2.579,2.579,0,0,0-2.234,1.379.355.355,0,0,0-.043.17ZM47.583,15.393v8.364a2.554,2.554,0,0,1-2.2,2.525V12.868a2.554,2.554,0,0,1,2.2,2.525M35.374,3.649h4.157V7.907H35.374Zm-.735-1.105V2.229a.067.067,0,0,1,.067-.067H40.2a.067.067,0,0,1,.067.067v.315l-.5.4H35.143Zm0,6.784V9.013l.5-.4h4.617l.5.4v.315a.067.067,0,0,1-.067.067H34.706a.067.067,0,0,1-.067-.067M10.318,8.322a.346.346,0,0,1,.346-.346h2.8a.346.346,0,0,1,.346.346V9.394H10.318ZM12.75,32.6a.508.508,0,0,1-.507.507H8.8a.508.508,0,0,1-.507-.507V29.78H12.75ZM51.293,47.285H.706V44.622H51.293ZM.72,43.916a4.819,4.819,0,0,1,4.731-4.554h41.1a4.819,4.819,0,0,1,4.731,4.554Z" fill="#ffedc9" stroke="#fdf2d4" stroke-width="1"/>
        <path id="Trazado_1261682" data-name="Trazado 1261682" d="M108.656,74.389a4.869,4.869,0,0,0,9.621,1.061,4.82,4.82,0,0,0,.1-.725c.008-.111.013-.223.013-.336a4.854,4.854,0,0,0-1.452-3.464,4.921,4.921,0,0,0-.706-.578,4.867,4.867,0,0,0-7.581,4.043m4.87-4.163a4.144,4.144,0,0,1,2.711,1.008,4.2,4.2,0,0,1,.706.783,4.136,4.136,0,0,1,.741,2.209c0,.054,0,.109,0,.164a4.163,4.163,0,1,1-4.163-4.163" transform="translate(-76.073 -48.672)" fill="#ffedc9" stroke="#fdf2d4" stroke-width="1"/>
        <path id="Trazado_1261683" data-name="Trazado 1261683" d="M67.374,46.664a2.289,2.289,0,1,0-2.289-2.289,2.291,2.291,0,0,0,2.289,2.289m0-3.871a1.582,1.582,0,1,1-1.582,1.582,1.584,1.584,0,0,1,1.582-1.582" transform="translate(-45.568 -29.466)" fill="#ffedc9" stroke="#fdf2d4" stroke-width="1"/>
        <path id="Trazado_1261684" data-name="Trazado 1261684" d="M87.814,46.664a2.289,2.289,0,1,0-2.289-2.289,2.291,2.291,0,0,0,2.289,2.289m0-3.871a1.582,1.582,0,1,1-1.582,1.582,1.584,1.584,0,0,1,1.582-1.582" transform="translate(-59.879 -29.466)" fill="#ffedc9" stroke="#fdf2d4" stroke-width="1"/>
        <path id="Trazado_1261685" data-name="Trazado 1261685" d="M108.255,46.664a2.289,2.289,0,1,0-2.289-2.289,2.291,2.291,0,0,0,2.289,2.289m0-3.871a1.582,1.582,0,1,1-1.582,1.582,1.584,1.584,0,0,1,1.582-1.582" transform="translate(-74.19 -29.466)" fill="#ffedc9" stroke="#fdf2d4" stroke-width="1"/>
        <path id="Trazado_1261686" data-name="Trazado 1261686" d="M119.551,82.7a2.289,2.289,0,1,0-2.289-2.289,2.291,2.291,0,0,0,2.289,2.289m0-3.871a1.582,1.582,0,1,1-1.582,1.582,1.584,1.584,0,0,1,1.582-1.582" transform="translate(-82.099 -54.698)" fill="#ffedc9" stroke="#fdf2d4" stroke-width="1"/>
      </g>
    </g>
  </g>
</svg>
