<svg xmlns="http://www.w3.org/2000/svg" width="390" height="250.986" viewBox="0 0 390 250.986">
  <g id="Grupo_1204628" data-name="Grupo 1204628" transform="translate(-605 -7924.568)">
    <path id="Trazado_842349" data-name="Trazado 842349" d="M2004-4313.333h364l13.333-129.333-48-92H2038.667l-45.333,92Z" transform="translate(-1387.333 12480)" fill="#f9e2bf"/>
    <path id="Trazado_842352" data-name="Trazado 842352" d="M222.369,0H0" transform="translate(798 8166.667) rotate(-90)" fill="none" stroke="#f12261" stroke-width="4"/>
    <path id="Trazado_842350" data-name="Trazado 842350" d="M388,0H0" transform="translate(994 8038.798) rotate(180)" fill="none" stroke="#18639b" stroke-width="2"/>
    <path id="Trazado_842354" data-name="Trazado 842354" d="M17.775,0H0" transform="translate(649.667 7936) rotate(90)" fill="none" stroke="#18639b" stroke-width="2"/>
    <path id="Trazado_842355" data-name="Trazado 842355" d="M17.775,0H0" transform="translate(946.333 7936) rotate(90)" fill="none" stroke="#18639b" stroke-width="2"/>
    <path id="Trazado_842358" data-name="Trazado 842358" d="M17.775,0H0" transform="translate(981.667 8157.779) rotate(90)" fill="none" stroke="#18639b" stroke-width="2"/>
    <path id="Trazado_842359" data-name="Trazado 842359" d="M17.775,0H0" transform="translate(616.667 8157.779) rotate(90)" fill="none" stroke="#18639b" stroke-width="2"/>
    <path id="Trazado_842356" data-name="Trazado 842356" d="M17.775,0H0" transform="translate(994 8029.91) rotate(90)" fill="none" stroke="#18639b" stroke-width="2"/>
    <path id="Trazado_842357" data-name="Trazado 842357" d="M17.775,0H0" transform="translate(606 8029.91) rotate(90)" fill="none" stroke="#18639b" stroke-width="2"/>
    <path id="Trazado_842353" data-name="Trazado 842353" d="M365,0H0" transform="translate(981.667 8166.667) rotate(180)" fill="none" stroke="#18639b" stroke-width="2"/>
    <path id="Trazado_842351" data-name="Trazado 842351" d="M297.667,0H0" transform="translate(947.333 7945.333) rotate(180)" fill="none" stroke="#18639b" stroke-width="2"/>
    <g id="Grupo_1078994" data-name="Grupo 1078994" transform="translate(-3565.753 5386.564) rotate(90)">
      <path id="Trazado_841844" data-name="Trazado 841844" d="M148.218,233.7l.715-.768-2.846-2.645h84.855v-1.748H146.086l2.847-2.646-.715-.768-4.612,4.287Z" transform="translate(2418.604 -4620.031)" fill="#214539"/>
    </g>
    <g id="Grupo_1078995" data-name="Grupo 1078995" transform="translate(-3565.753 5499.564) rotate(90)">
      <path id="Trazado_841844-2" data-name="Trazado 841844" d="M148.218,233.7l.715-.768-2.846-2.645h84.855v-1.748H146.086l2.847-2.646-.715-.768-4.612,4.287Z" transform="translate(2418.604 -4620.031)" fill="#214539"/>
    </g>
    <path id="Trazado_1261951" data-name="Trazado 1261951" d="M2.828-1.227H8.219V0H1.32V-11.375H2.828ZM14.922,0a3.036,3.036,0,0,1-.2-.891A3.225,3.225,0,0,1,12.313.156a2.984,2.984,0,0,1-2.051-.707,2.287,2.287,0,0,1-.8-1.793,2.39,2.39,0,0,1,1-2.051,4.733,4.733,0,0,1,2.824-.73H14.7v-.664A1.623,1.623,0,0,0,14.242-7a1.821,1.821,0,0,0-1.336-.449,2.107,2.107,0,0,0-1.3.391,1.151,1.151,0,0,0-.523.945H9.633a2,2,0,0,1,.449-1.223A3.066,3.066,0,0,1,11.3-8.266a4.1,4.1,0,0,1,1.691-.344,3.342,3.342,0,0,1,2.289.73,2.635,2.635,0,0,1,.859,2.012v3.891a4.757,4.757,0,0,0,.3,1.852V0Zm-2.4-1.1a2.54,2.54,0,0,0,1.289-.352,2.127,2.127,0,0,0,.883-.914V-4.1H13.563q-2.656,0-2.656,1.555a1.316,1.316,0,0,0,.453,1.063A1.742,1.742,0,0,0,12.523-1.1Zm9.969-6.055a4.331,4.331,0,0,0-.711-.055A1.9,1.9,0,0,0,19.852-6V0H18.406V-8.453h1.406l.023.977a2.251,2.251,0,0,1,2.016-1.133,1.477,1.477,0,0,1,.641.109ZM23.477-4.3a4.968,4.968,0,0,1,.914-3.145,2.923,2.923,0,0,1,2.422-1.168,2.908,2.908,0,0,1,2.414,1.094l.07-.937h1.32V-.2a3.439,3.439,0,0,1-.973,2.586,3.589,3.589,0,0,1-2.613.945,4.348,4.348,0,0,1-1.789-.391,3.08,3.08,0,0,1-1.336-1.07L24.656,1A2.826,2.826,0,0,0,26.93,2.148a2.214,2.214,0,0,0,1.645-.594,2.269,2.269,0,0,0,.59-1.672V-.844a2.971,2.971,0,0,1-2.367,1,2.887,2.887,0,0,1-2.4-1.2A5.224,5.224,0,0,1,23.477-4.3Zm1.453.164a3.79,3.79,0,0,0,.586,2.246,1.9,1.9,0,0,0,1.641.816,2.117,2.117,0,0,0,2.008-1.242V-6.172a2.142,2.142,0,0,0-1.992-1.211,1.921,1.921,0,0,0-1.648.82A4.128,4.128,0,0,0,24.93-4.133ZM32.414-4.3A4.993,4.993,0,0,1,32.9-6.539,3.643,3.643,0,0,1,34.262-8.07a3.7,3.7,0,0,1,1.988-.539,3.565,3.565,0,0,1,2.793,1.2,4.6,4.6,0,0,1,1.066,3.18v.1a5.036,5.036,0,0,1-.473,2.215A3.589,3.589,0,0,1,38.285-.391a3.743,3.743,0,0,1-2.02.547,3.556,3.556,0,0,1-2.785-1.2A4.575,4.575,0,0,1,32.414-4.2Zm1.453.172a3.616,3.616,0,0,0,.652,2.258,2.088,2.088,0,0,0,1.746.852,2.075,2.075,0,0,0,1.75-.863A3.955,3.955,0,0,0,38.664-4.3,3.61,3.61,0,0,0,38-6.559a2.1,2.1,0,0,0-1.754-.863,2.075,2.075,0,0,0-1.727.852A3.925,3.925,0,0,0,33.867-4.133Zm19.789-6.016H50V0H48.508V-10.148H44.859v-1.227h8.8Z" transform="translate(787.167 8068.298) rotate(-90)" fill="#12263f"/>
    <path id="Trazado_1261952" data-name="Trazado 1261952" d="M2.828-1.227H8.219V0H1.32V-11.375H2.828ZM14.922,0a3.036,3.036,0,0,1-.2-.891A3.225,3.225,0,0,1,12.313.156a2.984,2.984,0,0,1-2.051-.707,2.287,2.287,0,0,1-.8-1.793,2.39,2.39,0,0,1,1-2.051,4.733,4.733,0,0,1,2.824-.73H14.7v-.664A1.623,1.623,0,0,0,14.242-7a1.821,1.821,0,0,0-1.336-.449,2.107,2.107,0,0,0-1.3.391,1.151,1.151,0,0,0-.523.945H9.633a2,2,0,0,1,.449-1.223A3.066,3.066,0,0,1,11.3-8.266a4.1,4.1,0,0,1,1.691-.344,3.342,3.342,0,0,1,2.289.73,2.635,2.635,0,0,1,.859,2.012v3.891a4.757,4.757,0,0,0,.3,1.852V0Zm-2.4-1.1a2.54,2.54,0,0,0,1.289-.352,2.127,2.127,0,0,0,.883-.914V-4.1H13.563q-2.656,0-2.656,1.555a1.316,1.316,0,0,0,.453,1.063A1.742,1.742,0,0,0,12.523-1.1Zm9.969-6.055a4.331,4.331,0,0,0-.711-.055A1.9,1.9,0,0,0,19.852-6V0H18.406V-8.453h1.406l.023.977a2.251,2.251,0,0,1,2.016-1.133,1.477,1.477,0,0,1,.641.109ZM23.477-4.3a4.968,4.968,0,0,1,.914-3.145,2.923,2.923,0,0,1,2.422-1.168,2.908,2.908,0,0,1,2.414,1.094l.07-.937h1.32V-.2a3.439,3.439,0,0,1-.973,2.586,3.589,3.589,0,0,1-2.613.945,4.348,4.348,0,0,1-1.789-.391,3.08,3.08,0,0,1-1.336-1.07L24.656,1A2.826,2.826,0,0,0,26.93,2.148a2.214,2.214,0,0,0,1.645-.594,2.269,2.269,0,0,0,.59-1.672V-.844a2.971,2.971,0,0,1-2.367,1,2.887,2.887,0,0,1-2.4-1.2A5.224,5.224,0,0,1,23.477-4.3Zm1.453.164a3.79,3.79,0,0,0,.586,2.246,1.9,1.9,0,0,0,1.641.816,2.117,2.117,0,0,0,2.008-1.242V-6.172a2.142,2.142,0,0,0-1.992-1.211,1.921,1.921,0,0,0-1.648.82A4.128,4.128,0,0,0,24.93-4.133ZM32.414-4.3A4.993,4.993,0,0,1,32.9-6.539,3.643,3.643,0,0,1,34.262-8.07a3.7,3.7,0,0,1,1.988-.539,3.565,3.565,0,0,1,2.793,1.2,4.6,4.6,0,0,1,1.066,3.18v.1a5.036,5.036,0,0,1-.473,2.215A3.589,3.589,0,0,1,38.285-.391a3.743,3.743,0,0,1-2.02.547,3.556,3.556,0,0,1-2.785-1.2A4.575,4.575,0,0,1,32.414-4.2Zm1.453.172a3.616,3.616,0,0,0,.652,2.258,2.088,2.088,0,0,0,1.746.852,2.075,2.075,0,0,0,1.75-.863A3.955,3.955,0,0,0,38.664-4.3,3.61,3.61,0,0,0,38-6.559a2.1,2.1,0,0,0-1.754-.863,2.075,2.075,0,0,0-1.727.852A3.925,3.925,0,0,0,33.867-4.133ZM50.484,0H49.031V-9.633l-2.914,1.07V-9.875l4.141-1.555h.227Z" transform="translate(815 8019.443) rotate(-90)" fill="#12263f"/>
    <path id="Trazado_1261953" data-name="Trazado 1261953" d="M-4.074-2.977H-8.84L-9.91,0h-1.547l4.344-11.375H-5.8L-1.449,0H-2.988ZM-8.387-4.2H-4.52l-1.937-5.32ZM-.113-.758a.905.905,0,0,1,.223-.625.848.848,0,0,1,.668-.25.874.874,0,0,1,.676.25.887.887,0,0,1,.23.625.839.839,0,0,1-.23.6A.89.89,0,0,1,.777.086.863.863,0,0,1,.109-.156.855.855,0,0,1-.113-.758ZM9.285,0a3.036,3.036,0,0,1-.2-.891A3.225,3.225,0,0,1,6.676.156,2.984,2.984,0,0,1,4.625-.551a2.287,2.287,0,0,1-.8-1.793,2.39,2.39,0,0,1,1-2.051,4.733,4.733,0,0,1,2.824-.73H9.059v-.664A1.623,1.623,0,0,0,8.605-7,1.821,1.821,0,0,0,7.27-7.445a2.107,2.107,0,0,0-1.3.391,1.151,1.151,0,0,0-.523.945H4a2,2,0,0,1,.449-1.223,3.066,3.066,0,0,1,1.219-.934,4.1,4.1,0,0,1,1.691-.344,3.342,3.342,0,0,1,2.289.73A2.635,2.635,0,0,1,10.5-5.867v3.891a4.757,4.757,0,0,0,.3,1.852V0Zm-2.4-1.1a2.54,2.54,0,0,0,1.289-.352,2.127,2.127,0,0,0,.883-.914V-4.1H7.926Q5.27-4.1,5.27-2.547a1.316,1.316,0,0,0,.453,1.063A1.742,1.742,0,0,0,6.887-1.1Z" transform="translate(873.5 7935.943)" fill="#12263f"/>
    <path id="Trazado_1261954" data-name="Trazado 1261954" d="M-4.211-2.977H-8.977L-10.047,0h-1.547L-7.25-11.375h1.313L-1.586,0H-3.125ZM-8.523-4.2h3.867l-1.937-5.32ZM-.25-.758a.905.905,0,0,1,.223-.625.848.848,0,0,1,.668-.25.874.874,0,0,1,.676.25.887.887,0,0,1,.23.625.839.839,0,0,1-.23.6A.89.89,0,0,1,.641.086.863.863,0,0,1-.027-.156.855.855,0,0,1-.25-.758ZM11.086-4.133A5.026,5.026,0,0,1,10.2-1.02,2.846,2.846,0,0,1,7.8.156,2.947,2.947,0,0,1,5.328-.977L5.258,0H3.93V-12H5.375v4.477A2.93,2.93,0,0,1,7.789-8.609a2.863,2.863,0,0,1,2.418,1.164,5.177,5.177,0,0,1,.879,3.188ZM9.641-4.3a3.906,3.906,0,0,0-.57-2.281,1.888,1.888,0,0,0-1.641-.8A2.122,2.122,0,0,0,5.375-6.055V-2.4A2.181,2.181,0,0,0,7.445-1.07a1.878,1.878,0,0,0,1.617-.8A4.153,4.153,0,0,0,9.641-4.3Z" transform="translate(873.5 8031.298)" fill="#12263f"/>
    <path id="Trazado_1261955" data-name="Trazado 1261955" d="M-6.056-18.484-.013-3.4,6.03-18.484H9.191V0H6.754V-7.2l.229-7.77L.914,0H-.952L-7.008-14.93-6.767-7.2V0H-9.2V-18.484Z" transform="translate(691.667 8083)" fill="#12263f"/>
    <path id="Trazado_1261956" data-name="Trazado 1261956" d="M-3.91-2.977H-8.676L-9.746,0h-1.547l4.344-11.375h1.313L-1.285,0H-2.824ZM-8.223-4.2h3.867l-1.937-5.32ZM.051-.758a.905.905,0,0,1,.223-.625.848.848,0,0,1,.668-.25.874.874,0,0,1,.676.25.887.887,0,0,1,.23.625.839.839,0,0,1-.23.6A.89.89,0,0,1,.941.086.863.863,0,0,1,.273-.156.855.855,0,0,1,.051-.758Zm7.57-.266a2.082,2.082,0,0,0,1.352-.469,1.649,1.649,0,0,0,.641-1.172H10.98a2.621,2.621,0,0,1-.5,1.383A3.293,3.293,0,0,1,9.25-.234,3.55,3.55,0,0,1,7.621.156,3.482,3.482,0,0,1,4.875-1a4.59,4.59,0,0,1-1.02-3.152v-.242a5.089,5.089,0,0,1,.453-2.2,3.451,3.451,0,0,1,1.3-1.492,3.7,3.7,0,0,1,2-.531,3.39,3.39,0,0,1,2.363.852,3.043,3.043,0,0,1,1,2.211H9.613a1.992,1.992,0,0,0-.621-1.348,1.932,1.932,0,0,0-1.379-.527,2.023,2.023,0,0,0-1.707.793A3.724,3.724,0,0,0,5.3-4.336v.273a3.65,3.65,0,0,0,.6,2.25A2.033,2.033,0,0,0,7.621-1.023Z" transform="translate(873.5 8160.298)" fill="#12263f"/>
    <path id="Trazado_1261957" data-name="Trazado 1261957" d="M2.828-1.227H8.219V0H1.32V-11.375H2.828ZM14.922,0a3.036,3.036,0,0,1-.2-.891A3.225,3.225,0,0,1,12.313.156a2.984,2.984,0,0,1-2.051-.707,2.287,2.287,0,0,1-.8-1.793,2.39,2.39,0,0,1,1-2.051,4.733,4.733,0,0,1,2.824-.73H14.7v-.664A1.623,1.623,0,0,0,14.242-7a1.821,1.821,0,0,0-1.336-.449,2.107,2.107,0,0,0-1.3.391,1.151,1.151,0,0,0-.523.945H9.633a2,2,0,0,1,.449-1.223A3.066,3.066,0,0,1,11.3-8.266a4.1,4.1,0,0,1,1.691-.344,3.342,3.342,0,0,1,2.289.73,2.635,2.635,0,0,1,.859,2.012v3.891a4.757,4.757,0,0,0,.3,1.852V0Zm-2.4-1.1a2.54,2.54,0,0,0,1.289-.352,2.127,2.127,0,0,0,.883-.914V-4.1H13.563q-2.656,0-2.656,1.555a1.316,1.316,0,0,0,.453,1.063A1.742,1.742,0,0,0,12.523-1.1Zm9.969-6.055a4.331,4.331,0,0,0-.711-.055A1.9,1.9,0,0,0,19.852-6V0H18.406V-8.453h1.406l.023.977a2.251,2.251,0,0,1,2.016-1.133,1.477,1.477,0,0,1,.641.109ZM23.477-4.3a4.968,4.968,0,0,1,.914-3.145,2.923,2.923,0,0,1,2.422-1.168,2.908,2.908,0,0,1,2.414,1.094l.07-.937h1.32V-.2a3.439,3.439,0,0,1-.973,2.586,3.589,3.589,0,0,1-2.613.945,4.348,4.348,0,0,1-1.789-.391,3.08,3.08,0,0,1-1.336-1.07L24.656,1A2.826,2.826,0,0,0,26.93,2.148a2.214,2.214,0,0,0,1.645-.594,2.269,2.269,0,0,0,.59-1.672V-.844a2.971,2.971,0,0,1-2.367,1,2.887,2.887,0,0,1-2.4-1.2A5.224,5.224,0,0,1,23.477-4.3Zm1.453.164a3.79,3.79,0,0,0,.586,2.246,1.9,1.9,0,0,0,1.641.816,2.117,2.117,0,0,0,2.008-1.242V-6.172a2.142,2.142,0,0,0-1.992-1.211,1.921,1.921,0,0,0-1.648.82A4.128,4.128,0,0,0,24.93-4.133ZM32.414-4.3A4.993,4.993,0,0,1,32.9-6.539,3.643,3.643,0,0,1,34.262-8.07a3.7,3.7,0,0,1,1.988-.539,3.565,3.565,0,0,1,2.793,1.2,4.6,4.6,0,0,1,1.066,3.18v.1a5.036,5.036,0,0,1-.473,2.215A3.589,3.589,0,0,1,38.285-.391a3.743,3.743,0,0,1-2.02.547,3.556,3.556,0,0,1-2.785-1.2A4.575,4.575,0,0,1,32.414-4.2Zm1.453.172a3.616,3.616,0,0,0,.652,2.258,2.088,2.088,0,0,0,1.746.852,2.075,2.075,0,0,0,1.75-.863A3.955,3.955,0,0,0,38.664-4.3,3.61,3.61,0,0,0,38-6.559a2.1,2.1,0,0,0-1.754-.863,2.075,2.075,0,0,0-1.727.852A3.925,3.925,0,0,0,33.867-4.133ZM53.188,0H45.734V-1.039l3.938-4.375a9.355,9.355,0,0,0,1.207-1.613,2.693,2.693,0,0,0,.332-1.285,2.041,2.041,0,0,0-.539-1.461,1.885,1.885,0,0,0-1.437-.57,2.232,2.232,0,0,0-1.676.613,2.343,2.343,0,0,0-.6,1.707H45.516a3.355,3.355,0,0,1,1.012-2.539,3.751,3.751,0,0,1,2.707-.969,3.6,3.6,0,0,1,2.508.832,2.838,2.838,0,0,1,.922,2.215q0,1.68-2.141,4l-3.047,3.3h5.711Z" transform="translate(815 8133.37) rotate(-90)" fill="#12263f"/>
  </g>
</svg>
