<svg xmlns="http://www.w3.org/2000/svg" width="276.111" height="276.112" viewBox="0 0 276.111 276.112">
  <g id="Grupo_1204618" data-name="Grupo 1204618" transform="translate(-285 -994.923)">
    <path id="Trazado_24911" data-name="Trazado 24911" d="M-463.7,1516.627a76.757,76.757,0,0,1,31.254-9.262c45.7-3.2,76.518,33.257,92.511,71.781,8.691,20.93,15.851,45.118,9.193,67.629-2.19,7.408-6.934,16.612-14.529,19.571-5.673,2.21-12.139.486-17.589-2.229-33.514-16.7-66.8-26.2-104-31.289-12.391-1.693-25.424-5.583-33.194-15.382-4.676-5.9-6.953-13.409-7.721-20.9C-511.141,1563.792-491.9,1531.94-463.7,1516.627Z" transform="translate(852.256 -444.341)" fill="#5ec6a3" opacity="0.44"/>
    <g id="Grupo_15867" data-name="Grupo 15867" transform="translate(429.167 1017.035)">
      <g id="Grupo_15862" data-name="Grupo 15862" transform="translate(2.409 0.76)">
        <rect id="Rectángulo_3856" data-name="Rectángulo 3856" width="5.07" height="252.48" fill="#214539"/>
      </g>
      <g id="Grupo_15864" data-name="Grupo 15864">
        <g id="Grupo_15863" data-name="Grupo 15863">
          <rect id="Rectángulo_3857" data-name="Rectángulo 3857" width="9.887" height="1.521" fill="#214539"/>
        </g>
      </g>
      <g id="Grupo_15866" data-name="Grupo 15866" transform="translate(0 252.479)">
        <g id="Grupo_15865" data-name="Grupo 15865">
          <rect id="Rectángulo_3858" data-name="Rectángulo 3858" width="9.887" height="1.521" fill="#214539"/>
        </g>
      </g>
    </g>
    <g id="Grupo_15873" data-name="Grupo 15873" transform="translate(307.111 1139.092)">
      <g id="Grupo_15868" data-name="Grupo 15868" transform="translate(0.761 2.408)">
        <rect id="Rectángulo_3859" data-name="Rectángulo 3859" width="252.479" height="5.07" fill="#214539"/>
      </g>
      <g id="Grupo_15870" data-name="Grupo 15870" transform="translate(252.479)">
        <g id="Grupo_15869" data-name="Grupo 15869">
          <rect id="Rectángulo_3860" data-name="Rectángulo 3860" width="1.521" height="9.887" fill="#214539"/>
        </g>
      </g>
      <g id="Grupo_15872" data-name="Grupo 15872">
        <g id="Grupo_15871" data-name="Grupo 15871">
          <rect id="Rectángulo_3861" data-name="Rectángulo 3861" width="1.521" height="9.887" fill="#214539"/>
        </g>
      </g>
    </g>
    <path id="Trazado_24912" data-name="Trazado 24912" d="M-440.049,1582.956a10.774,10.774,0,0,1-4.274-14.625,10.774,10.774,0,0,1,14.624-4.274,10.775,10.775,0,0,1,4.274,14.625A10.775,10.775,0,0,1-440.049,1582.956Z" transform="translate(868.984 -429.471)" fill="#fade93"/>
    <path id="Trazado_24915" data-name="Trazado 24915" d="M-434.157,1604.231a22.107,22.107,0,0,1-8.771-30.009,22.108,22.108,0,0,1,30.008-8.771,22.109,22.109,0,0,1,8.771,30.009A22.11,22.11,0,0,1-434.157,1604.231Z" transform="translate(730.649 -401.696)" fill="#fea772"/>
    <path id="Trazado_1261836" data-name="Trazado 1261836" d="M18.771,22H15.03l-2.412-4.561a4,4,0,0,1-.283-.937H12.3a7.1,7.1,0,0,1-.322.977L9.552,22H5.792l4.463-7L6.173,8h3.838l2,4.2a7.256,7.256,0,0,1,.42,1.182h.039q.117-.41.439-1.221L15.138,8h3.516l-4.2,6.943Z" transform="translate(294.611 1168.645)" fill="#12263f"/>
    <path id="Trazado_24916" data-name="Trazado 24916" d="M-434.157,1604.231a22.107,22.107,0,0,1-8.771-30.009,22.108,22.108,0,0,1,30.008-8.771,22.109,22.109,0,0,1,8.771,30.009A22.11,22.11,0,0,1-434.157,1604.231Z" transform="translate(892.108 -567.808)" fill="#fea772"/>
    <path id="Trazado_1261837" data-name="Trazado 1261837" d="M18.375,8,13.814,17.02V22H10.66V17.078L6.217,8h3.6l2.256,5.225q.059.146.322,1.143h.039a5.088,5.088,0,0,1,.3-1.1L15.035,8Z" transform="translate(456.07 1004.533)" fill="#12263f"/>
    <path id="Trazado_24917" data-name="Trazado 24917" d="M-434.157,1604.231a22.107,22.107,0,0,1-8.771-30.009,22.108,22.108,0,0,1,30.008-8.771,22.109,22.109,0,0,1,8.771,30.009A22.11,22.11,0,0,1-434.157,1604.231Z" transform="translate(892.108 -410.417)" fill="#fea772"/>
    <path id="Trazado_1261838" data-name="Trazado 1261838" d="M12.208,22.244q-5,0-5-7.021A9.554,9.554,0,0,1,8.561,9.671a4.506,4.506,0,0,1,3.921-1.909q4.883,0,4.883,7.139a9.407,9.407,0,0,1-1.333,5.449A4.391,4.391,0,0,1,12.208,22.244Zm.137-12.129q-2,0-2,5.029,0,4.736,1.963,4.736,1.914,0,1.914-4.883T12.345,10.115Z" transform="translate(456.07 1159.924)" fill="#12263f"/>
  </g>
</svg>
