<svg xmlns="http://www.w3.org/2000/svg" xmlns:xlink="http://www.w3.org/1999/xlink" width="481" height="415.14" viewBox="0 0 481 415.14">
  <defs>
    <clipPath id="clip-path">
      <rect id="Rectángulo_381278" data-name="Rectángulo 381278" width="481" height="415.14" fill="#e8e8e8" stroke="#707070" stroke-width="1"/>
    </clipPath>
  </defs>
  <g id="Grupo_1204628" data-name="Grupo 1204628" transform="translate(-204.25 -6955.955)">
    <g id="Grupo_1204627" data-name="Grupo 1204627">
      <g id="Grupo_1204626" data-name="Grupo 1204626">
        <g id="Grupo_1204625" data-name="Grupo 1204625">
          <g id="Grupo_1204624" data-name="Grupo 1204624">
            <g id="Enmascarar_grupo_700370" data-name="Enmascarar grupo 700370" transform="translate(204.25 6955.955)" clip-path="url(#clip-path)">
              <rect id="high-angle-pink-thread-rolls-with-ribbon-textile" width="641.632" height="427.755" transform="translate(-74.165 -12.614)" fill="#e8e8e8"/>
            </g>
            <rect id="Rectángulo_381281" data-name="Rectángulo 381281" width="168" height="331" transform="translate(441.25 7000.093)" fill="#214539"/>
            <line id="Línea_897" data-name="Línea 897" y2="394" transform="translate(441.75 6965.593)" fill="none" stroke="#fea772" stroke-width="4" stroke-dasharray="12"/>
            <line id="Línea_898" data-name="Línea 898" x1="421" transform="translate(230.75 7165.593)" fill="none" stroke="#fea772" stroke-width="4" stroke-dasharray="12"/>
            <path id="Trazado_1261949" data-name="Trazado 1261949" d="M8.078-4.852a6.61,6.61,0,0,1-.867,3.773A3.084,3.084,0,0,1,4.5.156,3.107,3.107,0,0,1,1.8-1.051,6.274,6.274,0,0,1,.9-4.656v-1.93a6.463,6.463,0,0,1,.867-3.727,3.108,3.108,0,0,1,2.719-1.219,3.136,3.136,0,0,1,2.7,1.176,6.237,6.237,0,0,1,.891,3.629ZM6.633-6.828A5.3,5.3,0,0,0,6.117-9.5a1.775,1.775,0,0,0-1.633-.84,1.751,1.751,0,0,0-1.617.836,5.171,5.171,0,0,0-.523,2.57v2.313A5.381,5.381,0,0,0,2.879-1.9,1.771,1.771,0,0,0,4.5-1.023a1.747,1.747,0,0,0,1.59-.828,5.186,5.186,0,0,0,.543-2.609Z" transform="translate(449.25 7133.826)" fill="#fff"/>
            <path id="Trazado_1261950" data-name="Trazado 1261950" d="M8.078-4.852a6.61,6.61,0,0,1-.867,3.773A3.084,3.084,0,0,1,4.5.156,3.107,3.107,0,0,1,1.8-1.051,6.274,6.274,0,0,1,.9-4.656v-1.93a6.463,6.463,0,0,1,.867-3.727,3.108,3.108,0,0,1,2.719-1.219,3.136,3.136,0,0,1,2.7,1.176,6.237,6.237,0,0,1,.891,3.629ZM6.633-6.828A5.3,5.3,0,0,0,6.117-9.5a1.775,1.775,0,0,0-1.633-.84,1.751,1.751,0,0,0-1.617.836,5.171,5.171,0,0,0-.523,2.57v2.313A5.381,5.381,0,0,0,2.879-1.9,1.771,1.771,0,0,0,4.5-1.023a1.747,1.747,0,0,0,1.59-.828,5.186,5.186,0,0,0,.543-2.609Z" transform="translate(449.25 7162.826)" fill="#fff"/>
            <path id="Trazado_1261948" data-name="Trazado 1261948" d="M8.078-4.852a6.61,6.61,0,0,1-.867,3.773A3.084,3.084,0,0,1,4.5.156,3.107,3.107,0,0,1,1.8-1.051,6.274,6.274,0,0,1,.9-4.656v-1.93a6.463,6.463,0,0,1,.867-3.727,3.108,3.108,0,0,1,2.719-1.219,3.136,3.136,0,0,1,2.7,1.176,6.237,6.237,0,0,1,.891,3.629ZM6.633-6.828A5.3,5.3,0,0,0,6.117-9.5a1.775,1.775,0,0,0-1.633-.84,1.751,1.751,0,0,0-1.617.836,5.171,5.171,0,0,0-.523,2.57v2.313A5.381,5.381,0,0,0,2.879-1.9,1.771,1.771,0,0,0,4.5-1.023a1.747,1.747,0,0,0,1.59-.828,5.186,5.186,0,0,0,.543-2.609Z" transform="translate(461.25 7147.826)" fill="#fff"/>
          </g>
        </g>
      </g>
    </g>
  </g>
</svg>
